M48
;Layer_Color=9474304
;FILE_FORMAT=2:4
INCH,LZ
;TYPE=PLATED
T1F00S00C0.0138
T2F00S00C0.0350
%
T01
X004Y002
Y005394
X005Y0046
X006
X0071Y004
X0084Y0034
X0102Y003
X0111Y0035
X0121Y0051
X01Y0054
X0097Y001
X0115
X0131Y0027
X0064Y0024
X0063Y008806
X007Y0111
X008Y011
X0095
X013Y0111
X012494Y008706
Y008306
X0107Y0076
X0092Y0069
Y0066
X0087Y0082
X0084Y0136
X0082Y0155
X0093Y016
X0111
X0116Y0144
X0131Y0154
X0064Y0146
X0055Y0129
X0045Y0136
X0041Y0115
X0039Y01
X0053
Y0088
X0043
X0039Y008
Y007
X0019Y008
T02
X001Y001
Y002
Y003
Y004
X005Y001
X006
X007
X014
Y002
Y003
Y004
Y006
Y007
Y008
Y009
Y01
Y011
Y013
Y014
Y015
Y016
X007
X006
X005
X001
Y015
Y014
Y013
Y01
Y009
Y008
Y007
M30
