G04 Layer_Color=128*
%FSLAX25Y25*%
%MOIN*%
G70*
G01*
G75*
%ADD33C,0.00200*%
D33*
X138250Y90000D02*
X141750D01*
X140000Y88250D02*
Y91750D01*
X138250Y80000D02*
X141750D01*
X140000Y78250D02*
Y81750D01*
X138250Y60000D02*
X141750D01*
X140000Y58250D02*
Y61750D01*
X138250Y70000D02*
X141750D01*
X140000Y68250D02*
Y71750D01*
X138250Y100000D02*
X141750D01*
X140000Y98250D02*
Y101750D01*
X138250Y110000D02*
X141750D01*
X140000Y108250D02*
Y111750D01*
X48250Y160000D02*
X51750D01*
X50000Y158250D02*
Y161750D01*
X68250Y160000D02*
X71750D01*
X70000Y158250D02*
Y161750D01*
X58250Y160000D02*
X61750D01*
X60000Y158250D02*
Y161750D01*
X58250Y10000D02*
X61750D01*
X60000Y8250D02*
Y11750D01*
X68250Y10000D02*
X71750D01*
X70000Y8250D02*
Y11750D01*
X48250Y10000D02*
X51750D01*
X50000Y8250D02*
Y11750D01*
X138250Y160000D02*
X141750D01*
X140000Y158250D02*
Y161750D01*
X138250Y150000D02*
X141750D01*
X140000Y148250D02*
Y151750D01*
X138250Y130000D02*
X141750D01*
X140000Y128250D02*
Y131750D01*
X138250Y140000D02*
X141750D01*
X140000Y138250D02*
Y141750D01*
X8250Y140000D02*
X11750D01*
X10000Y138250D02*
Y141750D01*
X8250Y130000D02*
X11750D01*
X10000Y128250D02*
Y131750D01*
X8250Y150000D02*
X11750D01*
X10000Y148250D02*
Y151750D01*
X8250Y160000D02*
X11750D01*
X10000Y158250D02*
Y161750D01*
X8250Y40000D02*
X11750D01*
X10000Y38250D02*
Y41750D01*
X8250Y30000D02*
X11750D01*
X10000Y28250D02*
Y31750D01*
X8250Y10000D02*
X11750D01*
X10000Y8250D02*
Y11750D01*
X8250Y20000D02*
X11750D01*
X10000Y18250D02*
Y21750D01*
X138250Y20000D02*
X141750D01*
X140000Y18250D02*
Y21750D01*
X138250Y10000D02*
X141750D01*
X140000Y8250D02*
Y11750D01*
X138250Y30000D02*
X141750D01*
X140000Y28250D02*
Y31750D01*
X138250Y40000D02*
X141750D01*
X140000Y38250D02*
Y41750D01*
X8250Y100000D02*
X11750D01*
X10000Y98250D02*
Y101750D01*
X8250Y90000D02*
X11750D01*
X10000Y88250D02*
Y91750D01*
X8250Y70000D02*
X11750D01*
X10000Y68250D02*
Y71750D01*
X8250Y80000D02*
X11750D01*
X10000Y78250D02*
Y81750D01*
X129311Y111000D02*
X130689D01*
X130000Y110311D02*
Y111689D01*
X69311Y111000D02*
X70689D01*
X70000Y110311D02*
Y111689D01*
X130311Y154000D02*
X131689D01*
X131000Y153311D02*
Y154689D01*
X115311Y144000D02*
X116689D01*
X116000Y143311D02*
Y144689D01*
X79311Y110000D02*
X80689D01*
X80000Y109311D02*
Y110689D01*
X94311Y110000D02*
X95689D01*
X95000Y109311D02*
Y110689D01*
X70311Y40000D02*
X71689D01*
X71000Y39311D02*
Y40689D01*
X130311Y27000D02*
X131689D01*
X131000Y26311D02*
Y27689D01*
X120311Y51000D02*
X121689D01*
X121000Y50311D02*
Y51689D01*
X114311Y10000D02*
X115689D01*
X115000Y9311D02*
Y10689D01*
X96311Y10000D02*
X97689D01*
X97000Y9311D02*
Y10689D01*
X40311Y115000D02*
X41689D01*
X41000Y114311D02*
Y115689D01*
X110311Y35000D02*
X111689D01*
X111000Y34311D02*
Y35689D01*
X101311Y30000D02*
X102689D01*
X102000Y29311D02*
Y30689D01*
X99311Y54000D02*
X100689D01*
X100000Y53311D02*
Y54689D01*
X59311Y46000D02*
X60689D01*
X60000Y45311D02*
Y46689D01*
X49311Y46000D02*
X50689D01*
X50000Y45311D02*
Y46689D01*
X39311Y20000D02*
X40689D01*
X40000Y19311D02*
Y20689D01*
X39311Y53937D02*
X40689D01*
X40000Y53248D02*
Y54626D01*
X83311Y34000D02*
X84689D01*
X84000Y33311D02*
Y34689D01*
X63311Y24000D02*
X64689D01*
X64000Y23311D02*
Y24689D01*
X52311Y100000D02*
X53689D01*
X53000Y99311D02*
Y100689D01*
X38311Y70000D02*
X39689D01*
X39000Y69311D02*
Y70689D01*
X38311Y80000D02*
X39689D01*
X39000Y79311D02*
Y80689D01*
X38311Y100000D02*
X39689D01*
X39000Y99311D02*
Y100689D01*
X86311Y82000D02*
X87689D01*
X87000Y81311D02*
Y82689D01*
X62311Y88063D02*
X63689D01*
X63000Y87374D02*
Y88752D01*
X124248Y83063D02*
X125626D01*
X124937Y82374D02*
Y83752D01*
X124248Y87063D02*
X125626D01*
X124937Y86374D02*
Y87752D01*
X106311Y76000D02*
X107689D01*
X107000Y75311D02*
Y76689D01*
X91311Y69000D02*
X92689D01*
X92000Y68311D02*
Y69689D01*
X18311Y80000D02*
X19689D01*
X19000Y79311D02*
Y80689D01*
X42311Y88000D02*
X43689D01*
X43000Y87311D02*
Y88689D01*
X52311Y88000D02*
X53689D01*
X53000Y87311D02*
Y88689D01*
X83311Y136000D02*
X84689D01*
X84000Y135311D02*
Y136689D01*
X63311Y146000D02*
X64689D01*
X64000Y145311D02*
Y146689D01*
X54311Y129000D02*
X55689D01*
X55000Y128311D02*
Y129689D01*
X44311Y136000D02*
X45689D01*
X45000Y135311D02*
Y136689D01*
X81311Y155000D02*
X82689D01*
X82000Y154311D02*
Y155689D01*
X92311Y160000D02*
X93689D01*
X93000Y159311D02*
Y160689D01*
X110311Y160000D02*
X111689D01*
X111000Y159311D02*
Y160689D01*
X91311Y66000D02*
X92689D01*
X92000Y65311D02*
Y66689D01*
M02*
