G04 Layer_Physical_Order=2*
G04 Layer_Color=16711680*
%FSLAX25Y25*%
%MOIN*%
G70*
G01*
G75*
%ADD14C,0.01000*%
%ADD15C,0.06500*%
G04:AMPARAMS|DCode=16|XSize=65mil|YSize=65mil|CornerRadius=9.75mil|HoleSize=0mil|Usage=FLASHONLY|Rotation=0.000|XOffset=0mil|YOffset=0mil|HoleType=Round|Shape=RoundedRectangle|*
%AMROUNDEDRECTD16*
21,1,0.06500,0.04550,0,0,0.0*
21,1,0.04550,0.06500,0,0,0.0*
1,1,0.01950,0.02275,-0.02275*
1,1,0.01950,-0.02275,-0.02275*
1,1,0.01950,-0.02275,0.02275*
1,1,0.01950,0.02275,0.02275*
%
%ADD16ROUNDEDRECTD16*%
G04:AMPARAMS|DCode=17|XSize=65mil|YSize=65mil|CornerRadius=9.75mil|HoleSize=0mil|Usage=FLASHONLY|Rotation=90.000|XOffset=0mil|YOffset=0mil|HoleType=Round|Shape=RoundedRectangle|*
%AMROUNDEDRECTD17*
21,1,0.06500,0.04550,0,0,90.0*
21,1,0.04550,0.06500,0,0,90.0*
1,1,0.01950,0.02275,0.02275*
1,1,0.01950,0.02275,-0.02275*
1,1,0.01950,-0.02275,-0.02275*
1,1,0.01950,-0.02275,0.02275*
%
%ADD17ROUNDEDRECTD17*%
%ADD18C,0.01968*%
%ADD19C,0.02000*%
G36*
X89144Y164473D02*
X89207Y163793D01*
X89207Y163793D01*
X82024Y156610D01*
X82000Y156615D01*
X81382Y156492D01*
X80858Y156142D01*
X80508Y155618D01*
X80385Y155000D01*
X80508Y154382D01*
X80858Y153858D01*
X81382Y153508D01*
X82000Y153385D01*
X82618Y153508D01*
X83142Y153858D01*
X83492Y154382D01*
X83615Y155000D01*
X83610Y155024D01*
X90465Y161878D01*
X135961D01*
X136362Y161278D01*
X136249Y161005D01*
X136117Y160000D01*
X136249Y158995D01*
X136637Y158058D01*
X137254Y157254D01*
X138058Y156637D01*
X138995Y156249D01*
X140000Y156117D01*
X141005Y156249D01*
X141942Y156637D01*
X142746Y157254D01*
X143363Y158058D01*
X143635Y158716D01*
X144235Y158597D01*
Y151403D01*
X143635Y151284D01*
X143363Y151942D01*
X142746Y152746D01*
X141942Y153363D01*
X141005Y153751D01*
X140000Y153883D01*
X138995Y153751D01*
X138058Y153363D01*
X137254Y152746D01*
X136637Y151942D01*
X136249Y151005D01*
X136117Y150000D01*
X136249Y148995D01*
X136637Y148058D01*
X137254Y147254D01*
X138058Y146637D01*
X138995Y146249D01*
X140000Y146117D01*
X141005Y146249D01*
X141942Y146637D01*
X142746Y147254D01*
X143363Y148058D01*
X143635Y148716D01*
X144235Y148597D01*
Y141403D01*
X143635Y141284D01*
X143363Y141942D01*
X142746Y142746D01*
X141942Y143363D01*
X141005Y143751D01*
X140000Y143883D01*
X138995Y143751D01*
X138058Y143363D01*
X137254Y142746D01*
X136637Y141942D01*
X136249Y141005D01*
X136117Y140000D01*
X136249Y138995D01*
X136637Y138058D01*
X137254Y137254D01*
X138058Y136637D01*
X138995Y136249D01*
X140000Y136117D01*
X141005Y136249D01*
X141942Y136637D01*
X142746Y137254D01*
X143363Y138058D01*
X143635Y138716D01*
X144235Y138596D01*
Y133976D01*
X143922Y133814D01*
X143635Y133741D01*
X143046Y134135D01*
X142275Y134289D01*
X140500D01*
Y130000D01*
Y125711D01*
X142275D01*
X143046Y125865D01*
X143635Y126259D01*
X143922Y126186D01*
X144235Y126024D01*
Y111404D01*
X143635Y111284D01*
X143363Y111942D01*
X142746Y112746D01*
X141942Y113363D01*
X141005Y113751D01*
X140000Y113883D01*
X138995Y113751D01*
X138058Y113363D01*
X137254Y112746D01*
X136637Y111942D01*
X136249Y111005D01*
X136117Y110000D01*
X136249Y108995D01*
X136637Y108058D01*
X137254Y107254D01*
X138058Y106637D01*
X138995Y106249D01*
X140000Y106117D01*
X141005Y106249D01*
X141942Y106637D01*
X142746Y107254D01*
X143363Y108058D01*
X143635Y108716D01*
X144235Y108597D01*
Y101403D01*
X143635Y101284D01*
X143363Y101942D01*
X142746Y102746D01*
X141942Y103363D01*
X141005Y103751D01*
X140000Y103883D01*
X138995Y103751D01*
X138058Y103363D01*
X137254Y102746D01*
X136637Y101942D01*
X136249Y101005D01*
X136117Y100000D01*
X136249Y98995D01*
X136637Y98058D01*
X137254Y97254D01*
X138058Y96637D01*
X138995Y96249D01*
X140000Y96117D01*
X141005Y96249D01*
X141942Y96637D01*
X142746Y97254D01*
X143363Y98058D01*
X143635Y98716D01*
X144235Y98597D01*
Y92404D01*
X144033Y92303D01*
X143635Y92244D01*
X143031Y93031D01*
X142143Y93712D01*
X141110Y94141D01*
X140500Y94221D01*
Y90000D01*
Y85779D01*
X141110Y85859D01*
X142143Y86288D01*
X143031Y86969D01*
X143635Y87756D01*
X144033Y87697D01*
X144235Y87596D01*
Y82404D01*
X144033Y82303D01*
X143635Y82244D01*
X143031Y83031D01*
X142143Y83712D01*
X141110Y84141D01*
X140500Y84221D01*
Y80000D01*
Y75779D01*
X141110Y75859D01*
X142143Y76288D01*
X143031Y76969D01*
X143635Y77756D01*
X144033Y77697D01*
X144235Y77596D01*
Y71403D01*
X143635Y71284D01*
X143363Y71942D01*
X142746Y72746D01*
X141942Y73363D01*
X141005Y73751D01*
X140000Y73883D01*
X138995Y73751D01*
X138058Y73363D01*
X137254Y72746D01*
X136637Y71942D01*
X136249Y71005D01*
X136117Y70000D01*
X136249Y68995D01*
X136637Y68058D01*
X137254Y67254D01*
X138058Y66637D01*
X138995Y66249D01*
X140000Y66117D01*
X141005Y66249D01*
X141942Y66637D01*
X142746Y67254D01*
X143363Y68058D01*
X143635Y68716D01*
X144235Y68597D01*
Y63256D01*
X143635Y63074D01*
X143411Y63411D01*
X142889Y63759D01*
X142275Y63881D01*
X137725D01*
X137110Y63759D01*
X136590Y63411D01*
X136241Y62889D01*
X136119Y62275D01*
Y57725D01*
X136241Y57111D01*
X136590Y56590D01*
X137110Y56241D01*
X137725Y56119D01*
X142275D01*
X142889Y56241D01*
X143411Y56590D01*
X143635Y56926D01*
X144235Y56744D01*
Y41403D01*
X143635Y41284D01*
X143363Y41942D01*
X142746Y42746D01*
X141942Y43363D01*
X141005Y43751D01*
X140000Y43883D01*
X138995Y43751D01*
X138058Y43363D01*
X137254Y42746D01*
X136637Y41942D01*
X136249Y41005D01*
X136117Y40000D01*
X136249Y38995D01*
X136637Y38058D01*
X137254Y37254D01*
X138058Y36637D01*
X138995Y36249D01*
X140000Y36117D01*
X141005Y36249D01*
X141942Y36637D01*
X142746Y37254D01*
X143363Y38058D01*
X143635Y38716D01*
X144235Y38596D01*
Y31403D01*
X143635Y31284D01*
X143363Y31942D01*
X142746Y32746D01*
X141942Y33363D01*
X141005Y33751D01*
X140000Y33883D01*
X138995Y33751D01*
X138058Y33363D01*
X137254Y32746D01*
X136637Y31942D01*
X136249Y31005D01*
X136117Y30000D01*
X136249Y28995D01*
X136589Y28175D01*
X119535Y11122D01*
X116156D01*
X116142Y11142D01*
X115618Y11492D01*
X115000Y11615D01*
X114382Y11492D01*
X113858Y11142D01*
X113508Y10618D01*
X113385Y10000D01*
X113508Y9382D01*
X113858Y8858D01*
X114382Y8508D01*
X115000Y8385D01*
X115618Y8508D01*
X116142Y8858D01*
X116156Y8878D01*
X120000D01*
X120000Y8878D01*
X120429Y8964D01*
X120793Y9207D01*
X138175Y26589D01*
X138995Y26249D01*
X140000Y26117D01*
X141005Y26249D01*
X141942Y26637D01*
X142746Y27254D01*
X143363Y28058D01*
X143635Y28716D01*
X144235Y28596D01*
Y21404D01*
X143635Y21284D01*
X143363Y21942D01*
X142746Y22746D01*
X141942Y23363D01*
X141005Y23751D01*
X140000Y23883D01*
X138995Y23751D01*
X138058Y23363D01*
X137254Y22746D01*
X136637Y21942D01*
X136249Y21005D01*
X136117Y20000D01*
X136249Y18995D01*
X136637Y18058D01*
X137254Y17254D01*
X138058Y16637D01*
X138995Y16249D01*
X140000Y16117D01*
X141005Y16249D01*
X141942Y16637D01*
X142746Y17254D01*
X143363Y18058D01*
X143635Y18716D01*
X144235Y18597D01*
Y13976D01*
X143922Y13814D01*
X143635Y13741D01*
X143046Y14135D01*
X142275Y14289D01*
X140500D01*
Y10000D01*
Y5711D01*
X142275D01*
X143046Y5865D01*
X143635Y6259D01*
X143922Y6186D01*
X144235Y6024D01*
Y4702D01*
X4702D01*
Y164590D01*
X48407D01*
X48526Y163990D01*
X47857Y163712D01*
X46969Y163031D01*
X46288Y162143D01*
X45859Y161109D01*
X45779Y160500D01*
X50000D01*
X54221D01*
X54141Y161109D01*
X53712Y162143D01*
X53031Y163031D01*
X52143Y163712D01*
X51474Y163990D01*
X51593Y164590D01*
X89050D01*
X89144Y164473D01*
D02*
G37*
%LPC*%
G36*
X14221Y29500D02*
X10500D01*
Y25779D01*
X11109Y25859D01*
X12143Y26288D01*
X13031Y26969D01*
X13712Y27857D01*
X14141Y28890D01*
X14221Y29500D01*
D02*
G37*
G36*
X9500Y34221D02*
X8890Y34141D01*
X7857Y33712D01*
X6969Y33031D01*
X6288Y32143D01*
X5859Y31109D01*
X5779Y30500D01*
X9500D01*
Y34221D01*
D02*
G37*
G36*
X10500D02*
Y30500D01*
X14221D01*
X14141Y31109D01*
X13712Y32143D01*
X13031Y33031D01*
X12143Y33712D01*
X11109Y34141D01*
X10500Y34221D01*
D02*
G37*
G36*
X10000Y23883D02*
X8995Y23751D01*
X8058Y23363D01*
X7254Y22746D01*
X6637Y21942D01*
X6249Y21005D01*
X6117Y20000D01*
X6249Y18995D01*
X6637Y18058D01*
X7254Y17254D01*
X8058Y16637D01*
X8995Y16249D01*
X10000Y16117D01*
X11005Y16249D01*
X11942Y16637D01*
X12746Y17254D01*
X13363Y18058D01*
X13751Y18995D01*
X13883Y20000D01*
X13751Y21005D01*
X13363Y21942D01*
X12746Y22746D01*
X11942Y23363D01*
X11005Y23751D01*
X10000Y23883D01*
D02*
G37*
G36*
X40000Y55552D02*
X39382Y55429D01*
X38858Y55079D01*
X38508Y54555D01*
X38385Y53937D01*
X38508Y53319D01*
X38858Y52795D01*
X38878Y52781D01*
Y21156D01*
X38858Y21142D01*
X38508Y20618D01*
X38385Y20000D01*
X38508Y19382D01*
X38858Y18858D01*
X39382Y18508D01*
X40000Y18385D01*
X40618Y18508D01*
X41142Y18858D01*
X41492Y19382D01*
X41615Y20000D01*
X41492Y20618D01*
X41142Y21142D01*
X41122Y21156D01*
Y52781D01*
X41142Y52795D01*
X41492Y53319D01*
X41615Y53937D01*
X41492Y54555D01*
X41142Y55079D01*
X40618Y55429D01*
X40000Y55552D01*
D02*
G37*
G36*
X9500Y29500D02*
X5779D01*
X5859Y28890D01*
X6288Y27857D01*
X6969Y26969D01*
X7857Y26288D01*
X8890Y25859D01*
X9500Y25779D01*
Y29500D01*
D02*
G37*
G36*
X14289Y69500D02*
X10500D01*
Y65711D01*
X12275D01*
X13046Y65865D01*
X13699Y66301D01*
X14135Y66954D01*
X14289Y67725D01*
Y69500D01*
D02*
G37*
G36*
X9500Y74289D02*
X7725D01*
X6954Y74135D01*
X6301Y73699D01*
X5865Y73046D01*
X5711Y72275D01*
Y70500D01*
X9500D01*
Y74289D01*
D02*
G37*
G36*
X10000Y83883D02*
X8995Y83751D01*
X8058Y83363D01*
X7254Y82746D01*
X6637Y81942D01*
X6249Y81005D01*
X6117Y80000D01*
X6249Y78995D01*
X6637Y78058D01*
X7254Y77254D01*
X8058Y76637D01*
X8995Y76249D01*
X10000Y76117D01*
X11005Y76249D01*
X11315Y76378D01*
X12921Y74772D01*
X12625Y74219D01*
X12275Y74289D01*
X10500D01*
Y70500D01*
X14289D01*
Y72275D01*
X14219Y72625D01*
X14772Y72921D01*
X15846Y71846D01*
X16376Y71493D01*
X17000Y71369D01*
X87324D01*
X90369Y68324D01*
Y66000D01*
X90493Y65376D01*
X90847Y64846D01*
X91376Y64493D01*
X92000Y64369D01*
X92624Y64493D01*
X93154Y64846D01*
X93507Y65376D01*
X93631Y66000D01*
Y69000D01*
X93507Y69624D01*
X93154Y70153D01*
X89153Y74154D01*
X88624Y74507D01*
X88000Y74631D01*
X17676D01*
X13622Y78685D01*
X13751Y78995D01*
X13883Y80000D01*
X13751Y81005D01*
X13363Y81942D01*
X12746Y82746D01*
X11942Y83363D01*
X11005Y83751D01*
X10000Y83883D01*
D02*
G37*
G36*
Y43883D02*
X8995Y43751D01*
X8058Y43363D01*
X7254Y42746D01*
X6637Y41942D01*
X6249Y41005D01*
X6117Y40000D01*
X6249Y38995D01*
X6637Y38058D01*
X7254Y37254D01*
X8058Y36637D01*
X8995Y36249D01*
X10000Y36117D01*
X11005Y36249D01*
X11942Y36637D01*
X12746Y37254D01*
X13363Y38058D01*
X13751Y38995D01*
X13883Y40000D01*
X13751Y41005D01*
X13363Y41942D01*
X12746Y42746D01*
X11942Y43363D01*
X11005Y43751D01*
X10000Y43883D01*
D02*
G37*
G36*
X100000Y55615D02*
X99382Y55492D01*
X98858Y55142D01*
X98508Y54618D01*
X98385Y54000D01*
X98390Y53976D01*
X95535Y51122D01*
X64000D01*
X63571Y51036D01*
X63207Y50793D01*
X63207Y50793D01*
X60024Y47610D01*
X60000Y47615D01*
X59382Y47492D01*
X58858Y47142D01*
X58508Y46618D01*
X58385Y46000D01*
X58508Y45382D01*
X58858Y44858D01*
X59382Y44508D01*
X60000Y44385D01*
X60618Y44508D01*
X61142Y44858D01*
X61492Y45382D01*
X61615Y46000D01*
X61611Y46024D01*
X64465Y48878D01*
X96000D01*
X96000Y48878D01*
X96429Y48964D01*
X96793Y49207D01*
X99976Y52390D01*
X100000Y52385D01*
X100618Y52508D01*
X101142Y52858D01*
X101492Y53382D01*
X101615Y54000D01*
X101492Y54618D01*
X101142Y55142D01*
X100618Y55492D01*
X100000Y55615D01*
D02*
G37*
G36*
X9500Y69500D02*
X5711D01*
Y67725D01*
X5865Y66954D01*
X6301Y66301D01*
X6954Y65865D01*
X7725Y65711D01*
X9500D01*
Y69500D01*
D02*
G37*
G36*
X49500Y9500D02*
X45779D01*
X45859Y8890D01*
X46288Y7857D01*
X46969Y6969D01*
X47857Y6288D01*
X48891Y5859D01*
X49500Y5779D01*
Y9500D01*
D02*
G37*
G36*
X54221D02*
X50500D01*
Y5779D01*
X51109Y5859D01*
X52143Y6288D01*
X53031Y6969D01*
X53712Y7857D01*
X54141Y8890D01*
X54221Y9500D01*
D02*
G37*
G36*
X60000Y13883D02*
X58995Y13751D01*
X58058Y13363D01*
X57254Y12746D01*
X56637Y11942D01*
X56249Y11005D01*
X56117Y10000D01*
X56249Y8995D01*
X56637Y8058D01*
X57254Y7254D01*
X58058Y6637D01*
X58995Y6249D01*
X60000Y6117D01*
X61005Y6249D01*
X61942Y6637D01*
X62746Y7254D01*
X63363Y8058D01*
X63751Y8995D01*
X63883Y10000D01*
X63751Y11005D01*
X63363Y11942D01*
X62746Y12746D01*
X61942Y13363D01*
X61005Y13751D01*
X60000Y13883D01*
D02*
G37*
G36*
X9500Y9500D02*
X5711D01*
Y7725D01*
X5865Y6954D01*
X6301Y6301D01*
X6954Y5865D01*
X7725Y5711D01*
X9500D01*
Y9500D01*
D02*
G37*
G36*
X14289D02*
X10500D01*
Y5711D01*
X12275D01*
X13046Y5865D01*
X13699Y6301D01*
X14135Y6954D01*
X14289Y7725D01*
Y9500D01*
D02*
G37*
G36*
X139500D02*
X135711D01*
Y7725D01*
X135865Y6954D01*
X136301Y6301D01*
X136954Y5865D01*
X137725Y5711D01*
X139500D01*
Y9500D01*
D02*
G37*
G36*
X12275Y14289D02*
X10500D01*
Y10500D01*
X14289D01*
Y12275D01*
X14135Y13046D01*
X13699Y13699D01*
X13046Y14135D01*
X12275Y14289D01*
D02*
G37*
G36*
X139500D02*
X137725D01*
X136954Y14135D01*
X136301Y13699D01*
X135865Y13046D01*
X135711Y12275D01*
Y10500D01*
X139500D01*
Y14289D01*
D02*
G37*
G36*
X50500Y14221D02*
Y10500D01*
X54221D01*
X54141Y11109D01*
X53712Y12143D01*
X53031Y13031D01*
X52143Y13712D01*
X51109Y14141D01*
X50500Y14221D01*
D02*
G37*
G36*
X72275Y13881D02*
X67725D01*
X67111Y13759D01*
X66589Y13410D01*
X66241Y12889D01*
X66119Y12275D01*
Y7725D01*
X66241Y7111D01*
X66589Y6589D01*
X67111Y6241D01*
X67725Y6119D01*
X72275D01*
X72890Y6241D01*
X73410Y6589D01*
X73759Y7111D01*
X73881Y7725D01*
Y12275D01*
X73759Y12889D01*
X73410Y13410D01*
X72890Y13759D01*
X72275Y13881D01*
D02*
G37*
G36*
X49500Y14221D02*
X48891Y14141D01*
X47857Y13712D01*
X46969Y13031D01*
X46288Y12143D01*
X45859Y11109D01*
X45779Y10500D01*
X49500D01*
Y14221D01*
D02*
G37*
G36*
X9500Y14289D02*
X7725D01*
X6954Y14135D01*
X6301Y13699D01*
X5865Y13046D01*
X5711Y12275D01*
Y10500D01*
X9500D01*
Y14289D01*
D02*
G37*
G36*
Y149500D02*
X5779D01*
X5859Y148890D01*
X6288Y147857D01*
X6969Y146969D01*
X7857Y146288D01*
X8890Y145859D01*
X9500Y145779D01*
Y149500D01*
D02*
G37*
G36*
X14221D02*
X10500D01*
Y145779D01*
X11109Y145859D01*
X12143Y146288D01*
X13031Y146969D01*
X13712Y147857D01*
X14141Y148890D01*
X14221Y149500D01*
D02*
G37*
G36*
X9500Y154221D02*
X8890Y154141D01*
X7857Y153712D01*
X6969Y153031D01*
X6288Y152143D01*
X5859Y151110D01*
X5779Y150500D01*
X9500D01*
Y154221D01*
D02*
G37*
G36*
X12275Y134289D02*
X10500D01*
Y130500D01*
X14289D01*
Y132275D01*
X14135Y133046D01*
X13699Y133699D01*
X13046Y134135D01*
X12275Y134289D01*
D02*
G37*
G36*
X139500D02*
X137725D01*
X136954Y134135D01*
X136301Y133699D01*
X135865Y133046D01*
X135711Y132275D01*
Y130500D01*
X139500D01*
Y134289D01*
D02*
G37*
G36*
X10000Y143883D02*
X8995Y143751D01*
X8058Y143363D01*
X7254Y142746D01*
X6637Y141942D01*
X6249Y141005D01*
X6117Y140000D01*
X6249Y138995D01*
X6637Y138058D01*
X7254Y137254D01*
X8058Y136637D01*
X8995Y136249D01*
X10000Y136117D01*
X11005Y136249D01*
X11942Y136637D01*
X12746Y137254D01*
X13363Y138058D01*
X13751Y138995D01*
X13883Y140000D01*
X13751Y141005D01*
X13363Y141942D01*
X12746Y142746D01*
X11942Y143363D01*
X11005Y143751D01*
X10000Y143883D01*
D02*
G37*
G36*
Y163883D02*
X8995Y163751D01*
X8058Y163363D01*
X7254Y162746D01*
X6637Y161942D01*
X6249Y161005D01*
X6117Y160000D01*
X6249Y158995D01*
X6637Y158058D01*
X7254Y157254D01*
X8058Y156637D01*
X8995Y156249D01*
X10000Y156117D01*
X11005Y156249D01*
X11942Y156637D01*
X12746Y157254D01*
X13363Y158058D01*
X13751Y158995D01*
X13883Y160000D01*
X13751Y161005D01*
X13363Y161942D01*
X12746Y162746D01*
X11942Y163363D01*
X11005Y163751D01*
X10000Y163883D01*
D02*
G37*
G36*
X60000D02*
X58995Y163751D01*
X58058Y163363D01*
X57254Y162746D01*
X56637Y161942D01*
X56249Y161005D01*
X56117Y160000D01*
X56249Y158995D01*
X56637Y158058D01*
X57254Y157254D01*
X58058Y156637D01*
X58995Y156249D01*
X60000Y156117D01*
X61005Y156249D01*
X61942Y156637D01*
X62746Y157254D01*
X63363Y158058D01*
X63751Y158995D01*
X63883Y160000D01*
X63751Y161005D01*
X63363Y161942D01*
X62746Y162746D01*
X61942Y163363D01*
X61005Y163751D01*
X60000Y163883D01*
D02*
G37*
G36*
X72275Y163881D02*
X67725D01*
X67111Y163759D01*
X66589Y163410D01*
X66241Y162890D01*
X66119Y162275D01*
Y157725D01*
X66241Y157111D01*
X66589Y156589D01*
X67111Y156241D01*
X67725Y156119D01*
X72275D01*
X72890Y156241D01*
X73410Y156589D01*
X73759Y157111D01*
X73881Y157725D01*
Y162275D01*
X73759Y162890D01*
X73410Y163410D01*
X72890Y163759D01*
X72275Y163881D01*
D02*
G37*
G36*
X10500Y154221D02*
Y150500D01*
X14221D01*
X14141Y151110D01*
X13712Y152143D01*
X13031Y153031D01*
X12143Y153712D01*
X11109Y154141D01*
X10500Y154221D01*
D02*
G37*
G36*
X49500Y159500D02*
X45779D01*
X45859Y158890D01*
X46288Y157857D01*
X46969Y156969D01*
X47857Y156288D01*
X48891Y155859D01*
X49500Y155779D01*
Y159500D01*
D02*
G37*
G36*
X54221D02*
X50500D01*
Y155779D01*
X51109Y155859D01*
X52143Y156288D01*
X53031Y156969D01*
X53712Y157857D01*
X54141Y158890D01*
X54221Y159500D01*
D02*
G37*
G36*
X139500Y89500D02*
X135779D01*
X135859Y88890D01*
X136288Y87857D01*
X136969Y86969D01*
X137857Y86288D01*
X138891Y85859D01*
X139500Y85779D01*
Y89500D01*
D02*
G37*
G36*
X10000Y93883D02*
X8995Y93751D01*
X8058Y93363D01*
X7254Y92746D01*
X6637Y91942D01*
X6249Y91005D01*
X6117Y90000D01*
X6249Y88995D01*
X6637Y88058D01*
X7254Y87254D01*
X8058Y86637D01*
X8995Y86249D01*
X10000Y86117D01*
X11005Y86249D01*
X11942Y86637D01*
X12746Y87254D01*
X13363Y88058D01*
X13751Y88995D01*
X13883Y90000D01*
X13751Y91005D01*
X13363Y91942D01*
X12746Y92746D01*
X11942Y93363D01*
X11005Y93751D01*
X10000Y93883D01*
D02*
G37*
G36*
X139500Y94221D02*
X138891Y94141D01*
X137857Y93712D01*
X136969Y93031D01*
X136288Y92143D01*
X135859Y91110D01*
X135779Y90500D01*
X139500D01*
Y94221D01*
D02*
G37*
G36*
Y79500D02*
X135779D01*
X135859Y78891D01*
X136288Y77857D01*
X136969Y76969D01*
X137857Y76288D01*
X138891Y75859D01*
X139500Y75779D01*
Y79500D01*
D02*
G37*
G36*
X19000Y81615D02*
X18382Y81492D01*
X17858Y81142D01*
X17508Y80618D01*
X17385Y80000D01*
X17508Y79382D01*
X17858Y78858D01*
X18382Y78508D01*
X19000Y78385D01*
X19618Y78508D01*
X20142Y78858D01*
X20492Y79382D01*
X20615Y80000D01*
X20492Y80618D01*
X20142Y81142D01*
X19618Y81492D01*
X19000Y81615D01*
D02*
G37*
G36*
X139500Y84221D02*
X138891Y84141D01*
X137857Y83712D01*
X136969Y83031D01*
X136288Y82143D01*
X135859Y81109D01*
X135779Y80500D01*
X139500D01*
Y84221D01*
D02*
G37*
G36*
X14289Y129500D02*
X10500D01*
Y125711D01*
X12275D01*
X13046Y125865D01*
X13699Y126301D01*
X14135Y126954D01*
X14289Y127725D01*
Y129500D01*
D02*
G37*
G36*
X139500D02*
X135711D01*
Y127725D01*
X135865Y126954D01*
X136301Y126301D01*
X136954Y125865D01*
X137725Y125711D01*
X139500D01*
Y129500D01*
D02*
G37*
G36*
X9500Y134289D02*
X7725D01*
X6954Y134135D01*
X6301Y133699D01*
X5865Y133046D01*
X5711Y132275D01*
Y130500D01*
X9500D01*
Y134289D01*
D02*
G37*
G36*
X49000Y105122D02*
X49000Y105122D01*
X14000D01*
X13571Y105036D01*
X13207Y104793D01*
X13207Y104793D01*
X11825Y103411D01*
X11005Y103751D01*
X10000Y103883D01*
X8995Y103751D01*
X8058Y103363D01*
X7254Y102746D01*
X6637Y101942D01*
X6249Y101005D01*
X6117Y100000D01*
X6249Y98995D01*
X6637Y98058D01*
X7254Y97254D01*
X8058Y96637D01*
X8995Y96249D01*
X10000Y96117D01*
X11005Y96249D01*
X11942Y96637D01*
X12746Y97254D01*
X13363Y98058D01*
X13751Y98995D01*
X13883Y100000D01*
X13751Y101005D01*
X13411Y101825D01*
X14465Y102878D01*
X48535D01*
X51389Y100024D01*
X51385Y100000D01*
X51508Y99382D01*
X51858Y98858D01*
X52382Y98508D01*
X53000Y98385D01*
X53618Y98508D01*
X54142Y98858D01*
X54492Y99382D01*
X54615Y100000D01*
X54492Y100618D01*
X54142Y101142D01*
X53618Y101492D01*
X53000Y101615D01*
X52976Y101611D01*
X49793Y104793D01*
X49429Y105036D01*
X49000Y105122D01*
D02*
G37*
G36*
X45000Y137615D02*
X44382Y137492D01*
X43858Y137142D01*
X43508Y136618D01*
X43385Y136000D01*
X43508Y135382D01*
X43858Y134858D01*
X43878Y134844D01*
Y125000D01*
X43878Y125000D01*
X43964Y124571D01*
X44207Y124207D01*
X49207Y119207D01*
X49207Y119207D01*
X49571Y118964D01*
X50000Y118878D01*
X50000Y118878D01*
X62535D01*
X68724Y112690D01*
X68858Y112142D01*
X68508Y111618D01*
X68385Y111000D01*
X68508Y110382D01*
X68858Y109858D01*
X69382Y109508D01*
X70000Y109385D01*
X70618Y109508D01*
X71142Y109858D01*
X71492Y110382D01*
X71615Y111000D01*
X71492Y111618D01*
X71142Y112142D01*
X71122Y112156D01*
Y113000D01*
X71036Y113429D01*
X70793Y113793D01*
X70793Y113793D01*
X63793Y120793D01*
X63429Y121036D01*
X63000Y121122D01*
X63000Y121122D01*
X50465D01*
X46122Y125465D01*
Y134844D01*
X46142Y134858D01*
X46492Y135382D01*
X46615Y136000D01*
X46492Y136618D01*
X46142Y137142D01*
X45618Y137492D01*
X45000Y137615D01*
D02*
G37*
G36*
X9500Y129500D02*
X5711D01*
Y127725D01*
X5865Y126954D01*
X6301Y126301D01*
X6954Y125865D01*
X7725Y125711D01*
X9500D01*
Y129500D01*
D02*
G37*
%LPD*%
D14*
X63000Y120000D02*
X70000Y113000D01*
Y111000D02*
Y113000D01*
X115000Y10000D02*
X120000D01*
X140000Y30000D01*
X96000Y50000D02*
X100000Y54000D01*
X64000Y50000D02*
X96000D01*
X60000Y46000D02*
X64000Y50000D01*
X40000Y20000D02*
Y53937D01*
X49000Y104000D02*
X53000Y100000D01*
X14000Y104000D02*
X49000D01*
X10000Y100000D02*
X14000Y104000D01*
X50000Y120000D02*
X63000D01*
X45000Y125000D02*
X50000Y120000D01*
X45000Y125000D02*
Y136000D01*
X137000Y163000D02*
X140000Y160000D01*
X90000Y163000D02*
X137000D01*
X82000Y155000D02*
X90000Y163000D01*
D15*
X140000Y90000D02*
D03*
Y80000D02*
D03*
Y70000D02*
D03*
Y100000D02*
D03*
Y110000D02*
D03*
X50000Y160000D02*
D03*
X60000D02*
D03*
Y10000D02*
D03*
X50000D02*
D03*
X140000Y160000D02*
D03*
Y150000D02*
D03*
Y140000D02*
D03*
X10000D02*
D03*
Y150000D02*
D03*
Y160000D02*
D03*
Y40000D02*
D03*
Y30000D02*
D03*
Y20000D02*
D03*
X140000D02*
D03*
Y30000D02*
D03*
Y40000D02*
D03*
X10000Y100000D02*
D03*
Y90000D02*
D03*
Y80000D02*
D03*
D16*
X140000Y60000D02*
D03*
Y130000D02*
D03*
X10000D02*
D03*
Y10000D02*
D03*
X140000D02*
D03*
X10000Y70000D02*
D03*
D17*
X70000Y160000D02*
D03*
Y10000D02*
D03*
D18*
X130000Y111000D02*
D03*
X70000D02*
D03*
X131000Y154000D02*
D03*
X116000Y144000D02*
D03*
X80000Y110000D02*
D03*
X95000D02*
D03*
X71000Y40000D02*
D03*
X131000Y27000D02*
D03*
X121000Y51000D02*
D03*
X115000Y10000D02*
D03*
X97000D02*
D03*
X41000Y115000D02*
D03*
X111000Y35000D02*
D03*
X102000Y30000D02*
D03*
X100000Y54000D02*
D03*
X60000Y46000D02*
D03*
X50000D02*
D03*
X40000Y20000D02*
D03*
Y53937D02*
D03*
X84000Y34000D02*
D03*
X64000Y24000D02*
D03*
X53000Y100000D02*
D03*
X39000Y70000D02*
D03*
Y80000D02*
D03*
Y100000D02*
D03*
X87000Y82000D02*
D03*
X63000Y88063D02*
D03*
X124937Y83063D02*
D03*
Y87063D02*
D03*
X107000Y76000D02*
D03*
X92000Y69000D02*
D03*
X19000Y80000D02*
D03*
X43000Y88000D02*
D03*
X53000D02*
D03*
X84000Y136000D02*
D03*
X64000Y146000D02*
D03*
X55000Y129000D02*
D03*
X45000Y136000D02*
D03*
X82000Y155000D02*
D03*
X93000Y160000D02*
D03*
X111000D02*
D03*
X92000Y66000D02*
D03*
D19*
X88000Y73000D02*
X92000Y69000D01*
X17000Y73000D02*
X88000D01*
X10000Y80000D02*
X17000Y73000D01*
X92000Y66000D02*
Y69000D01*
M02*
