G04 Layer_Color=2752767*
%FSLAX25Y25*%
%MOIN*%
G70*
G01*
G75*
%ADD33C,0.00200*%
%ADD34C,0.00267*%
D33*
X139200Y89200D02*
Y90800D01*
X140800D01*
Y89200D01*
X139200D01*
Y79200D02*
Y80800D01*
X140800D01*
Y79200D01*
X139200D01*
Y59200D02*
Y60800D01*
X140800D01*
Y59200D01*
X139200D01*
Y69200D02*
Y70800D01*
X140800D01*
Y69200D01*
X139200D01*
Y99200D02*
Y100800D01*
X140800D01*
Y99200D01*
X139200D01*
Y109200D02*
Y110800D01*
X140800D01*
Y109200D01*
X139200D01*
X49200Y159200D02*
Y160800D01*
X50800D01*
Y159200D01*
X49200D01*
X69200D02*
Y160800D01*
X70800D01*
Y159200D01*
X69200D01*
X59200D02*
Y160800D01*
X60800D01*
Y159200D01*
X59200D01*
Y9200D02*
Y10800D01*
X60800D01*
Y9200D01*
X59200D01*
X69200D02*
Y10800D01*
X70800D01*
Y9200D01*
X69200D01*
X49200D02*
Y10800D01*
X50800D01*
Y9200D01*
X49200D01*
X139200Y159200D02*
Y160800D01*
X140800D01*
Y159200D01*
X139200D01*
Y149200D02*
Y150800D01*
X140800D01*
Y149200D01*
X139200D01*
Y129200D02*
Y130800D01*
X140800D01*
Y129200D01*
X139200D01*
Y139200D02*
Y140800D01*
X140800D01*
Y139200D01*
X139200D01*
X9200D02*
Y140800D01*
X10800D01*
Y139200D01*
X9200D01*
Y129200D02*
Y130800D01*
X10800D01*
Y129200D01*
X9200D01*
Y149200D02*
Y150800D01*
X10800D01*
Y149200D01*
X9200D01*
Y159200D02*
Y160800D01*
X10800D01*
Y159200D01*
X9200D01*
Y39200D02*
Y40800D01*
X10800D01*
Y39200D01*
X9200D01*
Y29200D02*
Y30800D01*
X10800D01*
Y29200D01*
X9200D01*
Y9200D02*
Y10800D01*
X10800D01*
Y9200D01*
X9200D01*
Y19200D02*
Y20800D01*
X10800D01*
Y19200D01*
X9200D01*
X139200D02*
Y20800D01*
X140800D01*
Y19200D01*
X139200D01*
Y9200D02*
Y10800D01*
X140800D01*
Y9200D01*
X139200D01*
Y29200D02*
Y30800D01*
X140800D01*
Y29200D01*
X139200D01*
Y39200D02*
Y40800D01*
X140800D01*
Y39200D01*
X139200D01*
X9200Y99200D02*
Y100800D01*
X10800D01*
Y99200D01*
X9200D01*
Y89200D02*
Y90800D01*
X10800D01*
Y89200D01*
X9200D01*
Y69200D02*
Y70800D01*
X10800D01*
Y69200D01*
X9200D01*
Y79200D02*
Y80800D01*
X10800D01*
Y79200D01*
X9200D01*
D34*
X130800Y111000D02*
X130247Y111761D01*
X129353Y111470D01*
Y110530D01*
X130247Y110239D01*
X130800Y111000D01*
X70800D02*
X70247Y111761D01*
X69353Y111470D01*
Y110530D01*
X70247Y110239D01*
X70800Y111000D01*
X131800Y154000D02*
X131247Y154761D01*
X130353Y154470D01*
Y153530D01*
X131247Y153239D01*
X131800Y154000D01*
X116800Y144000D02*
X116247Y144761D01*
X115353Y144470D01*
Y143530D01*
X116247Y143239D01*
X116800Y144000D01*
X80800Y110000D02*
X80247Y110761D01*
X79353Y110470D01*
Y109530D01*
X80247Y109239D01*
X80800Y110000D01*
X95800D02*
X95247Y110761D01*
X94353Y110470D01*
Y109530D01*
X95247Y109239D01*
X95800Y110000D01*
X71800Y40000D02*
X71247Y40761D01*
X70353Y40470D01*
Y39530D01*
X71247Y39239D01*
X71800Y40000D01*
X131800Y27000D02*
X131247Y27761D01*
X130353Y27470D01*
Y26530D01*
X131247Y26239D01*
X131800Y27000D01*
X121800Y51000D02*
X121247Y51761D01*
X120353Y51470D01*
Y50530D01*
X121247Y50239D01*
X121800Y51000D01*
X115800Y10000D02*
X115247Y10761D01*
X114353Y10470D01*
Y9530D01*
X115247Y9239D01*
X115800Y10000D01*
X97800D02*
X97247Y10761D01*
X96353Y10470D01*
Y9530D01*
X97247Y9239D01*
X97800Y10000D01*
X41800Y115000D02*
X41247Y115761D01*
X40353Y115470D01*
Y114530D01*
X41247Y114239D01*
X41800Y115000D01*
X111800Y35000D02*
X111247Y35761D01*
X110353Y35470D01*
Y34530D01*
X111247Y34239D01*
X111800Y35000D01*
X102800Y30000D02*
X102247Y30761D01*
X101353Y30470D01*
Y29530D01*
X102247Y29239D01*
X102800Y30000D01*
X100800Y54000D02*
X100247Y54761D01*
X99353Y54470D01*
Y53530D01*
X100247Y53239D01*
X100800Y54000D01*
X60800Y46000D02*
X60247Y46761D01*
X59353Y46470D01*
Y45530D01*
X60247Y45239D01*
X60800Y46000D01*
X50800D02*
X50247Y46761D01*
X49353Y46470D01*
Y45530D01*
X50247Y45239D01*
X50800Y46000D01*
X40800Y20000D02*
X40247Y20761D01*
X39353Y20470D01*
Y19530D01*
X40247Y19239D01*
X40800Y20000D01*
Y53937D02*
X40247Y54698D01*
X39353Y54407D01*
Y53467D01*
X40247Y53176D01*
X40800Y53937D01*
X84800Y34000D02*
X84247Y34761D01*
X83353Y34470D01*
Y33530D01*
X84247Y33239D01*
X84800Y34000D01*
X64800Y24000D02*
X64247Y24761D01*
X63353Y24470D01*
Y23530D01*
X64247Y23239D01*
X64800Y24000D01*
X53800Y100000D02*
X53247Y100761D01*
X52353Y100470D01*
Y99530D01*
X53247Y99239D01*
X53800Y100000D01*
X39800Y70000D02*
X39247Y70761D01*
X38353Y70470D01*
Y69530D01*
X39247Y69239D01*
X39800Y70000D01*
Y80000D02*
X39247Y80761D01*
X38353Y80470D01*
Y79530D01*
X39247Y79239D01*
X39800Y80000D01*
Y100000D02*
X39247Y100761D01*
X38353Y100470D01*
Y99530D01*
X39247Y99239D01*
X39800Y100000D01*
X87800Y82000D02*
X87247Y82761D01*
X86353Y82470D01*
Y81530D01*
X87247Y81239D01*
X87800Y82000D01*
X63800Y88063D02*
X63247Y88824D01*
X62353Y88533D01*
Y87593D01*
X63247Y87302D01*
X63800Y88063D01*
X125737Y83063D02*
X125184Y83824D01*
X124290Y83533D01*
Y82593D01*
X125184Y82302D01*
X125737Y83063D01*
Y87063D02*
X125184Y87824D01*
X124290Y87533D01*
Y86593D01*
X125184Y86302D01*
X125737Y87063D01*
X107800Y76000D02*
X107247Y76761D01*
X106353Y76470D01*
Y75530D01*
X107247Y75239D01*
X107800Y76000D01*
X92800Y69000D02*
X92247Y69761D01*
X91353Y69470D01*
Y68530D01*
X92247Y68239D01*
X92800Y69000D01*
X19800Y80000D02*
X19247Y80761D01*
X18353Y80470D01*
Y79530D01*
X19247Y79239D01*
X19800Y80000D01*
X43800Y88000D02*
X43247Y88761D01*
X42353Y88470D01*
Y87530D01*
X43247Y87239D01*
X43800Y88000D01*
X53800D02*
X53247Y88761D01*
X52353Y88470D01*
Y87530D01*
X53247Y87239D01*
X53800Y88000D01*
X84800Y136000D02*
X84247Y136761D01*
X83353Y136470D01*
Y135530D01*
X84247Y135239D01*
X84800Y136000D01*
X64800Y146000D02*
X64247Y146761D01*
X63353Y146470D01*
Y145530D01*
X64247Y145239D01*
X64800Y146000D01*
X55800Y129000D02*
X55247Y129761D01*
X54353Y129470D01*
Y128530D01*
X55247Y128239D01*
X55800Y129000D01*
X45800Y136000D02*
X45247Y136761D01*
X44353Y136470D01*
Y135530D01*
X45247Y135239D01*
X45800Y136000D01*
X82800Y155000D02*
X82247Y155761D01*
X81353Y155470D01*
Y154530D01*
X82247Y154239D01*
X82800Y155000D01*
X93800Y160000D02*
X93247Y160761D01*
X92353Y160470D01*
Y159530D01*
X93247Y159239D01*
X93800Y160000D01*
X111800D02*
X111247Y160761D01*
X110353Y160470D01*
Y159530D01*
X111247Y159239D01*
X111800Y160000D01*
X92800Y66000D02*
X92247Y66761D01*
X91353Y66470D01*
Y65530D01*
X92247Y65239D01*
X92800Y66000D01*
M02*
