G04 Layer_Physical_Order=1*
G04 Layer_Color=255*
%FSLAX25Y25*%
%MOIN*%
G70*
G01*
G75*
G04:AMPARAMS|DCode=10|XSize=39.37mil|YSize=51.18mil|CornerRadius=4.92mil|HoleSize=0mil|Usage=FLASHONLY|Rotation=0.000|XOffset=0mil|YOffset=0mil|HoleType=Round|Shape=RoundedRectangle|*
%AMROUNDEDRECTD10*
21,1,0.03937,0.04134,0,0,0.0*
21,1,0.02953,0.05118,0,0,0.0*
1,1,0.00984,0.01476,-0.02067*
1,1,0.00984,-0.01476,-0.02067*
1,1,0.00984,-0.01476,0.02067*
1,1,0.00984,0.01476,0.02067*
%
%ADD10ROUNDEDRECTD10*%
G04:AMPARAMS|DCode=11|XSize=39.37mil|YSize=51.18mil|CornerRadius=4.92mil|HoleSize=0mil|Usage=FLASHONLY|Rotation=270.000|XOffset=0mil|YOffset=0mil|HoleType=Round|Shape=RoundedRectangle|*
%AMROUNDEDRECTD11*
21,1,0.03937,0.04134,0,0,270.0*
21,1,0.02953,0.05118,0,0,270.0*
1,1,0.00984,-0.02067,-0.01476*
1,1,0.00984,-0.02067,0.01476*
1,1,0.00984,0.02067,0.01476*
1,1,0.00984,0.02067,-0.01476*
%
%ADD11ROUNDEDRECTD11*%
%ADD12O,0.02362X0.06102*%
%ADD13C,0.05905*%
%ADD14C,0.01000*%
%ADD15C,0.06500*%
G04:AMPARAMS|DCode=16|XSize=65mil|YSize=65mil|CornerRadius=9.75mil|HoleSize=0mil|Usage=FLASHONLY|Rotation=0.000|XOffset=0mil|YOffset=0mil|HoleType=Round|Shape=RoundedRectangle|*
%AMROUNDEDRECTD16*
21,1,0.06500,0.04550,0,0,0.0*
21,1,0.04550,0.06500,0,0,0.0*
1,1,0.01950,0.02275,-0.02275*
1,1,0.01950,-0.02275,-0.02275*
1,1,0.01950,-0.02275,0.02275*
1,1,0.01950,0.02275,0.02275*
%
%ADD16ROUNDEDRECTD16*%
G04:AMPARAMS|DCode=17|XSize=65mil|YSize=65mil|CornerRadius=9.75mil|HoleSize=0mil|Usage=FLASHONLY|Rotation=90.000|XOffset=0mil|YOffset=0mil|HoleType=Round|Shape=RoundedRectangle|*
%AMROUNDEDRECTD17*
21,1,0.06500,0.04550,0,0,90.0*
21,1,0.04550,0.06500,0,0,90.0*
1,1,0.01950,0.02275,0.02275*
1,1,0.01950,0.02275,-0.02275*
1,1,0.01950,-0.02275,-0.02275*
1,1,0.01950,-0.02275,0.02275*
%
%ADD17ROUNDEDRECTD17*%
%ADD18C,0.01968*%
G36*
X101351Y102649D02*
X87455D01*
X87251Y103249D01*
X87534Y103466D01*
X88103Y104208D01*
X88461Y105073D01*
X88583Y106000D01*
X88461Y106927D01*
X88103Y107792D01*
X87534Y108534D01*
X86792Y109103D01*
X86122Y109381D01*
Y113473D01*
X87067D01*
X87493Y113558D01*
X87854Y113799D01*
X88096Y114161D01*
X88180Y114587D01*
Y114941D01*
X91820D01*
Y114587D01*
X91904Y114161D01*
X92146Y113799D01*
X92507Y113558D01*
X92933Y113473D01*
X97067D01*
X97493Y113558D01*
X97854Y113799D01*
X98096Y114161D01*
X98180Y114587D01*
Y114941D01*
X101351D01*
Y102649D01*
D02*
G37*
G36*
X144235Y112404D02*
X144033Y112303D01*
X143635Y112244D01*
X143031Y113031D01*
X142143Y113712D01*
X141110Y114141D01*
X140500Y114221D01*
Y110000D01*
Y105779D01*
X141110Y105859D01*
X142143Y106288D01*
X143031Y106969D01*
X143635Y107756D01*
X144033Y107697D01*
X144235Y107596D01*
Y102404D01*
X144033Y102303D01*
X143635Y102244D01*
X143031Y103031D01*
X142143Y103712D01*
X141110Y104141D01*
X140500Y104221D01*
Y100000D01*
Y95779D01*
X141110Y95859D01*
X142143Y96288D01*
X143031Y96969D01*
X143635Y97756D01*
X144033Y97697D01*
X144235Y97596D01*
Y95000D01*
X119937D01*
Y86063D01*
X119911Y86000D01*
X117564D01*
X117286Y86600D01*
X117473Y86878D01*
X117588Y87461D01*
Y88437D01*
X114000D01*
X110412D01*
Y87461D01*
X110528Y86878D01*
X110714Y86600D01*
X110435Y86000D01*
X64022D01*
X63657Y86557D01*
X63662Y86600D01*
X64142Y86921D01*
X64492Y87445D01*
X64615Y88063D01*
X64492Y88681D01*
X64142Y89205D01*
X63618Y89555D01*
X63000Y89678D01*
X62382Y89555D01*
X61858Y89205D01*
X61844Y89184D01*
X61180D01*
Y89539D01*
X61096Y89965D01*
X60854Y90327D01*
X60493Y90568D01*
X60067Y90653D01*
X55933D01*
X55507Y90568D01*
X55146Y90327D01*
X54904Y89965D01*
X54820Y89539D01*
Y89122D01*
X54156D01*
X54142Y89142D01*
X53618Y89492D01*
X53000Y89615D01*
X52382Y89492D01*
X51921Y89184D01*
X51180D01*
Y89539D01*
X51096Y89965D01*
X50854Y90327D01*
X50493Y90568D01*
X50067Y90653D01*
X45933D01*
X45507Y90568D01*
X45146Y90327D01*
X44904Y89965D01*
X44820Y89539D01*
Y89122D01*
X44156D01*
X44142Y89142D01*
X43618Y89492D01*
X43000Y89615D01*
Y102216D01*
X43554Y102446D01*
X44000Y102000D01*
X67414D01*
X67878Y101535D01*
Y101000D01*
X67878Y101000D01*
X67964Y100571D01*
X68207Y100207D01*
X68222Y100192D01*
X68000Y99777D01*
Y96130D01*
X69724D01*
Y97500D01*
X69639Y97926D01*
X70192Y98222D01*
X70722Y97692D01*
X70684Y97500D01*
Y93760D01*
X70822Y93065D01*
X71216Y92476D01*
X71805Y92082D01*
X72500Y91944D01*
X73195Y92082D01*
X73784Y92476D01*
X74178Y93065D01*
X74316Y93760D01*
Y97500D01*
X74178Y98195D01*
X73784Y98784D01*
X73195Y99178D01*
X72500Y99316D01*
X72308Y99278D01*
X70186Y101400D01*
X70277Y102000D01*
X76378D01*
Y98893D01*
X76216Y98784D01*
X75822Y98195D01*
X75684Y97500D01*
Y93760D01*
X75822Y93065D01*
X76216Y92476D01*
X76805Y92082D01*
X77500Y91944D01*
X78195Y92082D01*
X78784Y92476D01*
X79178Y93065D01*
X79316Y93760D01*
Y97500D01*
X79178Y98195D01*
X78784Y98784D01*
X78622Y98893D01*
Y102000D01*
X81378D01*
Y98893D01*
X81216Y98784D01*
X80822Y98195D01*
X80684Y97500D01*
Y93760D01*
X80822Y93065D01*
X81216Y92476D01*
X81805Y92082D01*
X82500Y91944D01*
X83195Y92082D01*
X83784Y92476D01*
X84178Y93065D01*
X84316Y93760D01*
Y97500D01*
X84178Y98195D01*
X83784Y98784D01*
X83622Y98893D01*
Y102000D01*
X102000D01*
Y114941D01*
X116063D01*
X116063Y114941D01*
X116492Y115027D01*
X116856Y115270D01*
X117586Y116000D01*
X144235D01*
Y112404D01*
D02*
G37*
G36*
Y138596D02*
Y133976D01*
X143922Y133814D01*
X143635Y133741D01*
X143046Y134135D01*
X142275Y134289D01*
X140500D01*
Y130000D01*
Y125711D01*
X142275D01*
X143046Y125865D01*
X143635Y126259D01*
X143922Y126186D01*
X144235Y126024D01*
Y116649D01*
X119019D01*
X118790Y117204D01*
X138175Y136589D01*
X138995Y136249D01*
X140000Y136117D01*
X141005Y136249D01*
X141942Y136637D01*
X142746Y137254D01*
X143363Y138058D01*
X143635Y138716D01*
X144235Y138596D01*
D02*
G37*
G36*
X81839Y117638D02*
X81820Y117539D01*
Y114587D01*
X81904Y114161D01*
X82146Y113799D01*
X82507Y113558D01*
X82933Y113473D01*
X83878D01*
Y109381D01*
X83208Y109103D01*
X82466Y108534D01*
X81897Y107792D01*
X81539Y106927D01*
X81417Y106000D01*
X81539Y105073D01*
X81816Y104402D01*
X81707Y104293D01*
X81464Y103929D01*
X81378Y103500D01*
X81378Y103500D01*
Y102649D01*
X78622D01*
Y103500D01*
X78536Y103929D01*
X78293Y104293D01*
X78293Y104293D01*
X78184Y104402D01*
X78461Y105073D01*
X78583Y106000D01*
X78461Y106927D01*
X78103Y107792D01*
X77534Y108534D01*
X76792Y109103D01*
X76122Y109381D01*
Y113473D01*
X77067D01*
X77493Y113558D01*
X77854Y113799D01*
X78096Y114161D01*
X78180Y114587D01*
Y117539D01*
X78096Y117965D01*
X77887Y118278D01*
X77942Y118518D01*
X78109Y118878D01*
X80598D01*
X81839Y117638D01*
D02*
G37*
G36*
X125954Y55814D02*
X126457Y55515D01*
X126498Y55238D01*
X126532Y54986D01*
X126572Y54916D01*
X126571Y54834D01*
X126600Y54761D01*
X126693Y54665D01*
X126745Y54541D01*
X126859Y54493D01*
X126945Y54404D01*
X127080Y54402D01*
X127204Y54351D01*
X144235D01*
Y41403D01*
X143635Y41284D01*
X143363Y41942D01*
X142746Y42746D01*
X141942Y43363D01*
X141005Y43751D01*
X140000Y43883D01*
X138995Y43751D01*
X138058Y43363D01*
X137254Y42746D01*
X136637Y41942D01*
X136249Y41005D01*
X136117Y40000D01*
X136249Y38995D01*
X136589Y38175D01*
X134535Y36122D01*
X126590D01*
Y37067D01*
X126505Y37493D01*
X126264Y37854D01*
X125902Y38096D01*
X125476Y38181D01*
X125122D01*
Y42000D01*
X125122Y42000D01*
X125036Y42429D01*
X124793Y42793D01*
X121793Y45793D01*
X121429Y46036D01*
X121000Y46122D01*
X121000Y46122D01*
X111381D01*
X111103Y46792D01*
X110534Y47534D01*
X109792Y48103D01*
X108927Y48461D01*
X108000Y48583D01*
X107073Y48461D01*
X106208Y48103D01*
X105466Y47534D01*
X104897Y46792D01*
X104539Y45927D01*
X104417Y45000D01*
X104539Y44073D01*
X104897Y43208D01*
X105466Y42466D01*
X106208Y41897D01*
X107073Y41539D01*
X108000Y41417D01*
X108927Y41539D01*
X109792Y41897D01*
X110534Y42466D01*
X111103Y43208D01*
X111381Y43878D01*
X120535D01*
X122878Y41535D01*
Y38181D01*
X122524D01*
X122098Y38096D01*
X121736Y37854D01*
X121495Y37493D01*
X121410Y37067D01*
Y32933D01*
X121495Y32507D01*
X121736Y32146D01*
X122098Y31904D01*
X122524Y31819D01*
X122878D01*
Y28181D01*
X122524D01*
X122098Y28096D01*
X121736Y27854D01*
X121495Y27493D01*
X121410Y27067D01*
Y22933D01*
X121495Y22507D01*
X121736Y22146D01*
X122098Y21904D01*
X122524Y21820D01*
X125476D01*
X125902Y21904D01*
X126264Y22146D01*
X126505Y22507D01*
X126590Y22933D01*
Y27067D01*
X126505Y27493D01*
X126264Y27854D01*
X125902Y28096D01*
X125476Y28181D01*
X125122D01*
Y31819D01*
X125476D01*
X125902Y31904D01*
X126264Y32146D01*
X126505Y32507D01*
X126590Y32933D01*
Y33878D01*
X135000D01*
X135000Y33878D01*
X135429Y33964D01*
X135793Y34207D01*
X138175Y36589D01*
X138995Y36249D01*
X140000Y36117D01*
X141005Y36249D01*
X141942Y36637D01*
X142746Y37254D01*
X143363Y38058D01*
X143635Y38716D01*
X144235Y38596D01*
Y31403D01*
X143635Y31284D01*
X143363Y31942D01*
X142746Y32746D01*
X141942Y33363D01*
X141005Y33751D01*
X140000Y33883D01*
X138995Y33751D01*
X138058Y33363D01*
X137254Y32746D01*
X136637Y31942D01*
X136249Y31005D01*
X136117Y30000D01*
X136249Y28995D01*
X136589Y28175D01*
X129535Y21122D01*
X121590D01*
X118716Y23996D01*
Y27067D01*
X118631Y27493D01*
X118390Y27854D01*
X118028Y28096D01*
X117602Y28181D01*
X114650D01*
X114224Y28096D01*
X113862Y27854D01*
X113621Y27493D01*
X113536Y27067D01*
Y26122D01*
X108590D01*
Y27067D01*
X108505Y27493D01*
X108264Y27854D01*
X107903Y28096D01*
X107476Y28181D01*
X107122D01*
Y31819D01*
X107476D01*
X107903Y31904D01*
X108264Y32146D01*
X108505Y32507D01*
X108590Y32933D01*
Y37067D01*
X108505Y37493D01*
X108264Y37854D01*
X107903Y38096D01*
X107476Y38181D01*
X104524D01*
X104097Y38096D01*
X103736Y37854D01*
X103495Y37493D01*
X103410Y37067D01*
Y32933D01*
X103495Y32507D01*
X103736Y32146D01*
X104097Y31904D01*
X104524Y31819D01*
X104878D01*
Y28181D01*
X104524D01*
X104097Y28096D01*
X103736Y27854D01*
X103495Y27493D01*
X103410Y27067D01*
Y22933D01*
X103495Y22507D01*
X103736Y22146D01*
X104097Y21904D01*
X104524Y21820D01*
X107476D01*
X107903Y21904D01*
X108264Y22146D01*
X108505Y22507D01*
X108590Y22933D01*
Y23878D01*
X113536D01*
Y22933D01*
X113621Y22507D01*
X113862Y22146D01*
X114224Y21904D01*
X114650Y21820D01*
X117602D01*
X117701Y21839D01*
X120333Y19207D01*
X120333Y19207D01*
X120697Y18964D01*
X121126Y18878D01*
X121126Y18879D01*
X130000D01*
X130000Y18878D01*
X130429Y18964D01*
X130793Y19207D01*
X138175Y26589D01*
X138995Y26249D01*
X140000Y26117D01*
X141005Y26249D01*
X141942Y26637D01*
X142746Y27254D01*
X143363Y28058D01*
X143635Y28716D01*
X144235Y28596D01*
Y21404D01*
X143635Y21284D01*
X143363Y21942D01*
X142746Y22746D01*
X141942Y23363D01*
X141005Y23751D01*
X140000Y23883D01*
X138995Y23751D01*
X138058Y23363D01*
X137254Y22746D01*
X136637Y21942D01*
X136249Y21005D01*
X136117Y20000D01*
X136249Y18995D01*
X136362Y18722D01*
X135961Y18122D01*
X106590D01*
X100716Y23996D01*
Y27067D01*
X100631Y27493D01*
X100390Y27854D01*
X100029Y28096D01*
X99602Y28181D01*
X96650D01*
X96551Y28161D01*
X94122Y30591D01*
Y37535D01*
X95084Y38497D01*
X95101Y38493D01*
X95353Y37811D01*
X95244Y37649D01*
X95128Y37067D01*
Y35500D01*
X101124D01*
Y37067D01*
X101008Y37649D01*
X100678Y38143D01*
X100185Y38473D01*
X99602Y38588D01*
X98947D01*
X98765Y39188D01*
X98793Y39207D01*
X102793Y43207D01*
X102793Y43207D01*
X103036Y43571D01*
X103122Y44000D01*
Y52000D01*
X103122Y52000D01*
X103036Y52429D01*
X102793Y52793D01*
X102793Y52793D01*
X101836Y53751D01*
X102084Y54351D01*
X122670D01*
X122794Y54402D01*
X122929Y54404D01*
X123015Y54493D01*
X123129Y54541D01*
X123181Y54665D01*
X123274Y54761D01*
X123303Y54834D01*
X123302Y54916D01*
X123343Y54986D01*
X123376Y55238D01*
X123417Y55515D01*
X123920Y55814D01*
X123954Y55820D01*
X125920D01*
X125954Y55814D01*
D02*
G37*
G36*
X119000Y74000D02*
X137246D01*
X137450Y73400D01*
X136969Y73031D01*
X136288Y72143D01*
X135859Y71109D01*
X135779Y70500D01*
X140000D01*
Y70000D01*
X140500D01*
Y65779D01*
X141110Y65859D01*
X142143Y66288D01*
X143031Y66969D01*
X143635Y67756D01*
X144033Y67697D01*
X144235Y67596D01*
Y63976D01*
X143922Y63814D01*
X143635Y63741D01*
X143046Y64135D01*
X142275Y64289D01*
X140500D01*
Y60000D01*
Y55711D01*
X142275D01*
X143046Y55865D01*
X143635Y56259D01*
X143922Y56186D01*
X144235Y56024D01*
Y55000D01*
X127204D01*
X127175Y55073D01*
X127104Y55600D01*
X127489Y55857D01*
X127819Y56351D01*
X127935Y56933D01*
Y58500D01*
X124937D01*
X121939D01*
Y56933D01*
X122055Y56351D01*
X122385Y55857D01*
X122770Y55600D01*
X122699Y55073D01*
X122670Y55000D01*
X101237D01*
X101142Y55142D01*
X100618Y55492D01*
X100000Y55615D01*
X99382Y55492D01*
X98858Y55142D01*
X98802Y55059D01*
X98180D01*
Y55413D01*
X98096Y55840D01*
X97854Y56201D01*
X97493Y56442D01*
X97067Y56527D01*
X92933D01*
X92507Y56442D01*
X92146Y56201D01*
X91904Y55840D01*
X91820Y55413D01*
Y55059D01*
X88180D01*
Y55413D01*
X88096Y55840D01*
X87854Y56201D01*
X87493Y56442D01*
X87067Y56527D01*
X86122D01*
Y59000D01*
X86122Y59000D01*
X86036Y59429D01*
X85793Y59793D01*
X85793Y59793D01*
X83184Y62402D01*
X83461Y63073D01*
X83583Y64000D01*
X83461Y64927D01*
X83103Y65792D01*
X82534Y66534D01*
X81792Y67103D01*
X80927Y67461D01*
X80000Y67583D01*
X79600Y67531D01*
X79000Y68057D01*
Y71539D01*
X79178Y71805D01*
X79316Y72500D01*
Y76240D01*
X79178Y76935D01*
X79000Y77201D01*
Y83000D01*
X85096D01*
X85464Y82400D01*
X85385Y82000D01*
X85508Y81382D01*
X85858Y80858D01*
X86382Y80508D01*
X87000Y80385D01*
X87618Y80508D01*
X88142Y80858D01*
X88156Y80878D01*
X88820D01*
Y80461D01*
X88904Y80035D01*
X89146Y79673D01*
X89507Y79432D01*
X89933Y79347D01*
X94067D01*
X94493Y79432D01*
X94854Y79673D01*
X95096Y80035D01*
X95180Y80461D01*
Y83000D01*
X110034D01*
X110412Y82539D01*
Y81563D01*
X114000D01*
X117588D01*
Y82539D01*
X117966Y83000D01*
X119000D01*
Y74000D01*
D02*
G37*
G36*
X137949Y93751D02*
X137857Y93712D01*
X136969Y93031D01*
X136288Y92143D01*
X135859Y91110D01*
X135779Y90500D01*
X140000D01*
Y90000D01*
X140500D01*
Y85779D01*
X141110Y85859D01*
X142143Y86288D01*
X143031Y86969D01*
X143635Y87756D01*
X144033Y87697D01*
X144235Y87596D01*
Y82404D01*
X144033Y82303D01*
X143635Y82244D01*
X143031Y83031D01*
X142143Y83712D01*
X141110Y84141D01*
X140500Y84221D01*
Y80000D01*
Y75779D01*
X141110Y75859D01*
X142143Y76288D01*
X143031Y76969D01*
X143635Y77756D01*
X144033Y77697D01*
X144235Y77596D01*
Y71403D01*
X143635Y71284D01*
X143363Y71942D01*
X142746Y72746D01*
X141942Y73363D01*
X141005Y73751D01*
X140000Y73883D01*
X138995Y73751D01*
X138650Y73608D01*
X138596Y73608D01*
X137944Y73965D01*
X137861Y74209D01*
X137762Y74321D01*
X137705Y74459D01*
X137605Y74501D01*
X137533Y74582D01*
X137384Y74592D01*
X137246Y74649D01*
X128122D01*
X127940Y75249D01*
X128143Y75385D01*
X128472Y75878D01*
X128588Y76461D01*
Y77437D01*
X125000D01*
X121412D01*
Y76461D01*
X121528Y75878D01*
X121857Y75385D01*
X122060Y75249D01*
X121878Y74649D01*
X119649D01*
Y83000D01*
X119459Y83459D01*
X119000Y83649D01*
X117966D01*
X117935Y83636D01*
X117903Y83646D01*
X117709Y83543D01*
X117507Y83459D01*
X117500Y83441D01*
X117417Y83405D01*
X116854Y83327D01*
X116493Y83568D01*
X116067Y83653D01*
X111933D01*
X111507Y83568D01*
X111146Y83327D01*
X110583Y83405D01*
X110500Y83441D01*
X110493Y83459D01*
X110291Y83543D01*
X110097Y83646D01*
X110065Y83636D01*
X110034Y83649D01*
X95541D01*
X95473Y83996D01*
X95143Y84489D01*
X94752Y84751D01*
X94804Y85227D01*
X94851Y85351D01*
X110435D01*
X110543Y85395D01*
X110659Y85390D01*
X110764Y85487D01*
X110895Y85541D01*
X110939Y85648D01*
X111025Y85727D01*
X111133Y85960D01*
X111428Y86332D01*
X111904Y86353D01*
X111933Y86347D01*
X116067D01*
X116096Y86353D01*
X116572Y86332D01*
X116867Y85960D01*
X116975Y85727D01*
X117061Y85648D01*
X117105Y85541D01*
X117236Y85487D01*
X117341Y85390D01*
X117457Y85395D01*
X117564Y85351D01*
X119911D01*
X120030Y85400D01*
X120159Y85400D01*
X120251Y85491D01*
X120370Y85541D01*
X120420Y85660D01*
X120511Y85751D01*
X120537Y85814D01*
X120537Y85944D01*
X120586Y86063D01*
Y93517D01*
X121065Y93894D01*
X121412Y93539D01*
Y92563D01*
X125000D01*
X128588D01*
Y93539D01*
X128546Y93751D01*
X128986Y94351D01*
X137829D01*
X137949Y93751D01*
D02*
G37*
G36*
X144235Y161404D02*
X143635Y161284D01*
X143363Y161942D01*
X142746Y162746D01*
X141942Y163363D01*
X141005Y163751D01*
X140000Y163883D01*
X138995Y163751D01*
X138058Y163363D01*
X137254Y162746D01*
X136637Y161942D01*
X136297Y161122D01*
X126527D01*
Y162067D01*
X126442Y162493D01*
X126201Y162854D01*
X125839Y163096D01*
X125413Y163180D01*
X122461D01*
X122035Y163096D01*
X121673Y162854D01*
X121432Y162493D01*
X121347Y162067D01*
Y157933D01*
X121432Y157507D01*
X121673Y157146D01*
X122035Y156904D01*
X122461Y156820D01*
X122816D01*
Y153180D01*
X122461D01*
X122035Y153096D01*
X121673Y152854D01*
X121432Y152493D01*
X121347Y152067D01*
Y147933D01*
X121432Y147507D01*
X121673Y147146D01*
X122035Y146904D01*
X122461Y146820D01*
X125413D01*
X125839Y146904D01*
X126201Y147146D01*
X126442Y147507D01*
X126527Y147933D01*
Y152067D01*
X126442Y152493D01*
X126201Y152854D01*
X125839Y153096D01*
X125413Y153180D01*
X125059D01*
Y156820D01*
X125413D01*
X125839Y156904D01*
X126201Y157146D01*
X126442Y157507D01*
X126527Y157933D01*
Y158878D01*
X136297D01*
X136637Y158058D01*
X137254Y157254D01*
X138058Y156637D01*
X138995Y156249D01*
X140000Y156117D01*
X141005Y156249D01*
X141942Y156637D01*
X142746Y157254D01*
X143363Y158058D01*
X143635Y158716D01*
X144235Y158597D01*
Y151403D01*
X143635Y151284D01*
X143363Y151942D01*
X142746Y152746D01*
X141942Y153363D01*
X141005Y153751D01*
X140000Y153883D01*
X138995Y153751D01*
X138058Y153363D01*
X137254Y152746D01*
X136637Y151942D01*
X136249Y151005D01*
X136117Y150000D01*
X136249Y148995D01*
X136589Y148175D01*
X134535Y146122D01*
X121528D01*
X118653Y148996D01*
Y152067D01*
X118568Y152493D01*
X118327Y152854D01*
X117965Y153096D01*
X117539Y153180D01*
X114587D01*
X114161Y153096D01*
X113799Y152854D01*
X113558Y152493D01*
X113473Y152067D01*
Y151122D01*
X108527D01*
Y152067D01*
X108442Y152493D01*
X108201Y152854D01*
X107840Y153096D01*
X107413Y153180D01*
X107059D01*
Y156820D01*
X107413D01*
X107840Y156904D01*
X108201Y157146D01*
X108442Y157507D01*
X108527Y157933D01*
Y162067D01*
X108442Y162493D01*
X108201Y162854D01*
X107840Y163096D01*
X107413Y163180D01*
X104461D01*
X104034Y163096D01*
X103673Y162854D01*
X103432Y162493D01*
X103347Y162067D01*
Y157933D01*
X103432Y157507D01*
X103673Y157146D01*
X104034Y156904D01*
X104461Y156820D01*
X104815D01*
Y153515D01*
X104216Y153308D01*
X101730Y155793D01*
X101366Y156036D01*
X100937Y156122D01*
X100937Y156122D01*
X100594D01*
X100412Y156722D01*
X100615Y156857D01*
X100945Y157351D01*
X101061Y157933D01*
Y159500D01*
X95065D01*
Y157933D01*
X95181Y157351D01*
X95511Y156857D01*
X95714Y156722D01*
X95532Y156122D01*
X92000D01*
X92000Y156122D01*
X91571Y156036D01*
X91207Y155793D01*
X91207Y155793D01*
X88598Y153184D01*
X87927Y153461D01*
X87000Y153583D01*
X86073Y153461D01*
X85208Y153103D01*
X84466Y152534D01*
X83897Y151792D01*
X83539Y150927D01*
X83417Y150000D01*
X83539Y149073D01*
X83897Y148208D01*
X84466Y147466D01*
X85208Y146897D01*
X86073Y146539D01*
X87000Y146417D01*
X87927Y146539D01*
X88792Y146897D01*
X89534Y147466D01*
X90103Y148208D01*
X90461Y149073D01*
X90583Y150000D01*
X90461Y150927D01*
X90184Y151598D01*
X92465Y153878D01*
X100472D01*
X103347Y151004D01*
Y147933D01*
X103432Y147507D01*
X103673Y147146D01*
X104034Y146904D01*
X104461Y146820D01*
X107413D01*
X107840Y146904D01*
X108201Y147146D01*
X108442Y147507D01*
X108527Y147933D01*
Y148878D01*
X113473D01*
Y147933D01*
X113558Y147507D01*
X113799Y147146D01*
X114161Y146904D01*
X114587Y146820D01*
X117539D01*
X117638Y146839D01*
X120270Y144207D01*
X120270Y144207D01*
X120634Y143964D01*
X121063Y143878D01*
X121063Y143878D01*
X135000D01*
X135000Y143878D01*
X135429Y143964D01*
X135793Y144207D01*
X138175Y146589D01*
X138995Y146249D01*
X140000Y146117D01*
X141005Y146249D01*
X141942Y146637D01*
X142746Y147254D01*
X143363Y148058D01*
X143635Y148716D01*
X144235Y148597D01*
Y141403D01*
X143635Y141284D01*
X143363Y141942D01*
X142746Y142746D01*
X141942Y143363D01*
X141005Y143751D01*
X140000Y143883D01*
X138995Y143751D01*
X138058Y143363D01*
X137254Y142746D01*
X136637Y141942D01*
X136297Y141122D01*
X108528D01*
X100653Y148996D01*
Y152067D01*
X100568Y152493D01*
X100327Y152854D01*
X99966Y153096D01*
X99539Y153180D01*
X96587D01*
X96161Y153096D01*
X95799Y152854D01*
X95558Y152493D01*
X95473Y152067D01*
Y147933D01*
X95558Y147507D01*
X95799Y147146D01*
X96161Y146904D01*
X96587Y146820D01*
X99539D01*
X99638Y146839D01*
X107270Y139207D01*
X107270Y139207D01*
X107634Y138964D01*
X108063Y138878D01*
X108063Y138878D01*
X136297D01*
X136589Y138175D01*
X115598Y117184D01*
X98180D01*
Y117539D01*
X98096Y117965D01*
X97854Y118327D01*
X97493Y118568D01*
X97067Y118653D01*
X92933D01*
X92507Y118568D01*
X92146Y118327D01*
X91904Y117965D01*
X91820Y117539D01*
Y117184D01*
X88180D01*
Y117539D01*
X88096Y117965D01*
X87854Y118327D01*
X87493Y118568D01*
X87067Y118653D01*
X83996D01*
X81856Y120793D01*
X81492Y121036D01*
X81063Y121122D01*
X81063Y121122D01*
X78109D01*
X77942Y121482D01*
X77887Y121722D01*
X78096Y122035D01*
X78180Y122461D01*
Y122816D01*
X81820D01*
Y122461D01*
X81904Y122035D01*
X82146Y121673D01*
X82507Y121432D01*
X82933Y121347D01*
X87067D01*
X87493Y121432D01*
X87854Y121673D01*
X88096Y122035D01*
X88180Y122461D01*
Y122816D01*
X91820D01*
Y122461D01*
X91904Y122035D01*
X92146Y121673D01*
X92507Y121432D01*
X92933Y121347D01*
X97067D01*
X97493Y121432D01*
X97854Y121673D01*
X98096Y122035D01*
X98180Y122461D01*
Y125413D01*
X98096Y125839D01*
X97854Y126201D01*
X97493Y126442D01*
X97067Y126527D01*
X92933D01*
X92507Y126442D01*
X92146Y126201D01*
X91904Y125839D01*
X91820Y125413D01*
Y125059D01*
X88180D01*
Y125413D01*
X88096Y125839D01*
X87854Y126201D01*
X87493Y126442D01*
X87067Y126527D01*
X82933D01*
X82507Y126442D01*
X82146Y126201D01*
X81904Y125839D01*
X81820Y125413D01*
Y125059D01*
X78180D01*
Y125413D01*
X78096Y125839D01*
X77854Y126201D01*
X77493Y126442D01*
X77067Y126527D01*
X73996D01*
X72184Y128339D01*
Y132820D01*
X72539D01*
X72966Y132904D01*
X73327Y133146D01*
X73568Y133507D01*
X73653Y133933D01*
Y138067D01*
X73568Y138493D01*
X73327Y138854D01*
X72966Y139096D01*
X72539Y139180D01*
X72184D01*
Y156119D01*
X72275D01*
X72890Y156241D01*
X73410Y156589D01*
X73759Y157111D01*
X73881Y157725D01*
Y162275D01*
X73759Y162890D01*
X73410Y163410D01*
X72890Y163759D01*
X72275Y163881D01*
X67725D01*
X67111Y163759D01*
X66589Y163410D01*
X66241Y162890D01*
X66119Y162275D01*
Y157725D01*
X66241Y157111D01*
X66589Y156589D01*
X67111Y156241D01*
X67725Y156119D01*
X69941D01*
Y139180D01*
X69587D01*
X69160Y139096D01*
X68799Y138854D01*
X68558Y138493D01*
X68473Y138067D01*
Y137122D01*
X61527D01*
Y138067D01*
X61442Y138493D01*
X61201Y138854D01*
X60839Y139096D01*
X60413Y139180D01*
X57461D01*
X57034Y139096D01*
X56673Y138854D01*
X56432Y138493D01*
X56347Y138067D01*
Y133933D01*
X56432Y133507D01*
X56673Y133146D01*
X57034Y132904D01*
X57461Y132820D01*
X60413D01*
X60839Y132904D01*
X61201Y133146D01*
X61442Y133507D01*
X61527Y133933D01*
Y134878D01*
X68473D01*
Y133933D01*
X68558Y133507D01*
X68799Y133146D01*
X69160Y132904D01*
X69587Y132820D01*
X69941D01*
Y127874D01*
X69941Y127874D01*
X70027Y127445D01*
X70270Y127081D01*
X71839Y125512D01*
X71820Y125413D01*
Y122461D01*
X71904Y122035D01*
X72113Y121722D01*
X72058Y121482D01*
X71891Y121122D01*
X69402D01*
X68161Y122362D01*
X68180Y122461D01*
Y125413D01*
X68096Y125839D01*
X67854Y126201D01*
X67493Y126442D01*
X67067Y126527D01*
X62933D01*
X62507Y126442D01*
X62146Y126201D01*
X61904Y125839D01*
X61820Y125413D01*
Y122461D01*
X61904Y122035D01*
X62146Y121673D01*
X62507Y121432D01*
X62933Y121347D01*
X66004D01*
X68144Y119207D01*
X68144Y119207D01*
X68508Y118964D01*
X68937Y118878D01*
X71891D01*
X72058Y118518D01*
X72113Y118278D01*
X71904Y117965D01*
X71820Y117539D01*
Y114587D01*
X71904Y114161D01*
X72146Y113799D01*
X72507Y113558D01*
X72933Y113473D01*
X73878D01*
Y109483D01*
X73330Y109256D01*
X71610Y110976D01*
X71615Y111000D01*
X71492Y111618D01*
X71142Y112142D01*
X70618Y112492D01*
X70000Y112615D01*
X69382Y112492D01*
X68858Y112142D01*
X68508Y111618D01*
X68385Y111000D01*
X68508Y110382D01*
X68858Y109858D01*
X69382Y109508D01*
X70000Y109385D01*
X70024Y109390D01*
X71816Y107598D01*
X71539Y106927D01*
X71417Y106000D01*
X71539Y105073D01*
X71897Y104208D01*
X72466Y103466D01*
X72749Y103249D01*
X72545Y102649D01*
X70277D01*
X70090Y102572D01*
X69962Y102540D01*
X69793Y102793D01*
X69793Y102793D01*
X68184Y104402D01*
X68461Y105073D01*
X68583Y106000D01*
X68461Y106927D01*
X68103Y107792D01*
X67534Y108534D01*
X66792Y109103D01*
X66122Y109381D01*
Y113473D01*
X67067D01*
X67493Y113558D01*
X67854Y113799D01*
X68096Y114161D01*
X68180Y114587D01*
Y117539D01*
X68096Y117965D01*
X67854Y118327D01*
X67493Y118568D01*
X67067Y118653D01*
X62933D01*
X62507Y118568D01*
X62146Y118327D01*
X61904Y117965D01*
X61820Y117539D01*
Y117184D01*
X58180D01*
Y117539D01*
X58096Y117965D01*
X57854Y118327D01*
X57493Y118568D01*
X57067Y118653D01*
X52933D01*
X52507Y118568D01*
X52146Y118327D01*
X51904Y117965D01*
X51820Y117539D01*
Y117184D01*
X50402D01*
X42122Y125465D01*
Y138000D01*
X42122Y138000D01*
X42036Y138429D01*
X41793Y138793D01*
X41793Y138793D01*
X39793Y140793D01*
X39429Y141036D01*
X39000Y141122D01*
X39000Y141122D01*
X36527D01*
Y142067D01*
X36442Y142493D01*
X36201Y142854D01*
X35840Y143096D01*
X35413Y143180D01*
X33406D01*
X28653Y147933D01*
Y152067D01*
X28568Y152493D01*
X28327Y152854D01*
X27966Y153096D01*
X27539Y153180D01*
X24587D01*
X24160Y153096D01*
X23799Y152854D01*
X23558Y152493D01*
X23473Y152067D01*
Y147933D01*
X23558Y147507D01*
X23799Y147146D01*
X24160Y146904D01*
X24587Y146820D01*
X26594D01*
X31347Y142067D01*
Y137933D01*
X31432Y137507D01*
X31673Y137146D01*
X32035Y136904D01*
X32461Y136820D01*
X35413D01*
X35840Y136904D01*
X36201Y137146D01*
X36442Y137507D01*
X36527Y137933D01*
Y138878D01*
X38535D01*
X39878Y137535D01*
Y125000D01*
X39878Y125000D01*
X39964Y124571D01*
X40207Y124207D01*
X49144Y115270D01*
X49508Y115027D01*
X49937Y114941D01*
X49937Y114941D01*
X51820D01*
Y114587D01*
X51904Y114161D01*
X52146Y113799D01*
X52507Y113558D01*
X52933Y113473D01*
X57067D01*
X57493Y113558D01*
X57854Y113799D01*
X58096Y114161D01*
X58180Y114587D01*
Y114941D01*
X61820D01*
Y114587D01*
X61904Y114161D01*
X62146Y113799D01*
X62507Y113558D01*
X62933Y113473D01*
X63878D01*
Y109381D01*
X63208Y109103D01*
X62466Y108534D01*
X61897Y107792D01*
X61619Y107122D01*
X38402D01*
X36527Y108996D01*
Y112067D01*
X36442Y112493D01*
X36201Y112854D01*
X35840Y113096D01*
X35413Y113180D01*
X32461D01*
X32035Y113096D01*
X31673Y112854D01*
X31432Y112493D01*
X31347Y112067D01*
Y107933D01*
X31432Y107507D01*
X31673Y107146D01*
X32035Y106904D01*
X32461Y106820D01*
X35413D01*
X35512Y106839D01*
X37144Y105207D01*
X37144Y105207D01*
X37508Y104964D01*
X37937Y104878D01*
X61619D01*
X61897Y104208D01*
X62466Y103466D01*
X62749Y103249D01*
X62545Y102649D01*
X44269D01*
X44014Y102905D01*
X43894Y102954D01*
X43803Y103046D01*
X43674D01*
X43554Y103095D01*
X43435Y103046D01*
X43306D01*
X42752Y102816D01*
X42660Y102725D01*
X42541Y102675D01*
X42491Y102556D01*
X42400Y102465D01*
Y102335D01*
X42351Y102216D01*
Y89615D01*
X42423Y89440D01*
X42460Y89254D01*
X42515Y89218D01*
X42541Y89156D01*
X42716Y89084D01*
X42873Y88978D01*
X43365Y88881D01*
X43781Y88602D01*
X43884Y88582D01*
X44029Y88485D01*
X44412Y88043D01*
Y86587D01*
X44528Y86004D01*
X44857Y85511D01*
X45351Y85181D01*
X45933Y85065D01*
X47500D01*
Y88063D01*
X48500D01*
Y85065D01*
X50067D01*
X50649Y85181D01*
X51143Y85511D01*
X51473Y86004D01*
X51588Y86587D01*
Y88535D01*
X51921D01*
X52096Y88608D01*
X52282Y88645D01*
X52635Y88881D01*
X53000Y88953D01*
X53365Y88881D01*
X53781Y88602D01*
X53884Y88582D01*
X54029Y88485D01*
X54412Y88043D01*
Y86587D01*
X54527Y86004D01*
X54857Y85511D01*
X55351Y85181D01*
X55933Y85065D01*
X57500D01*
Y88063D01*
X58500D01*
Y85065D01*
X60067D01*
X60649Y85181D01*
X61143Y85511D01*
X61472Y86004D01*
X61588Y86587D01*
Y88106D01*
X61971Y88548D01*
X62116Y88645D01*
X62219Y88665D01*
X62635Y88944D01*
X63000Y89016D01*
X63365Y88944D01*
X63674Y88737D01*
X63881Y88428D01*
X63953Y88063D01*
X63881Y87698D01*
X63674Y87389D01*
X63301Y87140D01*
X63286Y87118D01*
X63260Y87110D01*
X63150Y86914D01*
X63025Y86727D01*
X63030Y86702D01*
X63021Y86688D01*
X63022Y86685D01*
X63017Y86677D01*
X63012Y86633D01*
X63072Y86419D01*
X63114Y86200D01*
X63479Y85644D01*
X63537Y85605D01*
X63563Y85541D01*
X63736Y85469D01*
X63890Y85364D01*
X63958Y85377D01*
X64022Y85351D01*
X89149D01*
X89196Y85227D01*
X89249Y84751D01*
X88857Y84489D01*
X88528Y83996D01*
X88412Y83413D01*
Y81957D01*
X88029Y81515D01*
X87884Y81418D01*
X87781Y81398D01*
X87365Y81119D01*
X87000Y81047D01*
X86635Y81119D01*
X86326Y81326D01*
X86119Y81635D01*
X86047Y82000D01*
X86101Y82273D01*
X86055Y82506D01*
X86018Y82740D01*
X85650Y83340D01*
X85586Y83386D01*
X85555Y83459D01*
X85391Y83527D01*
X85247Y83632D01*
X85169Y83619D01*
X85096Y83649D01*
X79000D01*
X78541Y83459D01*
X78351Y83000D01*
Y78481D01*
X77750Y78006D01*
X77500Y78056D01*
X76805Y77918D01*
X76216Y77524D01*
X75822Y76935D01*
X75684Y76240D01*
Y72500D01*
X75822Y71805D01*
X76216Y71216D01*
X76378Y71107D01*
Y66500D01*
X76378Y66500D01*
X76464Y66071D01*
X76707Y65707D01*
X76816Y65598D01*
X76539Y64927D01*
X76417Y64000D01*
X76539Y63073D01*
X76897Y62208D01*
X77466Y61466D01*
X78208Y60897D01*
X79073Y60539D01*
X80000Y60417D01*
X80927Y60539D01*
X81598Y60816D01*
X83878Y58535D01*
Y56527D01*
X82933D01*
X82507Y56442D01*
X82146Y56201D01*
X81904Y55840D01*
X81820Y55413D01*
Y52461D01*
X81904Y52034D01*
X82146Y51673D01*
X82507Y51432D01*
X82933Y51347D01*
X87067D01*
X87493Y51432D01*
X87854Y51673D01*
X88096Y52034D01*
X88180Y52461D01*
Y52816D01*
X91820D01*
Y52461D01*
X91904Y52034D01*
X92146Y51673D01*
X92507Y51432D01*
X92933Y51347D01*
X97067D01*
X97493Y51432D01*
X97854Y51673D01*
X98096Y52034D01*
X98180Y52461D01*
Y52816D01*
X98921D01*
X99382Y52508D01*
X100000Y52385D01*
X100024Y52390D01*
X100878Y51535D01*
Y44465D01*
X97535Y41122D01*
X95000D01*
X95000Y41122D01*
X94571Y41036D01*
X94207Y40793D01*
X94207Y40793D01*
X92207Y38793D01*
X91964Y38429D01*
X91878Y38000D01*
X91878Y38000D01*
Y30126D01*
X91878Y30126D01*
X91964Y29697D01*
X92207Y29333D01*
X95536Y26004D01*
Y22933D01*
X95621Y22507D01*
X95862Y22146D01*
X96223Y21904D01*
X96650Y21820D01*
X99602D01*
X99701Y21839D01*
X105333Y16207D01*
X105333Y16207D01*
X105697Y15964D01*
X106126Y15878D01*
X106126Y15879D01*
X137000D01*
X137000Y15878D01*
X137429Y15964D01*
X137793Y16207D01*
X138175Y16589D01*
X138995Y16249D01*
X140000Y16117D01*
X141005Y16249D01*
X141942Y16637D01*
X142746Y17254D01*
X143363Y18058D01*
X143635Y18716D01*
X144235Y18597D01*
Y13976D01*
X143922Y13814D01*
X143635Y13741D01*
X143046Y14135D01*
X142275Y14289D01*
X140500D01*
Y10000D01*
Y5711D01*
X142275D01*
X143046Y5865D01*
X143635Y6259D01*
X143922Y6186D01*
X144235Y6024D01*
Y4702D01*
X4702D01*
Y164590D01*
X48407D01*
X48526Y163990D01*
X47857Y163712D01*
X46969Y163031D01*
X46288Y162143D01*
X45859Y161109D01*
X45779Y160500D01*
X50000D01*
X54221D01*
X54141Y161109D01*
X53712Y162143D01*
X53031Y163031D01*
X52143Y163712D01*
X51474Y163990D01*
X51593Y164590D01*
X144235D01*
Y161404D01*
D02*
G37*
%LPC*%
G36*
X126413Y114180D02*
X123461D01*
X123035Y114096D01*
X122673Y113854D01*
X122432Y113493D01*
X122347Y113067D01*
Y108933D01*
X122432Y108507D01*
X122673Y108146D01*
X123035Y107904D01*
X123461Y107820D01*
X126413D01*
X126839Y107904D01*
X127201Y108146D01*
X127442Y108507D01*
X127527Y108933D01*
Y109878D01*
X128844D01*
X128858Y109858D01*
X129382Y109508D01*
X130000Y109385D01*
X130618Y109508D01*
X131142Y109858D01*
X131492Y110382D01*
X131615Y111000D01*
X131492Y111618D01*
X131142Y112142D01*
X130618Y112492D01*
X130000Y112615D01*
X129382Y112492D01*
X128858Y112142D01*
X128844Y112122D01*
X127527D01*
Y113067D01*
X127442Y113493D01*
X127201Y113854D01*
X126839Y114096D01*
X126413Y114180D01*
D02*
G37*
G36*
X139500Y114221D02*
X138891Y114141D01*
X137857Y113712D01*
X136969Y113031D01*
X136288Y112143D01*
X135859Y111109D01*
X135779Y110500D01*
X139500D01*
Y114221D01*
D02*
G37*
G36*
Y109500D02*
X135779D01*
X135859Y108890D01*
X136288Y107857D01*
X136969Y106969D01*
X137857Y106288D01*
X138891Y105859D01*
X139500Y105779D01*
Y109500D01*
D02*
G37*
G36*
X47500Y95437D02*
X44412D01*
Y94461D01*
X44528Y93878D01*
X44857Y93385D01*
X45351Y93055D01*
X45933Y92939D01*
X47500D01*
Y95437D01*
D02*
G37*
G36*
X69724Y95130D02*
X68000D01*
Y91636D01*
X68351Y91705D01*
X69073Y92187D01*
X69555Y92909D01*
X69724Y93760D01*
Y95130D01*
D02*
G37*
G36*
X116067Y91935D02*
X114500D01*
Y89437D01*
X117588D01*
Y90413D01*
X117473Y90996D01*
X117143Y91489D01*
X116649Y91819D01*
X116067Y91935D01*
D02*
G37*
G36*
X67000Y95130D02*
X65276D01*
Y93760D01*
X65446Y92909D01*
X65927Y92187D01*
X66649Y91705D01*
X67000Y91636D01*
Y95130D01*
D02*
G37*
G36*
X139500Y99500D02*
X135779D01*
X135859Y98891D01*
X136288Y97857D01*
X136969Y96969D01*
X137857Y96288D01*
X138891Y95859D01*
X139500Y95779D01*
Y99500D01*
D02*
G37*
G36*
X61588Y95437D02*
X58500D01*
Y92939D01*
X60067D01*
X60649Y93055D01*
X61143Y93385D01*
X61472Y93878D01*
X61588Y94461D01*
Y95437D01*
D02*
G37*
G36*
X51588D02*
X48500D01*
Y92939D01*
X50067D01*
X50649Y93055D01*
X51143Y93385D01*
X51473Y93878D01*
X51588Y94461D01*
Y95437D01*
D02*
G37*
G36*
X57500D02*
X54412D01*
Y94461D01*
X54527Y93878D01*
X54857Y93385D01*
X55351Y93055D01*
X55933Y92939D01*
X57500D01*
Y95437D01*
D02*
G37*
G36*
X113500Y91935D02*
X111933D01*
X111351Y91819D01*
X110857Y91489D01*
X110528Y90996D01*
X110412Y90413D01*
Y89437D01*
X113500D01*
Y91935D01*
D02*
G37*
G36*
X127067Y102935D02*
X125500D01*
Y100437D01*
X128588D01*
Y101413D01*
X128472Y101996D01*
X128143Y102489D01*
X127649Y102819D01*
X127067Y102935D01*
D02*
G37*
G36*
X124500D02*
X122933D01*
X122351Y102819D01*
X121857Y102489D01*
X121528Y101996D01*
X121412Y101413D01*
Y100437D01*
X124500D01*
Y102935D01*
D02*
G37*
G36*
X110061Y100500D02*
X107563D01*
Y97412D01*
X108539D01*
X109122Y97527D01*
X109615Y97857D01*
X109945Y98351D01*
X110061Y98933D01*
Y100500D01*
D02*
G37*
G36*
X118539Y114180D02*
X115587D01*
X115161Y114096D01*
X114799Y113854D01*
X114558Y113493D01*
X114473Y113067D01*
Y108933D01*
X114558Y108507D01*
X114799Y108146D01*
X114878Y108093D01*
Y104180D01*
X113461D01*
X113034Y104096D01*
X112673Y103854D01*
X112432Y103493D01*
X112347Y103067D01*
Y98933D01*
X112432Y98507D01*
X112673Y98146D01*
X113034Y97904D01*
X113461Y97820D01*
X116413D01*
X116840Y97904D01*
X117201Y98146D01*
X117442Y98507D01*
X117527Y98933D01*
Y103067D01*
X117442Y103493D01*
X117201Y103854D01*
X117122Y103907D01*
Y107820D01*
X118539D01*
X118965Y107904D01*
X119327Y108146D01*
X119568Y108507D01*
X119653Y108933D01*
Y113067D01*
X119568Y113493D01*
X119327Y113854D01*
X118965Y114096D01*
X118539Y114180D01*
D02*
G37*
G36*
X108539Y104588D02*
X107563D01*
Y101500D01*
X110061D01*
Y103067D01*
X109945Y103649D01*
X109615Y104143D01*
X109122Y104472D01*
X108539Y104588D01*
D02*
G37*
G36*
X106563D02*
X105587D01*
X105004Y104472D01*
X104511Y104143D01*
X104181Y103649D01*
X104065Y103067D01*
Y101500D01*
X106563D01*
Y104588D01*
D02*
G37*
G36*
X139500Y104221D02*
X138891Y104141D01*
X137857Y103712D01*
X136969Y103031D01*
X136288Y102143D01*
X135859Y101110D01*
X135779Y100500D01*
X139500D01*
Y104221D01*
D02*
G37*
G36*
X47500Y98935D02*
X45933D01*
X45351Y98819D01*
X44857Y98489D01*
X44528Y97996D01*
X44412Y97413D01*
Y96437D01*
X47500D01*
Y98935D01*
D02*
G37*
G36*
X57500D02*
X55933D01*
X55351Y98819D01*
X54857Y98489D01*
X54527Y97996D01*
X54412Y97413D01*
Y96437D01*
X57500D01*
Y98935D01*
D02*
G37*
G36*
X67000Y99624D02*
X66649Y99555D01*
X65927Y99072D01*
X65446Y98351D01*
X65276Y97500D01*
Y96130D01*
X67000D01*
Y99624D01*
D02*
G37*
G36*
X128588Y99437D02*
X125500D01*
Y96939D01*
X127067D01*
X127649Y97055D01*
X128143Y97385D01*
X128472Y97878D01*
X128588Y98461D01*
Y99437D01*
D02*
G37*
G36*
X106563Y100500D02*
X104065D01*
Y98933D01*
X104181Y98351D01*
X104511Y97857D01*
X105004Y97527D01*
X105587Y97412D01*
X106563D01*
Y100500D01*
D02*
G37*
G36*
X124500Y99437D02*
X121412D01*
Y98461D01*
X121528Y97878D01*
X121857Y97385D01*
X122351Y97055D01*
X122933Y96939D01*
X124500D01*
Y99437D01*
D02*
G37*
G36*
X50067Y98935D02*
X48500D01*
Y96437D01*
X51588D01*
Y97413D01*
X51473Y97996D01*
X51143Y98489D01*
X50649Y98819D01*
X50067Y98935D01*
D02*
G37*
G36*
X60067D02*
X58500D01*
Y96437D01*
X61588D01*
Y97413D01*
X61472Y97996D01*
X61143Y98489D01*
X60649Y98819D01*
X60067Y98935D01*
D02*
G37*
G36*
X139500Y129500D02*
X135711D01*
Y127725D01*
X135865Y126954D01*
X136301Y126301D01*
X136954Y125865D01*
X137725Y125711D01*
X139500D01*
Y129500D01*
D02*
G37*
G36*
Y134289D02*
X137725D01*
X136954Y134135D01*
X136301Y133699D01*
X135865Y133046D01*
X135711Y132275D01*
Y130500D01*
X139500D01*
Y134289D01*
D02*
G37*
G36*
X117602Y38588D02*
X116626D01*
Y35500D01*
X119124D01*
Y37067D01*
X119008Y37649D01*
X118678Y38143D01*
X118185Y38473D01*
X117602Y38588D01*
D02*
G37*
G36*
X115626D02*
X114650D01*
X114067Y38473D01*
X113574Y38143D01*
X113244Y37649D01*
X113128Y37067D01*
Y35500D01*
X115626D01*
Y38588D01*
D02*
G37*
G36*
X119124Y34500D02*
X116626D01*
Y31412D01*
X117602D01*
X118185Y31528D01*
X118678Y31857D01*
X119008Y32351D01*
X119124Y32933D01*
Y34500D01*
D02*
G37*
G36*
X101124D02*
X98626D01*
Y31412D01*
X99602D01*
X100185Y31528D01*
X100678Y31857D01*
X101008Y32351D01*
X101124Y32933D01*
Y34500D01*
D02*
G37*
G36*
X115626D02*
X113128D01*
Y32933D01*
X113244Y32351D01*
X113574Y31857D01*
X114067Y31528D01*
X114650Y31412D01*
X115626D01*
Y34500D01*
D02*
G37*
G36*
X97626D02*
X95128D01*
Y32933D01*
X95244Y32351D01*
X95574Y31857D01*
X96067Y31528D01*
X96650Y31412D01*
X97626D01*
Y34500D01*
D02*
G37*
G36*
X128588Y69563D02*
X125500D01*
Y67065D01*
X127067D01*
X127649Y67181D01*
X128143Y67511D01*
X128472Y68004D01*
X128588Y68587D01*
Y69563D01*
D02*
G37*
G36*
X124500D02*
X121412D01*
Y68587D01*
X121528Y68004D01*
X121857Y67511D01*
X122351Y67181D01*
X122933Y67065D01*
X124500D01*
Y69563D01*
D02*
G37*
G36*
X107000Y77615D02*
X106382Y77492D01*
X105858Y77142D01*
X105508Y76618D01*
X105385Y76000D01*
X105508Y75382D01*
X105858Y74858D01*
X105941Y74802D01*
Y73180D01*
X105587D01*
X105160Y73096D01*
X104799Y72854D01*
X104558Y72493D01*
X104473Y72067D01*
Y67933D01*
X104558Y67507D01*
X104799Y67146D01*
X105160Y66904D01*
X105587Y66820D01*
X108539D01*
X108966Y66904D01*
X109327Y67146D01*
X109568Y67507D01*
X109653Y67933D01*
Y72067D01*
X109568Y72493D01*
X109327Y72854D01*
X108966Y73096D01*
X108539Y73180D01*
X108185D01*
Y74921D01*
X108492Y75382D01*
X108615Y76000D01*
X108492Y76618D01*
X108142Y77142D01*
X107618Y77492D01*
X107000Y77615D01*
D02*
G37*
G36*
X84724Y73870D02*
X83000D01*
Y70376D01*
X83351Y70446D01*
X84073Y70928D01*
X84554Y71649D01*
X84724Y72500D01*
Y73870D01*
D02*
G37*
G36*
X82000D02*
X80276D01*
Y72500D01*
X80445Y71649D01*
X80927Y70928D01*
X81649Y70446D01*
X82000Y70376D01*
Y73870D01*
D02*
G37*
G36*
X124437Y62588D02*
X123461D01*
X122878Y62472D01*
X122385Y62143D01*
X122055Y61649D01*
X121939Y61067D01*
Y59500D01*
X124437D01*
Y62588D01*
D02*
G37*
G36*
X126413D02*
X125437D01*
Y59500D01*
X127935D01*
Y61067D01*
X127819Y61649D01*
X127489Y62143D01*
X126996Y62472D01*
X126413Y62588D01*
D02*
G37*
G36*
X116413Y73180D02*
X113461D01*
X113034Y73096D01*
X112673Y72854D01*
X112432Y72493D01*
X112347Y72067D01*
Y67933D01*
X112432Y67507D01*
X112673Y67146D01*
X113034Y66904D01*
X113461Y66820D01*
X114878D01*
Y61907D01*
X114799Y61854D01*
X114558Y61493D01*
X114473Y61067D01*
Y56933D01*
X114558Y56507D01*
X114799Y56146D01*
X115161Y55904D01*
X115587Y55820D01*
X118539D01*
X118965Y55904D01*
X119327Y56146D01*
X119568Y56507D01*
X119653Y56933D01*
Y61067D01*
X119568Y61493D01*
X119327Y61854D01*
X118965Y62096D01*
X118539Y62180D01*
X117122D01*
Y67093D01*
X117201Y67146D01*
X117442Y67507D01*
X117527Y67933D01*
Y72067D01*
X117442Y72493D01*
X117201Y72854D01*
X116840Y73096D01*
X116413Y73180D01*
D02*
G37*
G36*
X139500Y64289D02*
X137725D01*
X136954Y64135D01*
X136301Y63699D01*
X135865Y63046D01*
X135711Y62275D01*
Y60500D01*
X139500D01*
Y64289D01*
D02*
G37*
G36*
Y69500D02*
X135779D01*
X135859Y68891D01*
X136288Y67857D01*
X136969Y66969D01*
X137857Y66288D01*
X138891Y65859D01*
X139500Y65779D01*
Y69500D01*
D02*
G37*
G36*
X83000Y78364D02*
Y74870D01*
X84724D01*
Y76240D01*
X84554Y77091D01*
X84073Y77813D01*
X83351Y78295D01*
X83000Y78364D01*
D02*
G37*
G36*
X94067Y77061D02*
X92500D01*
Y74563D01*
X95588D01*
Y75539D01*
X95473Y76122D01*
X95143Y76615D01*
X94649Y76945D01*
X94067Y77061D01*
D02*
G37*
G36*
X82000Y78364D02*
X81649Y78295D01*
X80927Y77813D01*
X80445Y77091D01*
X80276Y76240D01*
Y74870D01*
X82000D01*
Y78364D01*
D02*
G37*
G36*
X117588Y80563D02*
X114500D01*
Y78065D01*
X116067D01*
X116649Y78181D01*
X117143Y78511D01*
X117473Y79004D01*
X117588Y79587D01*
Y80563D01*
D02*
G37*
G36*
X113500D02*
X110412D01*
Y79587D01*
X110528Y79004D01*
X110857Y78511D01*
X111351Y78181D01*
X111933Y78065D01*
X113500D01*
Y80563D01*
D02*
G37*
G36*
X127067Y73061D02*
X125500D01*
Y70563D01*
X128588D01*
Y71539D01*
X128472Y72122D01*
X128143Y72615D01*
X127649Y72945D01*
X127067Y73061D01*
D02*
G37*
G36*
X124500D02*
X122933D01*
X122351Y72945D01*
X121857Y72615D01*
X121528Y72122D01*
X121412Y71539D01*
Y70563D01*
X124500D01*
Y73061D01*
D02*
G37*
G36*
X91500Y77061D02*
X89933D01*
X89351Y76945D01*
X88857Y76615D01*
X88528Y76122D01*
X88412Y75539D01*
Y74563D01*
X91500D01*
Y77061D01*
D02*
G37*
G36*
Y73563D02*
X88412D01*
Y72587D01*
X88528Y72004D01*
X88857Y71511D01*
X89351Y71181D01*
X89933Y71065D01*
X91500D01*
Y73563D01*
D02*
G37*
G36*
X95588D02*
X92500D01*
Y71065D01*
X94067D01*
X94649Y71181D01*
X95143Y71511D01*
X95473Y72004D01*
X95588Y72587D01*
Y73563D01*
D02*
G37*
G36*
X139500Y59500D02*
X135711D01*
Y57725D01*
X135865Y56954D01*
X136301Y56301D01*
X136954Y55865D01*
X137725Y55711D01*
X139500D01*
Y59500D01*
D02*
G37*
G36*
Y79500D02*
X135779D01*
X135859Y78891D01*
X136288Y77857D01*
X136969Y76969D01*
X137857Y76288D01*
X138891Y75859D01*
X139500Y75779D01*
Y79500D01*
D02*
G37*
G36*
X124500Y80935D02*
X122933D01*
X122351Y80819D01*
X121857Y80489D01*
X121528Y79996D01*
X121412Y79413D01*
Y78437D01*
X124500D01*
Y80935D01*
D02*
G37*
G36*
X139500Y84221D02*
X138891Y84141D01*
X137857Y83712D01*
X136969Y83031D01*
X136288Y82143D01*
X135859Y81109D01*
X135779Y80500D01*
X139500D01*
Y84221D01*
D02*
G37*
G36*
X127067Y80935D02*
X125500D01*
Y78437D01*
X128588D01*
Y79413D01*
X128472Y79996D01*
X128143Y80489D01*
X127649Y80819D01*
X127067Y80935D01*
D02*
G37*
G36*
X128588Y91563D02*
X125500D01*
Y89065D01*
X127067D01*
X127649Y89181D01*
X128143Y89511D01*
X128472Y90004D01*
X128588Y90587D01*
Y91563D01*
D02*
G37*
G36*
X124500D02*
X121412D01*
Y90587D01*
X121528Y90004D01*
X121857Y89511D01*
X122351Y89181D01*
X122933Y89065D01*
X124500D01*
Y91563D01*
D02*
G37*
G36*
X139500Y89500D02*
X135779D01*
X135859Y88890D01*
X136288Y87857D01*
X136969Y86969D01*
X137857Y86288D01*
X138891Y85859D01*
X139500Y85779D01*
Y89500D01*
D02*
G37*
G36*
X72500Y78056D02*
X71805Y77918D01*
X71216Y77524D01*
X70822Y76935D01*
X70684Y76240D01*
Y72500D01*
X70822Y71805D01*
X71216Y71216D01*
X71378Y71107D01*
Y67841D01*
X70778Y67481D01*
X70000Y67583D01*
X69073Y67461D01*
X68208Y67103D01*
X67466Y66534D01*
X66897Y65792D01*
X66539Y64927D01*
X66417Y64000D01*
X66539Y63073D01*
X66897Y62208D01*
X67466Y61466D01*
X68208Y60897D01*
X69073Y60539D01*
X70000Y60417D01*
X70927Y60539D01*
X71598Y60816D01*
X73878Y58535D01*
Y56527D01*
X72933D01*
X72507Y56442D01*
X72146Y56201D01*
X71904Y55840D01*
X71820Y55413D01*
Y52461D01*
X71839Y52362D01*
X69207Y49730D01*
X68964Y49366D01*
X68878Y48937D01*
X68878Y48937D01*
Y43465D01*
X66535Y41122D01*
X57063D01*
X57063Y41122D01*
X56634Y41036D01*
X56270Y40793D01*
X56270Y40793D01*
X52638Y37161D01*
X52539Y37181D01*
X49587D01*
X49161Y37096D01*
X48799Y36854D01*
X48558Y36493D01*
X48473Y36067D01*
Y35122D01*
X46000D01*
X45571Y35036D01*
X45207Y34793D01*
X45207Y34793D01*
X41535Y31122D01*
X36527D01*
Y32067D01*
X36442Y32493D01*
X36201Y32854D01*
X35840Y33096D01*
X35413Y33180D01*
X35059D01*
Y36819D01*
X35413D01*
X35840Y36904D01*
X36201Y37146D01*
X36442Y37507D01*
X36527Y37933D01*
Y42067D01*
X36442Y42493D01*
X36201Y42854D01*
X35840Y43096D01*
X35413Y43181D01*
X32461D01*
X32035Y43096D01*
X31673Y42854D01*
X31432Y42493D01*
X31347Y42067D01*
Y37933D01*
X31432Y37507D01*
X31673Y37146D01*
X32035Y36904D01*
X32461Y36819D01*
X32816D01*
Y33180D01*
X32461D01*
X32035Y33096D01*
X31673Y32854D01*
X31432Y32493D01*
X31347Y32067D01*
Y27933D01*
X31432Y27507D01*
X31673Y27146D01*
X32035Y26904D01*
X32461Y26820D01*
X35413D01*
X35840Y26904D01*
X36201Y27146D01*
X36442Y27507D01*
X36527Y27933D01*
Y28878D01*
X42000D01*
X42000Y28878D01*
X42429Y28964D01*
X42793Y29207D01*
X46465Y32878D01*
X48473D01*
Y31933D01*
X48558Y31507D01*
X48799Y31146D01*
X49161Y30904D01*
X49587Y30819D01*
X49941D01*
Y27180D01*
X49587D01*
X49161Y27096D01*
X48799Y26854D01*
X48558Y26493D01*
X48473Y26067D01*
Y21933D01*
X48558Y21507D01*
X48799Y21146D01*
X49161Y20904D01*
X49587Y20820D01*
X49941D01*
Y18937D01*
X49941Y18937D01*
X50027Y18508D01*
X50270Y18144D01*
X56589Y11825D01*
X56249Y11005D01*
X56117Y10000D01*
X56249Y8995D01*
X56637Y8058D01*
X57254Y7254D01*
X58058Y6637D01*
X58995Y6249D01*
X60000Y6117D01*
X61005Y6249D01*
X61942Y6637D01*
X62746Y7254D01*
X63363Y8058D01*
X63751Y8995D01*
X63883Y10000D01*
X63751Y11005D01*
X63363Y11942D01*
X62746Y12746D01*
X61942Y13363D01*
X61005Y13751D01*
X60000Y13883D01*
X58995Y13751D01*
X58175Y13411D01*
X52184Y19402D01*
Y20820D01*
X52539D01*
X52965Y20904D01*
X53327Y21146D01*
X53568Y21507D01*
X53653Y21933D01*
Y26067D01*
X53568Y26493D01*
X53327Y26854D01*
X52965Y27096D01*
X52539Y27180D01*
X52184D01*
Y30819D01*
X52539D01*
X52965Y30904D01*
X53327Y31146D01*
X53568Y31507D01*
X53653Y31933D01*
Y35004D01*
X57528Y38878D01*
X67000D01*
X67000Y38878D01*
X67429Y38964D01*
X67793Y39207D01*
X70793Y42207D01*
X71036Y42571D01*
X71122Y43000D01*
X71122Y43000D01*
Y48472D01*
X73996Y51347D01*
X77067D01*
X77493Y51432D01*
X77854Y51673D01*
X78096Y52034D01*
X78180Y52461D01*
Y55413D01*
X78096Y55840D01*
X77854Y56201D01*
X77493Y56442D01*
X77067Y56527D01*
X76122D01*
Y59000D01*
X76122Y59000D01*
X76036Y59429D01*
X75793Y59793D01*
X75793Y59793D01*
X73184Y62402D01*
X73461Y63073D01*
X73583Y64000D01*
X73461Y64927D01*
X73184Y65598D01*
X73293Y65707D01*
X73293Y65707D01*
X73536Y66071D01*
X73622Y66500D01*
Y71107D01*
X73784Y71216D01*
X74178Y71805D01*
X74316Y72500D01*
Y76240D01*
X74178Y76935D01*
X73784Y77524D01*
X73195Y77918D01*
X72500Y78056D01*
D02*
G37*
G36*
X47500Y72500D02*
X44079D01*
X44149Y71968D01*
X44547Y71007D01*
X45181Y70181D01*
X46007Y69547D01*
X46968Y69149D01*
X47500Y69079D01*
Y72500D01*
D02*
G37*
G36*
X33437Y73588D02*
X32461D01*
X31878Y73472D01*
X31385Y73143D01*
X31055Y72649D01*
X30939Y72067D01*
Y70500D01*
X33437D01*
Y73588D01*
D02*
G37*
G36*
X51921Y72500D02*
X48500D01*
Y69079D01*
X49032Y69149D01*
X49993Y69547D01*
X50819Y70181D01*
X51453Y71007D01*
X51851Y71968D01*
X51921Y72500D01*
D02*
G37*
G36*
X36935Y69500D02*
X34437D01*
Y66412D01*
X35413D01*
X35996Y66527D01*
X36489Y66857D01*
X36819Y67351D01*
X36935Y67933D01*
Y69500D01*
D02*
G37*
G36*
X26000Y123583D02*
X25073Y123461D01*
X24208Y123103D01*
X23466Y122534D01*
X22897Y121792D01*
X22539Y120927D01*
X22417Y120000D01*
X22539Y119073D01*
X22897Y118208D01*
X23466Y117466D01*
X24208Y116897D01*
X24879Y116619D01*
Y113180D01*
X24587D01*
X24160Y113096D01*
X23799Y112854D01*
X23558Y112493D01*
X23473Y112067D01*
Y107933D01*
X23558Y107507D01*
X23799Y107146D01*
X24160Y106904D01*
X24587Y106820D01*
X24941D01*
Y103180D01*
X24587D01*
X24160Y103096D01*
X23799Y102854D01*
X23558Y102493D01*
X23473Y102067D01*
Y97933D01*
X23558Y97507D01*
X23799Y97146D01*
X24160Y96904D01*
X24587Y96820D01*
X26594D01*
X31347Y92067D01*
Y87933D01*
X26594Y83180D01*
X24587D01*
X24160Y83096D01*
X23799Y82854D01*
X23558Y82493D01*
X23473Y82067D01*
Y77933D01*
X23558Y77507D01*
X23799Y77146D01*
X24160Y76904D01*
X24587Y76820D01*
X24941D01*
Y73180D01*
X24587D01*
X24160Y73096D01*
X23799Y72854D01*
X23558Y72493D01*
X23473Y72067D01*
Y67933D01*
X23558Y67507D01*
X23799Y67146D01*
X24160Y66904D01*
X24587Y66820D01*
X24941D01*
Y63180D01*
X24587D01*
X24160Y63096D01*
X23799Y62854D01*
X23558Y62493D01*
X23473Y62067D01*
Y57933D01*
X23558Y57507D01*
X23799Y57146D01*
X24160Y56904D01*
X24587Y56820D01*
X27539D01*
X27966Y56904D01*
X28327Y57146D01*
X28568Y57507D01*
X28653Y57933D01*
Y62067D01*
X28568Y62493D01*
X28327Y62854D01*
X27966Y63096D01*
X27539Y63180D01*
X27185D01*
Y66820D01*
X27539D01*
X27966Y66904D01*
X28327Y67146D01*
X28568Y67507D01*
X28653Y67933D01*
Y72067D01*
X28568Y72493D01*
X28327Y72854D01*
X27966Y73096D01*
X27539Y73180D01*
X27185D01*
Y76820D01*
X27539D01*
X27966Y76904D01*
X28327Y77146D01*
X28568Y77507D01*
X28653Y77933D01*
Y82067D01*
X33406Y86820D01*
X35413D01*
X35840Y86904D01*
X36201Y87146D01*
X36442Y87507D01*
X36527Y87933D01*
Y92067D01*
X36442Y92493D01*
X36201Y92854D01*
X35840Y93096D01*
X35413Y93180D01*
X33406D01*
X28653Y97933D01*
Y102067D01*
X28568Y102493D01*
X28327Y102854D01*
X27966Y103096D01*
X27539Y103180D01*
X27185D01*
Y106820D01*
X27539D01*
X27966Y106904D01*
X28327Y107146D01*
X28568Y107507D01*
X28653Y107933D01*
Y112067D01*
X28568Y112493D01*
X28327Y112854D01*
X27966Y113096D01*
X27539Y113180D01*
X27122D01*
Y116619D01*
X27792Y116897D01*
X28534Y117466D01*
X29103Y118208D01*
X29461Y119073D01*
X29583Y120000D01*
X29461Y120927D01*
X29103Y121792D01*
X28534Y122534D01*
X27792Y123103D01*
X26927Y123461D01*
X26000Y123583D01*
D02*
G37*
G36*
X33437Y69500D02*
X30939D01*
Y67933D01*
X31055Y67351D01*
X31385Y66857D01*
X31878Y66527D01*
X32461Y66412D01*
X33437D01*
Y69500D01*
D02*
G37*
G36*
X9500D02*
X5711D01*
Y67725D01*
X5865Y66954D01*
X6301Y66301D01*
X6954Y65865D01*
X7725Y65711D01*
X9500D01*
Y69500D01*
D02*
G37*
G36*
X14289D02*
X10500D01*
Y65711D01*
X12275D01*
X13046Y65865D01*
X13699Y66301D01*
X14135Y66954D01*
X14289Y67725D01*
Y69500D01*
D02*
G37*
G36*
X9500Y74289D02*
X7725D01*
X6954Y74135D01*
X6301Y73699D01*
X5865Y73046D01*
X5711Y72275D01*
Y70500D01*
X9500D01*
Y74289D01*
D02*
G37*
G36*
X33437Y79500D02*
X30939D01*
Y77933D01*
X31055Y77351D01*
X31385Y76857D01*
X31878Y76528D01*
X32461Y76412D01*
X33437D01*
Y79500D01*
D02*
G37*
G36*
X10000Y83883D02*
X8995Y83751D01*
X8058Y83363D01*
X7254Y82746D01*
X6637Y81942D01*
X6249Y81005D01*
X6117Y80000D01*
X6249Y78995D01*
X6637Y78058D01*
X7254Y77254D01*
X8058Y76637D01*
X8995Y76249D01*
X10000Y76117D01*
X11005Y76249D01*
X11942Y76637D01*
X12746Y77254D01*
X13363Y78058D01*
X13703Y78878D01*
X17844D01*
X17858Y78858D01*
X18382Y78508D01*
X19000Y78385D01*
X19618Y78508D01*
X20142Y78858D01*
X20492Y79382D01*
X20615Y80000D01*
X20492Y80618D01*
X20142Y81142D01*
X19618Y81492D01*
X19000Y81615D01*
X18382Y81492D01*
X17858Y81142D01*
X17844Y81122D01*
X13703D01*
X13363Y81942D01*
X12746Y82746D01*
X11942Y83363D01*
X11005Y83751D01*
X10000Y83883D01*
D02*
G37*
G36*
X36935Y79500D02*
X34437D01*
Y76412D01*
X35413D01*
X35996Y76528D01*
X36489Y76857D01*
X36819Y77351D01*
X36935Y77933D01*
Y79500D01*
D02*
G37*
G36*
X67500Y78056D02*
X66805Y77918D01*
X66216Y77524D01*
X65822Y76935D01*
X65684Y76240D01*
Y72500D01*
X65722Y72308D01*
X63207Y69793D01*
X62964Y69429D01*
X62878Y69000D01*
X62878Y69000D01*
Y68465D01*
X61598Y67184D01*
X60927Y67461D01*
X60000Y67583D01*
X59073Y67461D01*
X58208Y67103D01*
X57466Y66534D01*
X56897Y65792D01*
X56539Y64927D01*
X56417Y64000D01*
X56539Y63073D01*
X56816Y62402D01*
X54207Y59793D01*
X53964Y59429D01*
X53878Y59000D01*
X53878Y59000D01*
Y56527D01*
X52933D01*
X52507Y56442D01*
X52146Y56201D01*
X51904Y55840D01*
X51820Y55413D01*
Y55059D01*
X41156D01*
X41142Y55079D01*
X40618Y55429D01*
X40000Y55552D01*
X39976Y55547D01*
X36527Y58996D01*
Y62067D01*
X36442Y62493D01*
X36201Y62854D01*
X35840Y63096D01*
X35413Y63180D01*
X32461D01*
X32035Y63096D01*
X31673Y62854D01*
X31432Y62493D01*
X31347Y62067D01*
Y57933D01*
X31432Y57507D01*
X31673Y57146D01*
X32035Y56904D01*
X32461Y56820D01*
X35413D01*
X35512Y56839D01*
X38390Y53961D01*
X38385Y53937D01*
X38508Y53319D01*
X38858Y52795D01*
X39382Y52445D01*
X40000Y52322D01*
X40618Y52445D01*
X41142Y52795D01*
X41156Y52816D01*
X51820D01*
Y52461D01*
X51904Y52034D01*
X52146Y51673D01*
X52507Y51432D01*
X52933Y51347D01*
X57067D01*
X57493Y51432D01*
X57854Y51673D01*
X58096Y52034D01*
X58180Y52461D01*
Y52816D01*
X61820D01*
Y52461D01*
X61904Y52034D01*
X62146Y51673D01*
X62507Y51432D01*
X62933Y51347D01*
X67067D01*
X67493Y51432D01*
X67854Y51673D01*
X68096Y52034D01*
X68180Y52461D01*
Y55413D01*
X68096Y55840D01*
X67854Y56201D01*
X67493Y56442D01*
X67067Y56527D01*
X62933D01*
X62507Y56442D01*
X62146Y56201D01*
X61904Y55840D01*
X61820Y55413D01*
Y55059D01*
X58180D01*
Y55413D01*
X58096Y55840D01*
X57854Y56201D01*
X57493Y56442D01*
X57067Y56527D01*
X56122D01*
Y58535D01*
X58402Y60816D01*
X59073Y60539D01*
X60000Y60417D01*
X60927Y60539D01*
X61792Y60897D01*
X62534Y61466D01*
X63103Y62208D01*
X63461Y63073D01*
X63583Y64000D01*
X63461Y64927D01*
X63184Y65598D01*
X64793Y67207D01*
X64793Y67207D01*
X65036Y67571D01*
X65122Y68000D01*
Y68535D01*
X67308Y70722D01*
X67500Y70684D01*
X68195Y70822D01*
X68784Y71216D01*
X69178Y71805D01*
X69316Y72500D01*
Y76240D01*
X69178Y76935D01*
X68784Y77524D01*
X68195Y77918D01*
X67500Y78056D01*
D02*
G37*
G36*
X12275Y74289D02*
X10500D01*
Y70500D01*
X14289D01*
Y72275D01*
X14135Y73046D01*
X13699Y73699D01*
X13046Y74135D01*
X12275Y74289D01*
D02*
G37*
G36*
X35413Y73588D02*
X34437D01*
Y70500D01*
X36935D01*
Y72067D01*
X36819Y72649D01*
X36489Y73143D01*
X35996Y73472D01*
X35413Y73588D01*
D02*
G37*
G36*
X48500Y76921D02*
Y73500D01*
X51921D01*
X51851Y74032D01*
X51453Y74993D01*
X50819Y75819D01*
X49993Y76453D01*
X49032Y76851D01*
X48500Y76921D01*
D02*
G37*
G36*
X47500D02*
X46968Y76851D01*
X46007Y76453D01*
X45181Y75819D01*
X44547Y74993D01*
X44149Y74032D01*
X44079Y73500D01*
X47500D01*
Y76921D01*
D02*
G37*
G36*
X139500Y14289D02*
X137725D01*
X136954Y14135D01*
X136301Y13699D01*
X135865Y13046D01*
X135711Y12275D01*
Y10500D01*
X139500D01*
Y14289D01*
D02*
G37*
G36*
X50500Y14221D02*
Y10500D01*
X54221D01*
X54141Y11109D01*
X53712Y12143D01*
X53031Y13031D01*
X52143Y13712D01*
X51109Y14141D01*
X50500Y14221D01*
D02*
G37*
G36*
X90500Y13921D02*
Y10500D01*
X93921D01*
X93851Y11032D01*
X93453Y11993D01*
X92819Y12819D01*
X91993Y13453D01*
X91032Y13851D01*
X90500Y13921D01*
D02*
G37*
G36*
X12275Y14289D02*
X10500D01*
Y10500D01*
X14289D01*
Y12275D01*
X14135Y13046D01*
X13699Y13699D01*
X13046Y14135D01*
X12275Y14289D01*
D02*
G37*
G36*
X89500Y13921D02*
X88968Y13851D01*
X88007Y13453D01*
X87181Y12819D01*
X86547Y11993D01*
X86149Y11032D01*
X86079Y10500D01*
X89500D01*
Y13921D01*
D02*
G37*
G36*
X61935Y23500D02*
X59437D01*
Y20412D01*
X60413D01*
X60996Y20527D01*
X61489Y20857D01*
X61819Y21351D01*
X61935Y21933D01*
Y23500D01*
D02*
G37*
G36*
X58437Y27588D02*
X57461D01*
X56878Y27472D01*
X56385Y27143D01*
X56055Y26649D01*
X55939Y26067D01*
Y24500D01*
X58437D01*
Y27588D01*
D02*
G37*
G36*
Y23500D02*
X55939D01*
Y21933D01*
X56055Y21351D01*
X56385Y20857D01*
X56878Y20527D01*
X57461Y20412D01*
X58437D01*
Y23500D01*
D02*
G37*
G36*
X10000Y23883D02*
X8995Y23751D01*
X8058Y23363D01*
X7254Y22746D01*
X6637Y21942D01*
X6249Y21005D01*
X6117Y20000D01*
X6249Y18995D01*
X6637Y18058D01*
X7254Y17254D01*
X8058Y16637D01*
X8995Y16249D01*
X10000Y16117D01*
X11005Y16249D01*
X11942Y16637D01*
X12746Y17254D01*
X13363Y18058D01*
X13703Y18879D01*
X23473D01*
Y17933D01*
X23558Y17507D01*
X23799Y17146D01*
X24160Y16904D01*
X24587Y16820D01*
X27539D01*
X27966Y16904D01*
X28327Y17146D01*
X28568Y17507D01*
X28653Y17933D01*
Y22067D01*
X28568Y22493D01*
X28327Y22854D01*
X27966Y23096D01*
X27539Y23180D01*
X24587D01*
X24160Y23096D01*
X23799Y22854D01*
X23558Y22493D01*
X23473Y22067D01*
Y21122D01*
X13703D01*
X13363Y21942D01*
X12746Y22746D01*
X11942Y23363D01*
X11005Y23751D01*
X10000Y23883D01*
D02*
G37*
G36*
X27539Y33180D02*
X24587D01*
X24160Y33096D01*
X23799Y32854D01*
X23558Y32493D01*
X23473Y32067D01*
Y27933D01*
X23558Y27507D01*
X23799Y27146D01*
X24160Y26904D01*
X24587Y26820D01*
X26594D01*
X31347Y22067D01*
Y17933D01*
X31432Y17507D01*
X31673Y17146D01*
X32035Y16904D01*
X32461Y16820D01*
X35413D01*
X35840Y16904D01*
X36201Y17146D01*
X36442Y17507D01*
X36527Y17933D01*
Y18879D01*
X38844D01*
X38858Y18858D01*
X39382Y18508D01*
X40000Y18385D01*
X40618Y18508D01*
X41142Y18858D01*
X41492Y19382D01*
X41615Y20000D01*
X41492Y20618D01*
X41142Y21142D01*
X40618Y21492D01*
X40000Y21615D01*
X39382Y21492D01*
X38858Y21142D01*
X38844Y21122D01*
X36527D01*
Y22067D01*
X36442Y22493D01*
X36201Y22854D01*
X35840Y23096D01*
X35413Y23180D01*
X33406D01*
X28653Y27933D01*
Y32067D01*
X28568Y32493D01*
X28327Y32854D01*
X27966Y33096D01*
X27539Y33180D01*
D02*
G37*
G36*
X49500Y9500D02*
X45779D01*
X45859Y8890D01*
X46288Y7857D01*
X46969Y6969D01*
X47857Y6288D01*
X48891Y5859D01*
X49500Y5779D01*
Y9500D01*
D02*
G37*
G36*
X54221D02*
X50500D01*
Y5779D01*
X51109Y5859D01*
X52143Y6288D01*
X53031Y6969D01*
X53712Y7857D01*
X54141Y8890D01*
X54221Y9500D01*
D02*
G37*
G36*
X139500D02*
X135711D01*
Y7725D01*
X135865Y6954D01*
X136301Y6301D01*
X136954Y5865D01*
X137725Y5711D01*
X139500D01*
Y9500D01*
D02*
G37*
G36*
X9500D02*
X5711D01*
Y7725D01*
X5865Y6954D01*
X6301Y6301D01*
X6954Y5865D01*
X7725Y5711D01*
X9500D01*
Y9500D01*
D02*
G37*
G36*
X14289D02*
X10500D01*
Y5711D01*
X12275D01*
X13046Y5865D01*
X13699Y6301D01*
X14135Y6954D01*
X14289Y7725D01*
Y9500D01*
D02*
G37*
G36*
X49500Y14221D02*
X48891Y14141D01*
X47857Y13712D01*
X46969Y13031D01*
X46288Y12143D01*
X45859Y11109D01*
X45779Y10500D01*
X49500D01*
Y14221D01*
D02*
G37*
G36*
X9500Y14289D02*
X7725D01*
X6954Y14135D01*
X6301Y13699D01*
X5865Y13046D01*
X5711Y12275D01*
Y10500D01*
X9500D01*
Y14289D01*
D02*
G37*
G36*
X108000Y13583D02*
X107073Y13461D01*
X106208Y13103D01*
X105466Y12534D01*
X104897Y11792D01*
X104539Y10927D01*
X104417Y10000D01*
X104539Y9072D01*
X104897Y8208D01*
X105466Y7466D01*
X106208Y6897D01*
X107073Y6539D01*
X108000Y6417D01*
X108927Y6539D01*
X109792Y6897D01*
X110534Y7466D01*
X111103Y8208D01*
X111381Y8878D01*
X113844D01*
X113858Y8858D01*
X114382Y8508D01*
X115000Y8385D01*
X115618Y8508D01*
X116142Y8858D01*
X116492Y9382D01*
X116615Y10000D01*
X116492Y10618D01*
X116142Y11142D01*
X115618Y11492D01*
X115000Y11615D01*
X114382Y11492D01*
X113858Y11142D01*
X113844Y11122D01*
X111381D01*
X111103Y11792D01*
X110534Y12534D01*
X109792Y13103D01*
X108927Y13461D01*
X108000Y13583D01*
D02*
G37*
G36*
X89500Y9500D02*
X86079D01*
X86149Y8968D01*
X86547Y8007D01*
X87181Y7181D01*
X88007Y6547D01*
X88968Y6149D01*
X89500Y6079D01*
Y9500D01*
D02*
G37*
G36*
X93921D02*
X90500D01*
Y6079D01*
X91032Y6149D01*
X91993Y6547D01*
X92819Y7181D01*
X93453Y8007D01*
X93851Y8968D01*
X93921Y9500D01*
D02*
G37*
G36*
X10000Y43883D02*
X8995Y43751D01*
X8058Y43363D01*
X7254Y42746D01*
X6637Y41942D01*
X6249Y41005D01*
X6117Y40000D01*
X6249Y38995D01*
X6637Y38058D01*
X7254Y37254D01*
X8058Y36637D01*
X8995Y36249D01*
X10000Y36117D01*
X11005Y36249D01*
X11942Y36637D01*
X12746Y37254D01*
X13363Y38058D01*
X13703Y38878D01*
X23473D01*
Y37933D01*
X23558Y37507D01*
X23799Y37146D01*
X24160Y36904D01*
X24587Y36819D01*
X27539D01*
X27966Y36904D01*
X28327Y37146D01*
X28568Y37507D01*
X28653Y37933D01*
Y42067D01*
X28568Y42493D01*
X28327Y42854D01*
X27966Y43096D01*
X27539Y43181D01*
X24587D01*
X24160Y43096D01*
X23799Y42854D01*
X23558Y42493D01*
X23473Y42067D01*
Y41122D01*
X13703D01*
X13363Y41942D01*
X12746Y42746D01*
X11942Y43363D01*
X11005Y43751D01*
X10000Y43883D01*
D02*
G37*
G36*
X80413Y37588D02*
X79437D01*
Y34500D01*
X81935D01*
Y36067D01*
X81819Y36649D01*
X81489Y37143D01*
X80996Y37473D01*
X80413Y37588D01*
D02*
G37*
G36*
X54500Y49061D02*
X52933D01*
X52351Y48945D01*
X51857Y48615D01*
X51528Y48122D01*
X51412Y47539D01*
Y46563D01*
X54500D01*
Y49061D01*
D02*
G37*
G36*
X97067Y48653D02*
X92933D01*
X92507Y48568D01*
X92146Y48327D01*
X91904Y47965D01*
X91820Y47539D01*
Y47185D01*
X88180D01*
Y47539D01*
X88096Y47965D01*
X87854Y48327D01*
X87493Y48568D01*
X87067Y48653D01*
X82933D01*
X82507Y48568D01*
X82146Y48327D01*
X81904Y47965D01*
X81820Y47539D01*
Y47185D01*
X78180D01*
Y47539D01*
X78096Y47965D01*
X77854Y48327D01*
X77493Y48568D01*
X77067Y48653D01*
X72933D01*
X72507Y48568D01*
X72146Y48327D01*
X71904Y47965D01*
X71820Y47539D01*
Y44587D01*
X71904Y44161D01*
X72146Y43799D01*
X72507Y43558D01*
X72933Y43473D01*
X73878D01*
Y38402D01*
X72638Y37161D01*
X72539Y37181D01*
X69587D01*
X69160Y37096D01*
X68799Y36854D01*
X68558Y36493D01*
X68473Y36067D01*
Y35122D01*
X61527D01*
Y36067D01*
X61442Y36493D01*
X61201Y36854D01*
X60839Y37096D01*
X60413Y37181D01*
X57461D01*
X57034Y37096D01*
X56673Y36854D01*
X56432Y36493D01*
X56347Y36067D01*
Y31933D01*
X56432Y31507D01*
X56673Y31146D01*
X57034Y30904D01*
X57461Y30819D01*
X60413D01*
X60839Y30904D01*
X61201Y31146D01*
X61442Y31507D01*
X61527Y31933D01*
Y32878D01*
X68473D01*
Y31933D01*
X68558Y31507D01*
X68799Y31146D01*
X69160Y30904D01*
X69587Y30819D01*
X69941D01*
Y13881D01*
X67725D01*
X67111Y13759D01*
X66589Y13410D01*
X66241Y12889D01*
X66119Y12275D01*
Y7725D01*
X66241Y7111D01*
X66589Y6589D01*
X67111Y6241D01*
X67725Y6119D01*
X72275D01*
X72890Y6241D01*
X73410Y6589D01*
X73759Y7111D01*
X73881Y7725D01*
Y12275D01*
X73759Y12889D01*
X73410Y13410D01*
X72890Y13759D01*
X72275Y13881D01*
X72184D01*
Y30819D01*
X72539D01*
X72966Y30904D01*
X73327Y31146D01*
X73568Y31507D01*
X73653Y31933D01*
Y35004D01*
X75538Y36888D01*
X75697Y36814D01*
X76032Y36535D01*
X75939Y36067D01*
Y34500D01*
X78437D01*
Y37588D01*
X77461D01*
X76878Y37473D01*
X76551Y37254D01*
X76431Y37313D01*
X76064Y37650D01*
X76122Y37937D01*
Y43473D01*
X77067D01*
X77493Y43558D01*
X77854Y43799D01*
X78096Y44161D01*
X78180Y44587D01*
Y44941D01*
X81820D01*
Y44587D01*
X81904Y44161D01*
X82146Y43799D01*
X82507Y43558D01*
X82933Y43473D01*
X87067D01*
X87493Y43558D01*
X87854Y43799D01*
X88096Y44161D01*
X88180Y44587D01*
Y44941D01*
X91820D01*
Y44587D01*
X91904Y44161D01*
X92146Y43799D01*
X92507Y43558D01*
X92933Y43473D01*
X97067D01*
X97493Y43558D01*
X97854Y43799D01*
X98096Y44161D01*
X98180Y44587D01*
Y47539D01*
X98096Y47965D01*
X97854Y48327D01*
X97493Y48568D01*
X97067Y48653D01*
D02*
G37*
G36*
X57067Y49061D02*
X55500D01*
Y46063D01*
Y43065D01*
X57067D01*
X57649Y43181D01*
X58143Y43511D01*
X58473Y44004D01*
X58541Y44348D01*
X59052Y44625D01*
X59188Y44637D01*
X59382Y44508D01*
X60000Y44385D01*
X60618Y44508D01*
X61142Y44858D01*
X61156Y44878D01*
X61820D01*
Y44587D01*
X61904Y44161D01*
X62146Y43799D01*
X62507Y43558D01*
X62933Y43473D01*
X67067D01*
X67493Y43558D01*
X67854Y43799D01*
X68096Y44161D01*
X68180Y44587D01*
Y47539D01*
X68096Y47965D01*
X67854Y48327D01*
X67493Y48568D01*
X67067Y48653D01*
X62933D01*
X62507Y48568D01*
X62146Y48327D01*
X61904Y47965D01*
X61820Y47539D01*
Y47122D01*
X61156D01*
X61142Y47142D01*
X60618Y47492D01*
X60000Y47615D01*
X59382Y47492D01*
X59188Y47363D01*
X58894Y47450D01*
X58563Y47667D01*
X58473Y48122D01*
X58143Y48615D01*
X57649Y48945D01*
X57067Y49061D01*
D02*
G37*
G36*
X117539Y163588D02*
X116563D01*
Y160500D01*
X119061D01*
Y162067D01*
X118945Y162649D01*
X118615Y163143D01*
X118122Y163472D01*
X117539Y163588D01*
D02*
G37*
G36*
X54500Y45563D02*
X51412D01*
Y44587D01*
X51528Y44004D01*
X51857Y43511D01*
X52351Y43181D01*
X52933Y43065D01*
X54500D01*
Y45563D01*
D02*
G37*
G36*
X78437Y33500D02*
X75939D01*
Y31933D01*
X76055Y31351D01*
X76385Y30857D01*
X76878Y30527D01*
X77461Y30412D01*
X78437D01*
Y33500D01*
D02*
G37*
G36*
X81935D02*
X79437D01*
Y30412D01*
X80413D01*
X80996Y30527D01*
X81489Y30857D01*
X81819Y31351D01*
X81935Y31933D01*
Y33500D01*
D02*
G37*
G36*
X14221Y29500D02*
X10500D01*
Y25779D01*
X11109Y25859D01*
X12143Y26288D01*
X13031Y26969D01*
X13712Y27857D01*
X14141Y28890D01*
X14221Y29500D01*
D02*
G37*
G36*
X60413Y27588D02*
X59437D01*
Y24500D01*
X61935D01*
Y26067D01*
X61819Y26649D01*
X61489Y27143D01*
X60996Y27472D01*
X60413Y27588D01*
D02*
G37*
G36*
X9500Y29500D02*
X5779D01*
X5859Y28890D01*
X6288Y27857D01*
X6969Y26969D01*
X7857Y26288D01*
X8890Y25859D01*
X9500Y25779D01*
Y29500D01*
D02*
G37*
G36*
Y34221D02*
X8890Y34141D01*
X7857Y33712D01*
X6969Y33031D01*
X6288Y32143D01*
X5859Y31109D01*
X5779Y30500D01*
X9500D01*
Y34221D01*
D02*
G37*
G36*
X10500D02*
Y30500D01*
X14221D01*
X14141Y31109D01*
X13712Y32143D01*
X13031Y33031D01*
X12143Y33712D01*
X11109Y34141D01*
X10500Y34221D01*
D02*
G37*
G36*
X9500Y134289D02*
X7725D01*
X6954Y134135D01*
X6301Y133699D01*
X5865Y133046D01*
X5711Y132275D01*
Y130500D01*
X9500D01*
Y134289D01*
D02*
G37*
G36*
X14289Y129500D02*
X10500D01*
Y125711D01*
X12275D01*
X13046Y125865D01*
X13699Y126301D01*
X14135Y126954D01*
X14289Y127725D01*
Y129500D01*
D02*
G37*
G36*
X57067Y126935D02*
X55500D01*
Y124437D01*
X58588D01*
Y125413D01*
X58473Y125996D01*
X58143Y126489D01*
X57649Y126819D01*
X57067Y126935D01*
D02*
G37*
G36*
X9500Y129500D02*
X5711D01*
Y127725D01*
X5865Y126954D01*
X6301Y126301D01*
X6954Y125865D01*
X7725Y125711D01*
X9500D01*
Y129500D01*
D02*
G37*
G36*
X98921Y135500D02*
X95500D01*
Y132079D01*
X96032Y132149D01*
X96993Y132547D01*
X97819Y133181D01*
X98453Y134007D01*
X98851Y134968D01*
X98921Y135500D01*
D02*
G37*
G36*
X78437D02*
X75939D01*
Y133933D01*
X76055Y133351D01*
X76385Y132857D01*
X76878Y132527D01*
X77461Y132412D01*
X78437D01*
Y135500D01*
D02*
G37*
G36*
X94500D02*
X91079D01*
X91149Y134968D01*
X91547Y134007D01*
X92181Y133181D01*
X93007Y132547D01*
X93968Y132149D01*
X94500Y132079D01*
Y135500D01*
D02*
G37*
G36*
X12275Y134289D02*
X10500D01*
Y130500D01*
X14289D01*
Y132275D01*
X14135Y133046D01*
X13699Y133699D01*
X13046Y134135D01*
X12275Y134289D01*
D02*
G37*
G36*
X35500Y119500D02*
X32079D01*
X32149Y118968D01*
X32547Y118007D01*
X33181Y117181D01*
X34007Y116547D01*
X34968Y116149D01*
X35500Y116079D01*
Y119500D01*
D02*
G37*
G36*
X39921D02*
X36500D01*
Y116079D01*
X37032Y116149D01*
X37993Y116547D01*
X38819Y117181D01*
X39453Y118007D01*
X39851Y118968D01*
X39921Y119500D01*
D02*
G37*
G36*
X10000Y163883D02*
X8995Y163751D01*
X8058Y163363D01*
X7254Y162746D01*
X6637Y161942D01*
X6249Y161005D01*
X6117Y160000D01*
X6249Y158995D01*
X6637Y158058D01*
X7254Y157254D01*
X8058Y156637D01*
X8995Y156249D01*
X10000Y156117D01*
X11005Y156249D01*
X11942Y156637D01*
X12746Y157254D01*
X13363Y158058D01*
X13703Y158878D01*
X23473D01*
Y157933D01*
X23558Y157507D01*
X23799Y157146D01*
X24160Y156904D01*
X24587Y156820D01*
X27539D01*
X27966Y156904D01*
X28327Y157146D01*
X28568Y157507D01*
X28653Y157933D01*
Y162067D01*
X28568Y162493D01*
X28327Y162854D01*
X27966Y163096D01*
X27539Y163180D01*
X24587D01*
X24160Y163096D01*
X23799Y162854D01*
X23558Y162493D01*
X23473Y162067D01*
Y161122D01*
X13703D01*
X13363Y161942D01*
X12746Y162746D01*
X11942Y163363D01*
X11005Y163751D01*
X10000Y163883D01*
D02*
G37*
G36*
X58588Y123437D02*
X55500D01*
Y120939D01*
X57067D01*
X57649Y121055D01*
X58143Y121385D01*
X58473Y121878D01*
X58588Y122461D01*
Y123437D01*
D02*
G37*
G36*
X54500Y126935D02*
X52933D01*
X52351Y126819D01*
X51857Y126489D01*
X51528Y125996D01*
X51412Y125413D01*
Y124437D01*
X54500D01*
Y126935D01*
D02*
G37*
G36*
Y123437D02*
X51412D01*
Y122461D01*
X51528Y121878D01*
X51857Y121385D01*
X52351Y121055D01*
X52933Y120939D01*
X54500D01*
Y123437D01*
D02*
G37*
G36*
X35500Y123921D02*
X34968Y123851D01*
X34007Y123453D01*
X33181Y122819D01*
X32547Y121993D01*
X32149Y121032D01*
X32079Y120500D01*
X35500D01*
Y123921D01*
D02*
G37*
G36*
X36500D02*
Y120500D01*
X39921D01*
X39851Y121032D01*
X39453Y121993D01*
X38819Y122819D01*
X37993Y123453D01*
X37032Y123851D01*
X36500Y123921D01*
D02*
G37*
G36*
X60000Y163883D02*
X58995Y163751D01*
X58058Y163363D01*
X57254Y162746D01*
X56637Y161942D01*
X56249Y161005D01*
X56117Y160000D01*
X56249Y158995D01*
X56589Y158175D01*
X50270Y151856D01*
X50027Y151492D01*
X49941Y151063D01*
X49941Y151063D01*
Y149180D01*
X49587D01*
X49161Y149096D01*
X48799Y148854D01*
X48558Y148493D01*
X48473Y148067D01*
Y147122D01*
X46465D01*
X42122Y151465D01*
Y158000D01*
X42122Y158000D01*
X42036Y158429D01*
X41793Y158793D01*
X41793Y158793D01*
X39793Y160793D01*
X39429Y161036D01*
X39000Y161122D01*
X39000Y161122D01*
X36527D01*
Y162067D01*
X36442Y162493D01*
X36201Y162854D01*
X35840Y163096D01*
X35413Y163180D01*
X32461D01*
X32035Y163096D01*
X31673Y162854D01*
X31432Y162493D01*
X31347Y162067D01*
Y157933D01*
X31432Y157507D01*
X31673Y157146D01*
X32035Y156904D01*
X32461Y156820D01*
X32816D01*
Y153180D01*
X32461D01*
X32035Y153096D01*
X31673Y152854D01*
X31432Y152493D01*
X31347Y152067D01*
Y147933D01*
X31432Y147507D01*
X31673Y147146D01*
X32035Y146904D01*
X32461Y146820D01*
X35413D01*
X35840Y146904D01*
X36201Y147146D01*
X36442Y147507D01*
X36527Y147933D01*
Y152067D01*
X36442Y152493D01*
X36201Y152854D01*
X35840Y153096D01*
X35413Y153180D01*
X35059D01*
Y156820D01*
X35413D01*
X35840Y156904D01*
X36201Y157146D01*
X36442Y157507D01*
X36527Y157933D01*
Y158878D01*
X38535D01*
X39878Y157535D01*
Y151000D01*
X39878Y151000D01*
X39964Y150571D01*
X40207Y150207D01*
X45207Y145207D01*
X45207Y145207D01*
X45571Y144964D01*
X46000Y144878D01*
X46000Y144878D01*
X48473D01*
Y143933D01*
X48558Y143507D01*
X48799Y143146D01*
X49161Y142904D01*
X49587Y142820D01*
X49941D01*
Y139180D01*
X49587D01*
X49161Y139096D01*
X48799Y138854D01*
X48558Y138493D01*
X48473Y138067D01*
Y137122D01*
X46156D01*
X46142Y137142D01*
X45618Y137492D01*
X45000Y137615D01*
X44382Y137492D01*
X43858Y137142D01*
X43508Y136618D01*
X43385Y136000D01*
X43508Y135382D01*
X43858Y134858D01*
X44382Y134508D01*
X45000Y134385D01*
X45618Y134508D01*
X46142Y134858D01*
X46156Y134878D01*
X48473D01*
Y133933D01*
X48558Y133507D01*
X48799Y133146D01*
X49161Y132904D01*
X49587Y132820D01*
X52539D01*
X52965Y132904D01*
X53327Y133146D01*
X53568Y133507D01*
X53653Y133933D01*
Y138067D01*
X53568Y138493D01*
X53327Y138854D01*
X52965Y139096D01*
X52539Y139180D01*
X52184D01*
Y142820D01*
X52539D01*
X52965Y142904D01*
X53327Y143146D01*
X53568Y143507D01*
X53653Y143933D01*
Y148067D01*
X53568Y148493D01*
X53327Y148854D01*
X52965Y149096D01*
X52539Y149180D01*
X52184D01*
Y150598D01*
X58175Y156589D01*
X58995Y156249D01*
X60000Y156117D01*
X61005Y156249D01*
X61942Y156637D01*
X62746Y157254D01*
X63363Y158058D01*
X63751Y158995D01*
X63883Y160000D01*
X63751Y161005D01*
X63363Y161942D01*
X62746Y162746D01*
X61942Y163363D01*
X61005Y163751D01*
X60000Y163883D01*
D02*
G37*
G36*
X9500Y154221D02*
X8890Y154141D01*
X7857Y153712D01*
X6969Y153031D01*
X6288Y152143D01*
X5859Y151110D01*
X5779Y150500D01*
X9500D01*
Y154221D01*
D02*
G37*
G36*
X60413Y149588D02*
X59437D01*
Y146500D01*
X61935D01*
Y148067D01*
X61819Y148649D01*
X61489Y149143D01*
X60996Y149472D01*
X60413Y149588D01*
D02*
G37*
G36*
X14221Y149500D02*
X10500D01*
Y145779D01*
X11109Y145859D01*
X12143Y146288D01*
X13031Y146969D01*
X13712Y147857D01*
X14141Y148890D01*
X14221Y149500D01*
D02*
G37*
G36*
X58437Y149588D02*
X57461D01*
X56878Y149472D01*
X56385Y149143D01*
X56055Y148649D01*
X55939Y148067D01*
Y146500D01*
X58437D01*
Y149588D01*
D02*
G37*
G36*
X115563Y159500D02*
X113065D01*
Y157933D01*
X113181Y157351D01*
X113511Y156857D01*
X114004Y156527D01*
X114587Y156412D01*
X115563D01*
Y159500D01*
D02*
G37*
G36*
X119061D02*
X116563D01*
Y156412D01*
X117539D01*
X118122Y156527D01*
X118615Y156857D01*
X118945Y157351D01*
X119061Y157933D01*
Y159500D01*
D02*
G37*
G36*
X54221D02*
X50500D01*
Y155779D01*
X51109Y155859D01*
X52143Y156288D01*
X53031Y156969D01*
X53712Y157857D01*
X54141Y158890D01*
X54221Y159500D01*
D02*
G37*
G36*
X10500Y154221D02*
Y150500D01*
X14221D01*
X14141Y151110D01*
X13712Y152143D01*
X13031Y153031D01*
X12143Y153712D01*
X11109Y154141D01*
X10500Y154221D01*
D02*
G37*
G36*
X49500Y159500D02*
X45779D01*
X45859Y158890D01*
X46288Y157857D01*
X46969Y156969D01*
X47857Y156288D01*
X48891Y155859D01*
X49500Y155779D01*
Y159500D01*
D02*
G37*
G36*
X94500Y139921D02*
X93968Y139851D01*
X93007Y139453D01*
X92181Y138819D01*
X91547Y137993D01*
X91149Y137032D01*
X91079Y136500D01*
X94500D01*
Y139921D01*
D02*
G37*
G36*
X95500D02*
Y136500D01*
X98921D01*
X98851Y137032D01*
X98453Y137993D01*
X97819Y138819D01*
X96993Y139453D01*
X96032Y139851D01*
X95500Y139921D01*
D02*
G37*
G36*
X78437Y139588D02*
X77461D01*
X76878Y139472D01*
X76385Y139143D01*
X76055Y138649D01*
X75939Y138067D01*
Y136500D01*
X78437D01*
Y139588D01*
D02*
G37*
G36*
X81935Y135500D02*
X79437D01*
Y132412D01*
X80413D01*
X80996Y132527D01*
X81489Y132857D01*
X81819Y133351D01*
X81935Y133933D01*
Y135500D01*
D02*
G37*
G36*
X87000Y163583D02*
X86073Y163461D01*
X85208Y163103D01*
X84466Y162534D01*
X83897Y161792D01*
X83539Y160927D01*
X83417Y160000D01*
X83539Y159073D01*
X83816Y158402D01*
X82024Y156610D01*
X82000Y156615D01*
X81382Y156492D01*
X80858Y156142D01*
X80508Y155618D01*
X80385Y155000D01*
X80508Y154382D01*
X80858Y153858D01*
X81382Y153508D01*
X82000Y153385D01*
X82618Y153508D01*
X83142Y153858D01*
X83492Y154382D01*
X83615Y155000D01*
X83610Y155024D01*
X85402Y156816D01*
X86073Y156539D01*
X87000Y156417D01*
X87927Y156539D01*
X88792Y156897D01*
X89534Y157466D01*
X90103Y158208D01*
X90461Y159073D01*
X90583Y160000D01*
X90461Y160927D01*
X90103Y161792D01*
X89534Y162534D01*
X88792Y163103D01*
X87927Y163461D01*
X87000Y163583D01*
D02*
G37*
G36*
X61935Y145500D02*
X59437D01*
Y142412D01*
X60413D01*
X60996Y142527D01*
X61489Y142857D01*
X61819Y143351D01*
X61935Y143933D01*
Y145500D01*
D02*
G37*
G36*
X9500Y149500D02*
X5779D01*
X5859Y148890D01*
X6288Y147857D01*
X6969Y146969D01*
X7857Y146288D01*
X8890Y145859D01*
X9500Y145779D01*
Y149500D01*
D02*
G37*
G36*
X58437Y145500D02*
X55939D01*
Y143933D01*
X56055Y143351D01*
X56385Y142857D01*
X56878Y142527D01*
X57461Y142412D01*
X58437D01*
Y145500D01*
D02*
G37*
G36*
X80413Y139588D02*
X79437D01*
Y136500D01*
X81935D01*
Y138067D01*
X81819Y138649D01*
X81489Y139143D01*
X80996Y139472D01*
X80413Y139588D01*
D02*
G37*
G36*
X10000Y143883D02*
X8995Y143751D01*
X8058Y143363D01*
X7254Y142746D01*
X6637Y141942D01*
X6249Y141005D01*
X6117Y140000D01*
X6249Y138995D01*
X6637Y138058D01*
X7254Y137254D01*
X8058Y136637D01*
X8995Y136249D01*
X10000Y136117D01*
X11005Y136249D01*
X11942Y136637D01*
X12746Y137254D01*
X13363Y138058D01*
X13703Y138878D01*
X23473D01*
Y137933D01*
X23558Y137507D01*
X23799Y137146D01*
X24160Y136904D01*
X24587Y136820D01*
X27539D01*
X27966Y136904D01*
X28327Y137146D01*
X28568Y137507D01*
X28653Y137933D01*
Y142067D01*
X28568Y142493D01*
X28327Y142854D01*
X27966Y143096D01*
X27539Y143180D01*
X24587D01*
X24160Y143096D01*
X23799Y142854D01*
X23558Y142493D01*
X23473Y142067D01*
Y141122D01*
X13703D01*
X13363Y141942D01*
X12746Y142746D01*
X11942Y143363D01*
X11005Y143751D01*
X10000Y143883D01*
D02*
G37*
G36*
X99539Y163588D02*
X98563D01*
Y160500D01*
X101061D01*
Y162067D01*
X100945Y162649D01*
X100615Y163143D01*
X100122Y163472D01*
X99539Y163588D01*
D02*
G37*
G36*
X10000Y103883D02*
X8995Y103751D01*
X8058Y103363D01*
X7254Y102746D01*
X6637Y101942D01*
X6249Y101005D01*
X6117Y100000D01*
X6249Y98995D01*
X6637Y98058D01*
X7254Y97254D01*
X8058Y96637D01*
X8995Y96249D01*
X10000Y96117D01*
X11005Y96249D01*
X11942Y96637D01*
X12746Y97254D01*
X13363Y98058D01*
X13751Y98995D01*
X13883Y100000D01*
X13751Y101005D01*
X13363Y101942D01*
X12746Y102746D01*
X11942Y103363D01*
X11005Y103751D01*
X10000Y103883D01*
D02*
G37*
G36*
X35413Y83588D02*
X34437D01*
Y80500D01*
X36935D01*
Y82067D01*
X36819Y82649D01*
X36489Y83143D01*
X35996Y83473D01*
X35413Y83588D01*
D02*
G37*
G36*
X115563Y163588D02*
X114587D01*
X114004Y163472D01*
X113511Y163143D01*
X113181Y162649D01*
X113065Y162067D01*
Y160500D01*
X115563D01*
Y163588D01*
D02*
G37*
G36*
X33437Y83588D02*
X32461D01*
X31878Y83473D01*
X31385Y83143D01*
X31055Y82649D01*
X30939Y82067D01*
Y80500D01*
X33437D01*
Y83588D01*
D02*
G37*
G36*
X10000Y93883D02*
X8995Y93751D01*
X8058Y93363D01*
X7254Y92746D01*
X6637Y91942D01*
X6249Y91005D01*
X6117Y90000D01*
X6249Y88995D01*
X6637Y88058D01*
X7254Y87254D01*
X8058Y86637D01*
X8995Y86249D01*
X10000Y86117D01*
X11005Y86249D01*
X11942Y86637D01*
X12746Y87254D01*
X13363Y88058D01*
X13703Y88878D01*
X23473D01*
Y87933D01*
X23558Y87507D01*
X23799Y87146D01*
X24160Y86904D01*
X24587Y86820D01*
X27539D01*
X27966Y86904D01*
X28327Y87146D01*
X28568Y87507D01*
X28653Y87933D01*
Y92067D01*
X28568Y92493D01*
X28327Y92854D01*
X27966Y93096D01*
X27539Y93180D01*
X24587D01*
X24160Y93096D01*
X23799Y92854D01*
X23558Y92493D01*
X23473Y92067D01*
Y91122D01*
X13703D01*
X13363Y91942D01*
X12746Y92746D01*
X11942Y93363D01*
X11005Y93751D01*
X10000Y93883D01*
D02*
G37*
G36*
X33437Y103588D02*
X32461D01*
X31878Y103472D01*
X31385Y103143D01*
X31055Y102649D01*
X30939Y102067D01*
Y100500D01*
X33437D01*
Y103588D01*
D02*
G37*
G36*
X97563Y163588D02*
X96587D01*
X96004Y163472D01*
X95511Y163143D01*
X95181Y162649D01*
X95065Y162067D01*
Y160500D01*
X97563D01*
Y163588D01*
D02*
G37*
G36*
X35413Y103588D02*
X34437D01*
Y100500D01*
X36935D01*
Y102067D01*
X36819Y102649D01*
X36489Y103143D01*
X35996Y103472D01*
X35413Y103588D01*
D02*
G37*
G36*
X36935Y99500D02*
X34437D01*
Y96412D01*
X35413D01*
X35996Y96527D01*
X36489Y96857D01*
X36819Y97351D01*
X36935Y97933D01*
Y99500D01*
D02*
G37*
G36*
X33437D02*
X30939D01*
Y97933D01*
X31055Y97351D01*
X31385Y96857D01*
X31878Y96527D01*
X32461Y96412D01*
X33437D01*
Y99500D01*
D02*
G37*
%LPD*%
D10*
X107063Y70000D02*
D03*
X114937D02*
D03*
Y101000D02*
D03*
X107063D02*
D03*
X26063Y100000D02*
D03*
X33937D02*
D03*
Y70000D02*
D03*
X26063D02*
D03*
X33937Y150000D02*
D03*
X26063D02*
D03*
Y30000D02*
D03*
X33937D02*
D03*
X105937Y160000D02*
D03*
X98063D02*
D03*
X98126Y35000D02*
D03*
X106000D02*
D03*
X117063Y59000D02*
D03*
X124937D02*
D03*
X26063Y90000D02*
D03*
X33937D02*
D03*
Y80000D02*
D03*
X26063D02*
D03*
X33937Y110000D02*
D03*
X26063D02*
D03*
Y60000D02*
D03*
X33937D02*
D03*
X26063Y140000D02*
D03*
X33937D02*
D03*
Y20000D02*
D03*
X26063D02*
D03*
X105937Y150000D02*
D03*
X98063D02*
D03*
X98126Y25000D02*
D03*
X106000D02*
D03*
X123937Y150000D02*
D03*
X116063D02*
D03*
X116126Y25000D02*
D03*
X124000D02*
D03*
X33937Y160000D02*
D03*
X26063D02*
D03*
Y40000D02*
D03*
X33937D02*
D03*
X123937Y160000D02*
D03*
X116063D02*
D03*
X116126Y35000D02*
D03*
X124000D02*
D03*
X51063Y146000D02*
D03*
X58937D02*
D03*
Y24000D02*
D03*
X51063D02*
D03*
X58937Y136000D02*
D03*
X51063D02*
D03*
Y34000D02*
D03*
X58937D02*
D03*
X71063Y136000D02*
D03*
X78937D02*
D03*
Y34000D02*
D03*
X71063D02*
D03*
X124937Y111000D02*
D03*
X117063D02*
D03*
D11*
X92000Y81937D02*
D03*
Y74063D02*
D03*
X125000Y70063D02*
D03*
Y77937D02*
D03*
X114000Y88937D02*
D03*
Y81063D02*
D03*
X85000Y116063D02*
D03*
Y123937D02*
D03*
Y46063D02*
D03*
Y53937D02*
D03*
X75000Y116063D02*
D03*
Y123937D02*
D03*
Y46063D02*
D03*
Y53937D02*
D03*
X58000Y95937D02*
D03*
Y88063D02*
D03*
X125000Y92063D02*
D03*
Y99937D02*
D03*
X48000Y88063D02*
D03*
Y95937D02*
D03*
X65000Y116063D02*
D03*
Y123937D02*
D03*
Y46063D02*
D03*
Y53937D02*
D03*
X55000Y123937D02*
D03*
Y116063D02*
D03*
Y53937D02*
D03*
Y46063D02*
D03*
X95000Y116063D02*
D03*
Y123937D02*
D03*
Y46063D02*
D03*
Y53937D02*
D03*
D12*
X67500Y74370D02*
D03*
X72500D02*
D03*
X77500D02*
D03*
X82500D02*
D03*
X67500Y95630D02*
D03*
X72500D02*
D03*
X77500D02*
D03*
X82500D02*
D03*
D13*
X26000Y120000D02*
D03*
X108000Y45000D02*
D03*
Y10000D02*
D03*
X60000Y64000D02*
D03*
X70000D02*
D03*
X80000D02*
D03*
X75000Y106000D02*
D03*
X85000D02*
D03*
X36000Y120000D02*
D03*
X90000Y10000D02*
D03*
X65000Y106000D02*
D03*
X87000Y160000D02*
D03*
Y150000D02*
D03*
X48000Y73000D02*
D03*
X95000Y136000D02*
D03*
D14*
X114000Y89063D02*
X124937Y100000D01*
X122000Y70000D02*
X124937D01*
X114000Y78000D02*
X122000Y70000D01*
X114000Y78000D02*
Y81063D01*
X57937Y88000D02*
X58000Y88063D01*
X53000Y88000D02*
X57937D01*
X124937Y111000D02*
X130000D01*
X116000Y109937D02*
X117063Y111000D01*
X116000Y102063D02*
Y109937D01*
X114937Y101000D02*
X116000Y102063D01*
X107063Y95874D02*
X114000Y88937D01*
X107063Y95874D02*
Y101000D01*
X55000Y53937D02*
Y59000D01*
X60000Y64000D01*
X64000Y68000D01*
Y69000D01*
X72500Y95630D02*
Y97500D01*
X69000Y101000D02*
X72500Y97500D01*
X69000Y101000D02*
Y102000D01*
X65000Y106000D02*
X69000Y102000D01*
X37937Y106000D02*
X65000D01*
X70000Y111000D02*
X75000Y106000D01*
X108000Y10000D02*
X115000D01*
X90000D02*
X97000D01*
X106000D02*
X108000D01*
X36000Y120000D02*
X41000Y115000D01*
X26000Y110063D02*
X26063Y110000D01*
X26000Y110063D02*
Y120000D01*
X108000Y45000D02*
X121000D01*
X124000Y42000D01*
Y35000D02*
Y42000D01*
X137000Y17000D02*
X140000Y20000D01*
X106126Y17000D02*
X137000D01*
X98126Y25000D02*
X106126Y17000D01*
X130000Y20000D02*
X140000Y30000D01*
X121126Y20000D02*
X130000D01*
X116126Y25000D02*
X121126Y20000D01*
X135000Y35000D02*
X140000Y40000D01*
X124000Y35000D02*
X135000D01*
X111000D02*
X116126D01*
X98126Y33874D02*
X102000Y30000D01*
X98126Y33874D02*
Y35000D01*
X124000Y25000D02*
Y35000D01*
X106000Y25000D02*
X116126D01*
X106000D02*
Y35000D01*
X93000Y30126D02*
X98126Y25000D01*
X93000Y30126D02*
Y38000D01*
X95000Y40000D01*
X98000D01*
X102000Y44000D01*
Y52000D01*
X100000Y54000D02*
X102000Y52000D01*
X99937Y53937D02*
X100000Y54000D01*
X95000Y53937D02*
X99937D01*
X64937Y46000D02*
X65000Y46063D01*
X60000Y46000D02*
X64937D01*
X70000Y48937D02*
X75000Y53937D01*
X70000Y43000D02*
Y48937D01*
X67000Y40000D02*
X70000Y43000D01*
X57063Y40000D02*
X67000D01*
X51063Y34000D02*
X57063Y40000D01*
X50000Y46000D02*
X54937D01*
X55000Y46063D01*
X75000Y37937D02*
Y46063D01*
X71063Y34000D02*
X75000Y37937D01*
X33937Y20000D02*
X40000D01*
X70000Y10000D02*
X71063Y11063D01*
Y34000D01*
X51063Y18937D02*
X60000Y10000D01*
X51063Y18937D02*
Y24000D01*
X46000Y34000D02*
X51063D01*
X42000Y30000D02*
X46000Y34000D01*
X33937Y30000D02*
X42000D01*
X75000Y53937D02*
Y59000D01*
X70000Y64000D02*
X75000Y59000D01*
X85000Y53937D02*
Y59000D01*
X80000Y64000D02*
X85000Y59000D01*
X77500Y66500D02*
X80000Y64000D01*
X77500Y66500D02*
Y74370D01*
X72500Y66500D02*
Y74370D01*
X70000Y64000D02*
X72500Y66500D01*
X67500Y72500D02*
Y74370D01*
X64000Y69000D02*
X67500Y72500D01*
X40000Y53937D02*
X55000D01*
X33937Y60000D02*
X40000Y53937D01*
X55000D02*
X65000D01*
X85000D02*
X95000D01*
X85000Y46063D02*
X95000D01*
X75000D02*
X85000D01*
X78937Y34000D02*
X84000D01*
X58937Y24000D02*
X64000D01*
X58937Y34000D02*
X71063D01*
X51063Y24000D02*
Y34000D01*
X57063Y95937D02*
X58000D01*
X48000D02*
X57063D01*
X53000Y100000D02*
X57063Y95937D01*
X33937Y100000D02*
X39000D01*
X33937Y80000D02*
X39000D01*
X33937Y70000D02*
X39000D01*
X33937Y90000D02*
Y91063D01*
X26063Y98937D02*
X33937Y91063D01*
X26063Y98937D02*
Y100000D01*
X33937Y88937D02*
Y90000D01*
X26063Y81063D02*
X33937Y88937D01*
X26063Y80000D02*
Y81063D01*
X33937Y20000D02*
Y21063D01*
X26063Y28937D02*
X33937Y21063D01*
X26063Y28937D02*
Y30000D01*
X33937D02*
Y40000D01*
X10000D02*
X26063D01*
X10000Y20000D02*
X26063D01*
X87000Y82000D02*
X91937D01*
X58000Y88063D02*
X63000D01*
X124937Y87063D02*
X125000Y87126D01*
Y92063D01*
X124937Y78000D02*
X125000Y77937D01*
X124937Y78000D02*
Y83063D01*
X140000Y80000D02*
Y90000D01*
X107000Y100937D02*
X107063Y101000D01*
X107000Y76000D02*
X107063Y75937D01*
Y70000D02*
Y75937D01*
X92000Y69000D02*
Y74063D01*
X10000Y80000D02*
X19000D01*
X114937Y70000D02*
X116000Y68937D01*
Y60063D02*
Y68937D01*
Y60063D02*
X117063Y59000D01*
X124937Y70000D02*
X125000Y70063D01*
X124937Y59000D02*
Y70000D01*
X139937Y70063D02*
X140000Y70000D01*
Y60000D02*
Y70000D01*
X125000Y70063D02*
X139937D01*
X114000Y88937D02*
Y89063D01*
X124937Y100000D02*
X125000Y99937D01*
X140000Y100000D02*
Y110000D01*
X139937Y99937D02*
X140000Y100000D01*
X125000Y99937D02*
X139937D01*
X47937Y88000D02*
X48000Y88063D01*
X43000Y88000D02*
X47937D01*
X52937Y88063D02*
X53000Y88000D01*
X48000Y88063D02*
X52937D01*
X91937Y82000D02*
X92000Y81937D01*
X73531Y88937D02*
X114000D01*
X67500Y94968D02*
X73531Y88937D01*
X99000Y81063D02*
X114000D01*
X92000Y74063D02*
X99000Y81063D01*
X67500Y94968D02*
Y95630D01*
X33937Y70000D02*
Y80000D01*
X26063Y70000D02*
Y80000D01*
Y60000D02*
Y70000D01*
Y100000D02*
Y110000D01*
X10000Y90000D02*
X26063D01*
X77500Y95630D02*
Y103500D01*
X75000Y106000D02*
X77500Y103500D01*
X108063Y140000D02*
X140000D01*
X98063Y150000D02*
X108063Y140000D01*
X78937Y136000D02*
X84000D01*
X70000Y160000D02*
X71063Y158937D01*
Y136000D02*
Y158937D01*
X58937Y146000D02*
X64000D01*
X55000Y123937D02*
Y129000D01*
X45000Y136000D02*
X51063D01*
X46000Y146000D02*
X51063D01*
X41000Y151000D02*
X46000Y146000D01*
X41000Y151000D02*
Y158000D01*
X49937Y116063D02*
X55000D01*
X41000Y125000D02*
X49937Y116063D01*
X41000Y125000D02*
Y138000D01*
X39000Y140000D02*
X41000Y138000D01*
X39000Y160000D02*
X41000Y158000D01*
X82500Y74370D02*
X82807Y74063D01*
X92000D01*
X67193Y95937D02*
X67500Y95630D01*
X58000Y95937D02*
X67193D01*
X33937Y110000D02*
X37937Y106000D01*
X71063Y127874D02*
X75000Y123937D01*
X71063Y127874D02*
Y136000D01*
X116063Y116063D02*
X140000Y140000D01*
X95000Y116063D02*
X116063D01*
X82500Y95630D02*
Y103500D01*
X85000Y106000D01*
X65000D02*
Y116063D01*
X81063Y120000D02*
X85000Y116063D01*
X68937Y120000D02*
X81063D01*
X65000Y123937D02*
X68937Y120000D01*
X55000Y116063D02*
X65000D01*
X75000Y106000D02*
Y116063D01*
X85000Y106000D02*
Y116063D01*
X95000D01*
X85000Y123937D02*
X95000D01*
X75000D02*
X85000D01*
X58937Y136000D02*
X71063D01*
X51063Y146000D02*
Y151063D01*
X60000Y160000D01*
X51063Y136000D02*
Y146000D01*
X10000Y160000D02*
X26063D01*
X33937Y140000D02*
Y141063D01*
X26063Y148937D02*
X33937Y141063D01*
X26063Y148937D02*
Y150000D01*
X33937Y140000D02*
X39000D01*
X33937Y160000D02*
X39000D01*
X33937Y150000D02*
Y160000D01*
X10000Y140000D02*
X26063D01*
X123937Y150000D02*
Y160000D01*
X82000Y155000D02*
X87000Y160000D01*
X98000Y149937D02*
X98063Y150000D01*
X111000Y160000D02*
X116063D01*
X93000D02*
X98063D01*
X135000Y145000D02*
X140000Y150000D01*
X121063Y145000D02*
X135000D01*
X116063Y150000D02*
X121063Y145000D01*
X100937Y155000D02*
X105937Y150000D01*
X92000Y155000D02*
X100937D01*
X87000Y150000D02*
X92000Y155000D01*
X105937Y150000D02*
X116063D01*
X105937D02*
Y160000D01*
X123937D02*
X140000D01*
D15*
Y90000D02*
D03*
Y80000D02*
D03*
Y70000D02*
D03*
Y100000D02*
D03*
Y110000D02*
D03*
X50000Y160000D02*
D03*
X60000D02*
D03*
Y10000D02*
D03*
X50000D02*
D03*
X140000Y160000D02*
D03*
Y150000D02*
D03*
Y140000D02*
D03*
X10000D02*
D03*
Y150000D02*
D03*
Y160000D02*
D03*
Y40000D02*
D03*
Y30000D02*
D03*
Y20000D02*
D03*
X140000D02*
D03*
Y30000D02*
D03*
Y40000D02*
D03*
X10000Y100000D02*
D03*
Y90000D02*
D03*
Y80000D02*
D03*
D16*
X140000Y60000D02*
D03*
Y130000D02*
D03*
X10000D02*
D03*
Y10000D02*
D03*
X140000D02*
D03*
X10000Y70000D02*
D03*
D17*
X70000Y160000D02*
D03*
Y10000D02*
D03*
D18*
X130000Y111000D02*
D03*
X70000D02*
D03*
X131000Y154000D02*
D03*
X116000Y144000D02*
D03*
X80000Y110000D02*
D03*
X95000D02*
D03*
X71000Y40000D02*
D03*
X131000Y27000D02*
D03*
X121000Y51000D02*
D03*
X115000Y10000D02*
D03*
X97000D02*
D03*
X41000Y115000D02*
D03*
X111000Y35000D02*
D03*
X102000Y30000D02*
D03*
X100000Y54000D02*
D03*
X60000Y46000D02*
D03*
X50000D02*
D03*
X40000Y20000D02*
D03*
Y53937D02*
D03*
X84000Y34000D02*
D03*
X64000Y24000D02*
D03*
X53000Y100000D02*
D03*
X39000Y70000D02*
D03*
Y80000D02*
D03*
Y100000D02*
D03*
X87000Y82000D02*
D03*
X63000Y88063D02*
D03*
X124937Y83063D02*
D03*
Y87063D02*
D03*
X107000Y76000D02*
D03*
X92000Y69000D02*
D03*
X19000Y80000D02*
D03*
X43000Y88000D02*
D03*
X53000D02*
D03*
X84000Y136000D02*
D03*
X64000Y146000D02*
D03*
X55000Y129000D02*
D03*
X45000Y136000D02*
D03*
X82000Y155000D02*
D03*
X93000Y160000D02*
D03*
X111000D02*
D03*
X92000Y66000D02*
D03*
M02*
