G04 Layer_Color=255*
%FSLAX25Y25*%
%MOIN*%
G70*
G01*
G75*
G04:AMPARAMS|DCode=10|XSize=39.37mil|YSize=51.18mil|CornerRadius=4.92mil|HoleSize=0mil|Usage=FLASHONLY|Rotation=0.000|XOffset=0mil|YOffset=0mil|HoleType=Round|Shape=RoundedRectangle|*
%AMROUNDEDRECTD10*
21,1,0.03937,0.04134,0,0,0.0*
21,1,0.02953,0.05118,0,0,0.0*
1,1,0.00984,0.01476,-0.02067*
1,1,0.00984,-0.01476,-0.02067*
1,1,0.00984,-0.01476,0.02067*
1,1,0.00984,0.01476,0.02067*
%
%ADD10ROUNDEDRECTD10*%
G04:AMPARAMS|DCode=11|XSize=39.37mil|YSize=51.18mil|CornerRadius=4.92mil|HoleSize=0mil|Usage=FLASHONLY|Rotation=270.000|XOffset=0mil|YOffset=0mil|HoleType=Round|Shape=RoundedRectangle|*
%AMROUNDEDRECTD11*
21,1,0.03937,0.04134,0,0,270.0*
21,1,0.02953,0.05118,0,0,270.0*
1,1,0.00984,-0.02067,-0.01476*
1,1,0.00984,-0.02067,0.01476*
1,1,0.00984,0.02067,0.01476*
1,1,0.00984,0.02067,-0.01476*
%
%ADD11ROUNDEDRECTD11*%
%ADD12O,0.02362X0.06102*%
%ADD13C,0.05905*%
%ADD15C,0.06500*%
G04:AMPARAMS|DCode=16|XSize=65mil|YSize=65mil|CornerRadius=9.75mil|HoleSize=0mil|Usage=FLASHONLY|Rotation=0.000|XOffset=0mil|YOffset=0mil|HoleType=Round|Shape=RoundedRectangle|*
%AMROUNDEDRECTD16*
21,1,0.06500,0.04550,0,0,0.0*
21,1,0.04550,0.06500,0,0,0.0*
1,1,0.01950,0.02275,-0.02275*
1,1,0.01950,-0.02275,-0.02275*
1,1,0.01950,-0.02275,0.02275*
1,1,0.01950,0.02275,0.02275*
%
%ADD16ROUNDEDRECTD16*%
G04:AMPARAMS|DCode=17|XSize=65mil|YSize=65mil|CornerRadius=9.75mil|HoleSize=0mil|Usage=FLASHONLY|Rotation=90.000|XOffset=0mil|YOffset=0mil|HoleType=Round|Shape=RoundedRectangle|*
%AMROUNDEDRECTD17*
21,1,0.06500,0.04550,0,0,90.0*
21,1,0.04550,0.06500,0,0,90.0*
1,1,0.01950,0.02275,0.02275*
1,1,0.01950,0.02275,-0.02275*
1,1,0.01950,-0.02275,-0.02275*
1,1,0.01950,-0.02275,0.02275*
%
%ADD17ROUNDEDRECTD17*%
D10*
X107063Y70000D02*
D03*
X114937D02*
D03*
Y101000D02*
D03*
X107063D02*
D03*
X26063Y100000D02*
D03*
X33937D02*
D03*
Y70000D02*
D03*
X26063D02*
D03*
X33937Y150000D02*
D03*
X26063D02*
D03*
Y30000D02*
D03*
X33937D02*
D03*
X105937Y160000D02*
D03*
X98063D02*
D03*
X98126Y35000D02*
D03*
X106000D02*
D03*
X117063Y59000D02*
D03*
X124937D02*
D03*
X26063Y90000D02*
D03*
X33937D02*
D03*
Y80000D02*
D03*
X26063D02*
D03*
X33937Y110000D02*
D03*
X26063D02*
D03*
Y60000D02*
D03*
X33937D02*
D03*
X26063Y140000D02*
D03*
X33937D02*
D03*
Y20000D02*
D03*
X26063D02*
D03*
X105937Y150000D02*
D03*
X98063D02*
D03*
X98126Y25000D02*
D03*
X106000D02*
D03*
X123937Y150000D02*
D03*
X116063D02*
D03*
X116126Y25000D02*
D03*
X124000D02*
D03*
X33937Y160000D02*
D03*
X26063D02*
D03*
Y40000D02*
D03*
X33937D02*
D03*
X123937Y160000D02*
D03*
X116063D02*
D03*
X116126Y35000D02*
D03*
X124000D02*
D03*
X51063Y146000D02*
D03*
X58937D02*
D03*
Y24000D02*
D03*
X51063D02*
D03*
X58937Y136000D02*
D03*
X51063D02*
D03*
Y34000D02*
D03*
X58937D02*
D03*
X71063Y136000D02*
D03*
X78937D02*
D03*
Y34000D02*
D03*
X71063D02*
D03*
X124937Y111000D02*
D03*
X117063D02*
D03*
D11*
X92000Y81937D02*
D03*
Y74063D02*
D03*
X125000Y70063D02*
D03*
Y77937D02*
D03*
X114000Y88937D02*
D03*
Y81063D02*
D03*
X85000Y116063D02*
D03*
Y123937D02*
D03*
Y46063D02*
D03*
Y53937D02*
D03*
X75000Y116063D02*
D03*
Y123937D02*
D03*
Y46063D02*
D03*
Y53937D02*
D03*
X58000Y95937D02*
D03*
Y88063D02*
D03*
X125000Y92063D02*
D03*
Y99937D02*
D03*
X48000Y88063D02*
D03*
Y95937D02*
D03*
X65000Y116063D02*
D03*
Y123937D02*
D03*
Y46063D02*
D03*
Y53937D02*
D03*
X55000Y123937D02*
D03*
Y116063D02*
D03*
Y53937D02*
D03*
Y46063D02*
D03*
X95000Y116063D02*
D03*
Y123937D02*
D03*
Y46063D02*
D03*
Y53937D02*
D03*
D12*
X67500Y74370D02*
D03*
X72500D02*
D03*
X77500D02*
D03*
X82500D02*
D03*
X67500Y95630D02*
D03*
X72500D02*
D03*
X77500D02*
D03*
X82500D02*
D03*
D13*
X26000Y120000D02*
D03*
X108000Y45000D02*
D03*
Y10000D02*
D03*
X60000Y64000D02*
D03*
X70000D02*
D03*
X80000D02*
D03*
X75000Y106000D02*
D03*
X85000D02*
D03*
X36000Y120000D02*
D03*
X90000Y10000D02*
D03*
X65000Y106000D02*
D03*
X87000Y160000D02*
D03*
Y150000D02*
D03*
X48000Y73000D02*
D03*
X95000Y136000D02*
D03*
D15*
X140000Y90000D02*
D03*
Y80000D02*
D03*
Y70000D02*
D03*
Y100000D02*
D03*
Y110000D02*
D03*
X50000Y160000D02*
D03*
X60000D02*
D03*
Y10000D02*
D03*
X50000D02*
D03*
X140000Y160000D02*
D03*
Y150000D02*
D03*
Y140000D02*
D03*
X10000D02*
D03*
Y150000D02*
D03*
Y160000D02*
D03*
Y40000D02*
D03*
Y30000D02*
D03*
Y20000D02*
D03*
X140000D02*
D03*
Y30000D02*
D03*
Y40000D02*
D03*
X10000Y100000D02*
D03*
Y90000D02*
D03*
Y80000D02*
D03*
D16*
X140000Y60000D02*
D03*
Y130000D02*
D03*
X10000D02*
D03*
Y10000D02*
D03*
X140000D02*
D03*
X10000Y70000D02*
D03*
D17*
X70000Y160000D02*
D03*
Y10000D02*
D03*
M02*
