M48
;Layer_Color=9474304
;FILE_FORMAT=2:4
INCH,LZ
;TYPE=PLATED
T1F00S00C0.0276
T2F00S00C0.0350
%
T01
X004Y-008
X0045
Y-0075
X004
Y-007
X0045
Y-0065
X004
Y-006
X0045
T02
X0Y-009
X001
Y-008
Y-007
Y-006
Y-005
X0
Y-006
Y-007
Y-008
X0025
Y-009
Y-005
Y-004
Y-003
Y-002
Y-001
Y0
X001
Y-001
Y-002
Y-003
Y-004
X0
Y-003
Y-002
Y-001
Y0
M30
