G04 Layer_Color=65535*
%FSLAX25Y25*%
%MOIN*%
G70*
G01*
G75*
%ADD17C,0.00787*%
%ADD18C,0.00600*%
G36*
X67038Y31341D02*
X65501D01*
X65296Y30303D01*
X65301Y30309D01*
X65312Y30314D01*
X65329Y30325D01*
X65357Y30342D01*
X65390Y30359D01*
X65429Y30381D01*
X65518Y30425D01*
X65629Y30470D01*
X65751Y30509D01*
X65884Y30536D01*
X65951Y30547D01*
X66073D01*
X66106Y30542D01*
X66150Y30536D01*
X66200Y30531D01*
X66256Y30520D01*
X66317Y30503D01*
X66450Y30464D01*
X66522Y30437D01*
X66594Y30398D01*
X66667Y30359D01*
X66739Y30314D01*
X66805Y30259D01*
X66872Y30198D01*
X66877Y30192D01*
X66888Y30181D01*
X66905Y30165D01*
X66927Y30137D01*
X66955Y30098D01*
X66983Y30059D01*
X67016Y30009D01*
X67049Y29954D01*
X67077Y29893D01*
X67111Y29826D01*
X67138Y29748D01*
X67166Y29671D01*
X67188Y29587D01*
X67205Y29493D01*
X67216Y29399D01*
X67222Y29299D01*
Y29293D01*
Y29276D01*
Y29249D01*
X67216Y29210D01*
X67211Y29166D01*
X67205Y29116D01*
X67194Y29054D01*
X67183Y28993D01*
X67149Y28849D01*
X67094Y28699D01*
X67061Y28622D01*
X67016Y28550D01*
X66972Y28472D01*
X66916Y28400D01*
X66911Y28394D01*
X66900Y28377D01*
X66877Y28355D01*
X66850Y28327D01*
X66811Y28294D01*
X66766Y28250D01*
X66711Y28211D01*
X66650Y28166D01*
X66583Y28122D01*
X66506Y28083D01*
X66422Y28044D01*
X66334Y28005D01*
X66239Y27978D01*
X66134Y27956D01*
X66023Y27939D01*
X65906Y27933D01*
X65856D01*
X65817Y27939D01*
X65773Y27944D01*
X65723Y27950D01*
X65662Y27956D01*
X65601Y27972D01*
X65462Y28005D01*
X65324Y28056D01*
X65251Y28089D01*
X65179Y28128D01*
X65113Y28172D01*
X65046Y28222D01*
X65040Y28228D01*
X65029Y28233D01*
X65018Y28255D01*
X64996Y28278D01*
X64968Y28305D01*
X64941Y28339D01*
X64907Y28383D01*
X64879Y28433D01*
X64846Y28483D01*
X64813Y28544D01*
X64752Y28677D01*
X64702Y28833D01*
X64685Y28916D01*
X64674Y29005D01*
X65168Y29043D01*
Y29038D01*
Y29027D01*
X65174Y29010D01*
X65179Y28982D01*
X65196Y28921D01*
X65218Y28838D01*
X65251Y28755D01*
X65296Y28660D01*
X65351Y28577D01*
X65418Y28499D01*
X65429Y28494D01*
X65451Y28472D01*
X65496Y28444D01*
X65557Y28411D01*
X65623Y28377D01*
X65706Y28350D01*
X65801Y28327D01*
X65906Y28322D01*
X65939D01*
X65962Y28327D01*
X66028Y28333D01*
X66106Y28355D01*
X66200Y28383D01*
X66295Y28427D01*
X66395Y28494D01*
X66439Y28533D01*
X66483Y28577D01*
X66489Y28583D01*
X66495Y28588D01*
X66506Y28605D01*
X66522Y28622D01*
X66561Y28683D01*
X66606Y28760D01*
X66644Y28855D01*
X66683Y28971D01*
X66711Y29110D01*
X66722Y29182D01*
Y29260D01*
Y29265D01*
Y29276D01*
Y29299D01*
X66716Y29326D01*
Y29360D01*
X66711Y29399D01*
X66694Y29487D01*
X66667Y29593D01*
X66628Y29698D01*
X66572Y29798D01*
X66495Y29893D01*
Y29898D01*
X66483Y29904D01*
X66456Y29931D01*
X66406Y29970D01*
X66339Y30015D01*
X66250Y30053D01*
X66150Y30092D01*
X66034Y30120D01*
X65967Y30131D01*
X65862D01*
X65817Y30126D01*
X65762Y30120D01*
X65695Y30103D01*
X65629Y30087D01*
X65557Y30059D01*
X65484Y30026D01*
X65479Y30020D01*
X65457Y30009D01*
X65423Y29981D01*
X65379Y29954D01*
X65335Y29915D01*
X65290Y29865D01*
X65240Y29815D01*
X65201Y29754D01*
X64757Y29815D01*
X65129Y31791D01*
X67038D01*
Y31341D01*
D02*
G37*
G36*
X62826Y31835D02*
X62876D01*
X62992Y31830D01*
X63115Y31813D01*
X63248Y31796D01*
X63370Y31769D01*
X63431Y31752D01*
X63481Y31735D01*
X63486D01*
X63492Y31730D01*
X63525Y31713D01*
X63575Y31691D01*
X63636Y31652D01*
X63703Y31602D01*
X63775Y31535D01*
X63842Y31458D01*
X63908Y31369D01*
Y31363D01*
X63914Y31358D01*
X63936Y31324D01*
X63958Y31269D01*
X63991Y31197D01*
X64019Y31113D01*
X64047Y31014D01*
X64064Y30908D01*
X64069Y30792D01*
Y30786D01*
Y30775D01*
Y30753D01*
X64064Y30725D01*
Y30686D01*
X64058Y30647D01*
X64036Y30553D01*
X64003Y30442D01*
X63958Y30325D01*
X63892Y30209D01*
X63847Y30153D01*
X63803Y30098D01*
X63797Y30092D01*
X63792Y30087D01*
X63775Y30070D01*
X63753Y30053D01*
X63725Y30031D01*
X63692Y30009D01*
X63647Y29981D01*
X63603Y29948D01*
X63547Y29920D01*
X63486Y29893D01*
X63420Y29859D01*
X63348Y29831D01*
X63264Y29809D01*
X63181Y29781D01*
X63087Y29765D01*
X62987Y29748D01*
X62998Y29743D01*
X63020Y29732D01*
X63054Y29709D01*
X63098Y29687D01*
X63198Y29626D01*
X63248Y29587D01*
X63292Y29554D01*
X63303Y29543D01*
X63331Y29515D01*
X63375Y29471D01*
X63431Y29415D01*
X63492Y29337D01*
X63564Y29254D01*
X63636Y29154D01*
X63714Y29043D01*
X64374Y28000D01*
X63742D01*
X63237Y28799D01*
Y28805D01*
X63226Y28816D01*
X63214Y28833D01*
X63198Y28855D01*
X63159Y28916D01*
X63109Y28993D01*
X63048Y29077D01*
X62987Y29166D01*
X62926Y29249D01*
X62870Y29326D01*
X62865Y29332D01*
X62848Y29354D01*
X62820Y29388D01*
X62782Y29426D01*
X62698Y29510D01*
X62654Y29548D01*
X62609Y29582D01*
X62604Y29587D01*
X62593Y29593D01*
X62571Y29604D01*
X62537Y29621D01*
X62504Y29637D01*
X62465Y29654D01*
X62376Y29682D01*
X62371D01*
X62360Y29687D01*
X62337D01*
X62310Y29693D01*
X62271Y29698D01*
X62226D01*
X62165Y29704D01*
X61511D01*
Y28000D01*
X61000D01*
Y31841D01*
X62782D01*
X62826Y31835D01*
D02*
G37*
G36*
X25000Y20929D02*
X21997D01*
X22003Y20923D01*
X22025Y20896D01*
X22059Y20862D01*
X22097Y20807D01*
X22147Y20746D01*
X22203Y20668D01*
X22264Y20579D01*
X22325Y20479D01*
Y20474D01*
X22330Y20468D01*
X22353Y20435D01*
X22380Y20380D01*
X22414Y20313D01*
X22453Y20235D01*
X22491Y20152D01*
X22530Y20069D01*
X22564Y19985D01*
X22108D01*
Y19991D01*
X22097Y20002D01*
X22092Y20024D01*
X22075Y20052D01*
X22059Y20085D01*
X22036Y20124D01*
X21981Y20219D01*
X21920Y20330D01*
X21842Y20440D01*
X21753Y20557D01*
X21659Y20674D01*
X21653Y20679D01*
X21648Y20685D01*
X21631Y20701D01*
X21614Y20724D01*
X21559Y20774D01*
X21492Y20840D01*
X21415Y20907D01*
X21326Y20979D01*
X21237Y21040D01*
X21143Y21095D01*
Y21401D01*
X25000D01*
Y20929D01*
D02*
G37*
G36*
X33826Y52835D02*
X33876D01*
X33992Y52829D01*
X34115Y52813D01*
X34248Y52796D01*
X34370Y52768D01*
X34431Y52752D01*
X34481Y52735D01*
X34486D01*
X34492Y52730D01*
X34525Y52713D01*
X34575Y52691D01*
X34636Y52652D01*
X34703Y52602D01*
X34775Y52535D01*
X34842Y52458D01*
X34908Y52369D01*
Y52363D01*
X34914Y52358D01*
X34936Y52324D01*
X34958Y52269D01*
X34991Y52197D01*
X35019Y52113D01*
X35047Y52014D01*
X35064Y51908D01*
X35069Y51792D01*
Y51786D01*
Y51775D01*
Y51753D01*
X35064Y51725D01*
Y51686D01*
X35058Y51647D01*
X35036Y51553D01*
X35003Y51442D01*
X34958Y51326D01*
X34892Y51209D01*
X34847Y51153D01*
X34803Y51098D01*
X34797Y51092D01*
X34792Y51087D01*
X34775Y51070D01*
X34753Y51054D01*
X34725Y51031D01*
X34692Y51009D01*
X34647Y50981D01*
X34603Y50948D01*
X34547Y50920D01*
X34486Y50893D01*
X34420Y50859D01*
X34348Y50832D01*
X34264Y50809D01*
X34181Y50782D01*
X34087Y50765D01*
X33987Y50748D01*
X33998Y50743D01*
X34020Y50732D01*
X34054Y50709D01*
X34098Y50687D01*
X34198Y50626D01*
X34248Y50587D01*
X34292Y50554D01*
X34303Y50543D01*
X34331Y50515D01*
X34375Y50471D01*
X34431Y50415D01*
X34492Y50337D01*
X34564Y50254D01*
X34636Y50154D01*
X34714Y50043D01*
X35374Y49000D01*
X34742D01*
X34237Y49799D01*
Y49805D01*
X34225Y49816D01*
X34214Y49832D01*
X34198Y49855D01*
X34159Y49916D01*
X34109Y49994D01*
X34048Y50077D01*
X33987Y50165D01*
X33926Y50249D01*
X33870Y50326D01*
X33865Y50332D01*
X33848Y50354D01*
X33820Y50388D01*
X33781Y50426D01*
X33698Y50510D01*
X33654Y50548D01*
X33610Y50582D01*
X33604Y50587D01*
X33593Y50593D01*
X33571Y50604D01*
X33537Y50621D01*
X33504Y50637D01*
X33465Y50654D01*
X33376Y50682D01*
X33371D01*
X33360Y50687D01*
X33338D01*
X33310Y50693D01*
X33271Y50698D01*
X33226D01*
X33165Y50704D01*
X32511D01*
Y49000D01*
X32000D01*
Y52841D01*
X33781D01*
X33826Y52835D01*
D02*
G37*
G36*
X10655Y29354D02*
X11177D01*
Y28921D01*
X10655D01*
Y28000D01*
X10184D01*
Y28921D01*
X8513D01*
Y29354D01*
X10272Y31841D01*
X10655D01*
Y29354D01*
D02*
G37*
G36*
X6826Y31835D02*
X6876D01*
X6992Y31830D01*
X7114Y31813D01*
X7248Y31796D01*
X7370Y31769D01*
X7431Y31752D01*
X7481Y31735D01*
X7486D01*
X7492Y31730D01*
X7525Y31713D01*
X7575Y31691D01*
X7636Y31652D01*
X7703Y31602D01*
X7775Y31535D01*
X7842Y31458D01*
X7908Y31369D01*
Y31363D01*
X7914Y31358D01*
X7936Y31324D01*
X7958Y31269D01*
X7992Y31197D01*
X8019Y31113D01*
X8047Y31014D01*
X8064Y30908D01*
X8069Y30792D01*
Y30786D01*
Y30775D01*
Y30753D01*
X8064Y30725D01*
Y30686D01*
X8058Y30647D01*
X8036Y30553D01*
X8003Y30442D01*
X7958Y30325D01*
X7891Y30209D01*
X7847Y30153D01*
X7803Y30098D01*
X7797Y30092D01*
X7792Y30087D01*
X7775Y30070D01*
X7753Y30053D01*
X7725Y30031D01*
X7692Y30009D01*
X7647Y29981D01*
X7603Y29948D01*
X7547Y29920D01*
X7486Y29893D01*
X7420Y29859D01*
X7348Y29831D01*
X7264Y29809D01*
X7181Y29781D01*
X7087Y29765D01*
X6987Y29748D01*
X6998Y29743D01*
X7020Y29732D01*
X7053Y29709D01*
X7098Y29687D01*
X7198Y29626D01*
X7248Y29587D01*
X7292Y29554D01*
X7303Y29543D01*
X7331Y29515D01*
X7375Y29471D01*
X7431Y29415D01*
X7492Y29337D01*
X7564Y29254D01*
X7636Y29154D01*
X7714Y29043D01*
X8374Y28000D01*
X7742D01*
X7237Y28799D01*
Y28805D01*
X7226Y28816D01*
X7214Y28833D01*
X7198Y28855D01*
X7159Y28916D01*
X7109Y28993D01*
X7048Y29077D01*
X6987Y29166D01*
X6926Y29249D01*
X6870Y29326D01*
X6865Y29332D01*
X6848Y29354D01*
X6820Y29388D01*
X6782Y29426D01*
X6698Y29510D01*
X6654Y29548D01*
X6610Y29582D01*
X6604Y29587D01*
X6593Y29593D01*
X6571Y29604D01*
X6537Y29621D01*
X6504Y29637D01*
X6465Y29654D01*
X6376Y29682D01*
X6371D01*
X6360Y29687D01*
X6338D01*
X6310Y29693D01*
X6271Y29698D01*
X6227D01*
X6165Y29704D01*
X5511D01*
Y28000D01*
X5000D01*
Y31841D01*
X6782D01*
X6826Y31835D01*
D02*
G37*
G36*
X25986Y46500D02*
X16495D01*
Y51341D01*
X25986D01*
Y46500D01*
D02*
G37*
G36*
X64855Y46433D02*
X52500D01*
Y51407D01*
X64855D01*
Y46433D01*
D02*
G37*
G36*
X77456D02*
X65500D01*
Y51407D01*
X77456D01*
Y46433D01*
D02*
G37*
G36*
X25000Y18287D02*
Y17788D01*
X22075Y16983D01*
X22070D01*
X22059Y16977D01*
X22042Y16972D01*
X22014Y16966D01*
X21953Y16950D01*
X21881Y16933D01*
X21803Y16911D01*
X21731Y16889D01*
X21670Y16872D01*
X21642Y16866D01*
X21626Y16861D01*
X21631D01*
X21637Y16855D01*
X21670Y16850D01*
X21720Y16839D01*
X21781Y16822D01*
X21848Y16805D01*
X21925Y16783D01*
X22003Y16767D01*
X22075Y16744D01*
X25000Y15934D01*
Y15401D01*
X21159Y14397D01*
Y14924D01*
X23679Y15495D01*
X23685D01*
X23696Y15501D01*
X23718Y15507D01*
X23746Y15512D01*
X23785Y15518D01*
X23823Y15529D01*
X23873Y15540D01*
X23929Y15551D01*
X24045Y15579D01*
X24179Y15607D01*
X24323Y15634D01*
X24467Y15662D01*
X24462D01*
X24439Y15667D01*
X24412Y15679D01*
X24367Y15684D01*
X24323Y15695D01*
X24267Y15712D01*
X24145Y15740D01*
X24023Y15773D01*
X23962Y15784D01*
X23907Y15801D01*
X23857Y15812D01*
X23812Y15823D01*
X23779Y15834D01*
X23757Y15840D01*
X21159Y16567D01*
Y17183D01*
X23108Y17727D01*
X23113D01*
X23141Y17738D01*
X23180Y17749D01*
X23230Y17760D01*
X23296Y17777D01*
X23368Y17799D01*
X23452Y17821D01*
X23546Y17843D01*
X23651Y17871D01*
X23757Y17893D01*
X23984Y17943D01*
X24223Y17993D01*
X24467Y18032D01*
X24462D01*
X24451Y18037D01*
X24428D01*
X24401Y18048D01*
X24367Y18054D01*
X24329Y18065D01*
X24279Y18071D01*
X24223Y18087D01*
X24101Y18115D01*
X23957Y18148D01*
X23801Y18182D01*
X23629Y18226D01*
X21159Y18825D01*
Y19342D01*
X25000Y18287D01*
D02*
G37*
G36*
X24034Y14041D02*
X24112Y14030D01*
X24201Y14008D01*
X24295Y13980D01*
X24395Y13936D01*
X24500Y13875D01*
X24506D01*
X24512Y13869D01*
X24545Y13842D01*
X24595Y13803D01*
X24650Y13747D01*
X24717Y13675D01*
X24789Y13586D01*
X24856Y13486D01*
X24917Y13370D01*
Y13364D01*
X24922Y13353D01*
X24928Y13337D01*
X24939Y13314D01*
X24950Y13281D01*
X24967Y13242D01*
X24989Y13153D01*
X25017Y13048D01*
X25044Y12920D01*
X25061Y12782D01*
X25067Y12632D01*
Y12626D01*
Y12609D01*
Y12582D01*
Y12543D01*
X25061Y12499D01*
Y12449D01*
X25056Y12393D01*
X25050Y12326D01*
X25028Y12188D01*
X25005Y12043D01*
X24967Y11899D01*
X24917Y11760D01*
Y11755D01*
X24911Y11744D01*
X24900Y11727D01*
X24889Y11705D01*
X24856Y11638D01*
X24806Y11561D01*
X24739Y11472D01*
X24661Y11377D01*
X24567Y11289D01*
X24462Y11205D01*
X24456D01*
X24445Y11194D01*
X24428Y11189D01*
X24406Y11172D01*
X24378Y11161D01*
X24345Y11144D01*
X24262Y11106D01*
X24156Y11067D01*
X24040Y11033D01*
X23907Y11011D01*
X23768Y11000D01*
X23723Y11477D01*
X23735D01*
X23751Y11483D01*
X23773D01*
X23823Y11494D01*
X23896Y11511D01*
X23968Y11533D01*
X24051Y11555D01*
X24129Y11594D01*
X24201Y11633D01*
X24206Y11638D01*
X24229Y11655D01*
X24267Y11683D01*
X24306Y11727D01*
X24356Y11783D01*
X24406Y11844D01*
X24456Y11927D01*
X24500Y12016D01*
Y12021D01*
X24506Y12027D01*
X24512Y12043D01*
X24517Y12060D01*
X24534Y12116D01*
X24556Y12188D01*
X24578Y12276D01*
X24595Y12376D01*
X24606Y12487D01*
X24611Y12609D01*
Y12615D01*
Y12621D01*
Y12637D01*
Y12659D01*
X24606Y12715D01*
X24600Y12782D01*
X24589Y12859D01*
X24578Y12948D01*
X24556Y13037D01*
X24528Y13120D01*
X24523Y13131D01*
X24512Y13159D01*
X24489Y13198D01*
X24467Y13248D01*
X24428Y13298D01*
X24389Y13353D01*
X24345Y13409D01*
X24290Y13453D01*
X24284Y13459D01*
X24262Y13470D01*
X24234Y13486D01*
X24190Y13509D01*
X24145Y13531D01*
X24090Y13547D01*
X24029Y13558D01*
X23962Y13564D01*
X23929D01*
X23896Y13558D01*
X23851Y13553D01*
X23807Y13536D01*
X23751Y13520D01*
X23696Y13492D01*
X23646Y13453D01*
X23640Y13448D01*
X23624Y13431D01*
X23601Y13409D01*
X23568Y13370D01*
X23535Y13326D01*
X23496Y13264D01*
X23457Y13192D01*
X23424Y13109D01*
X23418Y13104D01*
X23413Y13076D01*
X23396Y13031D01*
X23391Y13004D01*
X23379Y12965D01*
X23363Y12926D01*
X23352Y12876D01*
X23335Y12820D01*
X23318Y12754D01*
X23302Y12687D01*
X23280Y12609D01*
X23257Y12521D01*
X23235Y12426D01*
Y12421D01*
X23230Y12404D01*
X23224Y12376D01*
X23213Y12343D01*
X23202Y12299D01*
X23191Y12249D01*
X23157Y12138D01*
X23119Y12016D01*
X23080Y11888D01*
X23041Y11777D01*
X23019Y11727D01*
X22996Y11683D01*
Y11677D01*
X22991Y11672D01*
X22969Y11638D01*
X22941Y11588D01*
X22896Y11533D01*
X22847Y11466D01*
X22786Y11400D01*
X22713Y11333D01*
X22636Y11277D01*
X22625Y11272D01*
X22597Y11255D01*
X22552Y11233D01*
X22497Y11211D01*
X22425Y11189D01*
X22342Y11167D01*
X22253Y11150D01*
X22158Y11144D01*
X22108D01*
X22053Y11155D01*
X21981Y11167D01*
X21898Y11183D01*
X21803Y11211D01*
X21709Y11250D01*
X21614Y11305D01*
X21609D01*
X21603Y11311D01*
X21570Y11338D01*
X21526Y11377D01*
X21470Y11427D01*
X21409Y11494D01*
X21342Y11577D01*
X21282Y11677D01*
X21226Y11788D01*
Y11794D01*
X21220Y11805D01*
X21215Y11821D01*
X21204Y11844D01*
X21193Y11871D01*
X21182Y11910D01*
X21159Y11993D01*
X21137Y12099D01*
X21115Y12221D01*
X21098Y12349D01*
X21093Y12493D01*
Y12499D01*
Y12510D01*
Y12537D01*
Y12565D01*
X21098Y12604D01*
Y12643D01*
X21110Y12748D01*
X21126Y12865D01*
X21154Y12987D01*
X21187Y13120D01*
X21231Y13242D01*
Y13248D01*
X21237Y13259D01*
X21248Y13275D01*
X21259Y13298D01*
X21287Y13353D01*
X21337Y13425D01*
X21393Y13509D01*
X21465Y13592D01*
X21548Y13670D01*
X21642Y13742D01*
X21648D01*
X21653Y13747D01*
X21670Y13758D01*
X21687Y13769D01*
X21742Y13797D01*
X21814Y13830D01*
X21903Y13869D01*
X22008Y13897D01*
X22120Y13925D01*
X22242Y13936D01*
X22280Y13448D01*
X22264D01*
X22247Y13442D01*
X22219Y13436D01*
X22158Y13420D01*
X22075Y13398D01*
X21986Y13364D01*
X21898Y13314D01*
X21814Y13253D01*
X21737Y13176D01*
X21731Y13164D01*
X21709Y13137D01*
X21676Y13081D01*
X21642Y13009D01*
X21609Y12915D01*
X21576Y12804D01*
X21553Y12665D01*
X21548Y12510D01*
Y12504D01*
Y12487D01*
Y12465D01*
Y12432D01*
X21553Y12399D01*
X21559Y12354D01*
X21570Y12254D01*
X21592Y12143D01*
X21620Y12032D01*
X21664Y11927D01*
X21692Y11883D01*
X21720Y11838D01*
X21725Y11827D01*
X21748Y11805D01*
X21787Y11772D01*
X21831Y11738D01*
X21892Y11699D01*
X21959Y11666D01*
X22036Y11644D01*
X22125Y11633D01*
X22158D01*
X22197Y11638D01*
X22242Y11649D01*
X22297Y11666D01*
X22353Y11694D01*
X22408Y11727D01*
X22464Y11777D01*
X22469Y11783D01*
X22486Y11810D01*
X22502Y11833D01*
X22514Y11855D01*
X22530Y11888D01*
X22552Y11927D01*
X22569Y11977D01*
X22591Y12032D01*
X22614Y12093D01*
X22641Y12166D01*
X22663Y12243D01*
X22691Y12332D01*
X22713Y12432D01*
X22741Y12543D01*
Y12548D01*
X22747Y12571D01*
X22752Y12604D01*
X22763Y12643D01*
X22774Y12693D01*
X22791Y12754D01*
X22808Y12815D01*
X22824Y12881D01*
X22863Y13026D01*
X22902Y13164D01*
X22924Y13231D01*
X22946Y13292D01*
X22963Y13348D01*
X22985Y13392D01*
Y13398D01*
X22991Y13409D01*
X23002Y13425D01*
X23013Y13448D01*
X23046Y13509D01*
X23091Y13581D01*
X23152Y13664D01*
X23219Y13747D01*
X23296Y13825D01*
X23379Y13892D01*
X23391Y13897D01*
X23418Y13919D01*
X23468Y13941D01*
X23535Y13975D01*
X23613Y14003D01*
X23707Y14030D01*
X23812Y14047D01*
X23923Y14052D01*
X23973D01*
X24034Y14041D01*
D02*
G37*
G36*
X15855Y46433D02*
X3500D01*
Y51407D01*
X15855D01*
Y46433D01*
D02*
G37*
G36*
X36995Y52852D02*
X37067Y52841D01*
X37156Y52824D01*
X37256Y52796D01*
X37356Y52763D01*
X37456Y52719D01*
X37461D01*
X37467Y52713D01*
X37500Y52696D01*
X37550Y52663D01*
X37606Y52624D01*
X37672Y52569D01*
X37739Y52508D01*
X37805Y52435D01*
X37861Y52352D01*
X37866Y52341D01*
X37883Y52313D01*
X37905Y52263D01*
X37933Y52202D01*
X37961Y52130D01*
X37983Y52047D01*
X37999Y51953D01*
X38005Y51858D01*
Y51847D01*
Y51814D01*
X37999Y51769D01*
X37988Y51708D01*
X37972Y51636D01*
X37944Y51559D01*
X37911Y51481D01*
X37866Y51403D01*
X37861Y51392D01*
X37844Y51370D01*
X37811Y51331D01*
X37766Y51287D01*
X37711Y51237D01*
X37644Y51181D01*
X37567Y51131D01*
X37472Y51081D01*
X37478D01*
X37489Y51076D01*
X37506Y51070D01*
X37528Y51065D01*
X37589Y51042D01*
X37667Y51009D01*
X37755Y50965D01*
X37844Y50909D01*
X37927Y50837D01*
X38005Y50754D01*
X38011Y50743D01*
X38033Y50709D01*
X38066Y50654D01*
X38100Y50582D01*
X38133Y50493D01*
X38166Y50388D01*
X38188Y50265D01*
X38194Y50132D01*
Y50127D01*
Y50110D01*
Y50082D01*
X38188Y50049D01*
X38183Y50005D01*
X38172Y49955D01*
X38160Y49899D01*
X38149Y49838D01*
X38105Y49705D01*
X38072Y49633D01*
X38038Y49566D01*
X37994Y49494D01*
X37944Y49422D01*
X37889Y49350D01*
X37822Y49283D01*
X37816Y49277D01*
X37805Y49266D01*
X37783Y49250D01*
X37755Y49228D01*
X37722Y49200D01*
X37678Y49172D01*
X37628Y49139D01*
X37567Y49111D01*
X37506Y49078D01*
X37433Y49044D01*
X37361Y49017D01*
X37278Y48989D01*
X37189Y48967D01*
X37095Y48950D01*
X37001Y48939D01*
X36895Y48933D01*
X36845D01*
X36812Y48939D01*
X36768Y48945D01*
X36718Y48950D01*
X36662Y48961D01*
X36601Y48972D01*
X36468Y49005D01*
X36329Y49061D01*
X36257Y49094D01*
X36190Y49133D01*
X36124Y49183D01*
X36057Y49233D01*
X36051Y49239D01*
X36040Y49250D01*
X36024Y49266D01*
X36007Y49289D01*
X35979Y49316D01*
X35952Y49355D01*
X35918Y49394D01*
X35885Y49444D01*
X35852Y49499D01*
X35818Y49555D01*
X35757Y49688D01*
X35707Y49844D01*
X35691Y49927D01*
X35680Y50016D01*
X36151Y50077D01*
Y50071D01*
X36157Y50060D01*
X36162Y50038D01*
X36168Y50010D01*
X36174Y49977D01*
X36185Y49938D01*
X36213Y49855D01*
X36251Y49755D01*
X36301Y49660D01*
X36357Y49572D01*
X36423Y49494D01*
X36434Y49488D01*
X36457Y49466D01*
X36501Y49439D01*
X36557Y49411D01*
X36623Y49377D01*
X36706Y49350D01*
X36801Y49327D01*
X36901Y49322D01*
X36934D01*
X36956Y49327D01*
X37017Y49333D01*
X37095Y49350D01*
X37184Y49377D01*
X37278Y49416D01*
X37372Y49472D01*
X37461Y49549D01*
X37472Y49561D01*
X37500Y49594D01*
X37533Y49644D01*
X37578Y49710D01*
X37622Y49794D01*
X37655Y49888D01*
X37683Y49999D01*
X37694Y50121D01*
Y50127D01*
Y50138D01*
Y50154D01*
X37689Y50177D01*
X37683Y50238D01*
X37667Y50310D01*
X37644Y50399D01*
X37606Y50487D01*
X37550Y50576D01*
X37478Y50659D01*
X37467Y50670D01*
X37439Y50693D01*
X37395Y50726D01*
X37334Y50765D01*
X37256Y50804D01*
X37161Y50837D01*
X37056Y50859D01*
X36939Y50870D01*
X36890D01*
X36851Y50865D01*
X36801Y50859D01*
X36745Y50848D01*
X36679Y50837D01*
X36606Y50820D01*
X36662Y51237D01*
X36690D01*
X36712Y51231D01*
X36784D01*
X36845Y51242D01*
X36917Y51253D01*
X37001Y51270D01*
X37095Y51298D01*
X37184Y51336D01*
X37278Y51386D01*
X37284D01*
X37289Y51392D01*
X37317Y51414D01*
X37356Y51453D01*
X37400Y51503D01*
X37444Y51575D01*
X37483Y51658D01*
X37511Y51753D01*
X37522Y51808D01*
Y51869D01*
Y51875D01*
Y51880D01*
Y51914D01*
X37511Y51958D01*
X37500Y52019D01*
X37478Y52086D01*
X37450Y52158D01*
X37406Y52230D01*
X37345Y52297D01*
X37339Y52302D01*
X37311Y52324D01*
X37273Y52352D01*
X37223Y52385D01*
X37156Y52413D01*
X37078Y52441D01*
X36989Y52463D01*
X36890Y52469D01*
X36845D01*
X36795Y52458D01*
X36729Y52447D01*
X36656Y52424D01*
X36584Y52397D01*
X36507Y52352D01*
X36434Y52297D01*
X36429Y52291D01*
X36407Y52263D01*
X36373Y52224D01*
X36335Y52169D01*
X36296Y52097D01*
X36257Y52008D01*
X36224Y51903D01*
X36201Y51781D01*
X35730Y51864D01*
Y51869D01*
X35735Y51886D01*
X35741Y51908D01*
X35746Y51942D01*
X35757Y51980D01*
X35774Y52025D01*
X35807Y52130D01*
X35863Y52252D01*
X35929Y52374D01*
X36013Y52491D01*
X36118Y52596D01*
X36124Y52602D01*
X36135Y52608D01*
X36151Y52619D01*
X36174Y52635D01*
X36201Y52657D01*
X36240Y52680D01*
X36279Y52702D01*
X36329Y52730D01*
X36440Y52774D01*
X36568Y52818D01*
X36718Y52846D01*
X36795Y52857D01*
X36934D01*
X36995Y52852D01*
D02*
G37*
G36*
X52901Y40120D02*
X52946D01*
X53051Y40109D01*
X53173Y40098D01*
X53301Y40076D01*
X53417Y40042D01*
X53528Y40004D01*
X53534D01*
X53539Y39998D01*
X53573Y39981D01*
X53617Y39954D01*
X53678Y39915D01*
X53739Y39859D01*
X53806Y39798D01*
X53872Y39720D01*
X53928Y39632D01*
X53933Y39621D01*
X53950Y39587D01*
X53972Y39537D01*
X53994Y39465D01*
X54022Y39376D01*
X54044Y39276D01*
X54061Y39165D01*
X54067Y39043D01*
Y39038D01*
Y39021D01*
Y38993D01*
X54061Y38960D01*
X54056Y38916D01*
X54050Y38871D01*
X54028Y38755D01*
X53994Y38633D01*
X53944Y38505D01*
X53911Y38438D01*
X53872Y38377D01*
X53828Y38322D01*
X53778Y38266D01*
X53772Y38261D01*
X53767Y38255D01*
X53745Y38244D01*
X53723Y38228D01*
X53695Y38205D01*
X53656Y38183D01*
X53611Y38161D01*
X53562Y38133D01*
X53506Y38111D01*
X53439Y38089D01*
X53373Y38067D01*
X53295Y38044D01*
X53212Y38033D01*
X53118Y38017D01*
X53023Y38011D01*
X52918D01*
X52851Y38472D01*
X52890D01*
X52923Y38477D01*
X52957Y38483D01*
X52996D01*
X53090Y38500D01*
X53190Y38516D01*
X53290Y38550D01*
X53378Y38583D01*
X53417Y38605D01*
X53451Y38633D01*
X53456Y38638D01*
X53473Y38660D01*
X53500Y38694D01*
X53528Y38738D01*
X53562Y38799D01*
X53584Y38866D01*
X53606Y38949D01*
X53611Y39038D01*
Y39049D01*
Y39071D01*
X53606Y39105D01*
X53600Y39154D01*
X53589Y39204D01*
X53578Y39260D01*
X53556Y39315D01*
X53528Y39371D01*
X53523Y39376D01*
X53512Y39393D01*
X53489Y39415D01*
X53467Y39449D01*
X53428Y39476D01*
X53390Y39510D01*
X53345Y39537D01*
X53290Y39560D01*
X53284D01*
X53262Y39571D01*
X53223Y39576D01*
X53173Y39587D01*
X53106Y39598D01*
X53023Y39604D01*
X52923Y39615D01*
X50159D01*
Y40126D01*
X52857D01*
X52901Y40120D01*
D02*
G37*
G36*
X10450Y24000D02*
X9978D01*
Y27003D01*
X9973Y26997D01*
X9945Y26975D01*
X9912Y26941D01*
X9856Y26903D01*
X9795Y26853D01*
X9718Y26797D01*
X9629Y26736D01*
X9529Y26675D01*
X9523D01*
X9518Y26669D01*
X9484Y26647D01*
X9429Y26620D01*
X9362Y26586D01*
X9285Y26547D01*
X9201Y26509D01*
X9118Y26470D01*
X9035Y26436D01*
Y26892D01*
X9040D01*
X9052Y26903D01*
X9074Y26908D01*
X9101Y26925D01*
X9135Y26941D01*
X9174Y26964D01*
X9268Y27019D01*
X9379Y27080D01*
X9490Y27158D01*
X9606Y27247D01*
X9723Y27341D01*
X9729Y27347D01*
X9734Y27352D01*
X9751Y27369D01*
X9773Y27386D01*
X9823Y27441D01*
X9889Y27508D01*
X9956Y27585D01*
X10028Y27674D01*
X10089Y27763D01*
X10145Y27857D01*
X10450D01*
Y24000D01*
D02*
G37*
G36*
X6826Y27835D02*
X6876D01*
X6992Y27830D01*
X7114Y27813D01*
X7248Y27796D01*
X7370Y27768D01*
X7431Y27752D01*
X7481Y27735D01*
X7486D01*
X7492Y27730D01*
X7525Y27713D01*
X7575Y27691D01*
X7636Y27652D01*
X7703Y27602D01*
X7775Y27535D01*
X7842Y27458D01*
X7908Y27369D01*
Y27363D01*
X7914Y27358D01*
X7936Y27325D01*
X7958Y27269D01*
X7992Y27197D01*
X8019Y27114D01*
X8047Y27014D01*
X8064Y26908D01*
X8069Y26792D01*
Y26786D01*
Y26775D01*
Y26753D01*
X8064Y26725D01*
Y26686D01*
X8058Y26647D01*
X8036Y26553D01*
X8003Y26442D01*
X7958Y26326D01*
X7891Y26209D01*
X7847Y26153D01*
X7803Y26098D01*
X7797Y26092D01*
X7792Y26087D01*
X7775Y26070D01*
X7753Y26054D01*
X7725Y26031D01*
X7692Y26009D01*
X7647Y25981D01*
X7603Y25948D01*
X7547Y25920D01*
X7486Y25892D01*
X7420Y25859D01*
X7348Y25831D01*
X7264Y25809D01*
X7181Y25782D01*
X7087Y25765D01*
X6987Y25748D01*
X6998Y25743D01*
X7020Y25732D01*
X7053Y25709D01*
X7098Y25687D01*
X7198Y25626D01*
X7248Y25587D01*
X7292Y25554D01*
X7303Y25543D01*
X7331Y25515D01*
X7375Y25471D01*
X7431Y25415D01*
X7492Y25337D01*
X7564Y25254D01*
X7636Y25154D01*
X7714Y25043D01*
X8374Y24000D01*
X7742D01*
X7237Y24799D01*
Y24805D01*
X7226Y24816D01*
X7214Y24833D01*
X7198Y24855D01*
X7159Y24916D01*
X7109Y24994D01*
X7048Y25077D01*
X6987Y25166D01*
X6926Y25249D01*
X6870Y25326D01*
X6865Y25332D01*
X6848Y25354D01*
X6820Y25387D01*
X6782Y25426D01*
X6698Y25510D01*
X6654Y25548D01*
X6610Y25582D01*
X6604Y25587D01*
X6593Y25593D01*
X6571Y25604D01*
X6537Y25621D01*
X6504Y25637D01*
X6465Y25654D01*
X6376Y25682D01*
X6371D01*
X6360Y25687D01*
X6338D01*
X6310Y25693D01*
X6271Y25698D01*
X6227D01*
X6165Y25704D01*
X5511D01*
Y24000D01*
X5000D01*
Y27841D01*
X6782D01*
X6826Y27835D01*
D02*
G37*
G36*
X28892Y39870D02*
X28903Y39859D01*
X28908Y39836D01*
X28925Y39809D01*
X28942Y39775D01*
X28964Y39737D01*
X29019Y39642D01*
X29080Y39531D01*
X29158Y39420D01*
X29247Y39304D01*
X29341Y39187D01*
X29347Y39182D01*
X29352Y39176D01*
X29369Y39159D01*
X29386Y39137D01*
X29441Y39087D01*
X29508Y39021D01*
X29585Y38954D01*
X29674Y38882D01*
X29763Y38821D01*
X29857Y38765D01*
Y38460D01*
X26000D01*
Y38932D01*
X29003D01*
X28997Y38937D01*
X28975Y38965D01*
X28942Y38998D01*
X28903Y39054D01*
X28853Y39115D01*
X28797Y39193D01*
X28736Y39281D01*
X28675Y39381D01*
Y39387D01*
X28670Y39393D01*
X28647Y39426D01*
X28620Y39481D01*
X28586Y39548D01*
X28547Y39626D01*
X28509Y39709D01*
X28470Y39792D01*
X28436Y39875D01*
X28892D01*
Y39870D01*
D02*
G37*
G36*
X27149Y42528D02*
X27110D01*
X27077Y42523D01*
X27043Y42517D01*
X27005D01*
X26910Y42500D01*
X26810Y42484D01*
X26710Y42450D01*
X26622Y42417D01*
X26583Y42395D01*
X26550Y42367D01*
X26544Y42362D01*
X26527Y42340D01*
X26500Y42306D01*
X26472Y42262D01*
X26439Y42201D01*
X26416Y42134D01*
X26394Y42051D01*
X26388Y41962D01*
Y41951D01*
Y41929D01*
X26394Y41895D01*
X26400Y41846D01*
X26411Y41796D01*
X26422Y41740D01*
X26444Y41685D01*
X26472Y41629D01*
X26477Y41624D01*
X26488Y41607D01*
X26511Y41585D01*
X26533Y41551D01*
X26572Y41524D01*
X26610Y41490D01*
X26655Y41463D01*
X26710Y41440D01*
X26716D01*
X26738Y41429D01*
X26777Y41424D01*
X26827Y41413D01*
X26893Y41402D01*
X26977Y41396D01*
X27077Y41385D01*
X29841D01*
Y40874D01*
X27143D01*
X27099Y40880D01*
X27055D01*
X26949Y40891D01*
X26827Y40902D01*
X26699Y40924D01*
X26583Y40958D01*
X26472Y40996D01*
X26466D01*
X26461Y41002D01*
X26427Y41019D01*
X26383Y41046D01*
X26322Y41085D01*
X26261Y41141D01*
X26194Y41202D01*
X26128Y41280D01*
X26072Y41368D01*
X26067Y41379D01*
X26050Y41413D01*
X26028Y41463D01*
X26006Y41535D01*
X25978Y41624D01*
X25956Y41723D01*
X25939Y41835D01*
X25933Y41957D01*
Y41962D01*
Y41979D01*
Y42006D01*
X25939Y42040D01*
X25945Y42084D01*
X25950Y42129D01*
X25972Y42245D01*
X26006Y42367D01*
X26055Y42495D01*
X26089Y42562D01*
X26128Y42623D01*
X26172Y42678D01*
X26222Y42734D01*
X26228Y42739D01*
X26233Y42745D01*
X26255Y42756D01*
X26278Y42772D01*
X26305Y42795D01*
X26344Y42817D01*
X26388Y42839D01*
X26439Y42867D01*
X26494Y42889D01*
X26561Y42911D01*
X26627Y42933D01*
X26705Y42956D01*
X26788Y42967D01*
X26882Y42983D01*
X26977Y42989D01*
X27082D01*
X27149Y42528D01*
D02*
G37*
G36*
X54000Y40697D02*
X53939D01*
X53895Y40703D01*
X53845Y40708D01*
X53789Y40720D01*
X53734Y40731D01*
X53673Y40753D01*
X53667D01*
X53662Y40758D01*
X53628Y40769D01*
X53578Y40792D01*
X53512Y40825D01*
X53434Y40869D01*
X53345Y40925D01*
X53256Y40986D01*
X53162Y41064D01*
X53156D01*
X53151Y41075D01*
X53118Y41102D01*
X53068Y41152D01*
X52996Y41225D01*
X52912Y41308D01*
X52812Y41413D01*
X52701Y41541D01*
X52585Y41680D01*
X52579Y41685D01*
X52562Y41707D01*
X52535Y41741D01*
X52501Y41780D01*
X52457Y41829D01*
X52407Y41891D01*
X52352Y41952D01*
X52291Y42024D01*
X52157Y42162D01*
X52024Y42301D01*
X51958Y42368D01*
X51891Y42429D01*
X51830Y42484D01*
X51769Y42529D01*
X51763D01*
X51758Y42540D01*
X51741Y42551D01*
X51719Y42562D01*
X51658Y42601D01*
X51586Y42645D01*
X51497Y42684D01*
X51403Y42723D01*
X51297Y42745D01*
X51197Y42756D01*
X51186D01*
X51153Y42751D01*
X51097Y42745D01*
X51036Y42729D01*
X50959Y42706D01*
X50881Y42667D01*
X50803Y42618D01*
X50726Y42551D01*
X50714Y42540D01*
X50692Y42512D01*
X50664Y42473D01*
X50626Y42412D01*
X50592Y42335D01*
X50559Y42246D01*
X50537Y42140D01*
X50531Y42024D01*
Y42018D01*
Y42007D01*
Y41990D01*
X50537Y41968D01*
X50542Y41902D01*
X50559Y41824D01*
X50581Y41741D01*
X50620Y41646D01*
X50670Y41557D01*
X50737Y41474D01*
X50748Y41463D01*
X50775Y41441D01*
X50820Y41408D01*
X50886Y41374D01*
X50964Y41336D01*
X51064Y41302D01*
X51175Y41280D01*
X51303Y41269D01*
X51253Y40786D01*
X51247D01*
X51231Y40792D01*
X51203D01*
X51164Y40797D01*
X51120Y40808D01*
X51070Y40819D01*
X51009Y40836D01*
X50947Y40853D01*
X50814Y40897D01*
X50681Y40964D01*
X50615Y41003D01*
X50548Y41052D01*
X50487Y41102D01*
X50431Y41158D01*
X50426Y41164D01*
X50420Y41175D01*
X50404Y41191D01*
X50387Y41219D01*
X50365Y41252D01*
X50343Y41291D01*
X50315Y41336D01*
X50287Y41391D01*
X50259Y41452D01*
X50231Y41519D01*
X50209Y41591D01*
X50187Y41668D01*
X50170Y41752D01*
X50154Y41841D01*
X50148Y41935D01*
X50143Y42035D01*
Y42040D01*
Y42057D01*
Y42090D01*
X50148Y42129D01*
X50154Y42174D01*
X50159Y42229D01*
X50170Y42290D01*
X50182Y42351D01*
X50220Y42496D01*
X50276Y42640D01*
X50309Y42712D01*
X50348Y42784D01*
X50398Y42851D01*
X50454Y42912D01*
X50459Y42917D01*
X50465Y42928D01*
X50487Y42939D01*
X50509Y42962D01*
X50537Y42989D01*
X50576Y43017D01*
X50615Y43045D01*
X50664Y43078D01*
X50770Y43134D01*
X50903Y43189D01*
X50970Y43211D01*
X51047Y43223D01*
X51125Y43234D01*
X51208Y43239D01*
X51247D01*
X51292Y43234D01*
X51353Y43228D01*
X51419Y43217D01*
X51497Y43195D01*
X51580Y43173D01*
X51664Y43139D01*
X51674Y43134D01*
X51702Y43123D01*
X51747Y43101D01*
X51808Y43067D01*
X51874Y43023D01*
X51958Y42967D01*
X52041Y42901D01*
X52135Y42823D01*
X52146Y42812D01*
X52180Y42784D01*
X52207Y42756D01*
X52235Y42729D01*
X52268Y42695D01*
X52313Y42651D01*
X52357Y42606D01*
X52407Y42551D01*
X52463Y42496D01*
X52524Y42429D01*
X52585Y42357D01*
X52657Y42279D01*
X52729Y42190D01*
X52807Y42101D01*
X52812Y42096D01*
X52823Y42085D01*
X52840Y42063D01*
X52862Y42035D01*
X52896Y42002D01*
X52929Y41963D01*
X53001Y41874D01*
X53084Y41780D01*
X53167Y41691D01*
X53240Y41613D01*
X53267Y41580D01*
X53295Y41552D01*
X53301Y41546D01*
X53317Y41530D01*
X53339Y41508D01*
X53373Y41480D01*
X53412Y41452D01*
X53451Y41419D01*
X53545Y41352D01*
Y43245D01*
X54000D01*
Y40697D01*
D02*
G37*
G36*
X47605Y49000D02*
X47134D01*
Y52003D01*
X47128Y51997D01*
X47100Y51975D01*
X47067Y51942D01*
X47012Y51903D01*
X46951Y51853D01*
X46873Y51797D01*
X46784Y51736D01*
X46684Y51675D01*
X46679D01*
X46673Y51670D01*
X46640Y51647D01*
X46584Y51620D01*
X46518Y51586D01*
X46440Y51547D01*
X46357Y51509D01*
X46273Y51470D01*
X46190Y51437D01*
Y51891D01*
X46196D01*
X46207Y51903D01*
X46229Y51908D01*
X46257Y51925D01*
X46290Y51942D01*
X46329Y51964D01*
X46423Y52019D01*
X46534Y52080D01*
X46645Y52158D01*
X46762Y52247D01*
X46878Y52341D01*
X46884Y52347D01*
X46890Y52352D01*
X46906Y52369D01*
X46928Y52385D01*
X46978Y52441D01*
X47045Y52508D01*
X47111Y52585D01*
X47184Y52674D01*
X47245Y52763D01*
X47300Y52857D01*
X47605D01*
Y49000D01*
D02*
G37*
G36*
X43904Y52902D02*
X43954Y52896D01*
X44015Y52890D01*
X44076Y52885D01*
X44148Y52868D01*
X44298Y52835D01*
X44464Y52785D01*
X44547Y52752D01*
X44625Y52713D01*
X44703Y52663D01*
X44780Y52613D01*
X44786Y52608D01*
X44797Y52602D01*
X44819Y52585D01*
X44847Y52558D01*
X44875Y52530D01*
X44914Y52491D01*
X44953Y52447D01*
X44997Y52402D01*
X45041Y52347D01*
X45086Y52280D01*
X45136Y52214D01*
X45180Y52141D01*
X45219Y52058D01*
X45263Y51975D01*
X45297Y51886D01*
X45330Y51786D01*
X44831Y51670D01*
Y51675D01*
X44825Y51686D01*
X44814Y51708D01*
X44803Y51736D01*
X44792Y51769D01*
X44775Y51814D01*
X44731Y51903D01*
X44675Y52003D01*
X44609Y52102D01*
X44525Y52197D01*
X44436Y52280D01*
X44425Y52291D01*
X44392Y52313D01*
X44337Y52341D01*
X44264Y52380D01*
X44170Y52413D01*
X44065Y52447D01*
X43937Y52469D01*
X43798Y52474D01*
X43754D01*
X43726Y52469D01*
X43687D01*
X43643Y52463D01*
X43537Y52447D01*
X43421Y52424D01*
X43299Y52385D01*
X43171Y52330D01*
X43055Y52258D01*
X43049D01*
X43043Y52247D01*
X43005Y52219D01*
X42955Y52175D01*
X42893Y52108D01*
X42821Y52025D01*
X42755Y51930D01*
X42694Y51814D01*
X42638Y51686D01*
Y51681D01*
X42633Y51670D01*
X42627Y51653D01*
X42622Y51625D01*
X42610Y51592D01*
X42599Y51553D01*
X42583Y51459D01*
X42561Y51348D01*
X42538Y51226D01*
X42527Y51092D01*
X42522Y50948D01*
Y50942D01*
Y50926D01*
Y50898D01*
Y50865D01*
X42527Y50826D01*
Y50776D01*
X42533Y50721D01*
X42538Y50659D01*
X42555Y50526D01*
X42583Y50382D01*
X42616Y50238D01*
X42660Y50093D01*
Y50088D01*
X42666Y50077D01*
X42677Y50060D01*
X42688Y50032D01*
X42722Y49966D01*
X42771Y49888D01*
X42832Y49799D01*
X42910Y49705D01*
X42999Y49622D01*
X43104Y49544D01*
X43110D01*
X43121Y49538D01*
X43138Y49527D01*
X43160Y49516D01*
X43188Y49505D01*
X43221Y49488D01*
X43299Y49455D01*
X43399Y49422D01*
X43510Y49394D01*
X43632Y49372D01*
X43759Y49366D01*
X43798D01*
X43832Y49372D01*
X43870D01*
X43909Y49377D01*
X44009Y49400D01*
X44126Y49427D01*
X44242Y49472D01*
X44364Y49533D01*
X44425Y49566D01*
X44481Y49610D01*
X44486Y49616D01*
X44492Y49622D01*
X44509Y49638D01*
X44531Y49655D01*
X44553Y49683D01*
X44581Y49716D01*
X44614Y49749D01*
X44642Y49794D01*
X44675Y49844D01*
X44714Y49899D01*
X44747Y49955D01*
X44780Y50021D01*
X44808Y50093D01*
X44836Y50171D01*
X44864Y50254D01*
X44886Y50343D01*
X45397Y50215D01*
Y50210D01*
X45391Y50188D01*
X45380Y50154D01*
X45363Y50110D01*
X45347Y50060D01*
X45325Y49999D01*
X45297Y49932D01*
X45263Y49860D01*
X45186Y49705D01*
X45086Y49549D01*
X45025Y49472D01*
X44964Y49394D01*
X44897Y49327D01*
X44819Y49261D01*
X44814Y49255D01*
X44803Y49244D01*
X44775Y49233D01*
X44747Y49211D01*
X44703Y49183D01*
X44658Y49155D01*
X44597Y49128D01*
X44536Y49100D01*
X44464Y49067D01*
X44387Y49039D01*
X44303Y49011D01*
X44214Y48983D01*
X44120Y48961D01*
X44020Y48950D01*
X43915Y48939D01*
X43804Y48933D01*
X43743D01*
X43698Y48939D01*
X43648D01*
X43587Y48945D01*
X43521Y48956D01*
X43443Y48967D01*
X43282Y48994D01*
X43116Y49039D01*
X42949Y49100D01*
X42871Y49139D01*
X42794Y49183D01*
X42788Y49189D01*
X42777Y49194D01*
X42755Y49211D01*
X42733Y49233D01*
X42699Y49255D01*
X42660Y49289D01*
X42616Y49327D01*
X42572Y49372D01*
X42527Y49422D01*
X42477Y49472D01*
X42377Y49599D01*
X42283Y49749D01*
X42200Y49916D01*
Y49921D01*
X42189Y49938D01*
X42183Y49966D01*
X42167Y49999D01*
X42155Y50043D01*
X42139Y50099D01*
X42117Y50160D01*
X42100Y50226D01*
X42083Y50299D01*
X42061Y50382D01*
X42033Y50554D01*
X42011Y50748D01*
X42000Y50948D01*
Y50954D01*
Y50976D01*
Y51009D01*
X42006Y51048D01*
Y51103D01*
X42011Y51159D01*
X42017Y51231D01*
X42028Y51303D01*
X42055Y51464D01*
X42094Y51642D01*
X42150Y51819D01*
X42228Y51991D01*
X42233Y51997D01*
X42239Y52014D01*
X42250Y52036D01*
X42272Y52064D01*
X42294Y52102D01*
X42322Y52147D01*
X42394Y52247D01*
X42488Y52358D01*
X42599Y52469D01*
X42727Y52580D01*
X42877Y52674D01*
X42882Y52680D01*
X42899Y52685D01*
X42921Y52696D01*
X42949Y52713D01*
X42994Y52730D01*
X43038Y52746D01*
X43093Y52768D01*
X43154Y52791D01*
X43221Y52813D01*
X43293Y52835D01*
X43449Y52868D01*
X43626Y52896D01*
X43809Y52907D01*
X43865D01*
X43904Y52902D01*
D02*
G37*
G36*
X62826Y27835D02*
X62876D01*
X62992Y27830D01*
X63115Y27813D01*
X63248Y27796D01*
X63370Y27768D01*
X63431Y27752D01*
X63481Y27735D01*
X63486D01*
X63492Y27730D01*
X63525Y27713D01*
X63575Y27691D01*
X63636Y27652D01*
X63703Y27602D01*
X63775Y27535D01*
X63842Y27458D01*
X63908Y27369D01*
Y27363D01*
X63914Y27358D01*
X63936Y27325D01*
X63958Y27269D01*
X63991Y27197D01*
X64019Y27114D01*
X64047Y27014D01*
X64064Y26908D01*
X64069Y26792D01*
Y26786D01*
Y26775D01*
Y26753D01*
X64064Y26725D01*
Y26686D01*
X64058Y26647D01*
X64036Y26553D01*
X64003Y26442D01*
X63958Y26326D01*
X63892Y26209D01*
X63847Y26153D01*
X63803Y26098D01*
X63797Y26092D01*
X63792Y26087D01*
X63775Y26070D01*
X63753Y26054D01*
X63725Y26031D01*
X63692Y26009D01*
X63647Y25981D01*
X63603Y25948D01*
X63547Y25920D01*
X63486Y25892D01*
X63420Y25859D01*
X63348Y25831D01*
X63264Y25809D01*
X63181Y25782D01*
X63087Y25765D01*
X62987Y25748D01*
X62998Y25743D01*
X63020Y25732D01*
X63054Y25709D01*
X63098Y25687D01*
X63198Y25626D01*
X63248Y25587D01*
X63292Y25554D01*
X63303Y25543D01*
X63331Y25515D01*
X63375Y25471D01*
X63431Y25415D01*
X63492Y25337D01*
X63564Y25254D01*
X63636Y25154D01*
X63714Y25043D01*
X64374Y24000D01*
X63742D01*
X63237Y24799D01*
Y24805D01*
X63226Y24816D01*
X63214Y24833D01*
X63198Y24855D01*
X63159Y24916D01*
X63109Y24994D01*
X63048Y25077D01*
X62987Y25166D01*
X62926Y25249D01*
X62870Y25326D01*
X62865Y25332D01*
X62848Y25354D01*
X62820Y25387D01*
X62782Y25426D01*
X62698Y25510D01*
X62654Y25548D01*
X62609Y25582D01*
X62604Y25587D01*
X62593Y25593D01*
X62571Y25604D01*
X62537Y25621D01*
X62504Y25637D01*
X62465Y25654D01*
X62376Y25682D01*
X62371D01*
X62360Y25687D01*
X62337D01*
X62310Y25693D01*
X62271Y25698D01*
X62226D01*
X62165Y25704D01*
X61511D01*
Y24000D01*
X61000D01*
Y27841D01*
X62782D01*
X62826Y27835D01*
D02*
G37*
G36*
X66039Y27852D02*
X66084Y27846D01*
X66139Y27841D01*
X66200Y27830D01*
X66261Y27818D01*
X66406Y27780D01*
X66550Y27724D01*
X66622Y27691D01*
X66694Y27652D01*
X66761Y27602D01*
X66822Y27546D01*
X66827Y27541D01*
X66839Y27535D01*
X66850Y27513D01*
X66872Y27491D01*
X66900Y27463D01*
X66927Y27424D01*
X66955Y27386D01*
X66988Y27336D01*
X67044Y27230D01*
X67099Y27097D01*
X67122Y27030D01*
X67133Y26953D01*
X67144Y26875D01*
X67149Y26792D01*
Y26781D01*
Y26753D01*
X67144Y26708D01*
X67138Y26647D01*
X67127Y26581D01*
X67105Y26503D01*
X67083Y26420D01*
X67049Y26337D01*
X67044Y26326D01*
X67033Y26298D01*
X67011Y26253D01*
X66977Y26192D01*
X66933Y26126D01*
X66877Y26042D01*
X66811Y25959D01*
X66733Y25865D01*
X66722Y25854D01*
X66694Y25820D01*
X66667Y25793D01*
X66639Y25765D01*
X66606Y25732D01*
X66561Y25687D01*
X66517Y25643D01*
X66461Y25593D01*
X66406Y25537D01*
X66339Y25476D01*
X66267Y25415D01*
X66189Y25343D01*
X66101Y25271D01*
X66012Y25193D01*
X66006Y25188D01*
X65995Y25177D01*
X65973Y25160D01*
X65945Y25138D01*
X65912Y25104D01*
X65873Y25071D01*
X65784Y24999D01*
X65690Y24916D01*
X65601Y24833D01*
X65523Y24760D01*
X65490Y24733D01*
X65462Y24705D01*
X65457Y24699D01*
X65440Y24683D01*
X65418Y24660D01*
X65390Y24627D01*
X65362Y24588D01*
X65329Y24549D01*
X65262Y24455D01*
X67155D01*
Y24000D01*
X64608D01*
Y24005D01*
Y24028D01*
Y24061D01*
X64613Y24105D01*
X64619Y24155D01*
X64630Y24211D01*
X64641Y24266D01*
X64663Y24327D01*
Y24333D01*
X64669Y24339D01*
X64680Y24372D01*
X64702Y24422D01*
X64735Y24488D01*
X64780Y24566D01*
X64835Y24655D01*
X64896Y24744D01*
X64974Y24838D01*
Y24844D01*
X64985Y24849D01*
X65013Y24882D01*
X65063Y24932D01*
X65135Y25005D01*
X65218Y25088D01*
X65324Y25188D01*
X65451Y25299D01*
X65590Y25415D01*
X65595Y25421D01*
X65618Y25438D01*
X65651Y25465D01*
X65690Y25499D01*
X65740Y25543D01*
X65801Y25593D01*
X65862Y25648D01*
X65934Y25709D01*
X66073Y25843D01*
X66211Y25976D01*
X66278Y26042D01*
X66339Y26109D01*
X66395Y26170D01*
X66439Y26231D01*
Y26237D01*
X66450Y26242D01*
X66461Y26259D01*
X66472Y26281D01*
X66511Y26342D01*
X66556Y26414D01*
X66594Y26503D01*
X66633Y26597D01*
X66655Y26703D01*
X66667Y26803D01*
Y26808D01*
Y26814D01*
X66661Y26847D01*
X66655Y26903D01*
X66639Y26964D01*
X66617Y27041D01*
X66578Y27119D01*
X66528Y27197D01*
X66461Y27275D01*
X66450Y27286D01*
X66422Y27308D01*
X66383Y27336D01*
X66322Y27374D01*
X66245Y27408D01*
X66156Y27441D01*
X66050Y27463D01*
X65934Y27469D01*
X65901D01*
X65878Y27463D01*
X65812Y27458D01*
X65734Y27441D01*
X65651Y27419D01*
X65557Y27380D01*
X65468Y27330D01*
X65385Y27263D01*
X65373Y27252D01*
X65351Y27224D01*
X65318Y27180D01*
X65285Y27114D01*
X65246Y27036D01*
X65213Y26936D01*
X65190Y26825D01*
X65179Y26697D01*
X64696Y26747D01*
Y26753D01*
X64702Y26770D01*
Y26797D01*
X64707Y26836D01*
X64719Y26880D01*
X64730Y26930D01*
X64746Y26991D01*
X64763Y27053D01*
X64807Y27186D01*
X64874Y27319D01*
X64913Y27386D01*
X64963Y27452D01*
X65013Y27513D01*
X65068Y27569D01*
X65074Y27574D01*
X65085Y27580D01*
X65101Y27596D01*
X65129Y27613D01*
X65162Y27635D01*
X65201Y27657D01*
X65246Y27685D01*
X65301Y27713D01*
X65362Y27741D01*
X65429Y27768D01*
X65501Y27791D01*
X65579Y27813D01*
X65662Y27830D01*
X65751Y27846D01*
X65845Y27852D01*
X65945Y27857D01*
X66000D01*
X66039Y27852D01*
D02*
G37*
%LPC*%
G36*
X62721Y31413D02*
X61511D01*
Y30142D01*
X62654D01*
X62721Y30148D01*
X62798Y30153D01*
X62887Y30159D01*
X62976Y30170D01*
X63065Y30187D01*
X63142Y30209D01*
X63153Y30214D01*
X63176Y30226D01*
X63209Y30242D01*
X63253Y30264D01*
X63303Y30298D01*
X63353Y30336D01*
X63403Y30386D01*
X63442Y30442D01*
X63448Y30448D01*
X63459Y30470D01*
X63475Y30503D01*
X63498Y30547D01*
X63514Y30597D01*
X63531Y30653D01*
X63542Y30720D01*
X63547Y30786D01*
Y30792D01*
Y30797D01*
X63542Y30830D01*
X63536Y30880D01*
X63525Y30947D01*
X63498Y31014D01*
X63464Y31091D01*
X63414Y31163D01*
X63348Y31236D01*
X63336Y31241D01*
X63309Y31263D01*
X63264Y31291D01*
X63192Y31324D01*
X63109Y31358D01*
X62998Y31385D01*
X62870Y31408D01*
X62721Y31413D01*
D02*
G37*
G36*
X33720Y52413D02*
X32511D01*
Y51142D01*
X33654D01*
X33720Y51148D01*
X33798Y51153D01*
X33887Y51159D01*
X33976Y51170D01*
X34065Y51187D01*
X34142Y51209D01*
X34153Y51214D01*
X34176Y51226D01*
X34209Y51242D01*
X34253Y51264D01*
X34303Y51298D01*
X34353Y51336D01*
X34403Y51386D01*
X34442Y51442D01*
X34448Y51448D01*
X34459Y51470D01*
X34475Y51503D01*
X34497Y51547D01*
X34514Y51597D01*
X34531Y51653D01*
X34542Y51719D01*
X34547Y51786D01*
Y51792D01*
Y51797D01*
X34542Y51831D01*
X34536Y51880D01*
X34525Y51947D01*
X34497Y52014D01*
X34464Y52091D01*
X34414Y52163D01*
X34348Y52236D01*
X34337Y52241D01*
X34309Y52263D01*
X34264Y52291D01*
X34192Y52324D01*
X34109Y52358D01*
X33998Y52385D01*
X33870Y52408D01*
X33720Y52413D01*
D02*
G37*
G36*
X10184Y31075D02*
X8974Y29354D01*
X10184D01*
Y31075D01*
D02*
G37*
G36*
X6720Y31413D02*
X5511D01*
Y30142D01*
X6654D01*
X6720Y30148D01*
X6798Y30153D01*
X6887Y30159D01*
X6976Y30170D01*
X7065Y30187D01*
X7142Y30209D01*
X7153Y30214D01*
X7176Y30226D01*
X7209Y30242D01*
X7253Y30264D01*
X7303Y30298D01*
X7353Y30336D01*
X7403Y30386D01*
X7442Y30442D01*
X7447Y30448D01*
X7459Y30470D01*
X7475Y30503D01*
X7497Y30547D01*
X7514Y30597D01*
X7531Y30653D01*
X7542Y30720D01*
X7547Y30786D01*
Y30792D01*
Y30797D01*
X7542Y30830D01*
X7536Y30880D01*
X7525Y30947D01*
X7497Y31014D01*
X7464Y31091D01*
X7414Y31163D01*
X7348Y31236D01*
X7337Y31241D01*
X7309Y31263D01*
X7264Y31291D01*
X7192Y31324D01*
X7109Y31358D01*
X6998Y31385D01*
X6870Y31408D01*
X6720Y31413D01*
D02*
G37*
G36*
X20513Y50841D02*
X19997D01*
X18954Y48049D01*
X18909Y47932D01*
X18870Y47821D01*
X18837Y47716D01*
X18809Y47622D01*
X18781Y47538D01*
X18765Y47477D01*
X18759Y47455D01*
X18754Y47438D01*
X18748Y47427D01*
Y47422D01*
X18682Y47644D01*
X18648Y47749D01*
X18615Y47844D01*
X18587Y47927D01*
X18576Y47960D01*
X18571Y47993D01*
X18560Y48016D01*
X18554Y48032D01*
X18548Y48043D01*
Y48049D01*
X17549Y50841D01*
X16995D01*
X18482Y47000D01*
X19015D01*
X20513Y50841D01*
D02*
G37*
G36*
X21568D02*
X21057D01*
Y47000D01*
X21568D01*
Y50841D01*
D02*
G37*
G36*
X25486D02*
X24998D01*
Y47821D01*
X22983Y50841D01*
X22461D01*
Y47000D01*
X22950D01*
Y50014D01*
X24959Y47000D01*
X25486D01*
Y50841D01*
D02*
G37*
G36*
X54992Y50907D02*
X54815D01*
X54715Y50896D01*
X54521Y50868D01*
X54432Y50852D01*
X54349Y50829D01*
X54271Y50813D01*
X54199Y50791D01*
X54132Y50769D01*
X54077Y50746D01*
X54027Y50724D01*
X53982Y50707D01*
X53949Y50691D01*
X53927Y50680D01*
X53910Y50674D01*
X53905Y50669D01*
X53827Y50619D01*
X53749Y50569D01*
X53616Y50452D01*
X53500Y50336D01*
X53405Y50213D01*
X53327Y50108D01*
X53300Y50064D01*
X53277Y50019D01*
X53255Y49986D01*
X53244Y49964D01*
X53239Y49947D01*
X53233Y49942D01*
X53155Y49758D01*
X53100Y49575D01*
X53056Y49398D01*
X53044Y49314D01*
X53028Y49237D01*
X53022Y49165D01*
X53011Y49103D01*
X53006Y49042D01*
Y48992D01*
X53000Y48954D01*
Y48926D01*
Y48904D01*
Y48898D01*
X53011Y48693D01*
X53039Y48498D01*
X53056Y48410D01*
X53072Y48326D01*
X53094Y48243D01*
X53117Y48171D01*
X53139Y48105D01*
X53161Y48049D01*
X53178Y47993D01*
X53194Y47955D01*
X53211Y47916D01*
X53222Y47894D01*
X53233Y47877D01*
Y47871D01*
X53333Y47710D01*
X53444Y47572D01*
X53561Y47449D01*
X53672Y47350D01*
X53777Y47272D01*
X53816Y47244D01*
X53855Y47216D01*
X53888Y47200D01*
X53910Y47183D01*
X53927Y47178D01*
X53932Y47172D01*
X54021Y47128D01*
X54110Y47094D01*
X54288Y47033D01*
X54460Y46995D01*
X54621Y46961D01*
X54693Y46956D01*
X54759Y46944D01*
X54820Y46939D01*
X54870D01*
X54909Y46933D01*
X54965D01*
X55120Y46939D01*
X55270Y46956D01*
X55409Y46983D01*
X55531Y47011D01*
X55581Y47022D01*
X55631Y47033D01*
X55675Y47050D01*
X55714Y47061D01*
X55742Y47072D01*
X55764Y47078D01*
X55775Y47083D01*
X55781D01*
X55930Y47144D01*
X56069Y47216D01*
X56202Y47294D01*
X56319Y47366D01*
X56369Y47400D01*
X56419Y47433D01*
X56458Y47461D01*
X56491Y47483D01*
X56519Y47505D01*
X56541Y47522D01*
X56552Y47527D01*
X56558Y47533D01*
Y48959D01*
X54926D01*
Y48504D01*
X56058D01*
Y47782D01*
X55991Y47727D01*
X55914Y47677D01*
X55831Y47633D01*
X55753Y47594D01*
X55686Y47561D01*
X55625Y47533D01*
X55603Y47522D01*
X55592Y47516D01*
X55581Y47511D01*
X55575D01*
X55459Y47472D01*
X55342Y47438D01*
X55237Y47416D01*
X55137Y47405D01*
X55054Y47394D01*
X55020D01*
X54987Y47388D01*
X54931D01*
X54793Y47394D01*
X54659Y47416D01*
X54537Y47444D01*
X54426Y47472D01*
X54338Y47505D01*
X54299Y47516D01*
X54271Y47527D01*
X54243Y47538D01*
X54226Y47550D01*
X54215Y47555D01*
X54210D01*
X54093Y47627D01*
X53988Y47705D01*
X53899Y47788D01*
X53827Y47871D01*
X53766Y47949D01*
X53727Y48010D01*
X53710Y48032D01*
X53705Y48049D01*
X53694Y48060D01*
Y48066D01*
X53638Y48204D01*
X53594Y48349D01*
X53566Y48493D01*
X53544Y48632D01*
X53538Y48693D01*
X53533Y48748D01*
X53527Y48804D01*
Y48848D01*
X53522Y48882D01*
Y48909D01*
Y48926D01*
Y48931D01*
X53527Y49087D01*
X53544Y49226D01*
X53566Y49359D01*
X53594Y49475D01*
X53605Y49525D01*
X53622Y49570D01*
X53633Y49608D01*
X53644Y49642D01*
X53655Y49670D01*
X53661Y49686D01*
X53666Y49697D01*
Y49703D01*
X53705Y49780D01*
X53744Y49853D01*
X53783Y49919D01*
X53821Y49975D01*
X53855Y50019D01*
X53882Y50058D01*
X53905Y50080D01*
X53910Y50086D01*
X53971Y50147D01*
X54038Y50202D01*
X54110Y50247D01*
X54177Y50291D01*
X54232Y50319D01*
X54277Y50347D01*
X54310Y50358D01*
X54321Y50363D01*
X54421Y50402D01*
X54521Y50430D01*
X54626Y50447D01*
X54720Y50463D01*
X54804Y50469D01*
X54837D01*
X54865Y50474D01*
X54926D01*
X55031Y50469D01*
X55131Y50458D01*
X55220Y50441D01*
X55298Y50424D01*
X55364Y50402D01*
X55414Y50385D01*
X55442Y50374D01*
X55453Y50369D01*
X55536Y50330D01*
X55608Y50286D01*
X55675Y50241D01*
X55725Y50197D01*
X55764Y50158D01*
X55797Y50130D01*
X55814Y50108D01*
X55819Y50102D01*
X55869Y50036D01*
X55908Y49958D01*
X55947Y49886D01*
X55980Y49808D01*
X56002Y49742D01*
X56019Y49692D01*
X56025Y49670D01*
X56030Y49653D01*
X56036Y49647D01*
Y49642D01*
X56497Y49764D01*
X56458Y49903D01*
X56408Y50025D01*
X56358Y50136D01*
X56313Y50225D01*
X56269Y50297D01*
X56236Y50347D01*
X56213Y50380D01*
X56202Y50391D01*
X56125Y50480D01*
X56041Y50552D01*
X55953Y50619D01*
X55869Y50674D01*
X55792Y50713D01*
X55731Y50746D01*
X55708Y50757D01*
X55692Y50763D01*
X55681Y50769D01*
X55675D01*
X55547Y50813D01*
X55414Y50846D01*
X55292Y50874D01*
X55176Y50891D01*
X55070Y50902D01*
X55026D01*
X54992Y50907D01*
D02*
G37*
G36*
X62657Y50841D02*
X61181D01*
Y47000D01*
X62563D01*
X62690Y47006D01*
X62807Y47011D01*
X62912Y47022D01*
X63001Y47033D01*
X63079Y47044D01*
X63134Y47050D01*
X63151Y47056D01*
X63168Y47061D01*
X63179D01*
X63279Y47089D01*
X63367Y47122D01*
X63445Y47150D01*
X63512Y47183D01*
X63567Y47211D01*
X63606Y47233D01*
X63628Y47250D01*
X63639Y47255D01*
X63712Y47305D01*
X63773Y47366D01*
X63834Y47422D01*
X63884Y47477D01*
X63928Y47527D01*
X63961Y47566D01*
X63984Y47594D01*
X63989Y47605D01*
X64044Y47694D01*
X64100Y47788D01*
X64144Y47877D01*
X64178Y47966D01*
X64211Y48043D01*
X64233Y48105D01*
X64239Y48127D01*
X64244Y48143D01*
X64250Y48154D01*
Y48160D01*
X64283Y48293D01*
X64311Y48426D01*
X64328Y48554D01*
X64344Y48676D01*
X64350Y48781D01*
Y48826D01*
X64355Y48865D01*
Y48893D01*
Y48920D01*
Y48931D01*
Y48937D01*
X64350Y49126D01*
X64333Y49298D01*
X64305Y49453D01*
X64294Y49525D01*
X64278Y49586D01*
X64261Y49647D01*
X64250Y49697D01*
X64239Y49742D01*
X64222Y49780D01*
X64217Y49814D01*
X64205Y49836D01*
X64200Y49847D01*
Y49853D01*
X64139Y49997D01*
X64067Y50125D01*
X63989Y50236D01*
X63917Y50330D01*
X63850Y50408D01*
X63795Y50463D01*
X63773Y50480D01*
X63756Y50497D01*
X63750Y50502D01*
X63745Y50508D01*
X63656Y50580D01*
X63562Y50635D01*
X63467Y50685D01*
X63379Y50724D01*
X63301Y50752D01*
X63240Y50769D01*
X63218Y50780D01*
X63201D01*
X63190Y50785D01*
X63184D01*
X63090Y50802D01*
X62979Y50818D01*
X62868Y50829D01*
X62757Y50835D01*
X62657Y50841D01*
D02*
G37*
G36*
X60326D02*
X59838D01*
Y47821D01*
X57823Y50841D01*
X57301D01*
Y47000D01*
X57790D01*
Y50014D01*
X59799Y47000D01*
X60326D01*
Y50841D01*
D02*
G37*
%LPD*%
G36*
X62651Y50380D02*
X62724D01*
X62790Y50374D01*
X62901Y50358D01*
X62990Y50347D01*
X63062Y50330D01*
X63112Y50313D01*
X63140Y50308D01*
X63151Y50302D01*
X63251Y50252D01*
X63345Y50191D01*
X63428Y50119D01*
X63501Y50047D01*
X63556Y49980D01*
X63600Y49925D01*
X63612Y49903D01*
X63623Y49886D01*
X63634Y49875D01*
Y49869D01*
X63667Y49808D01*
X63700Y49736D01*
X63750Y49592D01*
X63784Y49437D01*
X63811Y49287D01*
X63817Y49220D01*
X63823Y49153D01*
X63828Y49098D01*
Y49048D01*
X63834Y49004D01*
Y48976D01*
Y48954D01*
Y48948D01*
X63828Y48793D01*
X63817Y48648D01*
X63800Y48521D01*
X63784Y48410D01*
X63773Y48365D01*
X63762Y48326D01*
X63750Y48288D01*
X63745Y48260D01*
X63739Y48238D01*
X63734Y48221D01*
X63728Y48210D01*
Y48204D01*
X63689Y48099D01*
X63645Y48005D01*
X63595Y47921D01*
X63551Y47849D01*
X63512Y47794D01*
X63478Y47755D01*
X63456Y47733D01*
X63451Y47721D01*
X63395Y47677D01*
X63340Y47638D01*
X63284Y47605D01*
X63229Y47572D01*
X63179Y47550D01*
X63140Y47533D01*
X63112Y47527D01*
X63101Y47522D01*
X63018Y47499D01*
X62918Y47483D01*
X62818Y47472D01*
X62724Y47466D01*
X62640Y47461D01*
X62602Y47455D01*
X61691D01*
Y50385D01*
X62579D01*
X62651Y50380D01*
D02*
G37*
%LPC*%
G36*
X73354Y50841D02*
X72843D01*
Y48621D01*
Y48493D01*
X72832Y48371D01*
X72821Y48265D01*
X72804Y48166D01*
X72788Y48077D01*
X72765Y47993D01*
X72749Y47921D01*
X72727Y47860D01*
X72704Y47810D01*
X72682Y47760D01*
X72660Y47727D01*
X72643Y47694D01*
X72627Y47672D01*
X72616Y47655D01*
X72610Y47649D01*
X72605Y47644D01*
X72554Y47599D01*
X72499Y47561D01*
X72377Y47499D01*
X72249Y47455D01*
X72116Y47427D01*
X71994Y47405D01*
X71944Y47400D01*
X71894D01*
X71861Y47394D01*
X71805D01*
X71689Y47400D01*
X71583Y47416D01*
X71483Y47433D01*
X71406Y47461D01*
X71339Y47483D01*
X71289Y47499D01*
X71261Y47516D01*
X71250Y47522D01*
X71173Y47572D01*
X71106Y47633D01*
X71051Y47694D01*
X71012Y47749D01*
X70978Y47805D01*
X70951Y47844D01*
X70939Y47871D01*
X70934Y47883D01*
X70917Y47932D01*
X70906Y47982D01*
X70884Y48099D01*
X70867Y48221D01*
X70856Y48343D01*
X70851Y48449D01*
Y48498D01*
X70845Y48537D01*
Y48571D01*
Y48598D01*
Y48615D01*
Y48621D01*
Y50841D01*
X70335D01*
Y48621D01*
Y48510D01*
X70340Y48404D01*
X70346Y48304D01*
X70357Y48210D01*
X70368Y48127D01*
X70379Y48049D01*
X70396Y47977D01*
X70407Y47910D01*
X70418Y47849D01*
X70434Y47799D01*
X70446Y47755D01*
X70457Y47721D01*
X70468Y47694D01*
X70473Y47672D01*
X70479Y47660D01*
Y47655D01*
X70540Y47533D01*
X70618Y47422D01*
X70695Y47333D01*
X70779Y47255D01*
X70851Y47194D01*
X70912Y47150D01*
X70934Y47139D01*
X70951Y47128D01*
X70962Y47117D01*
X70967D01*
X71106Y47056D01*
X71250Y47011D01*
X71400Y46978D01*
X71539Y46956D01*
X71600Y46950D01*
X71661Y46944D01*
X71716Y46939D01*
X71761D01*
X71800Y46933D01*
X71850D01*
X72049Y46944D01*
X72138Y46956D01*
X72222Y46967D01*
X72305Y46983D01*
X72377Y47000D01*
X72444Y47017D01*
X72505Y47039D01*
X72560Y47061D01*
X72605Y47078D01*
X72649Y47094D01*
X72682Y47111D01*
X72710Y47128D01*
X72727Y47133D01*
X72738Y47144D01*
X72743D01*
X72865Y47228D01*
X72965Y47322D01*
X73043Y47411D01*
X73110Y47499D01*
X73159Y47577D01*
X73193Y47638D01*
X73204Y47660D01*
X73215Y47677D01*
X73221Y47688D01*
Y47694D01*
X73243Y47760D01*
X73265Y47833D01*
X73298Y47982D01*
X73321Y48138D01*
X73337Y48288D01*
X73343Y48354D01*
X73348Y48421D01*
Y48476D01*
X73354Y48526D01*
Y48565D01*
Y48593D01*
Y48615D01*
Y48621D01*
Y50841D01*
D02*
G37*
G36*
X76956D02*
X73914D01*
Y50385D01*
X75180D01*
Y47000D01*
X75690D01*
Y50385D01*
X76956D01*
Y50841D01*
D02*
G37*
G36*
X67887Y50907D02*
X67837D01*
X67687Y50902D01*
X67549Y50885D01*
X67415Y50857D01*
X67288Y50824D01*
X67171Y50780D01*
X67060Y50735D01*
X66960Y50685D01*
X66871Y50635D01*
X66788Y50585D01*
X66716Y50535D01*
X66655Y50491D01*
X66605Y50447D01*
X66566Y50413D01*
X66533Y50385D01*
X66516Y50369D01*
X66511Y50363D01*
X66422Y50258D01*
X66344Y50147D01*
X66272Y50025D01*
X66216Y49903D01*
X66167Y49775D01*
X66122Y49653D01*
X66089Y49531D01*
X66067Y49414D01*
X66044Y49303D01*
X66028Y49198D01*
X66017Y49103D01*
X66006Y49026D01*
Y48959D01*
X66000Y48909D01*
Y48876D01*
Y48870D01*
Y48865D01*
X66011Y48676D01*
X66033Y48504D01*
X66067Y48338D01*
X66089Y48265D01*
X66111Y48193D01*
X66128Y48132D01*
X66150Y48077D01*
X66167Y48027D01*
X66183Y47982D01*
X66194Y47949D01*
X66205Y47927D01*
X66216Y47910D01*
Y47905D01*
X66311Y47744D01*
X66411Y47605D01*
X66522Y47483D01*
X66627Y47383D01*
X66721Y47300D01*
X66760Y47266D01*
X66794Y47244D01*
X66827Y47222D01*
X66849Y47205D01*
X66860Y47200D01*
X66866Y47194D01*
X66949Y47150D01*
X67032Y47111D01*
X67199Y47044D01*
X67360Y47000D01*
X67510Y46967D01*
X67582Y46956D01*
X67643Y46950D01*
X67698Y46939D01*
X67748D01*
X67782Y46933D01*
X67837D01*
X68020Y46944D01*
X68192Y46972D01*
X68353Y47006D01*
X68425Y47028D01*
X68492Y47050D01*
X68553Y47072D01*
X68608Y47094D01*
X68653Y47111D01*
X68692Y47128D01*
X68725Y47144D01*
X68753Y47155D01*
X68764Y47166D01*
X68769D01*
X68925Y47266D01*
X69058Y47377D01*
X69169Y47494D01*
X69263Y47605D01*
X69341Y47710D01*
X69369Y47749D01*
X69391Y47788D01*
X69413Y47821D01*
X69424Y47844D01*
X69436Y47860D01*
Y47866D01*
X69480Y47955D01*
X69513Y48043D01*
X69574Y48221D01*
X69619Y48399D01*
X69646Y48560D01*
X69652Y48632D01*
X69663Y48698D01*
X69669Y48759D01*
Y48809D01*
X69674Y48854D01*
Y48882D01*
Y48904D01*
Y48909D01*
X69663Y49120D01*
X69641Y49314D01*
X69624Y49403D01*
X69602Y49492D01*
X69580Y49570D01*
X69563Y49642D01*
X69541Y49708D01*
X69519Y49769D01*
X69502Y49819D01*
X69480Y49864D01*
X69469Y49897D01*
X69458Y49919D01*
X69447Y49936D01*
Y49942D01*
X69358Y50102D01*
X69252Y50247D01*
X69141Y50369D01*
X69041Y50469D01*
X68947Y50546D01*
X68903Y50580D01*
X68869Y50608D01*
X68836Y50624D01*
X68814Y50641D01*
X68803Y50646D01*
X68797Y50652D01*
X68714Y50696D01*
X68631Y50735D01*
X68470Y50802D01*
X68303Y50846D01*
X68159Y50874D01*
X68092Y50885D01*
X68026Y50896D01*
X67976Y50902D01*
X67926D01*
X67887Y50907D01*
D02*
G37*
%LPD*%
G36*
X67976Y50463D02*
X68109Y50441D01*
X68226Y50408D01*
X68326Y50374D01*
X68409Y50336D01*
X68442Y50319D01*
X68470Y50308D01*
X68498Y50291D01*
X68514Y50286D01*
X68520Y50274D01*
X68525D01*
X68631Y50197D01*
X68725Y50108D01*
X68808Y50019D01*
X68875Y49930D01*
X68925Y49853D01*
X68964Y49786D01*
X68975Y49764D01*
X68986Y49747D01*
X68991Y49736D01*
Y49731D01*
X69047Y49597D01*
X69086Y49453D01*
X69113Y49320D01*
X69130Y49192D01*
X69141Y49131D01*
X69147Y49081D01*
Y49031D01*
X69152Y48992D01*
Y48959D01*
Y48937D01*
Y48920D01*
Y48915D01*
X69147Y48781D01*
X69136Y48654D01*
X69119Y48532D01*
X69097Y48421D01*
X69064Y48321D01*
X69036Y48226D01*
X69002Y48138D01*
X68969Y48060D01*
X68930Y47993D01*
X68897Y47932D01*
X68869Y47883D01*
X68842Y47844D01*
X68814Y47810D01*
X68797Y47782D01*
X68786Y47771D01*
X68781Y47766D01*
X68708Y47694D01*
X68631Y47633D01*
X68553Y47583D01*
X68475Y47533D01*
X68398Y47494D01*
X68314Y47466D01*
X68242Y47438D01*
X68164Y47416D01*
X68098Y47400D01*
X68031Y47388D01*
X67976Y47377D01*
X67926Y47372D01*
X67887D01*
X67859Y47366D01*
X67831D01*
X67726Y47372D01*
X67626Y47383D01*
X67537Y47405D01*
X67449Y47427D01*
X67365Y47461D01*
X67288Y47494D01*
X67215Y47527D01*
X67149Y47566D01*
X67093Y47605D01*
X67043Y47638D01*
X66999Y47672D01*
X66960Y47705D01*
X66932Y47727D01*
X66910Y47749D01*
X66899Y47760D01*
X66894Y47766D01*
X66827Y47844D01*
X66772Y47927D01*
X66721Y48016D01*
X66677Y48105D01*
X66644Y48199D01*
X66610Y48288D01*
X66566Y48465D01*
X66555Y48543D01*
X66544Y48621D01*
X66533Y48687D01*
X66527Y48743D01*
X66522Y48793D01*
Y48831D01*
Y48854D01*
Y48859D01*
X66527Y49015D01*
X66538Y49159D01*
X66555Y49298D01*
X66583Y49420D01*
X66610Y49531D01*
X66644Y49631D01*
X66683Y49725D01*
X66716Y49803D01*
X66755Y49875D01*
X66788Y49936D01*
X66821Y49986D01*
X66849Y50025D01*
X66877Y50058D01*
X66894Y50080D01*
X66905Y50091D01*
X66910Y50097D01*
X66982Y50164D01*
X67060Y50219D01*
X67138Y50269D01*
X67221Y50313D01*
X67299Y50347D01*
X67376Y50380D01*
X67521Y50424D01*
X67587Y50435D01*
X67648Y50447D01*
X67698Y50458D01*
X67748Y50463D01*
X67787Y50469D01*
X67837D01*
X67976Y50463D01*
D02*
G37*
%LPC*%
G36*
X11326Y50841D02*
X10838D01*
Y47821D01*
X8823Y50841D01*
X8301D01*
Y47000D01*
X8790D01*
Y50014D01*
X10799Y47000D01*
X11326D01*
Y50841D01*
D02*
G37*
G36*
X13657D02*
X12181D01*
Y47000D01*
X13563D01*
X13690Y47006D01*
X13807Y47011D01*
X13912Y47022D01*
X14001Y47033D01*
X14079Y47044D01*
X14134Y47050D01*
X14151Y47056D01*
X14168Y47061D01*
X14179D01*
X14279Y47089D01*
X14367Y47122D01*
X14445Y47150D01*
X14512Y47183D01*
X14567Y47211D01*
X14606Y47233D01*
X14628Y47250D01*
X14639Y47255D01*
X14712Y47305D01*
X14773Y47366D01*
X14834Y47422D01*
X14884Y47477D01*
X14928Y47527D01*
X14961Y47566D01*
X14983Y47594D01*
X14989Y47605D01*
X15044Y47694D01*
X15100Y47788D01*
X15144Y47877D01*
X15178Y47966D01*
X15211Y48043D01*
X15233Y48105D01*
X15239Y48127D01*
X15244Y48143D01*
X15250Y48154D01*
Y48160D01*
X15283Y48293D01*
X15311Y48426D01*
X15327Y48554D01*
X15344Y48676D01*
X15350Y48781D01*
Y48826D01*
X15355Y48865D01*
Y48893D01*
Y48920D01*
Y48931D01*
Y48937D01*
X15350Y49126D01*
X15333Y49298D01*
X15305Y49453D01*
X15294Y49525D01*
X15278Y49586D01*
X15261Y49647D01*
X15250Y49697D01*
X15239Y49742D01*
X15222Y49780D01*
X15217Y49814D01*
X15205Y49836D01*
X15200Y49847D01*
Y49853D01*
X15139Y49997D01*
X15067Y50125D01*
X14989Y50236D01*
X14917Y50330D01*
X14850Y50408D01*
X14795Y50463D01*
X14773Y50480D01*
X14756Y50497D01*
X14750Y50502D01*
X14745Y50508D01*
X14656Y50580D01*
X14562Y50635D01*
X14467Y50685D01*
X14378Y50724D01*
X14301Y50752D01*
X14240Y50769D01*
X14218Y50780D01*
X14201D01*
X14190Y50785D01*
X14184D01*
X14090Y50802D01*
X13979Y50818D01*
X13868Y50829D01*
X13757Y50835D01*
X13657Y50841D01*
D02*
G37*
G36*
X5993Y50907D02*
X5815D01*
X5715Y50896D01*
X5521Y50868D01*
X5432Y50852D01*
X5349Y50829D01*
X5271Y50813D01*
X5199Y50791D01*
X5132Y50769D01*
X5077Y50746D01*
X5027Y50724D01*
X4982Y50707D01*
X4949Y50691D01*
X4927Y50680D01*
X4910Y50674D01*
X4905Y50669D01*
X4827Y50619D01*
X4749Y50569D01*
X4616Y50452D01*
X4499Y50336D01*
X4405Y50213D01*
X4327Y50108D01*
X4300Y50064D01*
X4278Y50019D01*
X4255Y49986D01*
X4244Y49964D01*
X4239Y49947D01*
X4233Y49942D01*
X4155Y49758D01*
X4100Y49575D01*
X4056Y49398D01*
X4044Y49314D01*
X4028Y49237D01*
X4022Y49165D01*
X4011Y49103D01*
X4006Y49042D01*
Y48992D01*
X4000Y48954D01*
Y48926D01*
Y48904D01*
Y48898D01*
X4011Y48693D01*
X4039Y48498D01*
X4056Y48410D01*
X4072Y48326D01*
X4094Y48243D01*
X4117Y48171D01*
X4139Y48105D01*
X4161Y48049D01*
X4178Y47993D01*
X4194Y47955D01*
X4211Y47916D01*
X4222Y47894D01*
X4233Y47877D01*
Y47871D01*
X4333Y47710D01*
X4444Y47572D01*
X4561Y47449D01*
X4671Y47350D01*
X4777Y47272D01*
X4816Y47244D01*
X4855Y47216D01*
X4888Y47200D01*
X4910Y47183D01*
X4927Y47178D01*
X4932Y47172D01*
X5021Y47128D01*
X5110Y47094D01*
X5288Y47033D01*
X5460Y46995D01*
X5621Y46961D01*
X5693Y46956D01*
X5759Y46944D01*
X5820Y46939D01*
X5870D01*
X5909Y46933D01*
X5965D01*
X6120Y46939D01*
X6270Y46956D01*
X6409Y46983D01*
X6531Y47011D01*
X6581Y47022D01*
X6631Y47033D01*
X6675Y47050D01*
X6714Y47061D01*
X6742Y47072D01*
X6764Y47078D01*
X6775Y47083D01*
X6780D01*
X6930Y47144D01*
X7069Y47216D01*
X7202Y47294D01*
X7319Y47366D01*
X7369Y47400D01*
X7419Y47433D01*
X7458Y47461D01*
X7491Y47483D01*
X7519Y47505D01*
X7541Y47522D01*
X7552Y47527D01*
X7558Y47533D01*
Y48959D01*
X5926D01*
Y48504D01*
X7058D01*
Y47782D01*
X6991Y47727D01*
X6914Y47677D01*
X6831Y47633D01*
X6753Y47594D01*
X6686Y47561D01*
X6625Y47533D01*
X6603Y47522D01*
X6592Y47516D01*
X6581Y47511D01*
X6575D01*
X6459Y47472D01*
X6342Y47438D01*
X6237Y47416D01*
X6137Y47405D01*
X6053Y47394D01*
X6020D01*
X5987Y47388D01*
X5931D01*
X5793Y47394D01*
X5659Y47416D01*
X5537Y47444D01*
X5426Y47472D01*
X5338Y47505D01*
X5299Y47516D01*
X5271Y47527D01*
X5243Y47538D01*
X5227Y47550D01*
X5215Y47555D01*
X5210D01*
X5093Y47627D01*
X4988Y47705D01*
X4899Y47788D01*
X4827Y47871D01*
X4766Y47949D01*
X4727Y48010D01*
X4710Y48032D01*
X4705Y48049D01*
X4694Y48060D01*
Y48066D01*
X4638Y48204D01*
X4594Y48349D01*
X4566Y48493D01*
X4544Y48632D01*
X4538Y48693D01*
X4533Y48748D01*
X4527Y48804D01*
Y48848D01*
X4522Y48882D01*
Y48909D01*
Y48926D01*
Y48931D01*
X4527Y49087D01*
X4544Y49226D01*
X4566Y49359D01*
X4594Y49475D01*
X4605Y49525D01*
X4622Y49570D01*
X4633Y49608D01*
X4644Y49642D01*
X4655Y49670D01*
X4660Y49686D01*
X4666Y49697D01*
Y49703D01*
X4705Y49780D01*
X4744Y49853D01*
X4783Y49919D01*
X4821Y49975D01*
X4855Y50019D01*
X4882Y50058D01*
X4905Y50080D01*
X4910Y50086D01*
X4971Y50147D01*
X5038Y50202D01*
X5110Y50247D01*
X5177Y50291D01*
X5232Y50319D01*
X5277Y50347D01*
X5310Y50358D01*
X5321Y50363D01*
X5421Y50402D01*
X5521Y50430D01*
X5626Y50447D01*
X5720Y50463D01*
X5804Y50469D01*
X5837D01*
X5865Y50474D01*
X5926D01*
X6031Y50469D01*
X6131Y50458D01*
X6220Y50441D01*
X6298Y50424D01*
X6364Y50402D01*
X6414Y50385D01*
X6442Y50374D01*
X6453Y50369D01*
X6536Y50330D01*
X6609Y50286D01*
X6675Y50241D01*
X6725Y50197D01*
X6764Y50158D01*
X6797Y50130D01*
X6814Y50108D01*
X6819Y50102D01*
X6869Y50036D01*
X6908Y49958D01*
X6947Y49886D01*
X6980Y49808D01*
X7002Y49742D01*
X7019Y49692D01*
X7025Y49670D01*
X7030Y49653D01*
X7036Y49647D01*
Y49642D01*
X7497Y49764D01*
X7458Y49903D01*
X7408Y50025D01*
X7358Y50136D01*
X7313Y50225D01*
X7269Y50297D01*
X7236Y50347D01*
X7214Y50380D01*
X7202Y50391D01*
X7125Y50480D01*
X7041Y50552D01*
X6953Y50619D01*
X6869Y50674D01*
X6792Y50713D01*
X6731Y50746D01*
X6708Y50757D01*
X6692Y50763D01*
X6681Y50769D01*
X6675D01*
X6548Y50813D01*
X6414Y50846D01*
X6292Y50874D01*
X6176Y50891D01*
X6070Y50902D01*
X6026D01*
X5993Y50907D01*
D02*
G37*
%LPD*%
G36*
X13651Y50380D02*
X13724D01*
X13790Y50374D01*
X13901Y50358D01*
X13990Y50347D01*
X14062Y50330D01*
X14112Y50313D01*
X14140Y50308D01*
X14151Y50302D01*
X14251Y50252D01*
X14345Y50191D01*
X14428Y50119D01*
X14501Y50047D01*
X14556Y49980D01*
X14601Y49925D01*
X14612Y49903D01*
X14623Y49886D01*
X14634Y49875D01*
Y49869D01*
X14667Y49808D01*
X14700Y49736D01*
X14750Y49592D01*
X14784Y49437D01*
X14811Y49287D01*
X14817Y49220D01*
X14822Y49153D01*
X14828Y49098D01*
Y49048D01*
X14834Y49004D01*
Y48976D01*
Y48954D01*
Y48948D01*
X14828Y48793D01*
X14817Y48648D01*
X14800Y48521D01*
X14784Y48410D01*
X14773Y48365D01*
X14761Y48326D01*
X14750Y48288D01*
X14745Y48260D01*
X14739Y48238D01*
X14734Y48221D01*
X14728Y48210D01*
Y48204D01*
X14689Y48099D01*
X14645Y48005D01*
X14595Y47921D01*
X14551Y47849D01*
X14512Y47794D01*
X14478Y47755D01*
X14456Y47733D01*
X14451Y47721D01*
X14395Y47677D01*
X14340Y47638D01*
X14284Y47605D01*
X14229Y47572D01*
X14179Y47550D01*
X14140Y47533D01*
X14112Y47527D01*
X14101Y47522D01*
X14018Y47499D01*
X13918Y47483D01*
X13818Y47472D01*
X13724Y47466D01*
X13640Y47461D01*
X13601Y47455D01*
X12691D01*
Y50385D01*
X13579D01*
X13651Y50380D01*
D02*
G37*
%LPC*%
G36*
X6720Y27413D02*
X5511D01*
Y26142D01*
X6654D01*
X6720Y26148D01*
X6798Y26153D01*
X6887Y26159D01*
X6976Y26170D01*
X7065Y26187D01*
X7142Y26209D01*
X7153Y26214D01*
X7176Y26226D01*
X7209Y26242D01*
X7253Y26264D01*
X7303Y26298D01*
X7353Y26337D01*
X7403Y26386D01*
X7442Y26442D01*
X7447Y26448D01*
X7459Y26470D01*
X7475Y26503D01*
X7497Y26547D01*
X7514Y26597D01*
X7531Y26653D01*
X7542Y26719D01*
X7547Y26786D01*
Y26792D01*
Y26797D01*
X7542Y26831D01*
X7536Y26880D01*
X7525Y26947D01*
X7497Y27014D01*
X7464Y27091D01*
X7414Y27163D01*
X7348Y27236D01*
X7337Y27241D01*
X7309Y27263D01*
X7264Y27291D01*
X7192Y27325D01*
X7109Y27358D01*
X6998Y27386D01*
X6870Y27408D01*
X6720Y27413D01*
D02*
G37*
G36*
X62721D02*
X61511D01*
Y26142D01*
X62654D01*
X62721Y26148D01*
X62798Y26153D01*
X62887Y26159D01*
X62976Y26170D01*
X63065Y26187D01*
X63142Y26209D01*
X63153Y26214D01*
X63176Y26226D01*
X63209Y26242D01*
X63253Y26264D01*
X63303Y26298D01*
X63353Y26337D01*
X63403Y26386D01*
X63442Y26442D01*
X63448Y26448D01*
X63459Y26470D01*
X63475Y26503D01*
X63498Y26547D01*
X63514Y26597D01*
X63531Y26653D01*
X63542Y26719D01*
X63547Y26786D01*
Y26792D01*
Y26797D01*
X63542Y26831D01*
X63536Y26880D01*
X63525Y26947D01*
X63498Y27014D01*
X63464Y27091D01*
X63414Y27163D01*
X63348Y27236D01*
X63336Y27241D01*
X63309Y27263D01*
X63264Y27291D01*
X63192Y27325D01*
X63109Y27358D01*
X62998Y27386D01*
X62870Y27408D01*
X62721Y27413D01*
D02*
G37*
%LPD*%
D17*
X22894Y25858D02*
X22106D01*
X22894D01*
D18*
X46909Y17000D02*
X46836Y18006D01*
X46617Y18991D01*
X46256Y19933D01*
X45763Y20812D01*
X45146Y21611D01*
X44420Y22311D01*
X43599Y22898D01*
X42702Y23359D01*
X41748Y23685D01*
X40756Y23868D01*
X39748Y23905D01*
X38745Y23795D01*
X37769Y23539D01*
X36841Y23145D01*
X35980Y22619D01*
X35204Y21974D01*
X34531Y21223D01*
X33975Y20382D01*
X33547Y19468D01*
X33256Y18502D01*
X33109Y17504D01*
Y16496D01*
X33256Y15498D01*
X33547Y14532D01*
X33975Y13618D01*
X34531Y12777D01*
X35204Y12026D01*
X35980Y11381D01*
X36841Y10855D01*
X37769Y10461D01*
X38745Y10205D01*
X39748Y10095D01*
X40756Y10132D01*
X41748Y10315D01*
X42702Y10641D01*
X43599Y11102D01*
X44420Y11689D01*
X45146Y12389D01*
X45763Y13188D01*
X46256Y14067D01*
X46617Y15009D01*
X46836Y15994D01*
X46909Y17000D01*
X28000Y13000D02*
Y21000D01*
X32000Y5000D02*
X48000D01*
X52000Y13000D02*
Y21000D01*
X32000Y29000D02*
X48000D01*
X5000Y34500D02*
Y45500D01*
Y34500D02*
X25000D01*
Y45500D01*
X5000D02*
X25000D01*
X55000Y34500D02*
Y45500D01*
Y34500D02*
X75000D01*
Y45500D01*
X55000D02*
X75000D01*
X41000Y32500D02*
X42500D01*
X41000D02*
Y34000D01*
X47500Y47500D02*
X49000D01*
Y46000D02*
Y47500D01*
X19500Y5000D02*
Y6500D01*
X18000Y5000D02*
X19500D01*
X4500Y11500D02*
Y13000D01*
X6000D01*
X60500Y11500D02*
Y13000D01*
X62000D01*
X75500Y5000D02*
Y6500D01*
X74000Y5000D02*
X75500D01*
X31000Y32500D02*
X32500D01*
X31000D02*
Y34000D01*
X37500Y47500D02*
X39000D01*
Y46000D02*
Y47500D01*
X19500Y15000D02*
Y16500D01*
X18000Y15000D02*
X19500D01*
X4500Y21500D02*
Y23000D01*
X6000D01*
X60500Y21500D02*
Y23000D01*
X62000D01*
X75500Y15000D02*
Y16500D01*
X74000Y15000D02*
X75500D01*
M02*
