G04 Layer_Color=8388736*
%FSLAX25Y25*%
%MOIN*%
G70*
G01*
G75*
G04:AMPARAMS|DCode=19|XSize=47.37mil|YSize=59.18mil|CornerRadius=8.92mil|HoleSize=0mil|Usage=FLASHONLY|Rotation=90.000|XOffset=0mil|YOffset=0mil|HoleType=Round|Shape=RoundedRectangle|*
%AMROUNDEDRECTD19*
21,1,0.04737,0.04134,0,0,90.0*
21,1,0.02953,0.05918,0,0,90.0*
1,1,0.01784,0.02067,0.01476*
1,1,0.01784,0.02067,-0.01476*
1,1,0.01784,-0.02067,-0.01476*
1,1,0.01784,-0.02067,0.01476*
%
%ADD19ROUNDEDRECTD19*%
G04:AMPARAMS|DCode=20|XSize=47.37mil|YSize=59.18mil|CornerRadius=8.92mil|HoleSize=0mil|Usage=FLASHONLY|Rotation=180.000|XOffset=0mil|YOffset=0mil|HoleType=Round|Shape=RoundedRectangle|*
%AMROUNDEDRECTD20*
21,1,0.04737,0.04134,0,0,180.0*
21,1,0.02953,0.05918,0,0,180.0*
1,1,0.01784,-0.01476,0.02067*
1,1,0.01784,0.01476,0.02067*
1,1,0.01784,0.01476,-0.02067*
1,1,0.01784,-0.01476,-0.02067*
%
%ADD20ROUNDEDRECTD20*%
%ADD21C,0.07000*%
%ADD22R,0.07000X0.07000*%
G04:AMPARAMS|DCode=23|XSize=76mil|YSize=76mil|CornerRadius=14.2mil|HoleSize=0mil|Usage=FLASHONLY|Rotation=270.000|XOffset=0mil|YOffset=0mil|HoleType=Round|Shape=RoundedRectangle|*
%AMROUNDEDRECTD23*
21,1,0.07600,0.04760,0,0,270.0*
21,1,0.04760,0.07600,0,0,270.0*
1,1,0.02840,-0.02380,-0.02380*
1,1,0.02840,-0.02380,0.02380*
1,1,0.02840,0.02380,0.02380*
1,1,0.02840,0.02380,-0.02380*
%
%ADD23ROUNDEDRECTD23*%
%ADD24C,0.07600*%
D19*
X45000Y36063D02*
D03*
Y43937D02*
D03*
X35000D02*
D03*
Y36063D02*
D03*
D20*
X8063Y9000D02*
D03*
X15937D02*
D03*
X71937D02*
D03*
X64063D02*
D03*
X8063Y19000D02*
D03*
X15937D02*
D03*
X71937D02*
D03*
X64063D02*
D03*
D21*
X52795Y25858D02*
D03*
Y8142D02*
D03*
X27205D02*
D03*
D22*
Y25858D02*
D03*
D23*
X10000Y40000D02*
D03*
X60000D02*
D03*
D24*
X20000D02*
D03*
X70000D02*
D03*
M02*
