G04 Layer_Physical_Order=1*
G04 Layer_Color=255*
%FSLAX25Y25*%
%MOIN*%
G70*
G01*
G75*
G04:AMPARAMS|DCode=10|XSize=39.37mil|YSize=51.18mil|CornerRadius=4.92mil|HoleSize=0mil|Usage=FLASHONLY|Rotation=90.000|XOffset=0mil|YOffset=0mil|HoleType=Round|Shape=RoundedRectangle|*
%AMROUNDEDRECTD10*
21,1,0.03937,0.04134,0,0,90.0*
21,1,0.02953,0.05118,0,0,90.0*
1,1,0.00984,0.02067,0.01476*
1,1,0.00984,0.02067,-0.01476*
1,1,0.00984,-0.02067,-0.01476*
1,1,0.00984,-0.02067,0.01476*
%
%ADD10ROUNDEDRECTD10*%
G04:AMPARAMS|DCode=11|XSize=39.37mil|YSize=51.18mil|CornerRadius=4.92mil|HoleSize=0mil|Usage=FLASHONLY|Rotation=180.000|XOffset=0mil|YOffset=0mil|HoleType=Round|Shape=RoundedRectangle|*
%AMROUNDEDRECTD11*
21,1,0.03937,0.04134,0,0,180.0*
21,1,0.02953,0.05118,0,0,180.0*
1,1,0.00984,-0.01476,0.02067*
1,1,0.00984,0.01476,0.02067*
1,1,0.00984,0.01476,-0.02067*
1,1,0.00984,-0.01476,-0.02067*
%
%ADD11ROUNDEDRECTD11*%
%ADD12C,0.01000*%
%ADD13C,0.06200*%
%ADD14R,0.06200X0.06200*%
G04:AMPARAMS|DCode=15|XSize=68mil|YSize=68mil|CornerRadius=10.2mil|HoleSize=0mil|Usage=FLASHONLY|Rotation=270.000|XOffset=0mil|YOffset=0mil|HoleType=Round|Shape=RoundedRectangle|*
%AMROUNDEDRECTD15*
21,1,0.06800,0.04760,0,0,270.0*
21,1,0.04760,0.06800,0,0,270.0*
1,1,0.02040,-0.02380,-0.02380*
1,1,0.02040,-0.02380,0.02380*
1,1,0.02040,0.02380,0.02380*
1,1,0.02040,0.02380,-0.02380*
%
%ADD15ROUNDEDRECTD15*%
%ADD16C,0.06800*%
D10*
X45000Y36063D02*
D03*
Y43937D02*
D03*
X35000D02*
D03*
Y36063D02*
D03*
D11*
X8063Y9000D02*
D03*
X15937D02*
D03*
X71937D02*
D03*
X64063D02*
D03*
X8063Y19000D02*
D03*
X15937D02*
D03*
X71937D02*
D03*
X64063D02*
D03*
D12*
X35000Y43937D02*
X45000D01*
X48063Y47000D02*
X63000D01*
X70000Y40000D01*
X15937Y9000D02*
Y19000D01*
X52795Y8142D02*
X63205D01*
X64063Y9000D01*
Y19000D01*
X12000Y32000D02*
X20000Y40000D01*
X12000Y12937D02*
Y32000D01*
X8063Y9000D02*
X12000Y12937D01*
X8063Y38063D02*
X10000Y40000D01*
X8063Y19000D02*
Y38063D01*
X45000Y36063D02*
X56063D01*
X60000Y40000D01*
X71937Y19000D02*
Y28063D01*
X60000Y40000D02*
X71937Y28063D01*
X22795Y25858D02*
X27205D01*
X15937Y19000D02*
X22795Y25858D01*
X27205D02*
X52795D01*
X34937Y36000D02*
X35000Y36063D01*
X30000Y36000D02*
X34937D01*
X27205Y33205D02*
X30000Y36000D01*
X27205Y25858D02*
Y33205D01*
X71937Y9000D02*
X76000Y13063D01*
Y44000D01*
X45000Y43937D02*
X48063Y47000D01*
X20000Y40000D02*
X30000Y50000D01*
X70000D01*
X76000Y44000D01*
X27205Y8142D02*
X52795D01*
D13*
Y25858D02*
D03*
Y8142D02*
D03*
X27205D02*
D03*
D14*
Y25858D02*
D03*
D15*
X10000Y40000D02*
D03*
X60000D02*
D03*
D16*
X20000D02*
D03*
X70000D02*
D03*
M02*
