G04 Layer_Physical_Order=1*
G04 Layer_Color=255*
%FSLAX25Y25*%
%MOIN*%
G70*
G01*
G75*
G04:AMPARAMS|DCode=10|XSize=39.37mil|YSize=51.18mil|CornerRadius=4.92mil|HoleSize=0mil|Usage=FLASHONLY|Rotation=90.000|XOffset=0mil|YOffset=0mil|HoleType=Round|Shape=RoundedRectangle|*
%AMROUNDEDRECTD10*
21,1,0.03937,0.04134,0,0,90.0*
21,1,0.02953,0.05118,0,0,90.0*
1,1,0.00984,0.02067,0.01476*
1,1,0.00984,0.02067,-0.01476*
1,1,0.00984,-0.02067,-0.01476*
1,1,0.00984,-0.02067,0.01476*
%
%ADD10ROUNDEDRECTD10*%
G04:AMPARAMS|DCode=11|XSize=39.37mil|YSize=51.18mil|CornerRadius=4.92mil|HoleSize=0mil|Usage=FLASHONLY|Rotation=0.000|XOffset=0mil|YOffset=0mil|HoleType=Round|Shape=RoundedRectangle|*
%AMROUNDEDRECTD11*
21,1,0.03937,0.04134,0,0,0.0*
21,1,0.02953,0.05118,0,0,0.0*
1,1,0.00984,0.01476,-0.02067*
1,1,0.00984,-0.01476,-0.02067*
1,1,0.00984,-0.01476,0.02067*
1,1,0.00984,0.01476,0.02067*
%
%ADD11ROUNDEDRECTD11*%
%ADD12C,0.06000*%
G04:AMPARAMS|DCode=13|XSize=70.08mil|YSize=59.84mil|CornerRadius=14.96mil|HoleSize=0mil|Usage=FLASHONLY|Rotation=90.000|XOffset=0mil|YOffset=0mil|HoleType=Round|Shape=RoundedRectangle|*
%AMROUNDEDRECTD13*
21,1,0.07008,0.02992,0,0,90.0*
21,1,0.04016,0.05984,0,0,90.0*
1,1,0.02992,0.01496,0.02008*
1,1,0.02992,0.01496,-0.02008*
1,1,0.02992,-0.01496,-0.02008*
1,1,0.02992,-0.01496,0.02008*
%
%ADD13ROUNDEDRECTD13*%
%ADD14C,0.02000*%
%ADD15C,0.01000*%
%ADD16C,0.06500*%
G04:AMPARAMS|DCode=17|XSize=65mil|YSize=65mil|CornerRadius=9.75mil|HoleSize=0mil|Usage=FLASHONLY|Rotation=180.000|XOffset=0mil|YOffset=0mil|HoleType=Round|Shape=RoundedRectangle|*
%AMROUNDEDRECTD17*
21,1,0.06500,0.04550,0,0,180.0*
21,1,0.04550,0.06500,0,0,180.0*
1,1,0.01950,-0.02275,0.02275*
1,1,0.01950,0.02275,0.02275*
1,1,0.01950,0.02275,-0.02275*
1,1,0.01950,-0.02275,-0.02275*
%
%ADD17ROUNDEDRECTD17*%
%ADD18C,0.02165*%
G36*
X117346Y2733D02*
X72649D01*
Y87818D01*
X117346D01*
Y2733D01*
D02*
G37*
G36*
X47351D02*
X2733D01*
Y87818D01*
X47351D01*
Y2733D01*
D02*
G37*
%LPC*%
G36*
X79232Y29553D02*
X78236D01*
Y25500D01*
X81777D01*
Y27008D01*
X81583Y27982D01*
X81032Y28807D01*
X80206Y29359D01*
X79232Y29553D01*
D02*
G37*
G36*
X77236D02*
X76240D01*
X75266Y29359D01*
X74441Y28807D01*
X73889Y27982D01*
X73695Y27008D01*
Y25500D01*
X77236D01*
Y29553D01*
D02*
G37*
G36*
Y24500D02*
X73695D01*
Y22992D01*
X73889Y22018D01*
X74441Y21193D01*
X75266Y20641D01*
X76240Y20447D01*
X77236D01*
Y24500D01*
D02*
G37*
G36*
X81777D02*
X78236D01*
Y20447D01*
X79232D01*
X80206Y20641D01*
X81032Y21193D01*
X81583Y22018D01*
X81777Y22992D01*
Y24500D01*
D02*
G37*
G36*
X109500Y29500D02*
X105779D01*
X105859Y28890D01*
X106288Y27857D01*
X106969Y26969D01*
X107857Y26288D01*
X108890Y25859D01*
X109500Y25779D01*
Y29500D01*
D02*
G37*
G36*
X110500Y34221D02*
Y30500D01*
X114221D01*
X114141Y31109D01*
X113712Y32143D01*
X113031Y33031D01*
X112143Y33712D01*
X111109Y34141D01*
X110500Y34221D01*
D02*
G37*
G36*
X109500D02*
X108890Y34141D01*
X107857Y33712D01*
X106969Y33031D01*
X106288Y32143D01*
X105859Y31109D01*
X105779Y30500D01*
X109500D01*
Y34221D01*
D02*
G37*
G36*
X114221Y29500D02*
X110500D01*
Y25779D01*
X111109Y25859D01*
X112143Y26288D01*
X113031Y26969D01*
X113712Y27857D01*
X114141Y28890D01*
X114221Y29500D01*
D02*
G37*
G36*
X79232Y19145D02*
X76240D01*
X75422Y18982D01*
X74729Y18519D01*
X74266Y17826D01*
X74103Y17008D01*
Y12992D01*
X74266Y12174D01*
X74729Y11481D01*
X75422Y11018D01*
X76240Y10855D01*
X79232D01*
X80050Y11018D01*
X80099Y11051D01*
X80880Y10270D01*
X80880Y10270D01*
X81244Y10027D01*
X81673Y9941D01*
X84820D01*
Y9587D01*
X84904Y9161D01*
X85146Y8799D01*
X85507Y8558D01*
X85933Y8473D01*
X90067D01*
X90493Y8558D01*
X90854Y8799D01*
X91096Y9161D01*
X91180Y9587D01*
Y12539D01*
X91096Y12966D01*
X90854Y13327D01*
X90493Y13568D01*
X90067Y13653D01*
X85933D01*
X85507Y13568D01*
X85146Y13327D01*
X84904Y12966D01*
X84820Y12539D01*
Y12184D01*
X82138D01*
X81363Y12959D01*
X81369Y12992D01*
Y17008D01*
X81207Y17826D01*
X80743Y18519D01*
X80050Y18982D01*
X79232Y19145D01*
D02*
G37*
G36*
X113969Y10500D02*
X110500D01*
Y7031D01*
X111044Y7103D01*
X112017Y7506D01*
X112853Y8147D01*
X113494Y8983D01*
X113897Y9956D01*
X113969Y10500D01*
D02*
G37*
G36*
X109500D02*
X106031D01*
X106103Y9956D01*
X106506Y8983D01*
X107147Y8147D01*
X107983Y7506D01*
X108956Y7103D01*
X109500Y7031D01*
Y10500D01*
D02*
G37*
G36*
Y14969D02*
X108956Y14897D01*
X107983Y14494D01*
X107147Y13853D01*
X106506Y13017D01*
X106103Y12044D01*
X106031Y11500D01*
X109500D01*
Y14969D01*
D02*
G37*
G36*
X110500D02*
Y11500D01*
X113969D01*
X113897Y12044D01*
X113494Y13017D01*
X112853Y13853D01*
X112017Y14494D01*
X111044Y14897D01*
X110500Y14969D01*
D02*
G37*
G36*
X87500Y74061D02*
X85933D01*
X85351Y73945D01*
X84857Y73615D01*
X84527Y73122D01*
X84412Y72539D01*
Y71563D01*
X87500D01*
Y74061D01*
D02*
G37*
G36*
X90067Y81527D02*
X85933D01*
X85507Y81442D01*
X85146Y81201D01*
X84904Y80840D01*
X84850Y80568D01*
X81673D01*
X81049Y80444D01*
X80520Y80090D01*
X79517Y79088D01*
X79232Y79145D01*
X76240D01*
X75422Y78982D01*
X74729Y78519D01*
X74266Y77826D01*
X74103Y77008D01*
Y72992D01*
X74266Y72174D01*
X74729Y71481D01*
X75422Y71018D01*
X76240Y70855D01*
X79232D01*
X80050Y71018D01*
X80743Y71481D01*
X81207Y72174D01*
X81369Y72992D01*
Y76326D01*
X82349Y77306D01*
X84850D01*
X84904Y77034D01*
X85146Y76673D01*
X85507Y76432D01*
X85933Y76347D01*
X90067D01*
X90493Y76432D01*
X90854Y76673D01*
X91096Y77034D01*
X91150Y77306D01*
X93893D01*
X94000Y77284D01*
X94657Y77415D01*
X95213Y77787D01*
X95585Y78343D01*
X95716Y79000D01*
X95585Y79657D01*
X95213Y80213D01*
X94657Y80585D01*
X94000Y80716D01*
X93343Y80585D01*
X93318Y80568D01*
X91150D01*
X91096Y80840D01*
X90854Y81201D01*
X90493Y81442D01*
X90067Y81527D01*
D02*
G37*
G36*
Y74061D02*
X88500D01*
Y71563D01*
X91588D01*
Y72539D01*
X91473Y73122D01*
X91143Y73615D01*
X90649Y73945D01*
X90067Y74061D01*
D02*
G37*
G36*
X91588Y70563D02*
X88500D01*
Y68065D01*
X90067D01*
X90649Y68181D01*
X91143Y68511D01*
X91473Y69004D01*
X91588Y69587D01*
Y70563D01*
D02*
G37*
G36*
X87500D02*
X84412D01*
Y69587D01*
X84527Y69004D01*
X84857Y68511D01*
X85351Y68181D01*
X85933Y68065D01*
X87500D01*
Y70563D01*
D02*
G37*
G36*
X115413Y86180D02*
X112461D01*
X112034Y86096D01*
X111673Y85854D01*
X111432Y85493D01*
X111347Y85067D01*
Y80933D01*
X111432Y80507D01*
X111673Y80146D01*
X112034Y79904D01*
X112461Y79820D01*
X112815D01*
Y76180D01*
X112461D01*
X112034Y76096D01*
X111673Y75854D01*
X111432Y75493D01*
X111347Y75067D01*
Y70933D01*
X111432Y70507D01*
X111673Y70146D01*
X112034Y69904D01*
X112461Y69820D01*
X115413D01*
X115840Y69904D01*
X116201Y70146D01*
X116442Y70507D01*
X116527Y70933D01*
Y75067D01*
X116442Y75493D01*
X116201Y75854D01*
X115840Y76096D01*
X115413Y76180D01*
X115059D01*
Y79820D01*
X115413D01*
X115840Y79904D01*
X116201Y80146D01*
X116442Y80507D01*
X116527Y80933D01*
Y85067D01*
X116442Y85493D01*
X116201Y85854D01*
X115840Y86096D01*
X115413Y86180D01*
D02*
G37*
G36*
X105563Y86588D02*
X104587D01*
X104004Y86472D01*
X103511Y86143D01*
X103181Y85649D01*
X103065Y85067D01*
Y83500D01*
X105563D01*
Y86588D01*
D02*
G37*
G36*
X107539D02*
X106563D01*
Y83500D01*
X109061D01*
Y85067D01*
X108945Y85649D01*
X108615Y86143D01*
X108122Y86472D01*
X107539Y86588D01*
D02*
G37*
G36*
X109061Y82500D02*
X106563D01*
Y79412D01*
X107539D01*
X108122Y79527D01*
X108615Y79857D01*
X108945Y80351D01*
X109061Y80933D01*
Y82500D01*
D02*
G37*
G36*
X105563D02*
X103065D01*
Y80933D01*
X103181Y80351D01*
X103511Y79857D01*
X104004Y79527D01*
X104587Y79412D01*
X105563D01*
Y82500D01*
D02*
G37*
G36*
X90067Y61527D02*
X85933D01*
X85507Y61442D01*
X85146Y61201D01*
X84904Y60839D01*
X84820Y60413D01*
Y57461D01*
X84839Y57362D01*
X83598Y56122D01*
X81369D01*
Y57008D01*
X81207Y57826D01*
X80743Y58519D01*
X80050Y58982D01*
X79232Y59145D01*
X76240D01*
X75422Y58982D01*
X74729Y58519D01*
X74266Y57826D01*
X74103Y57008D01*
Y52992D01*
X74266Y52174D01*
X74729Y51481D01*
X75422Y51018D01*
X76240Y50855D01*
X79232D01*
X80050Y51018D01*
X80743Y51481D01*
X81207Y52174D01*
X81369Y52992D01*
Y53878D01*
X84063D01*
X84063Y53878D01*
X84492Y53964D01*
X84856Y54207D01*
X86996Y56347D01*
X90067D01*
X90493Y56432D01*
X90854Y56673D01*
X91096Y57034D01*
X91180Y57461D01*
Y57815D01*
X100598D01*
X106589Y51825D01*
X106249Y51005D01*
X106117Y50000D01*
X106249Y48995D01*
X106637Y48058D01*
X107254Y47254D01*
X108058Y46637D01*
X108995Y46249D01*
X110000Y46117D01*
X111005Y46249D01*
X111942Y46637D01*
X112746Y47254D01*
X113363Y48058D01*
X113751Y48995D01*
X113883Y50000D01*
X113751Y51005D01*
X113363Y51942D01*
X112746Y52746D01*
X111942Y53363D01*
X111005Y53751D01*
X110000Y53883D01*
X108995Y53751D01*
X108175Y53411D01*
X101856Y59730D01*
X101492Y59973D01*
X101063Y60059D01*
X101063Y60059D01*
X91180D01*
Y60413D01*
X91096Y60839D01*
X90854Y61201D01*
X90493Y61442D01*
X90067Y61527D01*
D02*
G37*
G36*
X107539Y76180D02*
X104587D01*
X104160Y76096D01*
X103799Y75854D01*
X103558Y75493D01*
X103473Y75067D01*
Y70933D01*
X103558Y70507D01*
X103799Y70146D01*
X104160Y69904D01*
X104587Y69820D01*
X104941D01*
Y63937D01*
X104941Y63937D01*
X105027Y63508D01*
X105270Y63144D01*
X106122Y62292D01*
X106119Y62275D01*
Y57725D01*
X106241Y57111D01*
X106589Y56590D01*
X107111Y56241D01*
X107725Y56119D01*
X112275D01*
X112890Y56241D01*
X113410Y56590D01*
X113759Y57111D01*
X113881Y57725D01*
Y62275D01*
X113759Y62889D01*
X113410Y63411D01*
X112890Y63759D01*
X112275Y63881D01*
X107725D01*
X107709Y63878D01*
X107185Y64402D01*
Y69820D01*
X107539D01*
X107966Y69904D01*
X108327Y70146D01*
X108568Y70507D01*
X108653Y70933D01*
Y75067D01*
X108568Y75493D01*
X108327Y75854D01*
X107966Y76096D01*
X107539Y76180D01*
D02*
G37*
G36*
X110000Y43883D02*
X108995Y43751D01*
X108058Y43363D01*
X107254Y42746D01*
X106637Y41942D01*
X106297Y41122D01*
X103000D01*
X102571Y41036D01*
X102207Y40793D01*
X102207Y40793D01*
X87207Y25793D01*
X86964Y25429D01*
X86878Y25000D01*
X86878Y25000D01*
Y21527D01*
X85933D01*
X85507Y21442D01*
X85146Y21201D01*
X84904Y20840D01*
X84820Y20413D01*
Y17461D01*
X84904Y17034D01*
X85146Y16673D01*
X85507Y16432D01*
X85933Y16347D01*
X90067D01*
X90493Y16432D01*
X90854Y16673D01*
X91096Y17034D01*
X91180Y17461D01*
Y20413D01*
X91096Y20840D01*
X90854Y21201D01*
X90493Y21442D01*
X90067Y21527D01*
X89122D01*
Y24535D01*
X103465Y38878D01*
X106297D01*
X106637Y38058D01*
X107254Y37254D01*
X108058Y36637D01*
X108995Y36249D01*
X110000Y36117D01*
X111005Y36249D01*
X111942Y36637D01*
X112746Y37254D01*
X113363Y38058D01*
X113751Y38995D01*
X113883Y40000D01*
X113751Y41005D01*
X113363Y41942D01*
X112746Y42746D01*
X111942Y43363D01*
X111005Y43751D01*
X110000Y43883D01*
D02*
G37*
G36*
X79232Y39145D02*
X76240D01*
X75422Y38982D01*
X74729Y38519D01*
X74266Y37826D01*
X74103Y37008D01*
Y32992D01*
X74266Y32174D01*
X74729Y31481D01*
X75422Y31018D01*
X76240Y30855D01*
X79232D01*
X80050Y31018D01*
X80743Y31481D01*
X81207Y32174D01*
X81369Y32992D01*
Y37008D01*
X81207Y37826D01*
X80743Y38519D01*
X80050Y38982D01*
X79232Y39145D01*
D02*
G37*
G36*
X90067Y53653D02*
X85933D01*
X85507Y53568D01*
X85146Y53327D01*
X84904Y52965D01*
X84820Y52539D01*
Y49587D01*
X84904Y49161D01*
X85146Y48799D01*
X85507Y48558D01*
X85933Y48473D01*
X86369D01*
Y46424D01*
X86284Y46000D01*
X86415Y45344D01*
X86787Y44787D01*
X87343Y44415D01*
X88000Y44284D01*
X88657Y44415D01*
X89213Y44787D01*
X89585Y45344D01*
X89716Y46000D01*
X89631Y46424D01*
Y48473D01*
X90067D01*
X90493Y48558D01*
X90854Y48799D01*
X91096Y49161D01*
X91180Y49587D01*
Y52539D01*
X91096Y52965D01*
X90854Y53327D01*
X90493Y53568D01*
X90067Y53653D01*
D02*
G37*
G36*
X77236Y69553D02*
X76240D01*
X75266Y69359D01*
X74441Y68807D01*
X73889Y67982D01*
X73695Y67008D01*
Y65500D01*
X77236D01*
Y69553D01*
D02*
G37*
G36*
X79232D02*
X78236D01*
Y65500D01*
X81777D01*
Y67008D01*
X81583Y67982D01*
X81032Y68807D01*
X80206Y69359D01*
X79232Y69553D01*
D02*
G37*
G36*
X81777Y64500D02*
X78236D01*
Y60447D01*
X79232D01*
X80206Y60641D01*
X81032Y61193D01*
X81583Y62018D01*
X81777Y62992D01*
Y64500D01*
D02*
G37*
G36*
X77236D02*
X73695D01*
Y62992D01*
X73889Y62018D01*
X74441Y61193D01*
X75266Y60641D01*
X76240Y60447D01*
X77236D01*
Y64500D01*
D02*
G37*
G36*
X43760Y29553D02*
X42764D01*
Y25500D01*
X46305D01*
Y27008D01*
X46111Y27982D01*
X45559Y28807D01*
X44734Y29359D01*
X43760Y29553D01*
D02*
G37*
G36*
X9500Y29500D02*
X5779D01*
X5859Y28890D01*
X6288Y27857D01*
X6969Y26969D01*
X7857Y26288D01*
X8890Y25859D01*
X9500Y25779D01*
Y29500D01*
D02*
G37*
G36*
X41764Y29553D02*
X40768D01*
X39794Y29359D01*
X38968Y28807D01*
X38416Y27982D01*
X38223Y27008D01*
Y25500D01*
X41764D01*
Y29553D01*
D02*
G37*
G36*
X10500Y34221D02*
Y30500D01*
X14221D01*
X14141Y31109D01*
X13712Y32143D01*
X13031Y33031D01*
X12143Y33712D01*
X11109Y34141D01*
X10500Y34221D01*
D02*
G37*
G36*
X10000Y43883D02*
X8995Y43751D01*
X8058Y43363D01*
X7254Y42746D01*
X6637Y41942D01*
X6249Y41005D01*
X6117Y40000D01*
X6249Y38995D01*
X6637Y38058D01*
X7254Y37254D01*
X8058Y36637D01*
X8995Y36249D01*
X10000Y36117D01*
X11005Y36249D01*
X11942Y36637D01*
X12746Y37254D01*
X13363Y38058D01*
X13703Y38878D01*
X22598D01*
X28839Y32638D01*
X28820Y32539D01*
Y29587D01*
X28904Y29160D01*
X29146Y28799D01*
X29507Y28558D01*
X29933Y28473D01*
X34067D01*
X34493Y28558D01*
X34854Y28799D01*
X35096Y29160D01*
X35181Y29587D01*
Y32539D01*
X35161Y32638D01*
X36402Y33878D01*
X38631D01*
Y32992D01*
X38793Y32174D01*
X39257Y31481D01*
X39950Y31018D01*
X40768Y30855D01*
X43760D01*
X44578Y31018D01*
X45271Y31481D01*
X45734Y32174D01*
X45897Y32992D01*
Y37008D01*
X45734Y37826D01*
X45271Y38519D01*
X44578Y38982D01*
X43760Y39145D01*
X40768D01*
X39950Y38982D01*
X39257Y38519D01*
X38793Y37826D01*
X38631Y37008D01*
Y36122D01*
X35937D01*
X35508Y36036D01*
X35144Y35793D01*
X35144Y35793D01*
X33004Y33653D01*
X30996D01*
X23856Y40793D01*
X23492Y41036D01*
X23063Y41122D01*
X23063Y41122D01*
X13703D01*
X13363Y41942D01*
X12746Y42746D01*
X11942Y43363D01*
X11005Y43751D01*
X10000Y43883D01*
D02*
G37*
G36*
X14221Y29500D02*
X10500D01*
Y25779D01*
X11109Y25859D01*
X12143Y26288D01*
X13031Y26969D01*
X13712Y27857D01*
X14141Y28890D01*
X14221Y29500D01*
D02*
G37*
G36*
X9500Y34221D02*
X8890Y34141D01*
X7857Y33712D01*
X6969Y33031D01*
X6288Y32143D01*
X5859Y31109D01*
X5779Y30500D01*
X9500D01*
Y34221D01*
D02*
G37*
G36*
X46305Y24500D02*
X42764D01*
Y20447D01*
X43760D01*
X44734Y20641D01*
X45559Y21193D01*
X46111Y22018D01*
X46305Y22992D01*
Y24500D01*
D02*
G37*
G36*
X9500Y14969D02*
X8956Y14897D01*
X7983Y14494D01*
X7147Y13853D01*
X6506Y13017D01*
X6103Y12044D01*
X6031Y11500D01*
X9500D01*
Y14969D01*
D02*
G37*
G36*
X10500D02*
Y11500D01*
X13969D01*
X13897Y12044D01*
X13494Y13017D01*
X12853Y13853D01*
X12017Y14494D01*
X11044Y14897D01*
X10500Y14969D01*
D02*
G37*
G36*
X9500Y10500D02*
X6031D01*
X6103Y9956D01*
X6506Y8983D01*
X7147Y8147D01*
X7983Y7506D01*
X8956Y7103D01*
X9500Y7031D01*
Y10500D01*
D02*
G37*
G36*
X13969D02*
X10500D01*
Y7031D01*
X11044Y7103D01*
X12017Y7506D01*
X12853Y8147D01*
X13494Y8983D01*
X13897Y9956D01*
X13969Y10500D01*
D02*
G37*
G36*
X31500Y21935D02*
X29933D01*
X29351Y21819D01*
X28857Y21489D01*
X28528Y20996D01*
X28412Y20413D01*
Y19437D01*
X31500D01*
Y21935D01*
D02*
G37*
G36*
X34067D02*
X32500D01*
Y19437D01*
X35588D01*
Y20413D01*
X35473Y20996D01*
X35143Y21489D01*
X34649Y21819D01*
X34067Y21935D01*
D02*
G37*
G36*
X41764Y24500D02*
X38223D01*
Y22992D01*
X38416Y22018D01*
X38968Y21193D01*
X39794Y20641D01*
X40768Y20447D01*
X41764D01*
Y24500D01*
D02*
G37*
G36*
X35588Y18437D02*
X32500D01*
Y15939D01*
X34067D01*
X34649Y16055D01*
X35143Y16385D01*
X35473Y16878D01*
X35588Y17461D01*
Y18437D01*
D02*
G37*
G36*
X43760Y19145D02*
X40768D01*
X39950Y18982D01*
X39257Y18519D01*
X38793Y17826D01*
X38631Y17008D01*
Y13674D01*
X37651Y12694D01*
X35150D01*
X35096Y12966D01*
X34854Y13327D01*
X34493Y13568D01*
X34067Y13653D01*
X29933D01*
X29507Y13568D01*
X29146Y13327D01*
X28904Y12966D01*
X28838Y12631D01*
X26424D01*
X26000Y12716D01*
X25343Y12585D01*
X24787Y12213D01*
X24415Y11657D01*
X24284Y11000D01*
X24415Y10343D01*
X24787Y9787D01*
X25343Y9415D01*
X26000Y9284D01*
X26424Y9369D01*
X28863D01*
X28904Y9161D01*
X29146Y8799D01*
X29507Y8558D01*
X29933Y8473D01*
X34067D01*
X34493Y8558D01*
X34854Y8799D01*
X35096Y9161D01*
X35150Y9432D01*
X38327D01*
X38951Y9556D01*
X39480Y9909D01*
X40483Y10912D01*
X40768Y10855D01*
X43760D01*
X44578Y11018D01*
X45271Y11481D01*
X45734Y12174D01*
X45897Y12992D01*
Y17008D01*
X45734Y17826D01*
X45271Y18519D01*
X44578Y18982D01*
X43760Y19145D01*
D02*
G37*
G36*
X31500Y18437D02*
X28412D01*
Y17461D01*
X28528Y16878D01*
X28857Y16385D01*
X29351Y16055D01*
X29933Y15939D01*
X31500D01*
Y18437D01*
D02*
G37*
G36*
X34067Y81527D02*
X29933D01*
X29507Y81442D01*
X29146Y81201D01*
X28904Y80840D01*
X28820Y80413D01*
Y77461D01*
X28904Y77034D01*
X29146Y76673D01*
X29507Y76432D01*
X29933Y76347D01*
X34067D01*
X34493Y76432D01*
X34854Y76673D01*
X35096Y77034D01*
X35181Y77461D01*
Y77816D01*
X37862D01*
X38637Y77041D01*
X38631Y77008D01*
Y72992D01*
X38793Y72174D01*
X39257Y71481D01*
X39950Y71018D01*
X40768Y70855D01*
X43760D01*
X44578Y71018D01*
X45271Y71481D01*
X45734Y72174D01*
X45897Y72992D01*
Y77008D01*
X45734Y77826D01*
X45271Y78519D01*
X44578Y78982D01*
X43760Y79145D01*
X40768D01*
X39950Y78982D01*
X39900Y78949D01*
X39120Y79730D01*
X38756Y79973D01*
X38327Y80059D01*
X38327Y80059D01*
X35181D01*
Y80413D01*
X35096Y80840D01*
X34854Y81201D01*
X34493Y81442D01*
X34067Y81527D01*
D02*
G37*
G36*
X7539Y86180D02*
X4587D01*
X4160Y86096D01*
X3799Y85854D01*
X3558Y85493D01*
X3473Y85067D01*
Y80933D01*
X3558Y80507D01*
X3799Y80146D01*
X4160Y79904D01*
X4587Y79820D01*
X4941D01*
Y76180D01*
X4587D01*
X4160Y76096D01*
X3799Y75854D01*
X3558Y75493D01*
X3473Y75067D01*
Y70933D01*
X3558Y70507D01*
X3799Y70146D01*
X4160Y69904D01*
X4587Y69820D01*
X7539D01*
X7965Y69904D01*
X8327Y70146D01*
X8568Y70507D01*
X8653Y70933D01*
Y75067D01*
X8568Y75493D01*
X8327Y75854D01*
X7965Y76096D01*
X7539Y76180D01*
X7185D01*
Y79820D01*
X7539D01*
X7965Y79904D01*
X8327Y80146D01*
X8568Y80507D01*
X8653Y80933D01*
Y85067D01*
X8568Y85493D01*
X8327Y85854D01*
X7965Y86096D01*
X7539Y86180D01*
D02*
G37*
G36*
X13437Y86588D02*
X12461D01*
X11878Y86472D01*
X11385Y86143D01*
X11055Y85649D01*
X10939Y85067D01*
Y83500D01*
X13437D01*
Y86588D01*
D02*
G37*
G36*
X15413D02*
X14437D01*
Y83500D01*
X16935D01*
Y85067D01*
X16819Y85649D01*
X16489Y86143D01*
X15996Y86472D01*
X15413Y86588D01*
D02*
G37*
G36*
X16935Y82500D02*
X14437D01*
Y79412D01*
X15413D01*
X15996Y79527D01*
X16489Y79857D01*
X16819Y80351D01*
X16935Y80933D01*
Y82500D01*
D02*
G37*
G36*
X13437D02*
X10939D01*
Y80933D01*
X11055Y80351D01*
X11385Y79857D01*
X11878Y79527D01*
X12461Y79412D01*
X13437D01*
Y82500D01*
D02*
G37*
G36*
X43760Y69553D02*
X42764D01*
Y65500D01*
X46305D01*
Y67008D01*
X46111Y67982D01*
X45559Y68807D01*
X44734Y69359D01*
X43760Y69553D01*
D02*
G37*
G36*
X34067Y73653D02*
X29933D01*
X29507Y73568D01*
X29146Y73327D01*
X28904Y72966D01*
X28820Y72539D01*
Y69587D01*
X28904Y69160D01*
X29146Y68799D01*
X29507Y68558D01*
X29933Y68473D01*
X30878D01*
Y65465D01*
X16535Y51122D01*
X13703D01*
X13363Y51942D01*
X12746Y52746D01*
X11942Y53363D01*
X11005Y53751D01*
X10000Y53883D01*
X8995Y53751D01*
X8058Y53363D01*
X7254Y52746D01*
X6637Y51942D01*
X6249Y51005D01*
X6117Y50000D01*
X6249Y48995D01*
X6637Y48058D01*
X7254Y47254D01*
X8058Y46637D01*
X8995Y46249D01*
X10000Y46117D01*
X11005Y46249D01*
X11942Y46637D01*
X12746Y47254D01*
X13363Y48058D01*
X13703Y48878D01*
X17000D01*
X17000Y48878D01*
X17429Y48964D01*
X17793Y49207D01*
X32793Y64207D01*
X32793Y64207D01*
X33036Y64571D01*
X33122Y65000D01*
Y68473D01*
X34067D01*
X34493Y68558D01*
X34854Y68799D01*
X35096Y69160D01*
X35181Y69587D01*
Y72539D01*
X35096Y72966D01*
X34854Y73327D01*
X34493Y73568D01*
X34067Y73653D01*
D02*
G37*
G36*
X43760Y59145D02*
X40768D01*
X39950Y58982D01*
X39257Y58519D01*
X38793Y57826D01*
X38631Y57008D01*
Y52992D01*
X38793Y52174D01*
X39257Y51481D01*
X39950Y51018D01*
X40768Y50855D01*
X43760D01*
X44578Y51018D01*
X45271Y51481D01*
X45734Y52174D01*
X45897Y52992D01*
Y57008D01*
X45734Y57826D01*
X45271Y58519D01*
X44578Y58982D01*
X43760Y59145D01*
D02*
G37*
G36*
X32000Y45716D02*
X31343Y45585D01*
X30787Y45213D01*
X30415Y44657D01*
X30284Y44000D01*
X30369Y43576D01*
Y41527D01*
X29933D01*
X29507Y41442D01*
X29146Y41201D01*
X28904Y40839D01*
X28820Y40413D01*
Y37461D01*
X28904Y37034D01*
X29146Y36673D01*
X29507Y36432D01*
X29933Y36347D01*
X34067D01*
X34493Y36432D01*
X34854Y36673D01*
X35096Y37034D01*
X35181Y37461D01*
Y40413D01*
X35096Y40839D01*
X34854Y41201D01*
X34493Y41442D01*
X34067Y41527D01*
X33631D01*
Y43576D01*
X33716Y44000D01*
X33585Y44657D01*
X33213Y45213D01*
X32656Y45585D01*
X32000Y45716D01*
D02*
G37*
G36*
X15413Y76180D02*
X12461D01*
X12034Y76096D01*
X11673Y75854D01*
X11432Y75493D01*
X11347Y75067D01*
Y70933D01*
X11432Y70507D01*
X11673Y70146D01*
X12034Y69904D01*
X12461Y69820D01*
X12815D01*
Y64402D01*
X12291Y63878D01*
X12275Y63881D01*
X7725D01*
X7111Y63759D01*
X6589Y63411D01*
X6241Y62889D01*
X6119Y62275D01*
Y57725D01*
X6241Y57111D01*
X6589Y56590D01*
X7111Y56241D01*
X7725Y56119D01*
X12275D01*
X12889Y56241D01*
X13410Y56590D01*
X13759Y57111D01*
X13881Y57725D01*
Y62275D01*
X13878Y62292D01*
X14730Y63144D01*
X14730Y63144D01*
X14973Y63508D01*
X15059Y63937D01*
Y69820D01*
X15413D01*
X15840Y69904D01*
X16201Y70146D01*
X16442Y70507D01*
X16527Y70933D01*
Y75067D01*
X16442Y75493D01*
X16201Y75854D01*
X15840Y76096D01*
X15413Y76180D01*
D02*
G37*
G36*
X41764Y69553D02*
X40768D01*
X39794Y69359D01*
X38968Y68807D01*
X38416Y67982D01*
X38223Y67008D01*
Y65500D01*
X41764D01*
Y69553D01*
D02*
G37*
G36*
X46305Y64500D02*
X42764D01*
Y60447D01*
X43760D01*
X44734Y60641D01*
X45559Y61193D01*
X46111Y62018D01*
X46305Y62992D01*
Y64500D01*
D02*
G37*
G36*
X41764D02*
X38223D01*
Y62992D01*
X38416Y62018D01*
X38968Y61193D01*
X39794Y60641D01*
X40768Y60447D01*
X41764D01*
Y64500D01*
D02*
G37*
%LPD*%
D10*
X88000Y11063D02*
D03*
Y18937D02*
D03*
Y58937D02*
D03*
Y51063D02*
D03*
Y78937D02*
D03*
Y71063D02*
D03*
X32000Y11063D02*
D03*
Y18937D02*
D03*
Y71063D02*
D03*
Y78937D02*
D03*
Y31063D02*
D03*
Y38937D02*
D03*
D11*
X106063Y83000D02*
D03*
X113937D02*
D03*
Y73000D02*
D03*
X106063D02*
D03*
X13937Y83000D02*
D03*
X6063D02*
D03*
Y73000D02*
D03*
X13937D02*
D03*
D12*
X110000Y11000D02*
D03*
X10000D02*
D03*
D13*
X77736Y35000D02*
D03*
X42264Y25000D02*
D03*
X77736Y15000D02*
D03*
X42264D02*
D03*
X77736Y25000D02*
D03*
X42264Y35000D02*
D03*
Y55000D02*
D03*
X77736Y65000D02*
D03*
X42264Y75000D02*
D03*
X77736D02*
D03*
X42264Y65000D02*
D03*
X77736Y55000D02*
D03*
D14*
X81673Y78937D02*
X88000D01*
X77736Y75000D02*
X81673Y78937D01*
X38327Y11063D02*
X42264Y15000D01*
X32000Y11063D02*
X38327D01*
X93937Y78937D02*
X94000Y79000D01*
X88000Y78937D02*
X93937D01*
X31937Y11000D02*
X32000Y11063D01*
X26000Y11000D02*
X31937D01*
X88000Y46000D02*
Y51063D01*
X32000Y38937D02*
Y44000D01*
D15*
X103000Y40000D02*
X110000D01*
X88000Y25000D02*
X103000Y40000D01*
X88000Y18937D02*
Y25000D01*
X77736Y15000D02*
X81673Y11063D01*
X88000D01*
X101063Y58937D02*
X110000Y50000D01*
X88000Y58937D02*
X101063D01*
X84063Y55000D02*
X88000Y58937D01*
X77736Y55000D02*
X84063D01*
X77736Y65000D02*
X84000D01*
X36000D02*
X42264D01*
X77736Y25000D02*
X84000D01*
X36000D02*
X42264D01*
X32000Y18937D02*
Y25000D01*
Y31063D02*
X35937Y35000D01*
X42264D01*
X23063Y40000D02*
X32000Y31063D01*
X10000Y40000D02*
X23063D01*
X32000Y65000D02*
Y71063D01*
X17000Y50000D02*
X32000Y65000D01*
X10000Y50000D02*
X17000D01*
X38327Y78937D02*
X42264Y75000D01*
X32000Y78937D02*
X38327D01*
X88000Y65000D02*
Y71063D01*
X101000Y83000D02*
X106063D01*
X113937Y73000D02*
Y83000D01*
X106063Y63937D02*
X110000Y60000D01*
X106063Y63937D02*
Y73000D01*
X13937Y83000D02*
X19000D01*
X10000Y60000D02*
X13937Y63937D01*
Y73000D01*
X6063D02*
Y83000D01*
D16*
X10000Y30000D02*
D03*
Y40000D02*
D03*
Y50000D02*
D03*
X110000Y30000D02*
D03*
Y40000D02*
D03*
Y50000D02*
D03*
D17*
X10000Y60000D02*
D03*
X110000D02*
D03*
D18*
Y20000D02*
D03*
X10000D02*
D03*
X88000Y35000D02*
D03*
X32000Y55000D02*
D03*
X110000Y11000D02*
D03*
X10000D02*
D03*
X94000Y79000D02*
D03*
X26000Y11000D02*
D03*
X88000Y46000D02*
D03*
X32000Y44000D02*
D03*
X84000Y25000D02*
D03*
X36000Y65000D02*
D03*
X88000D02*
D03*
X84000D02*
D03*
X36000Y25000D02*
D03*
X32000D02*
D03*
X101000Y83000D02*
D03*
X19000D02*
D03*
M02*
