G04 Layer_Color=128*
%FSLAX25Y25*%
%MOIN*%
G70*
G01*
G75*
%ADD30C,0.00200*%
D30*
X8250Y30000D02*
X11750D01*
X10000Y28250D02*
Y31750D01*
X8250Y40000D02*
X11750D01*
X10000Y38250D02*
Y41750D01*
X8250Y60000D02*
X11750D01*
X10000Y58250D02*
Y61750D01*
X8250Y50000D02*
X11750D01*
X10000Y48250D02*
Y51750D01*
X108250Y30000D02*
X111750D01*
X110000Y28250D02*
Y31750D01*
X108250Y40000D02*
X111750D01*
X110000Y38250D02*
Y41750D01*
X108250Y60000D02*
X111750D01*
X110000Y58250D02*
Y61750D01*
X108250Y50000D02*
X111750D01*
X110000Y48250D02*
Y51750D01*
X109311Y20000D02*
X110689D01*
X110000Y19311D02*
Y20689D01*
X9311Y20000D02*
X10689D01*
X10000Y19311D02*
Y20689D01*
X87311Y35000D02*
X88689D01*
X88000Y34311D02*
Y35689D01*
X31311Y55000D02*
X32689D01*
X32000Y54311D02*
Y55689D01*
X109311Y11000D02*
X110689D01*
X110000Y10311D02*
Y11689D01*
X9311Y11000D02*
X10689D01*
X10000Y10311D02*
Y11689D01*
X93311Y79000D02*
X94689D01*
X94000Y78311D02*
Y79689D01*
X25311Y11000D02*
X26689D01*
X26000Y10311D02*
Y11689D01*
X87311Y46000D02*
X88689D01*
X88000Y45311D02*
Y46689D01*
X31311Y44000D02*
X32689D01*
X32000Y43311D02*
Y44689D01*
X83311Y25000D02*
X84689D01*
X84000Y24311D02*
Y25689D01*
X35311Y65000D02*
X36689D01*
X36000Y64311D02*
Y65689D01*
X87311Y65000D02*
X88689D01*
X88000Y64311D02*
Y65689D01*
X83311Y65000D02*
X84689D01*
X84000Y64311D02*
Y65689D01*
X35311Y25000D02*
X36689D01*
X36000Y24311D02*
Y25689D01*
X31311Y25000D02*
X32689D01*
X32000Y24311D02*
Y25689D01*
X100311Y83000D02*
X101689D01*
X101000Y82311D02*
Y83689D01*
X18311Y83000D02*
X19689D01*
X19000Y82311D02*
Y83689D01*
M02*
