G04 Layer_Physical_Order=2*
G04 Layer_Color=16711680*
%FSLAX25Y25*%
%MOIN*%
G70*
G01*
G75*
%ADD16C,0.06500*%
G04:AMPARAMS|DCode=17|XSize=65mil|YSize=65mil|CornerRadius=9.75mil|HoleSize=0mil|Usage=FLASHONLY|Rotation=180.000|XOffset=0mil|YOffset=0mil|HoleType=Round|Shape=RoundedRectangle|*
%AMROUNDEDRECTD17*
21,1,0.06500,0.04550,0,0,180.0*
21,1,0.04550,0.06500,0,0,180.0*
1,1,0.01950,-0.02275,0.02275*
1,1,0.01950,0.02275,0.02275*
1,1,0.01950,0.02275,-0.02275*
1,1,0.01950,-0.02275,-0.02275*
%
%ADD17ROUNDEDRECTD17*%
%ADD18C,0.02165*%
%ADD19C,0.03000*%
G36*
X117346Y2733D02*
X72649D01*
Y87818D01*
X117346D01*
Y2733D01*
D02*
G37*
G36*
X47351D02*
X2733D01*
Y87818D01*
X47351D01*
Y2733D01*
D02*
G37*
%LPC*%
G36*
X114221Y29500D02*
X110500D01*
Y25779D01*
X111109Y25859D01*
X112143Y26288D01*
X113031Y26969D01*
X113712Y27857D01*
X114141Y28890D01*
X114221Y29500D01*
D02*
G37*
G36*
X109500D02*
X105779D01*
X105859Y28890D01*
X106288Y27857D01*
X106969Y26969D01*
X107857Y26288D01*
X108890Y25859D01*
X109500Y25779D01*
Y29500D01*
D02*
G37*
G36*
X110000Y43883D02*
X108995Y43751D01*
X108058Y43363D01*
X107254Y42746D01*
X106637Y41942D01*
X106249Y41005D01*
X106117Y40000D01*
X106249Y38995D01*
X106637Y38058D01*
X107254Y37254D01*
X108058Y36637D01*
X108995Y36249D01*
X110000Y36117D01*
X111005Y36249D01*
X111942Y36637D01*
X112746Y37254D01*
X113363Y38058D01*
X113751Y38995D01*
X113883Y40000D01*
X113751Y41005D01*
X113363Y41942D01*
X112746Y42746D01*
X111942Y43363D01*
X111005Y43751D01*
X110000Y43883D01*
D02*
G37*
G36*
X94000Y81141D02*
X93181Y80978D01*
X92486Y80514D01*
X92022Y79819D01*
X91859Y79000D01*
Y60000D01*
Y52887D01*
X86486Y47514D01*
X86022Y46819D01*
X85859Y46000D01*
X86022Y45181D01*
X86486Y44486D01*
X87181Y44022D01*
X88000Y43859D01*
X88819Y44022D01*
X89514Y44486D01*
X95514Y50486D01*
X95978Y51181D01*
X96141Y52000D01*
Y57859D01*
X106119D01*
Y57725D01*
X106241Y57111D01*
X106589Y56590D01*
X107111Y56241D01*
X107725Y56119D01*
X112275D01*
X112890Y56241D01*
X113410Y56590D01*
X113759Y57111D01*
X113881Y57725D01*
Y62275D01*
X113759Y62889D01*
X113410Y63411D01*
X112890Y63759D01*
X112275Y63881D01*
X107725D01*
X107111Y63759D01*
X106589Y63411D01*
X106241Y62889D01*
X106119Y62275D01*
Y62141D01*
X96141D01*
Y79000D01*
X95978Y79819D01*
X95514Y80514D01*
X94819Y80978D01*
X94000Y81141D01*
D02*
G37*
G36*
X110000Y53883D02*
X108995Y53751D01*
X108058Y53363D01*
X107254Y52746D01*
X106637Y51942D01*
X106249Y51005D01*
X106117Y50000D01*
X106249Y48995D01*
X106637Y48058D01*
X107254Y47254D01*
X108058Y46637D01*
X108995Y46249D01*
X110000Y46117D01*
X111005Y46249D01*
X111942Y46637D01*
X112746Y47254D01*
X113363Y48058D01*
X113751Y48995D01*
X113883Y50000D01*
X113751Y51005D01*
X113363Y51942D01*
X112746Y52746D01*
X111942Y53363D01*
X111005Y53751D01*
X110000Y53883D01*
D02*
G37*
G36*
X109500Y34221D02*
X108890Y34141D01*
X107857Y33712D01*
X106969Y33031D01*
X106288Y32143D01*
X105859Y31109D01*
X105779Y30500D01*
X109500D01*
Y34221D01*
D02*
G37*
G36*
X110500D02*
Y30500D01*
X114221D01*
X114141Y31109D01*
X113712Y32143D01*
X113031Y33031D01*
X112143Y33712D01*
X111109Y34141D01*
X110500Y34221D01*
D02*
G37*
G36*
X14221Y29500D02*
X10500D01*
Y25779D01*
X11109Y25859D01*
X12143Y26288D01*
X13031Y26969D01*
X13712Y27857D01*
X14141Y28890D01*
X14221Y29500D01*
D02*
G37*
G36*
X9500Y34221D02*
X8890Y34141D01*
X7857Y33712D01*
X6969Y33031D01*
X6288Y32143D01*
X5859Y31109D01*
X5779Y30500D01*
X9500D01*
Y34221D01*
D02*
G37*
G36*
X12275Y63881D02*
X7725D01*
X7111Y63759D01*
X6589Y63411D01*
X6241Y62889D01*
X6119Y62275D01*
Y57725D01*
X6241Y57111D01*
X6589Y56590D01*
X7111Y56241D01*
X7725Y56119D01*
X10853D01*
X23859Y43113D01*
Y11000D01*
X24022Y10181D01*
X24486Y9486D01*
X25181Y9022D01*
X26000Y8859D01*
X26819Y9022D01*
X27514Y9486D01*
X27978Y10181D01*
X28141Y11000D01*
Y41859D01*
X32000D01*
X32819Y42022D01*
X33514Y42486D01*
X33978Y43181D01*
X34141Y44000D01*
X33978Y44819D01*
X33514Y45514D01*
X32819Y45978D01*
X32000Y46141D01*
X26887D01*
X13881Y59147D01*
Y62275D01*
X13759Y62889D01*
X13410Y63411D01*
X12889Y63759D01*
X12275Y63881D01*
D02*
G37*
G36*
X9500Y29500D02*
X5779D01*
X5859Y28890D01*
X6288Y27857D01*
X6969Y26969D01*
X7857Y26288D01*
X8890Y25859D01*
X9500Y25779D01*
Y29500D01*
D02*
G37*
G36*
X10000Y53883D02*
X8995Y53751D01*
X8058Y53363D01*
X7254Y52746D01*
X6637Y51942D01*
X6249Y51005D01*
X6117Y50000D01*
X6249Y48995D01*
X6637Y48058D01*
X7254Y47254D01*
X8058Y46637D01*
X8995Y46249D01*
X10000Y46117D01*
X11005Y46249D01*
X11942Y46637D01*
X12746Y47254D01*
X13363Y48058D01*
X13751Y48995D01*
X13883Y50000D01*
X13751Y51005D01*
X13363Y51942D01*
X12746Y52746D01*
X11942Y53363D01*
X11005Y53751D01*
X10000Y53883D01*
D02*
G37*
G36*
X10500Y34221D02*
Y30500D01*
X14221D01*
X14141Y31109D01*
X13712Y32143D01*
X13031Y33031D01*
X12143Y33712D01*
X11109Y34141D01*
X10500Y34221D01*
D02*
G37*
G36*
X10000Y43883D02*
X8995Y43751D01*
X8058Y43363D01*
X7254Y42746D01*
X6637Y41942D01*
X6249Y41005D01*
X6117Y40000D01*
X6249Y38995D01*
X6637Y38058D01*
X7254Y37254D01*
X8058Y36637D01*
X8995Y36249D01*
X10000Y36117D01*
X11005Y36249D01*
X11942Y36637D01*
X12746Y37254D01*
X13363Y38058D01*
X13751Y38995D01*
X13883Y40000D01*
X13751Y41005D01*
X13363Y41942D01*
X12746Y42746D01*
X11942Y43363D01*
X11005Y43751D01*
X10000Y43883D01*
D02*
G37*
%LPD*%
D16*
Y30000D02*
D03*
Y40000D02*
D03*
Y50000D02*
D03*
X110000Y30000D02*
D03*
Y40000D02*
D03*
Y50000D02*
D03*
D17*
X10000Y60000D02*
D03*
X110000D02*
D03*
D18*
Y20000D02*
D03*
X10000D02*
D03*
X88000Y35000D02*
D03*
X32000Y55000D02*
D03*
X110000Y11000D02*
D03*
X10000D02*
D03*
X94000Y79000D02*
D03*
X26000Y11000D02*
D03*
X88000Y46000D02*
D03*
X32000Y44000D02*
D03*
X84000Y25000D02*
D03*
X36000Y65000D02*
D03*
X88000D02*
D03*
X84000D02*
D03*
X36000Y25000D02*
D03*
X32000D02*
D03*
X101000Y83000D02*
D03*
X19000D02*
D03*
D19*
X94000Y60000D02*
Y79000D01*
Y52000D02*
Y60000D01*
X110000D01*
X88000Y46000D02*
X94000Y52000D01*
X26000Y11000D02*
Y44000D01*
X10000Y60000D02*
X26000Y44000D01*
X32000D01*
M02*
