G04 Layer_Color=65535*
%FSLAX25Y25*%
%MOIN*%
G70*
G01*
G75*
%ADD15C,0.01000*%
%ADD20C,0.02362*%
%ADD21C,0.00984*%
%ADD22C,0.00600*%
G36*
X25038Y76341D02*
X23501D01*
X23296Y75303D01*
X23301Y75309D01*
X23312Y75314D01*
X23329Y75326D01*
X23357Y75342D01*
X23390Y75359D01*
X23429Y75381D01*
X23518Y75425D01*
X23629Y75470D01*
X23751Y75509D01*
X23884Y75536D01*
X23951Y75547D01*
X24073D01*
X24106Y75542D01*
X24150Y75536D01*
X24200Y75531D01*
X24256Y75520D01*
X24317Y75503D01*
X24450Y75464D01*
X24522Y75437D01*
X24594Y75398D01*
X24667Y75359D01*
X24739Y75314D01*
X24805Y75259D01*
X24872Y75198D01*
X24877Y75192D01*
X24889Y75181D01*
X24905Y75165D01*
X24927Y75137D01*
X24955Y75098D01*
X24983Y75059D01*
X25016Y75009D01*
X25049Y74954D01*
X25077Y74893D01*
X25111Y74826D01*
X25138Y74748D01*
X25166Y74671D01*
X25188Y74587D01*
X25205Y74493D01*
X25216Y74399D01*
X25221Y74299D01*
Y74293D01*
Y74277D01*
Y74249D01*
X25216Y74210D01*
X25210Y74165D01*
X25205Y74116D01*
X25194Y74054D01*
X25183Y73993D01*
X25149Y73849D01*
X25094Y73699D01*
X25061Y73622D01*
X25016Y73549D01*
X24972Y73472D01*
X24916Y73400D01*
X24911Y73394D01*
X24900Y73377D01*
X24877Y73355D01*
X24850Y73327D01*
X24811Y73294D01*
X24767Y73250D01*
X24711Y73211D01*
X24650Y73167D01*
X24583Y73122D01*
X24506Y73083D01*
X24422Y73044D01*
X24333Y73006D01*
X24239Y72978D01*
X24134Y72956D01*
X24023Y72939D01*
X23906Y72933D01*
X23856D01*
X23817Y72939D01*
X23773Y72944D01*
X23723Y72950D01*
X23662Y72956D01*
X23601Y72972D01*
X23462Y73006D01*
X23323Y73055D01*
X23251Y73089D01*
X23179Y73128D01*
X23112Y73172D01*
X23046Y73222D01*
X23040Y73228D01*
X23029Y73233D01*
X23018Y73255D01*
X22996Y73277D01*
X22968Y73305D01*
X22941Y73339D01*
X22907Y73383D01*
X22879Y73433D01*
X22846Y73483D01*
X22813Y73544D01*
X22752Y73677D01*
X22702Y73832D01*
X22685Y73916D01*
X22674Y74005D01*
X23168Y74043D01*
Y74038D01*
Y74027D01*
X23174Y74010D01*
X23179Y73982D01*
X23196Y73921D01*
X23218Y73838D01*
X23251Y73755D01*
X23296Y73660D01*
X23351Y73577D01*
X23418Y73500D01*
X23429Y73494D01*
X23451Y73472D01*
X23495Y73444D01*
X23557Y73411D01*
X23623Y73377D01*
X23706Y73350D01*
X23801Y73327D01*
X23906Y73322D01*
X23939D01*
X23962Y73327D01*
X24028Y73333D01*
X24106Y73355D01*
X24200Y73383D01*
X24295Y73427D01*
X24395Y73494D01*
X24439Y73533D01*
X24483Y73577D01*
X24489Y73583D01*
X24495Y73588D01*
X24506Y73605D01*
X24522Y73622D01*
X24561Y73683D01*
X24606Y73760D01*
X24644Y73855D01*
X24683Y73971D01*
X24711Y74110D01*
X24722Y74182D01*
Y74260D01*
Y74265D01*
Y74277D01*
Y74299D01*
X24716Y74326D01*
Y74360D01*
X24711Y74399D01*
X24694Y74487D01*
X24667Y74593D01*
X24628Y74698D01*
X24572Y74798D01*
X24495Y74893D01*
Y74898D01*
X24483Y74904D01*
X24456Y74931D01*
X24406Y74970D01*
X24339Y75015D01*
X24250Y75054D01*
X24150Y75092D01*
X24034Y75120D01*
X23967Y75131D01*
X23862D01*
X23817Y75126D01*
X23762Y75120D01*
X23695Y75103D01*
X23629Y75087D01*
X23557Y75059D01*
X23484Y75026D01*
X23479Y75020D01*
X23457Y75009D01*
X23423Y74981D01*
X23379Y74954D01*
X23335Y74915D01*
X23290Y74865D01*
X23240Y74815D01*
X23201Y74754D01*
X22757Y74815D01*
X23129Y76791D01*
X25038D01*
Y76341D01*
D02*
G37*
G36*
X20576Y82835D02*
X20687Y82829D01*
X20798Y82818D01*
X20909Y82802D01*
X21004Y82785D01*
X21009D01*
X21020Y82780D01*
X21037D01*
X21059Y82768D01*
X21120Y82752D01*
X21198Y82724D01*
X21287Y82685D01*
X21381Y82635D01*
X21475Y82580D01*
X21564Y82508D01*
X21570Y82502D01*
X21575Y82497D01*
X21592Y82480D01*
X21614Y82463D01*
X21670Y82408D01*
X21736Y82330D01*
X21808Y82236D01*
X21886Y82125D01*
X21958Y81997D01*
X22019Y81853D01*
Y81847D01*
X22025Y81836D01*
X22036Y81814D01*
X22041Y81781D01*
X22058Y81742D01*
X22069Y81697D01*
X22080Y81647D01*
X22097Y81586D01*
X22114Y81525D01*
X22125Y81453D01*
X22152Y81298D01*
X22169Y81126D01*
X22175Y80937D01*
Y80931D01*
Y80920D01*
Y80893D01*
Y80865D01*
X22169Y80826D01*
Y80782D01*
X22163Y80676D01*
X22147Y80554D01*
X22130Y80426D01*
X22102Y80293D01*
X22069Y80160D01*
Y80154D01*
X22064Y80143D01*
X22058Y80127D01*
X22052Y80104D01*
X22030Y80043D01*
X21997Y79966D01*
X21964Y79877D01*
X21919Y79788D01*
X21864Y79694D01*
X21808Y79605D01*
X21803Y79594D01*
X21780Y79566D01*
X21747Y79527D01*
X21703Y79477D01*
X21653Y79422D01*
X21592Y79366D01*
X21531Y79305D01*
X21459Y79255D01*
X21448Y79250D01*
X21425Y79233D01*
X21386Y79211D01*
X21331Y79183D01*
X21264Y79150D01*
X21187Y79122D01*
X21098Y79089D01*
X20998Y79061D01*
X20987D01*
X20970Y79056D01*
X20954Y79050D01*
X20898Y79044D01*
X20820Y79033D01*
X20732Y79022D01*
X20626Y79011D01*
X20510Y79006D01*
X20382Y79000D01*
X19000D01*
Y82841D01*
X20476D01*
X20576Y82835D01*
D02*
G37*
G36*
X24456Y79000D02*
X23984D01*
Y82003D01*
X23978Y81997D01*
X23951Y81975D01*
X23917Y81941D01*
X23862Y81903D01*
X23801Y81853D01*
X23723Y81797D01*
X23634Y81736D01*
X23534Y81675D01*
X23529D01*
X23523Y81670D01*
X23490Y81647D01*
X23435Y81620D01*
X23368Y81586D01*
X23290Y81547D01*
X23207Y81509D01*
X23124Y81470D01*
X23040Y81437D01*
Y81892D01*
X23046D01*
X23057Y81903D01*
X23079Y81908D01*
X23107Y81925D01*
X23140Y81941D01*
X23179Y81964D01*
X23273Y82019D01*
X23384Y82080D01*
X23495Y82158D01*
X23612Y82247D01*
X23729Y82341D01*
X23734Y82347D01*
X23740Y82352D01*
X23756Y82369D01*
X23779Y82385D01*
X23829Y82441D01*
X23895Y82508D01*
X23962Y82585D01*
X24034Y82674D01*
X24095Y82763D01*
X24150Y82857D01*
X24456D01*
Y79000D01*
D02*
G37*
G36*
X34195Y48852D02*
X34239Y48846D01*
X34295Y48841D01*
X34356Y48829D01*
X34417Y48818D01*
X34561Y48780D01*
X34705Y48724D01*
X34778Y48691D01*
X34850Y48652D01*
X34916Y48602D01*
X34977Y48546D01*
X34983Y48541D01*
X34994Y48535D01*
X35005Y48513D01*
X35027Y48491D01*
X35055Y48463D01*
X35083Y48424D01*
X35111Y48386D01*
X35144Y48336D01*
X35199Y48230D01*
X35255Y48097D01*
X35277Y48030D01*
X35288Y47953D01*
X35299Y47875D01*
X35305Y47792D01*
Y47780D01*
Y47753D01*
X35299Y47708D01*
X35294Y47647D01*
X35283Y47581D01*
X35260Y47503D01*
X35238Y47420D01*
X35205Y47337D01*
X35199Y47326D01*
X35188Y47298D01*
X35166Y47253D01*
X35133Y47192D01*
X35088Y47126D01*
X35033Y47042D01*
X34966Y46959D01*
X34888Y46865D01*
X34877Y46854D01*
X34850Y46820D01*
X34822Y46793D01*
X34794Y46765D01*
X34761Y46732D01*
X34716Y46687D01*
X34672Y46643D01*
X34617Y46593D01*
X34561Y46537D01*
X34495Y46476D01*
X34422Y46415D01*
X34345Y46343D01*
X34256Y46271D01*
X34167Y46193D01*
X34161Y46188D01*
X34150Y46177D01*
X34128Y46160D01*
X34100Y46138D01*
X34067Y46104D01*
X34028Y46071D01*
X33939Y45999D01*
X33845Y45916D01*
X33756Y45832D01*
X33679Y45760D01*
X33645Y45733D01*
X33618Y45705D01*
X33612Y45699D01*
X33595Y45683D01*
X33573Y45660D01*
X33545Y45627D01*
X33518Y45588D01*
X33484Y45549D01*
X33418Y45455D01*
X35310D01*
Y45000D01*
X32763D01*
Y45006D01*
Y45028D01*
Y45061D01*
X32768Y45105D01*
X32774Y45155D01*
X32785Y45211D01*
X32796Y45266D01*
X32818Y45327D01*
Y45333D01*
X32824Y45338D01*
X32835Y45372D01*
X32857Y45422D01*
X32891Y45488D01*
X32935Y45566D01*
X32990Y45655D01*
X33051Y45744D01*
X33129Y45838D01*
Y45844D01*
X33140Y45849D01*
X33168Y45882D01*
X33218Y45932D01*
X33290Y46005D01*
X33373Y46088D01*
X33479Y46188D01*
X33606Y46299D01*
X33745Y46415D01*
X33751Y46421D01*
X33773Y46437D01*
X33806Y46465D01*
X33845Y46499D01*
X33895Y46543D01*
X33956Y46593D01*
X34017Y46648D01*
X34089Y46709D01*
X34228Y46843D01*
X34367Y46976D01*
X34433Y47042D01*
X34495Y47109D01*
X34550Y47170D01*
X34594Y47231D01*
Y47237D01*
X34606Y47242D01*
X34617Y47259D01*
X34628Y47281D01*
X34667Y47342D01*
X34711Y47414D01*
X34750Y47503D01*
X34789Y47597D01*
X34811Y47703D01*
X34822Y47803D01*
Y47808D01*
Y47814D01*
X34816Y47847D01*
X34811Y47903D01*
X34794Y47964D01*
X34772Y48041D01*
X34733Y48119D01*
X34683Y48197D01*
X34617Y48274D01*
X34606Y48286D01*
X34578Y48308D01*
X34539Y48336D01*
X34478Y48374D01*
X34400Y48408D01*
X34311Y48441D01*
X34206Y48463D01*
X34089Y48469D01*
X34056D01*
X34034Y48463D01*
X33967Y48458D01*
X33890Y48441D01*
X33806Y48419D01*
X33712Y48380D01*
X33623Y48330D01*
X33540Y48263D01*
X33529Y48252D01*
X33507Y48224D01*
X33473Y48180D01*
X33440Y48114D01*
X33401Y48036D01*
X33368Y47936D01*
X33346Y47825D01*
X33335Y47697D01*
X32852Y47747D01*
Y47753D01*
X32857Y47769D01*
Y47797D01*
X32863Y47836D01*
X32874Y47881D01*
X32885Y47930D01*
X32902Y47991D01*
X32918Y48052D01*
X32963Y48186D01*
X33029Y48319D01*
X33068Y48386D01*
X33118Y48452D01*
X33168Y48513D01*
X33224Y48569D01*
X33229Y48574D01*
X33240Y48580D01*
X33257Y48596D01*
X33285Y48613D01*
X33318Y48635D01*
X33357Y48658D01*
X33401Y48685D01*
X33457Y48713D01*
X33518Y48741D01*
X33584Y48768D01*
X33656Y48791D01*
X33734Y48813D01*
X33817Y48829D01*
X33906Y48846D01*
X34001Y48852D01*
X34100Y48857D01*
X34156D01*
X34195Y48852D01*
D02*
G37*
G36*
X30904Y48902D02*
X30954Y48896D01*
X31015Y48891D01*
X31076Y48885D01*
X31148Y48868D01*
X31298Y48835D01*
X31464Y48785D01*
X31547Y48752D01*
X31625Y48713D01*
X31703Y48663D01*
X31780Y48613D01*
X31786Y48608D01*
X31797Y48602D01*
X31819Y48585D01*
X31847Y48557D01*
X31875Y48530D01*
X31914Y48491D01*
X31953Y48447D01*
X31997Y48402D01*
X32041Y48347D01*
X32086Y48280D01*
X32136Y48213D01*
X32180Y48141D01*
X32219Y48058D01*
X32263Y47975D01*
X32297Y47886D01*
X32330Y47786D01*
X31830Y47670D01*
Y47675D01*
X31825Y47686D01*
X31814Y47708D01*
X31803Y47736D01*
X31792Y47769D01*
X31775Y47814D01*
X31731Y47903D01*
X31675Y48003D01*
X31609Y48102D01*
X31525Y48197D01*
X31436Y48280D01*
X31425Y48291D01*
X31392Y48313D01*
X31337Y48341D01*
X31264Y48380D01*
X31170Y48413D01*
X31065Y48447D01*
X30937Y48469D01*
X30798Y48474D01*
X30754D01*
X30726Y48469D01*
X30687D01*
X30643Y48463D01*
X30537Y48447D01*
X30421Y48424D01*
X30299Y48386D01*
X30171Y48330D01*
X30055Y48258D01*
X30049D01*
X30043Y48247D01*
X30005Y48219D01*
X29955Y48175D01*
X29893Y48108D01*
X29821Y48025D01*
X29755Y47930D01*
X29694Y47814D01*
X29638Y47686D01*
Y47681D01*
X29633Y47670D01*
X29627Y47653D01*
X29622Y47625D01*
X29610Y47592D01*
X29599Y47553D01*
X29583Y47459D01*
X29561Y47348D01*
X29538Y47225D01*
X29527Y47092D01*
X29522Y46948D01*
Y46942D01*
Y46926D01*
Y46898D01*
Y46865D01*
X29527Y46826D01*
Y46776D01*
X29533Y46720D01*
X29538Y46659D01*
X29555Y46526D01*
X29583Y46382D01*
X29616Y46238D01*
X29660Y46093D01*
Y46088D01*
X29666Y46077D01*
X29677Y46060D01*
X29688Y46032D01*
X29722Y45966D01*
X29771Y45888D01*
X29833Y45799D01*
X29910Y45705D01*
X29999Y45622D01*
X30105Y45544D01*
X30110D01*
X30121Y45538D01*
X30138Y45527D01*
X30160Y45516D01*
X30188Y45505D01*
X30221Y45488D01*
X30299Y45455D01*
X30399Y45422D01*
X30510Y45394D01*
X30632Y45372D01*
X30759Y45366D01*
X30798D01*
X30832Y45372D01*
X30870D01*
X30909Y45377D01*
X31009Y45400D01*
X31126Y45427D01*
X31242Y45472D01*
X31364Y45533D01*
X31425Y45566D01*
X31481Y45610D01*
X31486Y45616D01*
X31492Y45622D01*
X31509Y45638D01*
X31531Y45655D01*
X31553Y45683D01*
X31581Y45716D01*
X31614Y45749D01*
X31642Y45794D01*
X31675Y45844D01*
X31714Y45899D01*
X31747Y45955D01*
X31780Y46021D01*
X31808Y46093D01*
X31836Y46171D01*
X31864Y46254D01*
X31886Y46343D01*
X32397Y46215D01*
Y46210D01*
X32391Y46188D01*
X32380Y46154D01*
X32363Y46110D01*
X32347Y46060D01*
X32324Y45999D01*
X32297Y45932D01*
X32263Y45860D01*
X32186Y45705D01*
X32086Y45549D01*
X32025Y45472D01*
X31964Y45394D01*
X31897Y45327D01*
X31819Y45261D01*
X31814Y45255D01*
X31803Y45244D01*
X31775Y45233D01*
X31747Y45211D01*
X31703Y45183D01*
X31658Y45155D01*
X31597Y45128D01*
X31536Y45100D01*
X31464Y45067D01*
X31387Y45039D01*
X31303Y45011D01*
X31214Y44983D01*
X31120Y44961D01*
X31020Y44950D01*
X30915Y44939D01*
X30804Y44933D01*
X30743D01*
X30698Y44939D01*
X30648D01*
X30587Y44945D01*
X30521Y44956D01*
X30443Y44967D01*
X30282Y44995D01*
X30116Y45039D01*
X29949Y45100D01*
X29871Y45139D01*
X29794Y45183D01*
X29788Y45189D01*
X29777Y45194D01*
X29755Y45211D01*
X29733Y45233D01*
X29699Y45255D01*
X29660Y45289D01*
X29616Y45327D01*
X29572Y45372D01*
X29527Y45422D01*
X29477Y45472D01*
X29377Y45599D01*
X29283Y45749D01*
X29200Y45916D01*
Y45921D01*
X29189Y45938D01*
X29183Y45966D01*
X29166Y45999D01*
X29155Y46043D01*
X29139Y46099D01*
X29117Y46160D01*
X29100Y46227D01*
X29083Y46299D01*
X29061Y46382D01*
X29033Y46554D01*
X29011Y46748D01*
X29000Y46948D01*
Y46954D01*
Y46976D01*
Y47009D01*
X29006Y47048D01*
Y47103D01*
X29011Y47159D01*
X29017Y47231D01*
X29028Y47303D01*
X29056Y47464D01*
X29094Y47642D01*
X29150Y47819D01*
X29228Y47991D01*
X29233Y47997D01*
X29239Y48014D01*
X29250Y48036D01*
X29272Y48064D01*
X29294Y48102D01*
X29322Y48147D01*
X29394Y48247D01*
X29488Y48358D01*
X29599Y48469D01*
X29727Y48580D01*
X29877Y48674D01*
X29882Y48680D01*
X29899Y48685D01*
X29921Y48696D01*
X29949Y48713D01*
X29994Y48730D01*
X30038Y48746D01*
X30093Y48768D01*
X30154Y48791D01*
X30221Y48813D01*
X30293Y48835D01*
X30449Y48868D01*
X30626Y48896D01*
X30809Y48907D01*
X30865D01*
X30904Y48902D01*
D02*
G37*
G36*
X20826Y76835D02*
X20876D01*
X20992Y76829D01*
X21114Y76813D01*
X21248Y76796D01*
X21370Y76768D01*
X21431Y76752D01*
X21481Y76735D01*
X21486D01*
X21492Y76730D01*
X21525Y76713D01*
X21575Y76691D01*
X21636Y76652D01*
X21703Y76602D01*
X21775Y76535D01*
X21842Y76458D01*
X21908Y76369D01*
Y76363D01*
X21914Y76358D01*
X21936Y76324D01*
X21958Y76269D01*
X21992Y76197D01*
X22019Y76113D01*
X22047Y76014D01*
X22064Y75908D01*
X22069Y75792D01*
Y75786D01*
Y75775D01*
Y75753D01*
X22064Y75725D01*
Y75686D01*
X22058Y75647D01*
X22036Y75553D01*
X22003Y75442D01*
X21958Y75326D01*
X21892Y75209D01*
X21847Y75153D01*
X21803Y75098D01*
X21797Y75092D01*
X21792Y75087D01*
X21775Y75070D01*
X21753Y75054D01*
X21725Y75031D01*
X21692Y75009D01*
X21647Y74981D01*
X21603Y74948D01*
X21547Y74920D01*
X21486Y74893D01*
X21420Y74859D01*
X21348Y74831D01*
X21264Y74809D01*
X21181Y74782D01*
X21087Y74765D01*
X20987Y74748D01*
X20998Y74743D01*
X21020Y74732D01*
X21054Y74709D01*
X21098Y74687D01*
X21198Y74626D01*
X21248Y74587D01*
X21292Y74554D01*
X21303Y74543D01*
X21331Y74515D01*
X21375Y74471D01*
X21431Y74415D01*
X21492Y74338D01*
X21564Y74254D01*
X21636Y74154D01*
X21714Y74043D01*
X22374Y73000D01*
X21742D01*
X21237Y73799D01*
Y73805D01*
X21226Y73816D01*
X21214Y73832D01*
X21198Y73855D01*
X21159Y73916D01*
X21109Y73993D01*
X21048Y74077D01*
X20987Y74165D01*
X20926Y74249D01*
X20870Y74326D01*
X20865Y74332D01*
X20848Y74354D01*
X20820Y74388D01*
X20782Y74426D01*
X20698Y74510D01*
X20654Y74549D01*
X20609Y74582D01*
X20604Y74587D01*
X20593Y74593D01*
X20571Y74604D01*
X20537Y74621D01*
X20504Y74637D01*
X20465Y74654D01*
X20376Y74682D01*
X20371D01*
X20360Y74687D01*
X20337D01*
X20310Y74693D01*
X20271Y74698D01*
X20227D01*
X20166Y74704D01*
X19511D01*
Y73000D01*
X19000D01*
Y76841D01*
X20782D01*
X20826Y76835D01*
D02*
G37*
G36*
X100045Y82852D02*
X100089Y82846D01*
X100145Y82841D01*
X100206Y82829D01*
X100267Y82818D01*
X100411Y82780D01*
X100556Y82724D01*
X100628Y82691D01*
X100700Y82652D01*
X100766Y82602D01*
X100828Y82547D01*
X100833Y82541D01*
X100844Y82535D01*
X100855Y82513D01*
X100877Y82491D01*
X100905Y82463D01*
X100933Y82424D01*
X100961Y82385D01*
X100994Y82336D01*
X101049Y82230D01*
X101105Y82097D01*
X101127Y82030D01*
X101138Y81953D01*
X101149Y81875D01*
X101155Y81792D01*
Y81781D01*
Y81753D01*
X101149Y81708D01*
X101144Y81647D01*
X101133Y81581D01*
X101111Y81503D01*
X101088Y81420D01*
X101055Y81336D01*
X101049Y81326D01*
X101038Y81298D01*
X101016Y81253D01*
X100983Y81192D01*
X100938Y81126D01*
X100883Y81042D01*
X100816Y80959D01*
X100739Y80865D01*
X100728Y80854D01*
X100700Y80820D01*
X100672Y80793D01*
X100644Y80765D01*
X100611Y80732D01*
X100567Y80687D01*
X100522Y80643D01*
X100467Y80593D01*
X100411Y80537D01*
X100345Y80476D01*
X100273Y80415D01*
X100195Y80343D01*
X100106Y80271D01*
X100017Y80193D01*
X100012Y80188D01*
X100001Y80177D01*
X99978Y80160D01*
X99951Y80138D01*
X99917Y80104D01*
X99878Y80071D01*
X99790Y79999D01*
X99695Y79916D01*
X99607Y79833D01*
X99529Y79760D01*
X99496Y79733D01*
X99468Y79705D01*
X99462Y79699D01*
X99446Y79683D01*
X99423Y79660D01*
X99396Y79627D01*
X99368Y79588D01*
X99335Y79549D01*
X99268Y79455D01*
X101161D01*
Y79000D01*
X98613D01*
Y79006D01*
Y79028D01*
Y79061D01*
X98619Y79105D01*
X98624Y79155D01*
X98635Y79211D01*
X98646Y79266D01*
X98669Y79327D01*
Y79333D01*
X98674Y79339D01*
X98685Y79372D01*
X98707Y79422D01*
X98741Y79488D01*
X98785Y79566D01*
X98841Y79655D01*
X98902Y79744D01*
X98979Y79838D01*
Y79844D01*
X98990Y79849D01*
X99018Y79882D01*
X99068Y79932D01*
X99140Y80005D01*
X99224Y80088D01*
X99329Y80188D01*
X99457Y80299D01*
X99595Y80415D01*
X99601Y80421D01*
X99623Y80437D01*
X99656Y80465D01*
X99695Y80498D01*
X99745Y80543D01*
X99806Y80593D01*
X99867Y80648D01*
X99940Y80709D01*
X100078Y80843D01*
X100217Y80976D01*
X100284Y81042D01*
X100345Y81109D01*
X100400Y81170D01*
X100445Y81231D01*
Y81237D01*
X100456Y81242D01*
X100467Y81259D01*
X100478Y81281D01*
X100517Y81342D01*
X100561Y81414D01*
X100600Y81503D01*
X100639Y81597D01*
X100661Y81703D01*
X100672Y81803D01*
Y81808D01*
Y81814D01*
X100666Y81847D01*
X100661Y81903D01*
X100644Y81964D01*
X100622Y82041D01*
X100583Y82119D01*
X100533Y82197D01*
X100467Y82275D01*
X100456Y82286D01*
X100428Y82308D01*
X100389Y82336D01*
X100328Y82374D01*
X100250Y82408D01*
X100162Y82441D01*
X100056Y82463D01*
X99940Y82469D01*
X99906D01*
X99884Y82463D01*
X99817Y82458D01*
X99740Y82441D01*
X99656Y82419D01*
X99562Y82380D01*
X99473Y82330D01*
X99390Y82263D01*
X99379Y82252D01*
X99357Y82225D01*
X99323Y82180D01*
X99290Y82113D01*
X99251Y82036D01*
X99218Y81936D01*
X99196Y81825D01*
X99185Y81697D01*
X98702Y81747D01*
Y81753D01*
X98707Y81769D01*
Y81797D01*
X98713Y81836D01*
X98724Y81880D01*
X98735Y81930D01*
X98752Y81991D01*
X98768Y82052D01*
X98813Y82186D01*
X98879Y82319D01*
X98918Y82385D01*
X98968Y82452D01*
X99018Y82513D01*
X99074Y82569D01*
X99079Y82574D01*
X99090Y82580D01*
X99107Y82596D01*
X99135Y82613D01*
X99168Y82635D01*
X99207Y82657D01*
X99251Y82685D01*
X99307Y82713D01*
X99368Y82741D01*
X99435Y82768D01*
X99507Y82791D01*
X99584Y82813D01*
X99668Y82829D01*
X99756Y82846D01*
X99851Y82852D01*
X99951Y82857D01*
X100006D01*
X100045Y82852D01*
D02*
G37*
G36*
X90605Y41000D02*
X90134D01*
Y44003D01*
X90128Y43997D01*
X90101Y43975D01*
X90067Y43942D01*
X90012Y43903D01*
X89951Y43853D01*
X89873Y43797D01*
X89784Y43736D01*
X89684Y43675D01*
X89679D01*
X89673Y43670D01*
X89640Y43647D01*
X89584Y43620D01*
X89518Y43586D01*
X89440Y43547D01*
X89357Y43509D01*
X89274Y43470D01*
X89190Y43437D01*
Y43892D01*
X89196D01*
X89207Y43903D01*
X89229Y43908D01*
X89257Y43925D01*
X89290Y43942D01*
X89329Y43964D01*
X89423Y44019D01*
X89534Y44080D01*
X89645Y44158D01*
X89762Y44247D01*
X89878Y44341D01*
X89884Y44347D01*
X89890Y44352D01*
X89906Y44369D01*
X89928Y44385D01*
X89978Y44441D01*
X90045Y44508D01*
X90112Y44585D01*
X90184Y44674D01*
X90245Y44763D01*
X90300Y44857D01*
X90605D01*
Y41000D01*
D02*
G37*
G36*
X86904Y44902D02*
X86954Y44896D01*
X87015Y44891D01*
X87076Y44885D01*
X87148Y44868D01*
X87298Y44835D01*
X87464Y44785D01*
X87547Y44752D01*
X87625Y44713D01*
X87703Y44663D01*
X87781Y44613D01*
X87786Y44607D01*
X87797Y44602D01*
X87819Y44585D01*
X87847Y44557D01*
X87875Y44530D01*
X87914Y44491D01*
X87953Y44447D01*
X87997Y44402D01*
X88041Y44347D01*
X88086Y44280D01*
X88136Y44214D01*
X88180Y44141D01*
X88219Y44058D01*
X88263Y43975D01*
X88297Y43886D01*
X88330Y43786D01*
X87831Y43670D01*
Y43675D01*
X87825Y43686D01*
X87814Y43708D01*
X87803Y43736D01*
X87792Y43769D01*
X87775Y43814D01*
X87731Y43903D01*
X87675Y44003D01*
X87608Y44102D01*
X87525Y44197D01*
X87436Y44280D01*
X87425Y44291D01*
X87392Y44313D01*
X87336Y44341D01*
X87264Y44380D01*
X87170Y44413D01*
X87065Y44447D01*
X86937Y44469D01*
X86798Y44474D01*
X86754D01*
X86726Y44469D01*
X86687D01*
X86643Y44463D01*
X86537Y44447D01*
X86421Y44424D01*
X86299Y44385D01*
X86171Y44330D01*
X86054Y44258D01*
X86049D01*
X86043Y44247D01*
X86005Y44219D01*
X85955Y44175D01*
X85894Y44108D01*
X85821Y44025D01*
X85755Y43930D01*
X85694Y43814D01*
X85638Y43686D01*
Y43681D01*
X85633Y43670D01*
X85627Y43653D01*
X85622Y43625D01*
X85611Y43592D01*
X85599Y43553D01*
X85583Y43459D01*
X85561Y43348D01*
X85538Y43225D01*
X85527Y43092D01*
X85522Y42948D01*
Y42943D01*
Y42926D01*
Y42898D01*
Y42865D01*
X85527Y42826D01*
Y42776D01*
X85533Y42720D01*
X85538Y42659D01*
X85555Y42526D01*
X85583Y42382D01*
X85616Y42238D01*
X85660Y42093D01*
Y42088D01*
X85666Y42077D01*
X85677Y42060D01*
X85688Y42032D01*
X85721Y41966D01*
X85772Y41888D01*
X85833Y41799D01*
X85910Y41705D01*
X85999Y41622D01*
X86104Y41544D01*
X86110D01*
X86121Y41538D01*
X86138Y41527D01*
X86160Y41516D01*
X86188Y41505D01*
X86221Y41488D01*
X86299Y41455D01*
X86399Y41422D01*
X86510Y41394D01*
X86632Y41372D01*
X86759Y41366D01*
X86798D01*
X86831Y41372D01*
X86870D01*
X86909Y41377D01*
X87009Y41400D01*
X87126Y41427D01*
X87242Y41472D01*
X87364Y41533D01*
X87425Y41566D01*
X87481Y41611D01*
X87486Y41616D01*
X87492Y41622D01*
X87509Y41638D01*
X87531Y41655D01*
X87553Y41683D01*
X87581Y41716D01*
X87614Y41749D01*
X87642Y41794D01*
X87675Y41844D01*
X87714Y41899D01*
X87747Y41955D01*
X87781Y42021D01*
X87808Y42093D01*
X87836Y42171D01*
X87864Y42254D01*
X87886Y42343D01*
X88397Y42215D01*
Y42210D01*
X88391Y42188D01*
X88380Y42154D01*
X88363Y42110D01*
X88347Y42060D01*
X88324Y41999D01*
X88297Y41932D01*
X88263Y41860D01*
X88186Y41705D01*
X88086Y41550D01*
X88025Y41472D01*
X87964Y41394D01*
X87897Y41327D01*
X87819Y41261D01*
X87814Y41255D01*
X87803Y41244D01*
X87775Y41233D01*
X87747Y41211D01*
X87703Y41183D01*
X87659Y41155D01*
X87597Y41128D01*
X87536Y41100D01*
X87464Y41067D01*
X87387Y41039D01*
X87303Y41011D01*
X87214Y40983D01*
X87120Y40961D01*
X87020Y40950D01*
X86915Y40939D01*
X86804Y40933D01*
X86743D01*
X86698Y40939D01*
X86648D01*
X86587Y40944D01*
X86521Y40956D01*
X86443Y40967D01*
X86282Y40995D01*
X86115Y41039D01*
X85949Y41100D01*
X85871Y41139D01*
X85794Y41183D01*
X85788Y41189D01*
X85777Y41194D01*
X85755Y41211D01*
X85733Y41233D01*
X85699Y41255D01*
X85660Y41289D01*
X85616Y41327D01*
X85572Y41372D01*
X85527Y41422D01*
X85477Y41472D01*
X85377Y41599D01*
X85283Y41749D01*
X85200Y41916D01*
Y41921D01*
X85189Y41938D01*
X85183Y41966D01*
X85167Y41999D01*
X85155Y42043D01*
X85139Y42099D01*
X85116Y42160D01*
X85100Y42226D01*
X85083Y42299D01*
X85061Y42382D01*
X85033Y42554D01*
X85011Y42748D01*
X85000Y42948D01*
Y42954D01*
Y42976D01*
Y43009D01*
X85006Y43048D01*
Y43103D01*
X85011Y43159D01*
X85017Y43231D01*
X85028Y43303D01*
X85056Y43464D01*
X85094Y43642D01*
X85150Y43819D01*
X85228Y43991D01*
X85233Y43997D01*
X85239Y44014D01*
X85250Y44036D01*
X85272Y44064D01*
X85294Y44102D01*
X85322Y44147D01*
X85394Y44247D01*
X85488Y44358D01*
X85599Y44469D01*
X85727Y44580D01*
X85877Y44674D01*
X85882Y44680D01*
X85899Y44685D01*
X85921Y44696D01*
X85949Y44713D01*
X85993Y44730D01*
X86038Y44746D01*
X86093Y44769D01*
X86154Y44791D01*
X86221Y44813D01*
X86293Y44835D01*
X86449Y44868D01*
X86626Y44896D01*
X86809Y44907D01*
X86865D01*
X86904Y44902D01*
D02*
G37*
G36*
X96826Y76835D02*
X96876D01*
X96992Y76829D01*
X97114Y76813D01*
X97248Y76796D01*
X97370Y76768D01*
X97431Y76752D01*
X97481Y76735D01*
X97486D01*
X97492Y76730D01*
X97525Y76713D01*
X97575Y76691D01*
X97636Y76652D01*
X97703Y76602D01*
X97775Y76535D01*
X97842Y76458D01*
X97908Y76369D01*
Y76363D01*
X97914Y76358D01*
X97936Y76324D01*
X97958Y76269D01*
X97991Y76197D01*
X98019Y76113D01*
X98047Y76014D01*
X98064Y75908D01*
X98069Y75792D01*
Y75786D01*
Y75775D01*
Y75753D01*
X98064Y75725D01*
Y75686D01*
X98058Y75647D01*
X98036Y75553D01*
X98002Y75442D01*
X97958Y75326D01*
X97891Y75209D01*
X97847Y75153D01*
X97803Y75098D01*
X97797Y75092D01*
X97792Y75087D01*
X97775Y75070D01*
X97753Y75054D01*
X97725Y75031D01*
X97692Y75009D01*
X97647Y74981D01*
X97603Y74948D01*
X97548Y74920D01*
X97486Y74893D01*
X97420Y74859D01*
X97348Y74831D01*
X97264Y74809D01*
X97181Y74782D01*
X97087Y74765D01*
X96987Y74748D01*
X96998Y74743D01*
X97020Y74732D01*
X97053Y74709D01*
X97098Y74687D01*
X97198Y74626D01*
X97248Y74587D01*
X97292Y74554D01*
X97303Y74543D01*
X97331Y74515D01*
X97375Y74471D01*
X97431Y74415D01*
X97492Y74338D01*
X97564Y74254D01*
X97636Y74154D01*
X97714Y74043D01*
X98374Y73000D01*
X97742D01*
X97237Y73799D01*
Y73805D01*
X97225Y73816D01*
X97214Y73832D01*
X97198Y73855D01*
X97159Y73916D01*
X97109Y73993D01*
X97048Y74077D01*
X96987Y74165D01*
X96926Y74249D01*
X96870Y74326D01*
X96865Y74332D01*
X96848Y74354D01*
X96820Y74388D01*
X96782Y74426D01*
X96698Y74510D01*
X96654Y74549D01*
X96609Y74582D01*
X96604Y74587D01*
X96593Y74593D01*
X96571Y74604D01*
X96537Y74621D01*
X96504Y74637D01*
X96465Y74654D01*
X96376Y74682D01*
X96371D01*
X96360Y74687D01*
X96337D01*
X96310Y74693D01*
X96271Y74698D01*
X96227D01*
X96166Y74704D01*
X95511D01*
Y73000D01*
X95000D01*
Y76841D01*
X96782D01*
X96826Y76835D01*
D02*
G37*
G36*
X100111Y76852D02*
X100150D01*
X100195Y76846D01*
X100300Y76824D01*
X100417Y76796D01*
X100539Y76752D01*
X100661Y76685D01*
X100722Y76646D01*
X100777Y76602D01*
X100783Y76596D01*
X100789Y76591D01*
X100805Y76574D01*
X100822Y76558D01*
X100850Y76530D01*
X100872Y76496D01*
X100933Y76419D01*
X100994Y76319D01*
X101049Y76197D01*
X101100Y76058D01*
X101133Y75903D01*
X100661Y75864D01*
Y75869D01*
X100655Y75875D01*
X100650Y75908D01*
X100633Y75958D01*
X100611Y76019D01*
X100589Y76086D01*
X100556Y76152D01*
X100517Y76214D01*
X100478Y76263D01*
X100467Y76275D01*
X100445Y76297D01*
X100406Y76330D01*
X100350Y76369D01*
X100278Y76402D01*
X100200Y76436D01*
X100106Y76458D01*
X100006Y76469D01*
X99967D01*
X99923Y76463D01*
X99873Y76452D01*
X99806Y76436D01*
X99740Y76413D01*
X99673Y76385D01*
X99607Y76341D01*
X99595Y76336D01*
X99568Y76313D01*
X99529Y76275D01*
X99479Y76219D01*
X99423Y76152D01*
X99362Y76075D01*
X99307Y75975D01*
X99251Y75864D01*
Y75858D01*
X99246Y75847D01*
X99240Y75831D01*
X99229Y75808D01*
X99224Y75775D01*
X99212Y75736D01*
X99201Y75692D01*
X99190Y75636D01*
X99174Y75575D01*
X99163Y75509D01*
X99151Y75437D01*
X99146Y75359D01*
X99135Y75270D01*
X99129Y75181D01*
X99124Y75081D01*
Y74981D01*
X99129Y74987D01*
X99151Y75020D01*
X99190Y75065D01*
X99240Y75120D01*
X99296Y75187D01*
X99368Y75248D01*
X99446Y75309D01*
X99534Y75364D01*
X99540D01*
X99546Y75370D01*
X99579Y75387D01*
X99629Y75403D01*
X99695Y75431D01*
X99773Y75453D01*
X99862Y75470D01*
X99956Y75486D01*
X100056Y75492D01*
X100101D01*
X100134Y75486D01*
X100178Y75481D01*
X100223Y75475D01*
X100278Y75464D01*
X100334Y75448D01*
X100461Y75409D01*
X100528Y75381D01*
X100594Y75342D01*
X100661Y75303D01*
X100733Y75259D01*
X100800Y75203D01*
X100861Y75142D01*
X100866Y75137D01*
X100877Y75126D01*
X100894Y75109D01*
X100911Y75081D01*
X100938Y75042D01*
X100966Y75003D01*
X100994Y74954D01*
X101027Y74898D01*
X101061Y74837D01*
X101088Y74770D01*
X101116Y74693D01*
X101144Y74615D01*
X101161Y74532D01*
X101177Y74437D01*
X101188Y74343D01*
X101194Y74243D01*
Y74238D01*
Y74226D01*
Y74210D01*
Y74182D01*
X101188Y74149D01*
Y74116D01*
X101172Y74027D01*
X101155Y73921D01*
X101127Y73810D01*
X101088Y73688D01*
X101033Y73572D01*
Y73566D01*
X101027Y73561D01*
X101016Y73544D01*
X101005Y73522D01*
X100972Y73466D01*
X100922Y73394D01*
X100861Y73316D01*
X100789Y73239D01*
X100700Y73161D01*
X100605Y73094D01*
X100600D01*
X100594Y73089D01*
X100578Y73078D01*
X100556Y73072D01*
X100500Y73044D01*
X100428Y73017D01*
X100334Y72983D01*
X100228Y72961D01*
X100111Y72939D01*
X99984Y72933D01*
X99956D01*
X99928Y72939D01*
X99884D01*
X99834Y72944D01*
X99778Y72956D01*
X99712Y72972D01*
X99645Y72989D01*
X99568Y73011D01*
X99490Y73039D01*
X99412Y73072D01*
X99329Y73116D01*
X99251Y73167D01*
X99174Y73222D01*
X99096Y73289D01*
X99024Y73366D01*
X99018Y73372D01*
X99007Y73388D01*
X98990Y73411D01*
X98968Y73449D01*
X98935Y73500D01*
X98907Y73555D01*
X98874Y73627D01*
X98841Y73705D01*
X98802Y73799D01*
X98768Y73905D01*
X98741Y74021D01*
X98713Y74149D01*
X98685Y74293D01*
X98669Y74449D01*
X98657Y74615D01*
X98652Y74793D01*
Y74798D01*
Y74804D01*
Y74820D01*
Y74843D01*
X98657Y74898D01*
Y74976D01*
X98663Y75065D01*
X98674Y75170D01*
X98685Y75287D01*
X98702Y75414D01*
X98724Y75542D01*
X98752Y75681D01*
X98785Y75814D01*
X98824Y75947D01*
X98874Y76075D01*
X98929Y76197D01*
X98990Y76313D01*
X99063Y76413D01*
X99068Y76419D01*
X99079Y76430D01*
X99101Y76452D01*
X99129Y76485D01*
X99163Y76519D01*
X99207Y76552D01*
X99262Y76596D01*
X99318Y76635D01*
X99384Y76674D01*
X99457Y76718D01*
X99540Y76752D01*
X99623Y76791D01*
X99717Y76818D01*
X99817Y76841D01*
X99923Y76852D01*
X100034Y76857D01*
X100078D01*
X100111Y76852D01*
D02*
G37*
G36*
X96576Y82835D02*
X96687Y82829D01*
X96798Y82818D01*
X96909Y82802D01*
X97004Y82785D01*
X97009D01*
X97020Y82780D01*
X97037D01*
X97059Y82768D01*
X97120Y82752D01*
X97198Y82724D01*
X97287Y82685D01*
X97381Y82635D01*
X97475Y82580D01*
X97564Y82508D01*
X97570Y82502D01*
X97575Y82497D01*
X97592Y82480D01*
X97614Y82463D01*
X97670Y82408D01*
X97736Y82330D01*
X97808Y82236D01*
X97886Y82125D01*
X97958Y81997D01*
X98019Y81853D01*
Y81847D01*
X98025Y81836D01*
X98036Y81814D01*
X98041Y81781D01*
X98058Y81742D01*
X98069Y81697D01*
X98080Y81647D01*
X98097Y81586D01*
X98114Y81525D01*
X98125Y81453D01*
X98152Y81298D01*
X98169Y81126D01*
X98175Y80937D01*
Y80931D01*
Y80920D01*
Y80893D01*
Y80865D01*
X98169Y80826D01*
Y80782D01*
X98163Y80676D01*
X98147Y80554D01*
X98130Y80426D01*
X98102Y80293D01*
X98069Y80160D01*
Y80154D01*
X98064Y80143D01*
X98058Y80127D01*
X98053Y80104D01*
X98030Y80043D01*
X97997Y79966D01*
X97964Y79877D01*
X97919Y79788D01*
X97864Y79694D01*
X97808Y79605D01*
X97803Y79594D01*
X97781Y79566D01*
X97747Y79527D01*
X97703Y79477D01*
X97653Y79422D01*
X97592Y79366D01*
X97531Y79305D01*
X97459Y79255D01*
X97448Y79250D01*
X97425Y79233D01*
X97386Y79211D01*
X97331Y79183D01*
X97264Y79150D01*
X97187Y79122D01*
X97098Y79089D01*
X96998Y79061D01*
X96987D01*
X96970Y79056D01*
X96954Y79050D01*
X96898Y79044D01*
X96820Y79033D01*
X96732Y79022D01*
X96626Y79011D01*
X96510Y79006D01*
X96382Y79000D01*
X95000D01*
Y82841D01*
X96476D01*
X96576Y82835D01*
D02*
G37*
G36*
X53019Y43621D02*
Y43615D01*
Y43593D01*
Y43565D01*
Y43526D01*
X53014Y43476D01*
Y43421D01*
X53008Y43354D01*
X53003Y43288D01*
X52986Y43138D01*
X52964Y42982D01*
X52930Y42832D01*
X52908Y42760D01*
X52886Y42694D01*
Y42688D01*
X52880Y42677D01*
X52869Y42660D01*
X52858Y42638D01*
X52825Y42577D01*
X52775Y42500D01*
X52708Y42411D01*
X52631Y42322D01*
X52531Y42228D01*
X52409Y42144D01*
X52403D01*
X52392Y42133D01*
X52375Y42128D01*
X52348Y42111D01*
X52314Y42094D01*
X52270Y42078D01*
X52226Y42061D01*
X52170Y42039D01*
X52109Y42017D01*
X52042Y42000D01*
X51970Y41983D01*
X51887Y41967D01*
X51804Y41956D01*
X51715Y41945D01*
X51515Y41933D01*
X51465D01*
X51426Y41939D01*
X51382D01*
X51326Y41945D01*
X51265Y41950D01*
X51204Y41956D01*
X51066Y41978D01*
X50916Y42011D01*
X50771Y42055D01*
X50633Y42117D01*
X50627D01*
X50616Y42128D01*
X50599Y42139D01*
X50577Y42150D01*
X50516Y42194D01*
X50444Y42255D01*
X50361Y42333D01*
X50283Y42422D01*
X50205Y42533D01*
X50144Y42655D01*
Y42660D01*
X50139Y42672D01*
X50133Y42694D01*
X50122Y42722D01*
X50111Y42755D01*
X50100Y42799D01*
X50083Y42849D01*
X50072Y42910D01*
X50061Y42977D01*
X50044Y43049D01*
X50033Y43127D01*
X50022Y43210D01*
X50011Y43304D01*
X50006Y43404D01*
X50000Y43510D01*
Y43621D01*
Y45841D01*
X50511D01*
Y43621D01*
Y43615D01*
Y43598D01*
Y43571D01*
Y43537D01*
X50516Y43499D01*
Y43449D01*
X50522Y43343D01*
X50533Y43221D01*
X50550Y43099D01*
X50572Y42982D01*
X50583Y42932D01*
X50599Y42882D01*
X50605Y42871D01*
X50616Y42844D01*
X50644Y42805D01*
X50677Y42749D01*
X50716Y42694D01*
X50771Y42633D01*
X50838Y42572D01*
X50916Y42522D01*
X50927Y42516D01*
X50955Y42500D01*
X51005Y42483D01*
X51071Y42461D01*
X51149Y42433D01*
X51249Y42416D01*
X51354Y42400D01*
X51471Y42394D01*
X51526D01*
X51560Y42400D01*
X51609D01*
X51660Y42405D01*
X51782Y42427D01*
X51915Y42455D01*
X52042Y42500D01*
X52165Y42561D01*
X52220Y42599D01*
X52270Y42644D01*
X52276Y42649D01*
X52281Y42655D01*
X52292Y42672D01*
X52309Y42694D01*
X52325Y42727D01*
X52348Y42760D01*
X52370Y42810D01*
X52392Y42860D01*
X52414Y42921D01*
X52431Y42994D01*
X52453Y43077D01*
X52470Y43165D01*
X52486Y43265D01*
X52498Y43371D01*
X52509Y43493D01*
Y43621D01*
Y45841D01*
X53019D01*
Y43621D01*
D02*
G37*
G36*
X102129Y68852D02*
X102174Y68846D01*
X102229Y68841D01*
X102290Y68830D01*
X102351Y68818D01*
X102496Y68779D01*
X102640Y68724D01*
X102712Y68691D01*
X102784Y68652D01*
X102851Y68602D01*
X102912Y68546D01*
X102917Y68541D01*
X102928Y68535D01*
X102939Y68513D01*
X102962Y68491D01*
X102989Y68463D01*
X103017Y68424D01*
X103045Y68385D01*
X103078Y68336D01*
X103134Y68230D01*
X103189Y68097D01*
X103211Y68030D01*
X103223Y67953D01*
X103234Y67875D01*
X103239Y67792D01*
Y67781D01*
Y67753D01*
X103234Y67708D01*
X103228Y67647D01*
X103217Y67581D01*
X103195Y67503D01*
X103173Y67420D01*
X103139Y67336D01*
X103134Y67326D01*
X103123Y67298D01*
X103101Y67253D01*
X103067Y67192D01*
X103023Y67126D01*
X102967Y67042D01*
X102901Y66959D01*
X102823Y66865D01*
X102812Y66854D01*
X102784Y66820D01*
X102756Y66793D01*
X102729Y66765D01*
X102695Y66732D01*
X102651Y66687D01*
X102606Y66643D01*
X102551Y66593D01*
X102496Y66537D01*
X102429Y66476D01*
X102357Y66415D01*
X102279Y66343D01*
X102190Y66271D01*
X102101Y66193D01*
X102096Y66188D01*
X102085Y66177D01*
X102063Y66160D01*
X102035Y66138D01*
X102002Y66104D01*
X101963Y66071D01*
X101874Y65999D01*
X101779Y65916D01*
X101691Y65833D01*
X101613Y65760D01*
X101580Y65733D01*
X101552Y65705D01*
X101547Y65699D01*
X101530Y65683D01*
X101508Y65661D01*
X101480Y65627D01*
X101452Y65588D01*
X101419Y65549D01*
X101352Y65455D01*
X103245D01*
Y65000D01*
X100697D01*
Y65006D01*
Y65028D01*
Y65061D01*
X100703Y65105D01*
X100708Y65155D01*
X100719Y65211D01*
X100731Y65266D01*
X100753Y65327D01*
Y65333D01*
X100758Y65338D01*
X100769Y65372D01*
X100792Y65422D01*
X100825Y65488D01*
X100869Y65566D01*
X100925Y65655D01*
X100986Y65744D01*
X101064Y65838D01*
Y65844D01*
X101075Y65849D01*
X101102Y65882D01*
X101152Y65932D01*
X101225Y66005D01*
X101308Y66088D01*
X101413Y66188D01*
X101541Y66299D01*
X101680Y66415D01*
X101685Y66421D01*
X101707Y66438D01*
X101741Y66465D01*
X101779Y66499D01*
X101830Y66543D01*
X101891Y66593D01*
X101952Y66648D01*
X102024Y66709D01*
X102163Y66843D01*
X102301Y66976D01*
X102368Y67042D01*
X102429Y67109D01*
X102484Y67170D01*
X102529Y67231D01*
Y67237D01*
X102540Y67242D01*
X102551Y67259D01*
X102562Y67281D01*
X102601Y67342D01*
X102645Y67414D01*
X102684Y67503D01*
X102723Y67597D01*
X102745Y67703D01*
X102756Y67803D01*
Y67808D01*
Y67814D01*
X102751Y67847D01*
X102745Y67903D01*
X102729Y67964D01*
X102706Y68041D01*
X102668Y68119D01*
X102618Y68197D01*
X102551Y68274D01*
X102540Y68286D01*
X102512Y68308D01*
X102473Y68336D01*
X102412Y68374D01*
X102335Y68408D01*
X102246Y68441D01*
X102140Y68463D01*
X102024Y68469D01*
X101990D01*
X101968Y68463D01*
X101902Y68458D01*
X101824Y68441D01*
X101741Y68419D01*
X101646Y68380D01*
X101558Y68330D01*
X101474Y68263D01*
X101463Y68252D01*
X101441Y68225D01*
X101408Y68180D01*
X101374Y68113D01*
X101336Y68036D01*
X101302Y67936D01*
X101280Y67825D01*
X101269Y67697D01*
X100786Y67747D01*
Y67753D01*
X100792Y67769D01*
Y67797D01*
X100797Y67836D01*
X100808Y67880D01*
X100819Y67930D01*
X100836Y67991D01*
X100853Y68053D01*
X100897Y68186D01*
X100964Y68319D01*
X101003Y68385D01*
X101052Y68452D01*
X101102Y68513D01*
X101158Y68569D01*
X101163Y68574D01*
X101175Y68580D01*
X101191Y68596D01*
X101219Y68613D01*
X101252Y68635D01*
X101291Y68657D01*
X101336Y68685D01*
X101391Y68713D01*
X101452Y68741D01*
X101519Y68768D01*
X101591Y68791D01*
X101669Y68813D01*
X101752Y68830D01*
X101841Y68846D01*
X101935Y68852D01*
X102035Y68857D01*
X102090D01*
X102129Y68852D01*
D02*
G37*
G36*
X100126Y66221D02*
Y66215D01*
Y66199D01*
Y66177D01*
Y66143D01*
X100120Y66099D01*
Y66054D01*
X100109Y65949D01*
X100098Y65827D01*
X100076Y65699D01*
X100042Y65583D01*
X100004Y65472D01*
Y65466D01*
X99998Y65461D01*
X99981Y65427D01*
X99954Y65383D01*
X99915Y65322D01*
X99859Y65261D01*
X99798Y65194D01*
X99721Y65128D01*
X99632Y65072D01*
X99621Y65067D01*
X99587Y65050D01*
X99537Y65028D01*
X99465Y65006D01*
X99376Y64978D01*
X99277Y64956D01*
X99165Y64939D01*
X99043Y64933D01*
X98993D01*
X98960Y64939D01*
X98916Y64944D01*
X98871Y64950D01*
X98755Y64972D01*
X98633Y65006D01*
X98505Y65056D01*
X98439Y65089D01*
X98377Y65128D01*
X98322Y65172D01*
X98266Y65222D01*
X98261Y65228D01*
X98255Y65233D01*
X98244Y65255D01*
X98228Y65277D01*
X98205Y65305D01*
X98183Y65344D01*
X98161Y65389D01*
X98133Y65438D01*
X98111Y65494D01*
X98089Y65561D01*
X98067Y65627D01*
X98044Y65705D01*
X98033Y65788D01*
X98017Y65882D01*
X98011Y65977D01*
Y66082D01*
X98472Y66149D01*
Y66143D01*
Y66132D01*
Y66110D01*
X98477Y66077D01*
X98483Y66043D01*
Y66005D01*
X98500Y65910D01*
X98516Y65810D01*
X98549Y65710D01*
X98583Y65622D01*
X98605Y65583D01*
X98633Y65549D01*
X98638Y65544D01*
X98660Y65527D01*
X98694Y65500D01*
X98738Y65472D01*
X98799Y65438D01*
X98866Y65416D01*
X98949Y65394D01*
X99038Y65389D01*
X99071D01*
X99104Y65394D01*
X99154Y65400D01*
X99204Y65411D01*
X99260Y65422D01*
X99315Y65444D01*
X99371Y65472D01*
X99376Y65477D01*
X99393Y65488D01*
X99415Y65511D01*
X99449Y65533D01*
X99476Y65572D01*
X99510Y65610D01*
X99537Y65655D01*
X99560Y65710D01*
Y65716D01*
X99571Y65738D01*
X99576Y65777D01*
X99587Y65827D01*
X99598Y65894D01*
X99604Y65977D01*
X99615Y66077D01*
Y66193D01*
Y68841D01*
X100126D01*
Y66221D01*
D02*
G37*
G36*
X55450Y82000D02*
X54978D01*
Y85002D01*
X54973Y84997D01*
X54945Y84975D01*
X54912Y84942D01*
X54856Y84903D01*
X54795Y84853D01*
X54717Y84797D01*
X54629Y84736D01*
X54529Y84675D01*
X54523D01*
X54518Y84670D01*
X54484Y84647D01*
X54429Y84620D01*
X54362Y84586D01*
X54285Y84548D01*
X54201Y84509D01*
X54118Y84470D01*
X54035Y84437D01*
Y84891D01*
X54040D01*
X54052Y84903D01*
X54074Y84908D01*
X54101Y84925D01*
X54135Y84942D01*
X54174Y84964D01*
X54268Y85019D01*
X54379Y85080D01*
X54490Y85158D01*
X54606Y85247D01*
X54723Y85341D01*
X54729Y85347D01*
X54734Y85352D01*
X54751Y85369D01*
X54773Y85386D01*
X54823Y85441D01*
X54890Y85508D01*
X54956Y85585D01*
X55028Y85674D01*
X55089Y85763D01*
X55145Y85857D01*
X55450D01*
Y82000D01*
D02*
G37*
G36*
X53019Y83621D02*
Y83615D01*
Y83593D01*
Y83565D01*
Y83526D01*
X53014Y83476D01*
Y83421D01*
X53008Y83354D01*
X53003Y83288D01*
X52986Y83138D01*
X52964Y82982D01*
X52930Y82832D01*
X52908Y82760D01*
X52886Y82694D01*
Y82688D01*
X52880Y82677D01*
X52869Y82661D01*
X52858Y82638D01*
X52825Y82577D01*
X52775Y82499D01*
X52708Y82411D01*
X52631Y82322D01*
X52531Y82227D01*
X52409Y82144D01*
X52403D01*
X52392Y82133D01*
X52375Y82128D01*
X52348Y82111D01*
X52314Y82094D01*
X52270Y82078D01*
X52226Y82061D01*
X52170Y82039D01*
X52109Y82017D01*
X52042Y82000D01*
X51970Y81983D01*
X51887Y81967D01*
X51804Y81956D01*
X51715Y81945D01*
X51515Y81933D01*
X51465D01*
X51426Y81939D01*
X51382D01*
X51326Y81945D01*
X51265Y81950D01*
X51204Y81956D01*
X51066Y81978D01*
X50916Y82011D01*
X50771Y82055D01*
X50633Y82117D01*
X50627D01*
X50616Y82128D01*
X50599Y82139D01*
X50577Y82150D01*
X50516Y82194D01*
X50444Y82255D01*
X50361Y82333D01*
X50283Y82422D01*
X50205Y82533D01*
X50144Y82655D01*
Y82661D01*
X50139Y82672D01*
X50133Y82694D01*
X50122Y82722D01*
X50111Y82755D01*
X50100Y82799D01*
X50083Y82849D01*
X50072Y82910D01*
X50061Y82977D01*
X50044Y83049D01*
X50033Y83127D01*
X50022Y83210D01*
X50011Y83304D01*
X50006Y83404D01*
X50000Y83510D01*
Y83621D01*
Y85841D01*
X50511D01*
Y83621D01*
Y83615D01*
Y83598D01*
Y83571D01*
Y83537D01*
X50516Y83499D01*
Y83449D01*
X50522Y83343D01*
X50533Y83221D01*
X50550Y83099D01*
X50572Y82982D01*
X50583Y82932D01*
X50599Y82882D01*
X50605Y82871D01*
X50616Y82844D01*
X50644Y82805D01*
X50677Y82749D01*
X50716Y82694D01*
X50771Y82633D01*
X50838Y82572D01*
X50916Y82522D01*
X50927Y82516D01*
X50955Y82499D01*
X51005Y82483D01*
X51071Y82461D01*
X51149Y82433D01*
X51249Y82416D01*
X51354Y82400D01*
X51471Y82394D01*
X51526D01*
X51560Y82400D01*
X51609D01*
X51660Y82405D01*
X51782Y82427D01*
X51915Y82455D01*
X52042Y82499D01*
X52165Y82561D01*
X52220Y82599D01*
X52270Y82644D01*
X52276Y82649D01*
X52281Y82655D01*
X52292Y82672D01*
X52309Y82694D01*
X52325Y82727D01*
X52348Y82760D01*
X52370Y82810D01*
X52392Y82860D01*
X52414Y82921D01*
X52431Y82993D01*
X52453Y83077D01*
X52470Y83166D01*
X52486Y83265D01*
X52498Y83371D01*
X52509Y83493D01*
Y83621D01*
Y85841D01*
X53019D01*
Y83621D01*
D02*
G37*
G36*
X55039Y45852D02*
X55084Y45846D01*
X55139Y45841D01*
X55200Y45829D01*
X55261Y45818D01*
X55406Y45780D01*
X55550Y45724D01*
X55622Y45691D01*
X55694Y45652D01*
X55761Y45602D01*
X55822Y45546D01*
X55827Y45541D01*
X55839Y45535D01*
X55850Y45513D01*
X55872Y45491D01*
X55900Y45463D01*
X55927Y45424D01*
X55955Y45386D01*
X55989Y45336D01*
X56044Y45230D01*
X56099Y45097D01*
X56122Y45030D01*
X56133Y44953D01*
X56144Y44875D01*
X56149Y44792D01*
Y44780D01*
Y44753D01*
X56144Y44708D01*
X56138Y44647D01*
X56127Y44581D01*
X56105Y44503D01*
X56083Y44420D01*
X56050Y44337D01*
X56044Y44326D01*
X56033Y44298D01*
X56011Y44253D01*
X55977Y44192D01*
X55933Y44126D01*
X55877Y44042D01*
X55811Y43959D01*
X55733Y43865D01*
X55722Y43854D01*
X55694Y43820D01*
X55667Y43793D01*
X55639Y43765D01*
X55606Y43732D01*
X55561Y43687D01*
X55517Y43643D01*
X55461Y43593D01*
X55406Y43537D01*
X55339Y43476D01*
X55267Y43415D01*
X55189Y43343D01*
X55101Y43271D01*
X55012Y43193D01*
X55006Y43188D01*
X54995Y43177D01*
X54973Y43160D01*
X54945Y43138D01*
X54912Y43104D01*
X54873Y43071D01*
X54784Y42999D01*
X54690Y42916D01*
X54601Y42832D01*
X54523Y42760D01*
X54490Y42733D01*
X54462Y42705D01*
X54457Y42699D01*
X54440Y42683D01*
X54418Y42660D01*
X54390Y42627D01*
X54362Y42588D01*
X54329Y42549D01*
X54262Y42455D01*
X56155D01*
Y42000D01*
X53607D01*
Y42006D01*
Y42028D01*
Y42061D01*
X53613Y42105D01*
X53619Y42155D01*
X53630Y42211D01*
X53641Y42266D01*
X53663Y42327D01*
Y42333D01*
X53669Y42338D01*
X53680Y42372D01*
X53702Y42422D01*
X53735Y42488D01*
X53780Y42566D01*
X53835Y42655D01*
X53896Y42744D01*
X53974Y42838D01*
Y42844D01*
X53985Y42849D01*
X54013Y42882D01*
X54063Y42932D01*
X54135Y43005D01*
X54218Y43088D01*
X54324Y43188D01*
X54451Y43299D01*
X54590Y43415D01*
X54595Y43421D01*
X54618Y43437D01*
X54651Y43465D01*
X54690Y43499D01*
X54740Y43543D01*
X54801Y43593D01*
X54862Y43648D01*
X54934Y43709D01*
X55073Y43843D01*
X55212Y43976D01*
X55278Y44042D01*
X55339Y44109D01*
X55395Y44170D01*
X55439Y44231D01*
Y44237D01*
X55450Y44242D01*
X55461Y44259D01*
X55472Y44281D01*
X55511Y44342D01*
X55556Y44414D01*
X55594Y44503D01*
X55633Y44597D01*
X55655Y44703D01*
X55667Y44803D01*
Y44808D01*
Y44814D01*
X55661Y44847D01*
X55655Y44903D01*
X55639Y44964D01*
X55617Y45041D01*
X55578Y45119D01*
X55528Y45197D01*
X55461Y45274D01*
X55450Y45286D01*
X55422Y45308D01*
X55383Y45336D01*
X55322Y45374D01*
X55245Y45408D01*
X55156Y45441D01*
X55050Y45463D01*
X54934Y45469D01*
X54901D01*
X54878Y45463D01*
X54812Y45458D01*
X54734Y45441D01*
X54651Y45419D01*
X54557Y45380D01*
X54468Y45330D01*
X54384Y45263D01*
X54373Y45252D01*
X54351Y45224D01*
X54318Y45180D01*
X54285Y45114D01*
X54246Y45036D01*
X54212Y44936D01*
X54190Y44825D01*
X54179Y44697D01*
X53696Y44747D01*
Y44753D01*
X53702Y44769D01*
Y44797D01*
X53707Y44836D01*
X53719Y44881D01*
X53730Y44930D01*
X53746Y44991D01*
X53763Y45052D01*
X53807Y45186D01*
X53874Y45319D01*
X53913Y45386D01*
X53963Y45452D01*
X54013Y45513D01*
X54068Y45569D01*
X54074Y45574D01*
X54085Y45580D01*
X54101Y45596D01*
X54129Y45613D01*
X54163Y45635D01*
X54201Y45658D01*
X54246Y45685D01*
X54301Y45713D01*
X54362Y45741D01*
X54429Y45768D01*
X54501Y45791D01*
X54579Y45813D01*
X54662Y45829D01*
X54751Y45846D01*
X54845Y45852D01*
X54945Y45857D01*
X55001D01*
X55039Y45852D01*
D02*
G37*
G36*
X34655Y51354D02*
X35177D01*
Y50921D01*
X34655D01*
Y50000D01*
X34184D01*
Y50921D01*
X32513D01*
Y51354D01*
X34273Y53841D01*
X34655D01*
Y51354D01*
D02*
G37*
G36*
X30826Y64835D02*
X30876D01*
X30992Y64829D01*
X31115Y64813D01*
X31248Y64796D01*
X31370Y64768D01*
X31431Y64752D01*
X31481Y64735D01*
X31486D01*
X31492Y64730D01*
X31525Y64713D01*
X31575Y64691D01*
X31636Y64652D01*
X31703Y64602D01*
X31775Y64535D01*
X31842Y64458D01*
X31908Y64369D01*
Y64363D01*
X31914Y64358D01*
X31936Y64324D01*
X31958Y64269D01*
X31991Y64197D01*
X32019Y64113D01*
X32047Y64014D01*
X32064Y63908D01*
X32069Y63792D01*
Y63786D01*
Y63775D01*
Y63753D01*
X32064Y63725D01*
Y63686D01*
X32058Y63647D01*
X32036Y63553D01*
X32003Y63442D01*
X31958Y63326D01*
X31892Y63209D01*
X31847Y63153D01*
X31803Y63098D01*
X31797Y63092D01*
X31792Y63087D01*
X31775Y63070D01*
X31753Y63054D01*
X31725Y63031D01*
X31692Y63009D01*
X31647Y62981D01*
X31603Y62948D01*
X31547Y62920D01*
X31486Y62893D01*
X31420Y62859D01*
X31348Y62831D01*
X31264Y62809D01*
X31181Y62782D01*
X31087Y62765D01*
X30987Y62748D01*
X30998Y62743D01*
X31020Y62732D01*
X31054Y62709D01*
X31098Y62687D01*
X31198Y62626D01*
X31248Y62587D01*
X31292Y62554D01*
X31303Y62543D01*
X31331Y62515D01*
X31375Y62471D01*
X31431Y62415D01*
X31492Y62337D01*
X31564Y62254D01*
X31636Y62154D01*
X31714Y62043D01*
X32374Y61000D01*
X31742D01*
X31237Y61799D01*
Y61805D01*
X31225Y61816D01*
X31214Y61832D01*
X31198Y61855D01*
X31159Y61916D01*
X31109Y61993D01*
X31048Y62077D01*
X30987Y62165D01*
X30926Y62249D01*
X30870Y62326D01*
X30865Y62332D01*
X30848Y62354D01*
X30820Y62388D01*
X30781Y62426D01*
X30698Y62510D01*
X30654Y62549D01*
X30610Y62582D01*
X30604Y62587D01*
X30593Y62593D01*
X30571Y62604D01*
X30537Y62621D01*
X30504Y62637D01*
X30465Y62654D01*
X30376Y62682D01*
X30371D01*
X30360Y62687D01*
X30338D01*
X30310Y62693D01*
X30271Y62698D01*
X30226D01*
X30165Y62704D01*
X29511D01*
Y61000D01*
X29000D01*
Y64841D01*
X30781D01*
X30826Y64835D01*
D02*
G37*
G36*
X34450Y61000D02*
X33978D01*
Y64003D01*
X33973Y63997D01*
X33945Y63975D01*
X33912Y63942D01*
X33856Y63903D01*
X33795Y63853D01*
X33718Y63797D01*
X33629Y63736D01*
X33529Y63675D01*
X33523D01*
X33518Y63670D01*
X33484Y63647D01*
X33429Y63620D01*
X33362Y63586D01*
X33285Y63547D01*
X33201Y63509D01*
X33118Y63470D01*
X33035Y63437D01*
Y63892D01*
X33040D01*
X33051Y63903D01*
X33074Y63908D01*
X33101Y63925D01*
X33135Y63942D01*
X33174Y63964D01*
X33268Y64019D01*
X33379Y64080D01*
X33490Y64158D01*
X33606Y64247D01*
X33723Y64341D01*
X33729Y64347D01*
X33734Y64352D01*
X33751Y64369D01*
X33773Y64385D01*
X33823Y64441D01*
X33890Y64508D01*
X33956Y64585D01*
X34028Y64674D01*
X34089Y64763D01*
X34145Y64857D01*
X34450D01*
Y61000D01*
D02*
G37*
G36*
X21540Y64000D02*
X21068D01*
Y67002D01*
X21063Y66997D01*
X21035Y66975D01*
X21002Y66941D01*
X20946Y66903D01*
X20885Y66853D01*
X20807Y66797D01*
X20719Y66736D01*
X20619Y66675D01*
X20613D01*
X20607Y66670D01*
X20574Y66647D01*
X20519Y66620D01*
X20452Y66586D01*
X20374Y66548D01*
X20291Y66509D01*
X20208Y66470D01*
X20125Y66436D01*
Y66891D01*
X20130D01*
X20141Y66903D01*
X20164Y66908D01*
X20191Y66925D01*
X20224Y66941D01*
X20263Y66964D01*
X20358Y67019D01*
X20469Y67080D01*
X20580Y67158D01*
X20696Y67247D01*
X20813Y67341D01*
X20818Y67347D01*
X20824Y67352D01*
X20841Y67369D01*
X20863Y67386D01*
X20913Y67441D01*
X20979Y67508D01*
X21046Y67585D01*
X21118Y67674D01*
X21179Y67763D01*
X21235Y67857D01*
X21540D01*
Y64000D01*
D02*
G37*
G36*
X19126Y65221D02*
Y65215D01*
Y65199D01*
Y65177D01*
Y65143D01*
X19120Y65099D01*
Y65055D01*
X19109Y64949D01*
X19098Y64827D01*
X19076Y64699D01*
X19042Y64583D01*
X19004Y64472D01*
Y64466D01*
X18998Y64461D01*
X18981Y64427D01*
X18954Y64383D01*
X18915Y64322D01*
X18859Y64261D01*
X18798Y64194D01*
X18721Y64128D01*
X18632Y64072D01*
X18621Y64067D01*
X18587Y64050D01*
X18537Y64028D01*
X18465Y64006D01*
X18376Y63978D01*
X18277Y63956D01*
X18166Y63939D01*
X18043Y63933D01*
X17993D01*
X17960Y63939D01*
X17916Y63945D01*
X17871Y63950D01*
X17755Y63972D01*
X17633Y64006D01*
X17505Y64056D01*
X17438Y64089D01*
X17377Y64128D01*
X17322Y64172D01*
X17266Y64222D01*
X17261Y64227D01*
X17255Y64233D01*
X17244Y64255D01*
X17228Y64277D01*
X17205Y64305D01*
X17183Y64344D01*
X17161Y64389D01*
X17133Y64438D01*
X17111Y64494D01*
X17089Y64561D01*
X17067Y64627D01*
X17044Y64705D01*
X17033Y64788D01*
X17017Y64882D01*
X17011Y64977D01*
Y65082D01*
X17472Y65149D01*
Y65143D01*
Y65132D01*
Y65110D01*
X17477Y65077D01*
X17483Y65043D01*
Y65004D01*
X17500Y64910D01*
X17516Y64810D01*
X17549Y64710D01*
X17583Y64622D01*
X17605Y64583D01*
X17633Y64549D01*
X17638Y64544D01*
X17661Y64527D01*
X17694Y64499D01*
X17738Y64472D01*
X17799Y64438D01*
X17866Y64416D01*
X17949Y64394D01*
X18038Y64389D01*
X18071D01*
X18104Y64394D01*
X18154Y64400D01*
X18204Y64411D01*
X18260Y64422D01*
X18315Y64444D01*
X18371Y64472D01*
X18376Y64477D01*
X18393Y64488D01*
X18415Y64511D01*
X18449Y64533D01*
X18476Y64572D01*
X18510Y64610D01*
X18537Y64655D01*
X18560Y64710D01*
Y64716D01*
X18571Y64738D01*
X18576Y64777D01*
X18587Y64827D01*
X18598Y64894D01*
X18604Y64977D01*
X18615Y65077D01*
Y65193D01*
Y67841D01*
X19126D01*
Y65221D01*
D02*
G37*
G36*
X30826Y53835D02*
X30876D01*
X30992Y53829D01*
X31115Y53813D01*
X31248Y53796D01*
X31370Y53768D01*
X31431Y53752D01*
X31481Y53735D01*
X31486D01*
X31492Y53730D01*
X31525Y53713D01*
X31575Y53691D01*
X31636Y53652D01*
X31703Y53602D01*
X31775Y53535D01*
X31842Y53458D01*
X31908Y53369D01*
Y53363D01*
X31914Y53358D01*
X31936Y53325D01*
X31958Y53269D01*
X31991Y53197D01*
X32019Y53114D01*
X32047Y53014D01*
X32064Y52908D01*
X32069Y52792D01*
Y52786D01*
Y52775D01*
Y52753D01*
X32064Y52725D01*
Y52686D01*
X32058Y52647D01*
X32036Y52553D01*
X32003Y52442D01*
X31958Y52325D01*
X31892Y52209D01*
X31847Y52153D01*
X31803Y52098D01*
X31797Y52092D01*
X31792Y52087D01*
X31775Y52070D01*
X31753Y52053D01*
X31725Y52031D01*
X31692Y52009D01*
X31647Y51981D01*
X31603Y51948D01*
X31547Y51920D01*
X31486Y51893D01*
X31420Y51859D01*
X31348Y51832D01*
X31264Y51809D01*
X31181Y51782D01*
X31087Y51765D01*
X30987Y51748D01*
X30998Y51743D01*
X31020Y51732D01*
X31054Y51709D01*
X31098Y51687D01*
X31198Y51626D01*
X31248Y51587D01*
X31292Y51554D01*
X31303Y51543D01*
X31331Y51515D01*
X31375Y51471D01*
X31431Y51415D01*
X31492Y51337D01*
X31564Y51254D01*
X31636Y51154D01*
X31714Y51043D01*
X32374Y50000D01*
X31742D01*
X31237Y50799D01*
Y50805D01*
X31225Y50816D01*
X31214Y50832D01*
X31198Y50855D01*
X31159Y50916D01*
X31109Y50994D01*
X31048Y51077D01*
X30987Y51165D01*
X30926Y51249D01*
X30870Y51326D01*
X30865Y51332D01*
X30848Y51354D01*
X30820Y51388D01*
X30781Y51426D01*
X30698Y51510D01*
X30654Y51548D01*
X30610Y51582D01*
X30604Y51587D01*
X30593Y51593D01*
X30571Y51604D01*
X30537Y51621D01*
X30504Y51637D01*
X30465Y51654D01*
X30376Y51682D01*
X30371D01*
X30360Y51687D01*
X30338D01*
X30310Y51693D01*
X30271Y51698D01*
X30226D01*
X30165Y51704D01*
X29511D01*
Y50000D01*
X29000D01*
Y53841D01*
X30781D01*
X30826Y53835D01*
D02*
G37*
G36*
X89995Y28852D02*
X90067Y28841D01*
X90156Y28824D01*
X90256Y28796D01*
X90356Y28763D01*
X90456Y28719D01*
X90461D01*
X90467Y28713D01*
X90500Y28696D01*
X90550Y28663D01*
X90605Y28624D01*
X90672Y28569D01*
X90739Y28508D01*
X90805Y28435D01*
X90861Y28352D01*
X90866Y28341D01*
X90883Y28313D01*
X90905Y28263D01*
X90933Y28202D01*
X90961Y28130D01*
X90983Y28047D01*
X91000Y27953D01*
X91005Y27858D01*
Y27847D01*
Y27814D01*
X91000Y27770D01*
X90988Y27708D01*
X90972Y27636D01*
X90944Y27559D01*
X90911Y27481D01*
X90866Y27403D01*
X90861Y27392D01*
X90844Y27370D01*
X90811Y27331D01*
X90766Y27287D01*
X90711Y27237D01*
X90644Y27181D01*
X90567Y27131D01*
X90472Y27081D01*
X90478D01*
X90489Y27076D01*
X90506Y27070D01*
X90528Y27065D01*
X90589Y27042D01*
X90667Y27009D01*
X90755Y26965D01*
X90844Y26909D01*
X90927Y26837D01*
X91005Y26754D01*
X91011Y26743D01*
X91033Y26709D01*
X91066Y26654D01*
X91100Y26582D01*
X91133Y26493D01*
X91166Y26388D01*
X91188Y26265D01*
X91194Y26132D01*
Y26127D01*
Y26110D01*
Y26082D01*
X91188Y26049D01*
X91183Y26005D01*
X91172Y25955D01*
X91161Y25899D01*
X91149Y25838D01*
X91105Y25705D01*
X91072Y25633D01*
X91038Y25566D01*
X90994Y25494D01*
X90944Y25422D01*
X90889Y25350D01*
X90822Y25283D01*
X90816Y25278D01*
X90805Y25266D01*
X90783Y25250D01*
X90755Y25227D01*
X90722Y25200D01*
X90678Y25172D01*
X90628Y25139D01*
X90567Y25111D01*
X90506Y25078D01*
X90434Y25044D01*
X90361Y25017D01*
X90278Y24989D01*
X90189Y24967D01*
X90095Y24950D01*
X90000Y24939D01*
X89895Y24933D01*
X89845D01*
X89812Y24939D01*
X89767Y24945D01*
X89718Y24950D01*
X89662Y24961D01*
X89601Y24972D01*
X89468Y25005D01*
X89329Y25061D01*
X89257Y25094D01*
X89190Y25133D01*
X89124Y25183D01*
X89057Y25233D01*
X89052Y25239D01*
X89040Y25250D01*
X89024Y25266D01*
X89007Y25289D01*
X88979Y25316D01*
X88952Y25355D01*
X88918Y25394D01*
X88885Y25444D01*
X88852Y25499D01*
X88818Y25555D01*
X88757Y25688D01*
X88707Y25844D01*
X88691Y25927D01*
X88680Y26016D01*
X89151Y26077D01*
Y26071D01*
X89157Y26060D01*
X89162Y26038D01*
X89168Y26010D01*
X89174Y25977D01*
X89185Y25938D01*
X89213Y25855D01*
X89251Y25755D01*
X89301Y25660D01*
X89357Y25572D01*
X89423Y25494D01*
X89434Y25488D01*
X89457Y25466D01*
X89501Y25438D01*
X89557Y25411D01*
X89623Y25377D01*
X89706Y25350D01*
X89801Y25327D01*
X89901Y25322D01*
X89934D01*
X89956Y25327D01*
X90017Y25333D01*
X90095Y25350D01*
X90184Y25377D01*
X90278Y25416D01*
X90372Y25472D01*
X90461Y25549D01*
X90472Y25561D01*
X90500Y25594D01*
X90533Y25644D01*
X90578Y25710D01*
X90622Y25794D01*
X90655Y25888D01*
X90683Y25999D01*
X90694Y26121D01*
Y26127D01*
Y26138D01*
Y26154D01*
X90689Y26177D01*
X90683Y26238D01*
X90667Y26310D01*
X90644Y26399D01*
X90605Y26487D01*
X90550Y26576D01*
X90478Y26659D01*
X90467Y26671D01*
X90439Y26693D01*
X90395Y26726D01*
X90334Y26765D01*
X90256Y26804D01*
X90162Y26837D01*
X90056Y26859D01*
X89939Y26870D01*
X89890D01*
X89851Y26865D01*
X89801Y26859D01*
X89745Y26848D01*
X89679Y26837D01*
X89606Y26820D01*
X89662Y27237D01*
X89690D01*
X89712Y27231D01*
X89784D01*
X89845Y27242D01*
X89917Y27253D01*
X90000Y27270D01*
X90095Y27298D01*
X90184Y27336D01*
X90278Y27387D01*
X90284D01*
X90289Y27392D01*
X90317Y27414D01*
X90356Y27453D01*
X90400Y27503D01*
X90445Y27575D01*
X90483Y27658D01*
X90511Y27753D01*
X90522Y27808D01*
Y27869D01*
Y27875D01*
Y27880D01*
Y27914D01*
X90511Y27958D01*
X90500Y28019D01*
X90478Y28086D01*
X90450Y28158D01*
X90406Y28230D01*
X90345Y28297D01*
X90339Y28302D01*
X90311Y28324D01*
X90272Y28352D01*
X90223Y28385D01*
X90156Y28413D01*
X90078Y28441D01*
X89989Y28463D01*
X89890Y28469D01*
X89845D01*
X89795Y28458D01*
X89729Y28447D01*
X89656Y28424D01*
X89584Y28397D01*
X89507Y28352D01*
X89434Y28297D01*
X89429Y28291D01*
X89407Y28263D01*
X89373Y28225D01*
X89335Y28169D01*
X89296Y28097D01*
X89257Y28008D01*
X89224Y27903D01*
X89201Y27781D01*
X88730Y27864D01*
Y27869D01*
X88735Y27886D01*
X88741Y27908D01*
X88746Y27942D01*
X88757Y27980D01*
X88774Y28025D01*
X88807Y28130D01*
X88863Y28252D01*
X88929Y28374D01*
X89013Y28491D01*
X89118Y28596D01*
X89124Y28602D01*
X89135Y28607D01*
X89151Y28619D01*
X89174Y28635D01*
X89201Y28657D01*
X89240Y28680D01*
X89279Y28702D01*
X89329Y28730D01*
X89440Y28774D01*
X89568Y28818D01*
X89718Y28846D01*
X89795Y28857D01*
X89934D01*
X89995Y28852D01*
D02*
G37*
G36*
X25148Y57000D02*
X17000D01*
Y63000D01*
X25148D01*
Y57000D01*
D02*
G37*
G36*
X103000D02*
X95000D01*
Y63000D01*
X103000D01*
Y57000D01*
D02*
G37*
G36*
X25476Y27000D02*
X17000D01*
Y33000D01*
X25476D01*
Y27000D01*
D02*
G37*
G36*
X103187D02*
X95000D01*
Y33000D01*
X103187D01*
Y27000D01*
D02*
G37*
G36*
X90039Y39852D02*
X90084Y39846D01*
X90139Y39841D01*
X90200Y39829D01*
X90261Y39818D01*
X90406Y39780D01*
X90550Y39724D01*
X90622Y39691D01*
X90694Y39652D01*
X90761Y39602D01*
X90822Y39546D01*
X90828Y39541D01*
X90839Y39535D01*
X90850Y39513D01*
X90872Y39491D01*
X90900Y39463D01*
X90927Y39424D01*
X90955Y39386D01*
X90988Y39336D01*
X91044Y39230D01*
X91100Y39097D01*
X91122Y39030D01*
X91133Y38953D01*
X91144Y38875D01*
X91149Y38792D01*
Y38781D01*
Y38753D01*
X91144Y38708D01*
X91138Y38647D01*
X91127Y38581D01*
X91105Y38503D01*
X91083Y38420D01*
X91049Y38337D01*
X91044Y38326D01*
X91033Y38298D01*
X91011Y38253D01*
X90977Y38192D01*
X90933Y38126D01*
X90877Y38042D01*
X90811Y37959D01*
X90733Y37865D01*
X90722Y37854D01*
X90694Y37820D01*
X90667Y37793D01*
X90639Y37765D01*
X90605Y37732D01*
X90561Y37687D01*
X90517Y37643D01*
X90461Y37593D01*
X90406Y37537D01*
X90339Y37476D01*
X90267Y37415D01*
X90189Y37343D01*
X90101Y37271D01*
X90012Y37193D01*
X90006Y37188D01*
X89995Y37177D01*
X89973Y37160D01*
X89945Y37138D01*
X89912Y37104D01*
X89873Y37071D01*
X89784Y36999D01*
X89690Y36916D01*
X89601Y36832D01*
X89523Y36760D01*
X89490Y36733D01*
X89462Y36705D01*
X89457Y36699D01*
X89440Y36683D01*
X89418Y36660D01*
X89390Y36627D01*
X89362Y36588D01*
X89329Y36549D01*
X89262Y36455D01*
X91155D01*
Y36000D01*
X88608D01*
Y36005D01*
Y36028D01*
Y36061D01*
X88613Y36105D01*
X88619Y36155D01*
X88630Y36211D01*
X88641Y36266D01*
X88663Y36327D01*
Y36333D01*
X88669Y36338D01*
X88680Y36372D01*
X88702Y36422D01*
X88735Y36488D01*
X88779Y36566D01*
X88835Y36655D01*
X88896Y36744D01*
X88974Y36838D01*
Y36844D01*
X88985Y36849D01*
X89013Y36882D01*
X89063Y36932D01*
X89135Y37005D01*
X89218Y37088D01*
X89324Y37188D01*
X89451Y37299D01*
X89590Y37415D01*
X89595Y37421D01*
X89618Y37437D01*
X89651Y37465D01*
X89690Y37499D01*
X89740Y37543D01*
X89801Y37593D01*
X89862Y37648D01*
X89934Y37709D01*
X90073Y37843D01*
X90211Y37976D01*
X90278Y38042D01*
X90339Y38109D01*
X90395Y38170D01*
X90439Y38231D01*
Y38237D01*
X90450Y38242D01*
X90461Y38259D01*
X90472Y38281D01*
X90511Y38342D01*
X90556Y38414D01*
X90594Y38503D01*
X90633Y38597D01*
X90655Y38703D01*
X90667Y38803D01*
Y38808D01*
Y38814D01*
X90661Y38847D01*
X90655Y38903D01*
X90639Y38964D01*
X90617Y39041D01*
X90578Y39119D01*
X90528Y39197D01*
X90461Y39274D01*
X90450Y39286D01*
X90422Y39308D01*
X90383Y39336D01*
X90323Y39374D01*
X90245Y39408D01*
X90156Y39441D01*
X90051Y39463D01*
X89934Y39469D01*
X89901D01*
X89878Y39463D01*
X89812Y39458D01*
X89734Y39441D01*
X89651Y39419D01*
X89557Y39380D01*
X89468Y39330D01*
X89385Y39263D01*
X89373Y39252D01*
X89351Y39224D01*
X89318Y39180D01*
X89285Y39114D01*
X89246Y39036D01*
X89213Y38936D01*
X89190Y38825D01*
X89179Y38697D01*
X88696Y38747D01*
Y38753D01*
X88702Y38770D01*
Y38797D01*
X88707Y38836D01*
X88718Y38881D01*
X88730Y38930D01*
X88746Y38991D01*
X88763Y39053D01*
X88807Y39186D01*
X88874Y39319D01*
X88913Y39386D01*
X88963Y39452D01*
X89013Y39513D01*
X89068Y39569D01*
X89074Y39574D01*
X89085Y39580D01*
X89101Y39596D01*
X89129Y39613D01*
X89162Y39635D01*
X89201Y39658D01*
X89246Y39685D01*
X89301Y39713D01*
X89362Y39741D01*
X89429Y39768D01*
X89501Y39791D01*
X89579Y39813D01*
X89662Y39829D01*
X89751Y39846D01*
X89845Y39852D01*
X89945Y39857D01*
X90000D01*
X90039Y39852D01*
D02*
G37*
G36*
X86826Y39835D02*
X86876D01*
X86992Y39829D01*
X87115Y39813D01*
X87248Y39796D01*
X87370Y39768D01*
X87431Y39752D01*
X87481Y39735D01*
X87486D01*
X87492Y39730D01*
X87525Y39713D01*
X87575Y39691D01*
X87636Y39652D01*
X87703Y39602D01*
X87775Y39535D01*
X87842Y39458D01*
X87908Y39369D01*
Y39363D01*
X87914Y39358D01*
X87936Y39325D01*
X87958Y39269D01*
X87991Y39197D01*
X88019Y39114D01*
X88047Y39014D01*
X88064Y38908D01*
X88069Y38792D01*
Y38786D01*
Y38775D01*
Y38753D01*
X88064Y38725D01*
Y38686D01*
X88058Y38647D01*
X88036Y38553D01*
X88003Y38442D01*
X87958Y38326D01*
X87892Y38209D01*
X87847Y38153D01*
X87803Y38098D01*
X87797Y38092D01*
X87792Y38087D01*
X87775Y38070D01*
X87753Y38054D01*
X87725Y38031D01*
X87692Y38009D01*
X87647Y37981D01*
X87603Y37948D01*
X87547Y37920D01*
X87486Y37892D01*
X87420Y37859D01*
X87348Y37832D01*
X87264Y37809D01*
X87181Y37782D01*
X87087Y37765D01*
X86987Y37748D01*
X86998Y37743D01*
X87020Y37732D01*
X87054Y37709D01*
X87098Y37687D01*
X87198Y37626D01*
X87248Y37587D01*
X87292Y37554D01*
X87303Y37543D01*
X87331Y37515D01*
X87375Y37471D01*
X87431Y37415D01*
X87492Y37337D01*
X87564Y37254D01*
X87636Y37154D01*
X87714Y37043D01*
X88374Y36000D01*
X87742D01*
X87237Y36799D01*
Y36805D01*
X87226Y36816D01*
X87214Y36832D01*
X87198Y36855D01*
X87159Y36916D01*
X87109Y36994D01*
X87048Y37077D01*
X86987Y37165D01*
X86926Y37249D01*
X86870Y37326D01*
X86865Y37332D01*
X86848Y37354D01*
X86820Y37387D01*
X86782Y37426D01*
X86698Y37510D01*
X86654Y37549D01*
X86610Y37582D01*
X86604Y37587D01*
X86593Y37593D01*
X86571Y37604D01*
X86537Y37621D01*
X86504Y37637D01*
X86465Y37654D01*
X86376Y37682D01*
X86371D01*
X86360Y37687D01*
X86338D01*
X86310Y37693D01*
X86271Y37698D01*
X86226D01*
X86165Y37704D01*
X85511D01*
Y36000D01*
X85000D01*
Y39841D01*
X86782D01*
X86826Y39835D01*
D02*
G37*
G36*
Y28835D02*
X86876D01*
X86992Y28830D01*
X87115Y28813D01*
X87248Y28796D01*
X87370Y28769D01*
X87431Y28752D01*
X87481Y28735D01*
X87486D01*
X87492Y28730D01*
X87525Y28713D01*
X87575Y28691D01*
X87636Y28652D01*
X87703Y28602D01*
X87775Y28535D01*
X87842Y28458D01*
X87908Y28369D01*
Y28363D01*
X87914Y28358D01*
X87936Y28324D01*
X87958Y28269D01*
X87991Y28197D01*
X88019Y28113D01*
X88047Y28014D01*
X88064Y27908D01*
X88069Y27792D01*
Y27786D01*
Y27775D01*
Y27753D01*
X88064Y27725D01*
Y27686D01*
X88058Y27647D01*
X88036Y27553D01*
X88003Y27442D01*
X87958Y27325D01*
X87892Y27209D01*
X87847Y27153D01*
X87803Y27098D01*
X87797Y27092D01*
X87792Y27087D01*
X87775Y27070D01*
X87753Y27053D01*
X87725Y27031D01*
X87692Y27009D01*
X87647Y26981D01*
X87603Y26948D01*
X87547Y26920D01*
X87486Y26893D01*
X87420Y26859D01*
X87348Y26831D01*
X87264Y26809D01*
X87181Y26781D01*
X87087Y26765D01*
X86987Y26748D01*
X86998Y26743D01*
X87020Y26732D01*
X87054Y26709D01*
X87098Y26687D01*
X87198Y26626D01*
X87248Y26587D01*
X87292Y26554D01*
X87303Y26543D01*
X87331Y26515D01*
X87375Y26471D01*
X87431Y26415D01*
X87492Y26338D01*
X87564Y26254D01*
X87636Y26154D01*
X87714Y26043D01*
X88374Y25000D01*
X87742D01*
X87237Y25799D01*
Y25805D01*
X87226Y25816D01*
X87214Y25833D01*
X87198Y25855D01*
X87159Y25916D01*
X87109Y25993D01*
X87048Y26077D01*
X86987Y26166D01*
X86926Y26249D01*
X86870Y26326D01*
X86865Y26332D01*
X86848Y26354D01*
X86820Y26388D01*
X86782Y26426D01*
X86698Y26510D01*
X86654Y26548D01*
X86610Y26582D01*
X86604Y26587D01*
X86593Y26593D01*
X86571Y26604D01*
X86537Y26621D01*
X86504Y26637D01*
X86465Y26654D01*
X86376Y26682D01*
X86371D01*
X86360Y26687D01*
X86338D01*
X86310Y26693D01*
X86271Y26698D01*
X86226D01*
X86165Y26704D01*
X85511D01*
Y25000D01*
X85000D01*
Y28841D01*
X86782D01*
X86826Y28835D01*
D02*
G37*
%LPC*%
G36*
X20399Y82385D02*
X19511D01*
Y79455D01*
X20421D01*
X20460Y79461D01*
X20543Y79466D01*
X20637Y79472D01*
X20737Y79483D01*
X20837Y79500D01*
X20920Y79522D01*
X20931Y79527D01*
X20959Y79533D01*
X20998Y79549D01*
X21048Y79572D01*
X21103Y79605D01*
X21159Y79638D01*
X21214Y79677D01*
X21270Y79721D01*
X21275Y79733D01*
X21298Y79755D01*
X21331Y79794D01*
X21370Y79849D01*
X21414Y79921D01*
X21464Y80005D01*
X21509Y80099D01*
X21547Y80204D01*
Y80210D01*
X21553Y80221D01*
X21558Y80238D01*
X21564Y80260D01*
X21570Y80288D01*
X21581Y80326D01*
X21592Y80365D01*
X21603Y80410D01*
X21620Y80521D01*
X21636Y80648D01*
X21647Y80793D01*
X21653Y80948D01*
Y80954D01*
Y80976D01*
Y81003D01*
X21647Y81048D01*
Y81098D01*
X21642Y81153D01*
X21636Y81220D01*
X21631Y81287D01*
X21603Y81437D01*
X21570Y81592D01*
X21520Y81736D01*
X21486Y81808D01*
X21453Y81869D01*
Y81875D01*
X21442Y81886D01*
X21431Y81903D01*
X21420Y81925D01*
X21375Y81980D01*
X21320Y82047D01*
X21248Y82119D01*
X21165Y82191D01*
X21070Y82252D01*
X20970Y82302D01*
X20959Y82308D01*
X20931Y82313D01*
X20881Y82330D01*
X20809Y82347D01*
X20720Y82358D01*
X20609Y82374D01*
X20543Y82380D01*
X20471D01*
X20399Y82385D01*
D02*
G37*
G36*
X20720Y76413D02*
X19511D01*
Y75142D01*
X20654D01*
X20720Y75148D01*
X20798Y75153D01*
X20887Y75159D01*
X20976Y75170D01*
X21065Y75187D01*
X21142Y75209D01*
X21153Y75214D01*
X21176Y75226D01*
X21209Y75242D01*
X21253Y75264D01*
X21303Y75298D01*
X21353Y75336D01*
X21403Y75387D01*
X21442Y75442D01*
X21448Y75448D01*
X21459Y75470D01*
X21475Y75503D01*
X21497Y75547D01*
X21514Y75597D01*
X21531Y75653D01*
X21542Y75719D01*
X21547Y75786D01*
Y75792D01*
Y75797D01*
X21542Y75831D01*
X21536Y75880D01*
X21525Y75947D01*
X21497Y76014D01*
X21464Y76091D01*
X21414Y76164D01*
X21348Y76236D01*
X21337Y76241D01*
X21309Y76263D01*
X21264Y76291D01*
X21192Y76324D01*
X21109Y76358D01*
X20998Y76385D01*
X20870Y76408D01*
X20720Y76413D01*
D02*
G37*
G36*
X96720D02*
X95511D01*
Y75142D01*
X96654D01*
X96720Y75148D01*
X96798Y75153D01*
X96887Y75159D01*
X96976Y75170D01*
X97065Y75187D01*
X97142Y75209D01*
X97153Y75214D01*
X97176Y75226D01*
X97209Y75242D01*
X97253Y75264D01*
X97303Y75298D01*
X97353Y75336D01*
X97403Y75387D01*
X97442Y75442D01*
X97448Y75448D01*
X97459Y75470D01*
X97475Y75503D01*
X97497Y75547D01*
X97514Y75597D01*
X97531Y75653D01*
X97542Y75719D01*
X97548Y75786D01*
Y75792D01*
Y75797D01*
X97542Y75831D01*
X97536Y75880D01*
X97525Y75947D01*
X97497Y76014D01*
X97464Y76091D01*
X97414Y76164D01*
X97348Y76236D01*
X97337Y76241D01*
X97309Y76263D01*
X97264Y76291D01*
X97192Y76324D01*
X97109Y76358D01*
X96998Y76385D01*
X96870Y76408D01*
X96720Y76413D01*
D02*
G37*
G36*
X99962Y75076D02*
X99928D01*
X99906Y75070D01*
X99851Y75065D01*
X99773Y75048D01*
X99690Y75020D01*
X99595Y74976D01*
X99507Y74920D01*
X99418Y74843D01*
X99407Y74831D01*
X99384Y74804D01*
X99346Y74754D01*
X99307Y74682D01*
X99268Y74598D01*
X99229Y74493D01*
X99207Y74376D01*
X99196Y74243D01*
Y74232D01*
Y74204D01*
X99201Y74154D01*
X99207Y74093D01*
X99218Y74021D01*
X99240Y73944D01*
X99262Y73860D01*
X99296Y73777D01*
X99301Y73766D01*
X99318Y73738D01*
X99340Y73699D01*
X99373Y73649D01*
X99412Y73599D01*
X99462Y73538D01*
X99518Y73488D01*
X99584Y73439D01*
X99595Y73433D01*
X99618Y73422D01*
X99656Y73400D01*
X99706Y73383D01*
X99762Y73361D01*
X99828Y73339D01*
X99901Y73327D01*
X99978Y73322D01*
X100006D01*
X100028Y73327D01*
X100084Y73333D01*
X100156Y73350D01*
X100234Y73383D01*
X100322Y73422D01*
X100411Y73483D01*
X100456Y73516D01*
X100495Y73561D01*
Y73566D01*
X100506Y73572D01*
X100528Y73605D01*
X100561Y73660D01*
X100605Y73733D01*
X100644Y73827D01*
X100678Y73938D01*
X100700Y74066D01*
X100711Y74215D01*
Y74221D01*
Y74232D01*
Y74254D01*
X100705Y74282D01*
Y74315D01*
X100700Y74354D01*
X100683Y74443D01*
X100661Y74543D01*
X100622Y74648D01*
X100567Y74748D01*
X100495Y74843D01*
X100483Y74854D01*
X100456Y74881D01*
X100411Y74915D01*
X100350Y74959D01*
X100273Y75003D01*
X100184Y75037D01*
X100078Y75065D01*
X99962Y75076D01*
D02*
G37*
G36*
X96399Y82385D02*
X95511D01*
Y79455D01*
X96421D01*
X96460Y79461D01*
X96543Y79466D01*
X96637Y79472D01*
X96737Y79483D01*
X96837Y79500D01*
X96920Y79522D01*
X96931Y79527D01*
X96959Y79533D01*
X96998Y79549D01*
X97048Y79572D01*
X97103Y79605D01*
X97159Y79638D01*
X97214Y79677D01*
X97270Y79721D01*
X97276Y79733D01*
X97298Y79755D01*
X97331Y79794D01*
X97370Y79849D01*
X97414Y79921D01*
X97464Y80005D01*
X97509Y80099D01*
X97548Y80204D01*
Y80210D01*
X97553Y80221D01*
X97559Y80238D01*
X97564Y80260D01*
X97570Y80288D01*
X97581Y80326D01*
X97592Y80365D01*
X97603Y80410D01*
X97620Y80521D01*
X97636Y80648D01*
X97647Y80793D01*
X97653Y80948D01*
Y80954D01*
Y80976D01*
Y81003D01*
X97647Y81048D01*
Y81098D01*
X97642Y81153D01*
X97636Y81220D01*
X97631Y81287D01*
X97603Y81437D01*
X97570Y81592D01*
X97520Y81736D01*
X97486Y81808D01*
X97453Y81869D01*
Y81875D01*
X97442Y81886D01*
X97431Y81903D01*
X97420Y81925D01*
X97375Y81980D01*
X97320Y82047D01*
X97248Y82119D01*
X97164Y82191D01*
X97070Y82252D01*
X96970Y82302D01*
X96959Y82308D01*
X96931Y82313D01*
X96881Y82330D01*
X96809Y82347D01*
X96720Y82358D01*
X96609Y82374D01*
X96543Y82380D01*
X96471D01*
X96399Y82385D01*
D02*
G37*
G36*
X34184Y53075D02*
X32974Y51354D01*
X34184D01*
Y53075D01*
D02*
G37*
G36*
X30720Y64413D02*
X29511D01*
Y63142D01*
X30654D01*
X30720Y63148D01*
X30798Y63153D01*
X30887Y63159D01*
X30976Y63170D01*
X31065Y63187D01*
X31142Y63209D01*
X31153Y63214D01*
X31176Y63226D01*
X31209Y63242D01*
X31253Y63264D01*
X31303Y63298D01*
X31353Y63336D01*
X31403Y63386D01*
X31442Y63442D01*
X31448Y63448D01*
X31459Y63470D01*
X31475Y63503D01*
X31497Y63547D01*
X31514Y63597D01*
X31531Y63653D01*
X31542Y63719D01*
X31547Y63786D01*
Y63792D01*
Y63797D01*
X31542Y63831D01*
X31536Y63880D01*
X31525Y63947D01*
X31497Y64014D01*
X31464Y64091D01*
X31414Y64164D01*
X31348Y64236D01*
X31337Y64241D01*
X31309Y64263D01*
X31264Y64291D01*
X31192Y64324D01*
X31109Y64358D01*
X30998Y64385D01*
X30870Y64408D01*
X30720Y64413D01*
D02*
G37*
G36*
Y53413D02*
X29511D01*
Y52142D01*
X30654D01*
X30720Y52148D01*
X30798Y52153D01*
X30887Y52159D01*
X30976Y52170D01*
X31065Y52187D01*
X31142Y52209D01*
X31153Y52214D01*
X31176Y52226D01*
X31209Y52242D01*
X31253Y52264D01*
X31303Y52298D01*
X31353Y52337D01*
X31403Y52386D01*
X31442Y52442D01*
X31448Y52448D01*
X31459Y52470D01*
X31475Y52503D01*
X31497Y52548D01*
X31514Y52597D01*
X31531Y52653D01*
X31542Y52719D01*
X31547Y52786D01*
Y52792D01*
Y52797D01*
X31542Y52830D01*
X31536Y52880D01*
X31525Y52947D01*
X31497Y53014D01*
X31464Y53091D01*
X31414Y53163D01*
X31348Y53236D01*
X31337Y53241D01*
X31309Y53263D01*
X31264Y53291D01*
X31192Y53325D01*
X31109Y53358D01*
X30998Y53386D01*
X30870Y53408D01*
X30720Y53413D01*
D02*
G37*
G36*
X23072Y61920D02*
X22517D01*
X21052Y58080D01*
X21590D01*
X22007Y59245D01*
X23616D01*
X24066Y58080D01*
X24643D01*
X23072Y61920D01*
D02*
G37*
G36*
X21013D02*
X20497D01*
X19454Y59129D01*
X19409Y59012D01*
X19370Y58901D01*
X19337Y58796D01*
X19309Y58701D01*
X19282Y58618D01*
X19265Y58557D01*
X19259Y58535D01*
X19254Y58518D01*
X19248Y58507D01*
Y58501D01*
X19182Y58723D01*
X19148Y58829D01*
X19115Y58923D01*
X19087Y59007D01*
X19076Y59040D01*
X19071Y59073D01*
X19060Y59095D01*
X19054Y59112D01*
X19048Y59123D01*
Y59129D01*
X18049Y61920D01*
X17494D01*
X18982Y58080D01*
X19515D01*
X21013Y61920D01*
D02*
G37*
%LPD*%
G36*
X22822Y61393D02*
X22867Y61260D01*
X22911Y61127D01*
X22956Y60999D01*
X22978Y60944D01*
X22995Y60888D01*
X23011Y60838D01*
X23028Y60799D01*
X23039Y60766D01*
X23050Y60738D01*
X23055Y60721D01*
Y60716D01*
X23455Y59662D01*
X22156D01*
X22573Y60783D01*
X22623Y60921D01*
X22661Y61054D01*
X22700Y61177D01*
X22728Y61288D01*
X22750Y61382D01*
X22761Y61421D01*
X22767Y61460D01*
X22778Y61482D01*
Y61504D01*
X22784Y61515D01*
Y61521D01*
X22822Y61393D01*
D02*
G37*
%LPC*%
G36*
X101031Y61920D02*
X99522D01*
Y58080D01*
X100987D01*
X101120Y58085D01*
X101237Y58091D01*
X101342Y58102D01*
X101431Y58113D01*
X101503Y58124D01*
X101559Y58130D01*
X101592Y58141D01*
X101603D01*
X101697Y58169D01*
X101775Y58196D01*
X101847Y58230D01*
X101908Y58263D01*
X101958Y58285D01*
X101997Y58307D01*
X102019Y58324D01*
X102025Y58329D01*
X102086Y58379D01*
X102141Y58440D01*
X102186Y58501D01*
X102230Y58557D01*
X102263Y58613D01*
X102286Y58651D01*
X102302Y58679D01*
X102308Y58690D01*
X102347Y58779D01*
X102374Y58868D01*
X102397Y58951D01*
X102408Y59029D01*
X102419Y59095D01*
X102424Y59151D01*
Y59184D01*
Y59190D01*
Y59195D01*
X102419Y59317D01*
X102397Y59428D01*
X102363Y59523D01*
X102330Y59611D01*
X102297Y59678D01*
X102263Y59728D01*
X102241Y59761D01*
X102236Y59772D01*
X102158Y59861D01*
X102075Y59933D01*
X101980Y59994D01*
X101897Y60044D01*
X101819Y60083D01*
X101753Y60105D01*
X101731Y60116D01*
X101714Y60122D01*
X101703Y60128D01*
X101697D01*
X101792Y60183D01*
X101875Y60239D01*
X101942Y60300D01*
X101997Y60355D01*
X102041Y60400D01*
X102075Y60444D01*
X102091Y60466D01*
X102097Y60477D01*
X102141Y60561D01*
X102175Y60638D01*
X102202Y60716D01*
X102219Y60788D01*
X102230Y60849D01*
X102236Y60899D01*
Y60927D01*
Y60938D01*
X102230Y61032D01*
X102214Y61127D01*
X102186Y61210D01*
X102158Y61288D01*
X102130Y61354D01*
X102102Y61399D01*
X102086Y61432D01*
X102080Y61443D01*
X102019Y61526D01*
X101953Y61604D01*
X101880Y61665D01*
X101814Y61715D01*
X101758Y61754D01*
X101708Y61782D01*
X101675Y61798D01*
X101670Y61804D01*
X101664D01*
X101559Y61843D01*
X101442Y61870D01*
X101326Y61893D01*
X101214Y61904D01*
X101114Y61915D01*
X101070D01*
X101031Y61920D01*
D02*
G37*
G36*
X99083D02*
X98567D01*
X97524Y59129D01*
X97479Y59012D01*
X97440Y58901D01*
X97407Y58796D01*
X97379Y58701D01*
X97352Y58618D01*
X97335Y58557D01*
X97329Y58535D01*
X97324Y58518D01*
X97318Y58507D01*
Y58501D01*
X97252Y58723D01*
X97218Y58829D01*
X97185Y58923D01*
X97157Y59007D01*
X97146Y59040D01*
X97141Y59073D01*
X97130Y59095D01*
X97124Y59112D01*
X97119Y59123D01*
Y59129D01*
X96120Y61920D01*
X95565D01*
X97052Y58080D01*
X97585D01*
X99083Y61920D01*
D02*
G37*
%LPD*%
G36*
X101159Y59845D02*
X101253Y59834D01*
X101331Y59822D01*
X101392Y59811D01*
X101442Y59800D01*
X101464Y59795D01*
X101475Y59789D01*
X101548Y59761D01*
X101609Y59728D01*
X101664Y59689D01*
X101708Y59650D01*
X101742Y59617D01*
X101764Y59589D01*
X101781Y59567D01*
X101786Y59562D01*
X101825Y59500D01*
X101853Y59439D01*
X101875Y59378D01*
X101886Y59323D01*
X101897Y59273D01*
X101903Y59228D01*
Y59206D01*
Y59195D01*
X101897Y59129D01*
X101892Y59062D01*
X101880Y59007D01*
X101864Y58962D01*
X101847Y58923D01*
X101836Y58890D01*
X101830Y58873D01*
X101825Y58868D01*
X101792Y58818D01*
X101764Y58773D01*
X101725Y58740D01*
X101697Y58707D01*
X101670Y58685D01*
X101647Y58668D01*
X101631Y58657D01*
X101625Y58651D01*
X101531Y58607D01*
X101436Y58574D01*
X101398Y58562D01*
X101364Y58557D01*
X101342Y58551D01*
X101337D01*
X101292Y58546D01*
X101242Y58540D01*
X101126Y58535D01*
X100032D01*
Y59856D01*
X101042D01*
X101159Y59845D01*
D02*
G37*
G36*
X101065Y61454D02*
X101159Y61449D01*
X101242Y61437D01*
X101303Y61426D01*
X101342Y61421D01*
X101370Y61410D01*
X101375D01*
X101436Y61387D01*
X101492Y61354D01*
X101536Y61321D01*
X101575Y61288D01*
X101603Y61260D01*
X101625Y61232D01*
X101636Y61215D01*
X101642Y61210D01*
X101675Y61154D01*
X101697Y61099D01*
X101714Y61043D01*
X101725Y60988D01*
X101731Y60944D01*
X101736Y60910D01*
Y60888D01*
Y60877D01*
X101731Y60805D01*
X101719Y60738D01*
X101703Y60683D01*
X101686Y60638D01*
X101670Y60599D01*
X101653Y60566D01*
X101642Y60549D01*
X101636Y60544D01*
X101597Y60500D01*
X101548Y60455D01*
X101497Y60422D01*
X101453Y60400D01*
X101409Y60377D01*
X101375Y60361D01*
X101353Y60355D01*
X101342Y60350D01*
X101281Y60338D01*
X101203Y60327D01*
X101126Y60322D01*
X101048Y60316D01*
X100976Y60311D01*
X100032D01*
Y61465D01*
X100943D01*
X101065Y61454D01*
D02*
G37*
%LPC*%
G36*
X23405Y31920D02*
X22850D01*
X21385Y28080D01*
X21923D01*
X22340Y29245D01*
X23949D01*
X24399Y28080D01*
X24976D01*
X23405Y31920D01*
D02*
G37*
G36*
X19492Y31987D02*
X19315D01*
X19215Y31976D01*
X19021Y31948D01*
X18932Y31931D01*
X18849Y31909D01*
X18771Y31892D01*
X18699Y31870D01*
X18632Y31848D01*
X18577Y31826D01*
X18527Y31804D01*
X18482Y31787D01*
X18449Y31770D01*
X18427Y31759D01*
X18410Y31754D01*
X18405Y31748D01*
X18327Y31698D01*
X18249Y31648D01*
X18116Y31532D01*
X18000Y31415D01*
X17905Y31293D01*
X17827Y31188D01*
X17800Y31143D01*
X17777Y31099D01*
X17755Y31066D01*
X17744Y31043D01*
X17739Y31027D01*
X17733Y31021D01*
X17655Y30838D01*
X17600Y30655D01*
X17556Y30477D01*
X17544Y30394D01*
X17528Y30316D01*
X17522Y30244D01*
X17511Y30183D01*
X17505Y30122D01*
Y30072D01*
X17500Y30033D01*
Y30005D01*
Y29983D01*
Y29978D01*
X17511Y29772D01*
X17539Y29578D01*
X17556Y29489D01*
X17572Y29406D01*
X17594Y29323D01*
X17617Y29251D01*
X17639Y29184D01*
X17661Y29129D01*
X17678Y29073D01*
X17694Y29034D01*
X17711Y28995D01*
X17722Y28973D01*
X17733Y28957D01*
Y28951D01*
X17833Y28790D01*
X17944Y28651D01*
X18061Y28529D01*
X18171Y28429D01*
X18277Y28352D01*
X18316Y28324D01*
X18355Y28296D01*
X18388Y28280D01*
X18410Y28263D01*
X18427Y28257D01*
X18432Y28252D01*
X18521Y28207D01*
X18610Y28174D01*
X18788Y28113D01*
X18960Y28074D01*
X19121Y28041D01*
X19193Y28035D01*
X19259Y28024D01*
X19320Y28019D01*
X19370D01*
X19409Y28013D01*
X19465D01*
X19620Y28019D01*
X19770Y28035D01*
X19909Y28063D01*
X20031Y28091D01*
X20081Y28102D01*
X20131Y28113D01*
X20175Y28130D01*
X20214Y28141D01*
X20242Y28152D01*
X20264Y28157D01*
X20275Y28163D01*
X20280D01*
X20430Y28224D01*
X20569Y28296D01*
X20702Y28374D01*
X20819Y28446D01*
X20869Y28479D01*
X20919Y28513D01*
X20958Y28540D01*
X20991Y28563D01*
X21019Y28585D01*
X21041Y28601D01*
X21052Y28607D01*
X21058Y28613D01*
Y30039D01*
X19426D01*
Y29584D01*
X20558D01*
Y28862D01*
X20492Y28807D01*
X20414Y28757D01*
X20331Y28712D01*
X20253Y28674D01*
X20186Y28640D01*
X20125Y28613D01*
X20103Y28601D01*
X20092Y28596D01*
X20081Y28590D01*
X20075D01*
X19959Y28551D01*
X19842Y28518D01*
X19737Y28496D01*
X19637Y28485D01*
X19554Y28474D01*
X19520D01*
X19487Y28468D01*
X19431D01*
X19293Y28474D01*
X19160Y28496D01*
X19037Y28524D01*
X18926Y28551D01*
X18837Y28585D01*
X18799Y28596D01*
X18771Y28607D01*
X18743Y28618D01*
X18727Y28629D01*
X18715Y28635D01*
X18710D01*
X18593Y28707D01*
X18488Y28785D01*
X18399Y28868D01*
X18327Y28951D01*
X18266Y29029D01*
X18227Y29090D01*
X18210Y29112D01*
X18205Y29129D01*
X18194Y29140D01*
Y29145D01*
X18138Y29284D01*
X18094Y29428D01*
X18066Y29573D01*
X18044Y29711D01*
X18038Y29772D01*
X18033Y29828D01*
X18027Y29883D01*
Y29928D01*
X18022Y29961D01*
Y29989D01*
Y30005D01*
Y30011D01*
X18027Y30167D01*
X18044Y30305D01*
X18066Y30439D01*
X18094Y30555D01*
X18105Y30605D01*
X18122Y30649D01*
X18133Y30688D01*
X18144Y30722D01*
X18155Y30749D01*
X18160Y30766D01*
X18166Y30777D01*
Y30782D01*
X18205Y30860D01*
X18244Y30932D01*
X18283Y30999D01*
X18321Y31054D01*
X18355Y31099D01*
X18383Y31138D01*
X18405Y31160D01*
X18410Y31166D01*
X18471Y31227D01*
X18538Y31282D01*
X18610Y31326D01*
X18677Y31371D01*
X18732Y31399D01*
X18777Y31426D01*
X18810Y31438D01*
X18821Y31443D01*
X18921Y31482D01*
X19021Y31510D01*
X19126Y31526D01*
X19220Y31543D01*
X19304Y31549D01*
X19337D01*
X19365Y31554D01*
X19426D01*
X19531Y31549D01*
X19631Y31537D01*
X19720Y31521D01*
X19798Y31504D01*
X19864Y31482D01*
X19914Y31465D01*
X19942Y31454D01*
X19953Y31449D01*
X20036Y31410D01*
X20109Y31365D01*
X20175Y31321D01*
X20225Y31277D01*
X20264Y31238D01*
X20297Y31210D01*
X20314Y31188D01*
X20319Y31182D01*
X20369Y31116D01*
X20408Y31038D01*
X20447Y30966D01*
X20480Y30888D01*
X20503Y30821D01*
X20519Y30771D01*
X20525Y30749D01*
X20530Y30733D01*
X20536Y30727D01*
Y30722D01*
X20997Y30844D01*
X20958Y30982D01*
X20908Y31104D01*
X20858Y31215D01*
X20813Y31304D01*
X20769Y31376D01*
X20736Y31426D01*
X20714Y31460D01*
X20702Y31471D01*
X20625Y31560D01*
X20541Y31632D01*
X20453Y31698D01*
X20369Y31754D01*
X20292Y31793D01*
X20231Y31826D01*
X20208Y31837D01*
X20192Y31843D01*
X20181Y31848D01*
X20175D01*
X20048Y31892D01*
X19914Y31926D01*
X19792Y31954D01*
X19676Y31970D01*
X19570Y31981D01*
X19526D01*
X19492Y31987D01*
D02*
G37*
%LPD*%
G36*
X23155Y31393D02*
X23200Y31260D01*
X23244Y31127D01*
X23289Y30999D01*
X23311Y30944D01*
X23327Y30888D01*
X23344Y30838D01*
X23361Y30799D01*
X23372Y30766D01*
X23383Y30738D01*
X23389Y30722D01*
Y30716D01*
X23788Y29662D01*
X22489D01*
X22906Y30782D01*
X22956Y30921D01*
X22995Y31054D01*
X23033Y31177D01*
X23061Y31288D01*
X23083Y31382D01*
X23094Y31421D01*
X23100Y31460D01*
X23111Y31482D01*
Y31504D01*
X23117Y31515D01*
Y31521D01*
X23155Y31393D01*
D02*
G37*
%LPC*%
G36*
X97492Y31987D02*
X97315D01*
X97215Y31976D01*
X97021Y31948D01*
X96932Y31931D01*
X96849Y31909D01*
X96771Y31892D01*
X96699Y31870D01*
X96632Y31848D01*
X96577Y31826D01*
X96527Y31804D01*
X96482Y31787D01*
X96449Y31770D01*
X96427Y31759D01*
X96410Y31754D01*
X96405Y31748D01*
X96327Y31698D01*
X96249Y31648D01*
X96116Y31532D01*
X95999Y31415D01*
X95905Y31293D01*
X95827Y31188D01*
X95800Y31143D01*
X95777Y31099D01*
X95755Y31066D01*
X95744Y31043D01*
X95739Y31027D01*
X95733Y31021D01*
X95655Y30838D01*
X95600Y30655D01*
X95556Y30477D01*
X95544Y30394D01*
X95528Y30316D01*
X95522Y30244D01*
X95511Y30183D01*
X95506Y30122D01*
Y30072D01*
X95500Y30033D01*
Y30005D01*
Y29983D01*
Y29978D01*
X95511Y29772D01*
X95539Y29578D01*
X95556Y29489D01*
X95572Y29406D01*
X95594Y29323D01*
X95617Y29251D01*
X95639Y29184D01*
X95661Y29129D01*
X95678Y29073D01*
X95694Y29034D01*
X95711Y28995D01*
X95722Y28973D01*
X95733Y28957D01*
Y28951D01*
X95833Y28790D01*
X95944Y28651D01*
X96061Y28529D01*
X96172Y28429D01*
X96277Y28352D01*
X96316Y28324D01*
X96355Y28296D01*
X96388Y28280D01*
X96410Y28263D01*
X96427Y28257D01*
X96432Y28252D01*
X96521Y28207D01*
X96610Y28174D01*
X96788Y28113D01*
X96960Y28074D01*
X97121Y28041D01*
X97193Y28035D01*
X97259Y28024D01*
X97320Y28019D01*
X97370D01*
X97409Y28013D01*
X97465D01*
X97620Y28019D01*
X97770Y28035D01*
X97909Y28063D01*
X98031Y28091D01*
X98081Y28102D01*
X98131Y28113D01*
X98175Y28130D01*
X98214Y28141D01*
X98242Y28152D01*
X98264Y28157D01*
X98275Y28163D01*
X98281D01*
X98430Y28224D01*
X98569Y28296D01*
X98702Y28374D01*
X98819Y28446D01*
X98869Y28479D01*
X98919Y28513D01*
X98958Y28540D01*
X98991Y28563D01*
X99019Y28585D01*
X99041Y28601D01*
X99052Y28607D01*
X99058Y28613D01*
Y30039D01*
X97426D01*
Y29584D01*
X98558D01*
Y28862D01*
X98491Y28807D01*
X98414Y28757D01*
X98330Y28712D01*
X98253Y28674D01*
X98186Y28640D01*
X98125Y28613D01*
X98103Y28601D01*
X98092Y28596D01*
X98081Y28590D01*
X98075D01*
X97959Y28551D01*
X97842Y28518D01*
X97737Y28496D01*
X97637Y28485D01*
X97553Y28474D01*
X97520D01*
X97487Y28468D01*
X97431D01*
X97293Y28474D01*
X97159Y28496D01*
X97037Y28524D01*
X96926Y28551D01*
X96838Y28585D01*
X96799Y28596D01*
X96771Y28607D01*
X96743Y28618D01*
X96727Y28629D01*
X96715Y28635D01*
X96710D01*
X96593Y28707D01*
X96488Y28785D01*
X96399Y28868D01*
X96327Y28951D01*
X96266Y29029D01*
X96227Y29090D01*
X96210Y29112D01*
X96205Y29129D01*
X96194Y29140D01*
Y29145D01*
X96138Y29284D01*
X96094Y29428D01*
X96066Y29573D01*
X96044Y29711D01*
X96038Y29772D01*
X96033Y29828D01*
X96027Y29883D01*
Y29928D01*
X96022Y29961D01*
Y29989D01*
Y30005D01*
Y30011D01*
X96027Y30167D01*
X96044Y30305D01*
X96066Y30439D01*
X96094Y30555D01*
X96105Y30605D01*
X96122Y30649D01*
X96133Y30688D01*
X96144Y30722D01*
X96155Y30749D01*
X96161Y30766D01*
X96166Y30777D01*
Y30782D01*
X96205Y30860D01*
X96244Y30932D01*
X96283Y30999D01*
X96321Y31054D01*
X96355Y31099D01*
X96382Y31138D01*
X96405Y31160D01*
X96410Y31166D01*
X96471Y31227D01*
X96538Y31282D01*
X96610Y31326D01*
X96677Y31371D01*
X96732Y31399D01*
X96776Y31426D01*
X96810Y31438D01*
X96821Y31443D01*
X96921Y31482D01*
X97021Y31510D01*
X97126Y31526D01*
X97220Y31543D01*
X97304Y31549D01*
X97337D01*
X97365Y31554D01*
X97426D01*
X97531Y31549D01*
X97631Y31537D01*
X97720Y31521D01*
X97798Y31504D01*
X97864Y31482D01*
X97914Y31465D01*
X97942Y31454D01*
X97953Y31449D01*
X98036Y31410D01*
X98109Y31365D01*
X98175Y31321D01*
X98225Y31277D01*
X98264Y31238D01*
X98297Y31210D01*
X98314Y31188D01*
X98319Y31182D01*
X98369Y31116D01*
X98408Y31038D01*
X98447Y30966D01*
X98480Y30888D01*
X98502Y30821D01*
X98519Y30771D01*
X98525Y30749D01*
X98530Y30733D01*
X98536Y30727D01*
Y30722D01*
X98997Y30844D01*
X98958Y30982D01*
X98908Y31104D01*
X98858Y31215D01*
X98813Y31304D01*
X98769Y31376D01*
X98736Y31426D01*
X98713Y31460D01*
X98702Y31471D01*
X98625Y31560D01*
X98541Y31632D01*
X98453Y31698D01*
X98369Y31754D01*
X98292Y31793D01*
X98231Y31826D01*
X98208Y31837D01*
X98192Y31843D01*
X98181Y31848D01*
X98175D01*
X98048Y31892D01*
X97914Y31926D01*
X97792Y31954D01*
X97676Y31970D01*
X97570Y31981D01*
X97526D01*
X97492Y31987D01*
D02*
G37*
G36*
X101294Y31920D02*
X99785D01*
Y28080D01*
X101250D01*
X101383Y28085D01*
X101499Y28091D01*
X101605Y28102D01*
X101694Y28113D01*
X101766Y28124D01*
X101821Y28130D01*
X101855Y28141D01*
X101866D01*
X101960Y28168D01*
X102038Y28196D01*
X102110Y28230D01*
X102171Y28263D01*
X102221Y28285D01*
X102260Y28307D01*
X102282Y28324D01*
X102288Y28330D01*
X102349Y28379D01*
X102404Y28440D01*
X102449Y28501D01*
X102493Y28557D01*
X102526Y28613D01*
X102549Y28651D01*
X102565Y28679D01*
X102571Y28690D01*
X102610Y28779D01*
X102637Y28868D01*
X102659Y28951D01*
X102671Y29029D01*
X102682Y29095D01*
X102687Y29151D01*
Y29184D01*
Y29190D01*
Y29195D01*
X102682Y29317D01*
X102659Y29428D01*
X102626Y29523D01*
X102593Y29612D01*
X102560Y29678D01*
X102526Y29728D01*
X102504Y29761D01*
X102499Y29772D01*
X102421Y29861D01*
X102338Y29933D01*
X102243Y29994D01*
X102160Y30044D01*
X102082Y30083D01*
X102016Y30106D01*
X101994Y30117D01*
X101977Y30122D01*
X101966Y30128D01*
X101960D01*
X102055Y30183D01*
X102138Y30239D01*
X102204Y30300D01*
X102260Y30355D01*
X102304Y30400D01*
X102338Y30444D01*
X102354Y30466D01*
X102360Y30477D01*
X102404Y30561D01*
X102437Y30638D01*
X102465Y30716D01*
X102482Y30788D01*
X102493Y30849D01*
X102499Y30899D01*
Y30927D01*
Y30938D01*
X102493Y31032D01*
X102476Y31127D01*
X102449Y31210D01*
X102421Y31288D01*
X102393Y31354D01*
X102365Y31399D01*
X102349Y31432D01*
X102343Y31443D01*
X102282Y31526D01*
X102216Y31604D01*
X102143Y31665D01*
X102077Y31715D01*
X102021Y31754D01*
X101971Y31782D01*
X101938Y31798D01*
X101932Y31804D01*
X101927D01*
X101821Y31843D01*
X101705Y31870D01*
X101588Y31892D01*
X101477Y31904D01*
X101377Y31915D01*
X101333D01*
X101294Y31920D01*
D02*
G37*
%LPD*%
G36*
X101328Y31454D02*
X101422Y31449D01*
X101505Y31438D01*
X101566Y31426D01*
X101605Y31421D01*
X101633Y31410D01*
X101638D01*
X101699Y31387D01*
X101755Y31354D01*
X101799Y31321D01*
X101838Y31288D01*
X101866Y31260D01*
X101888Y31232D01*
X101899Y31215D01*
X101905Y31210D01*
X101938Y31154D01*
X101960Y31099D01*
X101977Y31043D01*
X101988Y30988D01*
X101994Y30944D01*
X101999Y30910D01*
Y30888D01*
Y30877D01*
X101994Y30805D01*
X101982Y30738D01*
X101966Y30683D01*
X101949Y30638D01*
X101932Y30599D01*
X101916Y30566D01*
X101905Y30549D01*
X101899Y30544D01*
X101860Y30500D01*
X101810Y30455D01*
X101760Y30422D01*
X101716Y30400D01*
X101672Y30377D01*
X101638Y30361D01*
X101616Y30355D01*
X101605Y30350D01*
X101544Y30338D01*
X101466Y30327D01*
X101389Y30322D01*
X101311Y30316D01*
X101239Y30311D01*
X100295D01*
Y31465D01*
X101205D01*
X101328Y31454D01*
D02*
G37*
G36*
X101422Y29845D02*
X101516Y29833D01*
X101594Y29822D01*
X101655Y29811D01*
X101705Y29800D01*
X101727Y29795D01*
X101738Y29789D01*
X101810Y29761D01*
X101871Y29728D01*
X101927Y29689D01*
X101971Y29650D01*
X102005Y29617D01*
X102027Y29589D01*
X102043Y29567D01*
X102049Y29561D01*
X102088Y29500D01*
X102116Y29439D01*
X102138Y29378D01*
X102149Y29323D01*
X102160Y29273D01*
X102165Y29229D01*
Y29206D01*
Y29195D01*
X102160Y29129D01*
X102154Y29062D01*
X102143Y29006D01*
X102127Y28962D01*
X102110Y28923D01*
X102099Y28890D01*
X102093Y28873D01*
X102088Y28868D01*
X102055Y28818D01*
X102027Y28773D01*
X101988Y28740D01*
X101960Y28707D01*
X101932Y28685D01*
X101910Y28668D01*
X101894Y28657D01*
X101888Y28651D01*
X101794Y28607D01*
X101699Y28574D01*
X101661Y28563D01*
X101627Y28557D01*
X101605Y28551D01*
X101600D01*
X101555Y28546D01*
X101505Y28540D01*
X101389Y28535D01*
X100295D01*
Y29856D01*
X101305D01*
X101422Y29845D01*
D02*
G37*
%LPC*%
G36*
X86721Y39413D02*
X85511D01*
Y38142D01*
X86654D01*
X86721Y38148D01*
X86798Y38153D01*
X86887Y38159D01*
X86976Y38170D01*
X87065Y38187D01*
X87142Y38209D01*
X87153Y38214D01*
X87176Y38225D01*
X87209Y38242D01*
X87253Y38264D01*
X87303Y38298D01*
X87353Y38337D01*
X87403Y38386D01*
X87442Y38442D01*
X87448Y38448D01*
X87459Y38470D01*
X87475Y38503D01*
X87498Y38547D01*
X87514Y38597D01*
X87531Y38653D01*
X87542Y38719D01*
X87547Y38786D01*
Y38792D01*
Y38797D01*
X87542Y38831D01*
X87536Y38881D01*
X87525Y38947D01*
X87498Y39014D01*
X87464Y39091D01*
X87414Y39164D01*
X87348Y39236D01*
X87336Y39241D01*
X87309Y39263D01*
X87264Y39291D01*
X87192Y39325D01*
X87109Y39358D01*
X86998Y39386D01*
X86870Y39408D01*
X86721Y39413D01*
D02*
G37*
G36*
Y28413D02*
X85511D01*
Y27142D01*
X86654D01*
X86721Y27148D01*
X86798Y27153D01*
X86887Y27159D01*
X86976Y27170D01*
X87065Y27187D01*
X87142Y27209D01*
X87153Y27214D01*
X87176Y27226D01*
X87209Y27242D01*
X87253Y27264D01*
X87303Y27298D01*
X87353Y27336D01*
X87403Y27387D01*
X87442Y27442D01*
X87448Y27448D01*
X87459Y27470D01*
X87475Y27503D01*
X87498Y27547D01*
X87514Y27597D01*
X87531Y27653D01*
X87542Y27720D01*
X87547Y27786D01*
Y27792D01*
Y27797D01*
X87542Y27830D01*
X87536Y27880D01*
X87525Y27947D01*
X87498Y28014D01*
X87464Y28091D01*
X87414Y28163D01*
X87348Y28236D01*
X87336Y28241D01*
X87309Y28263D01*
X87264Y28291D01*
X87192Y28324D01*
X87109Y28358D01*
X86998Y28385D01*
X86870Y28408D01*
X86721Y28413D01*
D02*
G37*
%LPD*%
D15*
X50000Y10000D02*
X70000D01*
Y40000D01*
X50000D02*
X70000D01*
X50000Y10000D02*
Y40000D01*
Y80000D02*
X70000D01*
X50000Y50000D02*
Y80000D01*
Y50000D02*
X70000D01*
Y80000D01*
D20*
X67181Y14000D02*
X66736Y14923D01*
X65737Y15152D01*
X64936Y14513D01*
Y13487D01*
X65737Y12848D01*
X66736Y13077D01*
X67181Y14000D01*
X55181Y76000D02*
X54736Y76923D01*
X53737Y77152D01*
X52936Y76512D01*
Y75488D01*
X53737Y74849D01*
X54736Y75077D01*
X55181Y76000D01*
D21*
X77992Y6500D02*
X77254Y6926D01*
Y6074D01*
X77992Y6500D01*
X42992Y83500D02*
X42254Y83926D01*
Y83074D01*
X42992Y83500D01*
D22*
X92000Y21000D02*
Y22500D01*
X90500D02*
X92000D01*
X84000Y7500D02*
Y9000D01*
Y7500D02*
X85500D01*
X84000Y47500D02*
Y49000D01*
Y47500D02*
X85500D01*
X92000Y61000D02*
Y62500D01*
X90500D02*
X92000D01*
Y81000D02*
Y82500D01*
X90500D02*
X92000D01*
X84000Y67500D02*
Y69000D01*
Y67500D02*
X85500D01*
X109500Y83000D02*
X110500Y81000D01*
X109500Y83000D02*
X110500Y85000D01*
X116000Y79000D02*
X117500D01*
Y80500D01*
X102500Y87000D02*
X104000D01*
X102500Y85500D02*
Y87000D01*
Y77000D02*
X104000D01*
X102500Y75500D02*
Y77000D01*
X116000Y69000D02*
X117500D01*
Y70500D01*
X9500Y85000D02*
X10500Y83000D01*
X9500Y81000D02*
X10500Y83000D01*
X2500Y87000D02*
X4000D01*
X2500Y85500D02*
Y87000D01*
X16000Y79000D02*
X17500D01*
Y80500D01*
X16000Y69000D02*
X17500D01*
Y70500D01*
X2500Y77000D02*
X4000D01*
X2500Y75500D02*
Y77000D01*
X28000Y7500D02*
Y9000D01*
Y7500D02*
X29500D01*
X36000Y21000D02*
Y22500D01*
X34500D02*
X36000D01*
Y81000D02*
Y82500D01*
X34500D02*
X36000D01*
X28000Y67500D02*
Y69000D01*
Y67500D02*
X29500D01*
X36000Y41000D02*
Y42500D01*
X34500D02*
X36000D01*
X28000Y27500D02*
Y29000D01*
Y27500D02*
X29500D01*
X95000Y40000D02*
X103000D01*
X95000D02*
X99000Y43000D01*
X95000Y40000D02*
X99000Y37000D01*
X95000Y50000D02*
X103000D01*
X99000Y47000D02*
X103000Y50000D01*
X99000Y53000D02*
X103000Y50000D01*
X17000D02*
X24667D01*
X20667Y47000D02*
X24667Y50000D01*
X20667Y53000D02*
X24667Y50000D01*
X17000Y40000D02*
X21000Y37000D01*
X17000Y40000D02*
X21000Y43000D01*
X17000Y40000D02*
X25000D01*
X15500Y24500D02*
Y65500D01*
X4500Y24500D02*
X15500D01*
X4500D02*
Y65500D01*
X15500D01*
X115500Y24500D02*
Y65500D01*
X104500Y24500D02*
X115500D01*
X104500D02*
Y65500D01*
X115500D01*
M02*
