G04 Layer_Color=8388736*
%FSLAX25Y25*%
%MOIN*%
G70*
G01*
G75*
G04:AMPARAMS|DCode=23|XSize=47.37mil|YSize=59.18mil|CornerRadius=8.92mil|HoleSize=0mil|Usage=FLASHONLY|Rotation=90.000|XOffset=0mil|YOffset=0mil|HoleType=Round|Shape=RoundedRectangle|*
%AMROUNDEDRECTD23*
21,1,0.04737,0.04134,0,0,90.0*
21,1,0.02953,0.05918,0,0,90.0*
1,1,0.01784,0.02067,0.01476*
1,1,0.01784,0.02067,-0.01476*
1,1,0.01784,-0.02067,-0.01476*
1,1,0.01784,-0.02067,0.01476*
%
%ADD23ROUNDEDRECTD23*%
G04:AMPARAMS|DCode=24|XSize=47.37mil|YSize=59.18mil|CornerRadius=8.92mil|HoleSize=0mil|Usage=FLASHONLY|Rotation=0.000|XOffset=0mil|YOffset=0mil|HoleType=Round|Shape=RoundedRectangle|*
%AMROUNDEDRECTD24*
21,1,0.04737,0.04134,0,0,0.0*
21,1,0.02953,0.05918,0,0,0.0*
1,1,0.01784,0.01476,-0.02067*
1,1,0.01784,-0.01476,-0.02067*
1,1,0.01784,-0.01476,0.02067*
1,1,0.01784,0.01476,0.02067*
%
%ADD24ROUNDEDRECTD24*%
%ADD25C,0.06800*%
G04:AMPARAMS|DCode=26|XSize=78.08mil|YSize=67.84mil|CornerRadius=18.96mil|HoleSize=0mil|Usage=FLASHONLY|Rotation=90.000|XOffset=0mil|YOffset=0mil|HoleType=Round|Shape=RoundedRectangle|*
%AMROUNDEDRECTD26*
21,1,0.07808,0.02992,0,0,90.0*
21,1,0.04016,0.06784,0,0,90.0*
1,1,0.03792,0.01496,0.02008*
1,1,0.03792,0.01496,-0.02008*
1,1,0.03792,-0.01496,-0.02008*
1,1,0.03792,-0.01496,0.02008*
%
%ADD26ROUNDEDRECTD26*%
%ADD27C,0.07300*%
G04:AMPARAMS|DCode=28|XSize=73mil|YSize=73mil|CornerRadius=13.75mil|HoleSize=0mil|Usage=FLASHONLY|Rotation=180.000|XOffset=0mil|YOffset=0mil|HoleType=Round|Shape=RoundedRectangle|*
%AMROUNDEDRECTD28*
21,1,0.07300,0.04550,0,0,180.0*
21,1,0.04550,0.07300,0,0,180.0*
1,1,0.02750,-0.02275,0.02275*
1,1,0.02750,0.02275,0.02275*
1,1,0.02750,0.02275,-0.02275*
1,1,0.02750,-0.02275,-0.02275*
%
%ADD28ROUNDEDRECTD28*%
D23*
X88000Y11063D02*
D03*
Y18937D02*
D03*
Y58937D02*
D03*
Y51063D02*
D03*
Y78937D02*
D03*
Y71063D02*
D03*
X32000Y11063D02*
D03*
Y18937D02*
D03*
Y71063D02*
D03*
Y78937D02*
D03*
Y31063D02*
D03*
Y38937D02*
D03*
D24*
X106063Y83000D02*
D03*
X113937D02*
D03*
Y73000D02*
D03*
X106063D02*
D03*
X13937Y83000D02*
D03*
X6063D02*
D03*
Y73000D02*
D03*
X13937D02*
D03*
D25*
X110000Y11000D02*
D03*
X10000D02*
D03*
D26*
X77736Y35000D02*
D03*
X42264Y25000D02*
D03*
X77736Y15000D02*
D03*
X42264D02*
D03*
X77736Y25000D02*
D03*
X42264Y35000D02*
D03*
Y55000D02*
D03*
X77736Y65000D02*
D03*
X42264Y75000D02*
D03*
X77736D02*
D03*
X42264Y65000D02*
D03*
X77736Y55000D02*
D03*
D27*
X10000Y30000D02*
D03*
Y40000D02*
D03*
Y50000D02*
D03*
X110000Y30000D02*
D03*
Y40000D02*
D03*
Y50000D02*
D03*
D28*
X10000Y60000D02*
D03*
X110000D02*
D03*
M02*
