G04 Layer_Color=128*
%FSLAX25Y25*%
%MOIN*%
G70*
G01*
G75*
%ADD26C,0.00200*%
D26*
X28100Y10000D02*
X31900D01*
X30000Y8100D02*
Y11900D01*
X38100Y10000D02*
X41900D01*
X40000Y8100D02*
Y11900D01*
X48100Y10000D02*
X51900D01*
X50000Y8100D02*
Y11900D01*
X58100Y10000D02*
X61900D01*
X60000Y8100D02*
Y11900D01*
X68100Y10000D02*
X71900D01*
X70000Y8100D02*
Y11900D01*
X78100Y10000D02*
X81900D01*
X80000Y8100D02*
Y11900D01*
X88100Y10000D02*
X91900D01*
X90000Y8100D02*
Y11900D01*
X98100Y10000D02*
X101900D01*
X100000Y8100D02*
Y11900D01*
X108100Y10000D02*
X111900D01*
X110000Y8100D02*
Y11900D01*
X118100Y10000D02*
X121900D01*
X120000Y8100D02*
Y11900D01*
X28100Y20000D02*
X31900D01*
X30000Y18100D02*
Y21900D01*
X38100Y20000D02*
X41900D01*
X40000Y18100D02*
Y21900D01*
X48100Y20000D02*
X51900D01*
X50000Y18100D02*
Y21900D01*
X58100Y20000D02*
X61900D01*
X60000Y18100D02*
Y21900D01*
X68100Y20000D02*
X71900D01*
X70000Y18100D02*
Y21900D01*
X78100Y20000D02*
X81900D01*
X80000Y18100D02*
Y21900D01*
X88100Y20000D02*
X91900D01*
X90000Y18100D02*
Y21900D01*
X98100Y20000D02*
X101900D01*
X100000Y18100D02*
Y21900D01*
X108100Y20000D02*
X111900D01*
X110000Y18100D02*
Y21900D01*
X118100Y20000D02*
X121900D01*
X120000Y18100D02*
Y21900D01*
X8100Y20000D02*
X11900D01*
X10000Y18100D02*
Y21900D01*
X8100Y10000D02*
X11900D01*
X10000Y8100D02*
Y11900D01*
X8100Y50000D02*
X11900D01*
X10000Y48100D02*
Y51900D01*
X8100Y40000D02*
X11900D01*
X10000Y38100D02*
Y41900D01*
X28311Y46000D02*
X29689D01*
X29000Y45311D02*
Y46689D01*
X38311Y46000D02*
X39689D01*
X39000Y45311D02*
Y46689D01*
X43311Y51000D02*
X44689D01*
X44000Y50311D02*
Y51689D01*
X86311Y46000D02*
X87689D01*
X87000Y45311D02*
Y46689D01*
X96311Y46000D02*
X97689D01*
X97000Y45311D02*
Y46689D01*
X116311Y46000D02*
X117689D01*
X117000Y45311D02*
Y46689D01*
X58311Y51000D02*
X59689D01*
X59000Y50311D02*
Y51689D01*
M02*
