G04 Layer_Color=8388736*
%FSLAX25Y25*%
%MOIN*%
G70*
G01*
G75*
G04:AMPARAMS|DCode=19|XSize=47.37mil|YSize=59.18mil|CornerRadius=8.92mil|HoleSize=0mil|Usage=FLASHONLY|Rotation=270.000|XOffset=0mil|YOffset=0mil|HoleType=Round|Shape=RoundedRectangle|*
%AMROUNDEDRECTD19*
21,1,0.04737,0.04134,0,0,270.0*
21,1,0.02953,0.05918,0,0,270.0*
1,1,0.01784,-0.02067,-0.01476*
1,1,0.01784,-0.02067,0.01476*
1,1,0.01784,0.02067,0.01476*
1,1,0.01784,0.02067,-0.01476*
%
%ADD19ROUNDEDRECTD19*%
G04:AMPARAMS|DCode=20|XSize=135.95mil|YSize=92.65mil|CornerRadius=14.58mil|HoleSize=0mil|Usage=FLASHONLY|Rotation=90.000|XOffset=0mil|YOffset=0mil|HoleType=Round|Shape=RoundedRectangle|*
%AMROUNDEDRECTD20*
21,1,0.13595,0.06348,0,0,90.0*
21,1,0.10679,0.09265,0,0,90.0*
1,1,0.02916,0.03174,0.05340*
1,1,0.02916,0.03174,-0.05340*
1,1,0.02916,-0.03174,-0.05340*
1,1,0.02916,-0.03174,0.05340*
%
%ADD20ROUNDEDRECTD20*%
G04:AMPARAMS|DCode=21|XSize=45.4mil|YSize=92.65mil|CornerRadius=13.35mil|HoleSize=0mil|Usage=FLASHONLY|Rotation=90.000|XOffset=0mil|YOffset=0mil|HoleType=Round|Shape=RoundedRectangle|*
%AMROUNDEDRECTD21*
21,1,0.04540,0.06594,0,0,90.0*
21,1,0.01870,0.09265,0,0,90.0*
1,1,0.02670,0.03297,0.00935*
1,1,0.02670,0.03297,-0.00935*
1,1,0.02670,-0.03297,-0.00935*
1,1,0.02670,-0.03297,0.00935*
%
%ADD21ROUNDEDRECTD21*%
%ADD22C,0.07600*%
G04:AMPARAMS|DCode=23|XSize=76mil|YSize=76mil|CornerRadius=14.2mil|HoleSize=0mil|Usage=FLASHONLY|Rotation=0.000|XOffset=0mil|YOffset=0mil|HoleType=Round|Shape=RoundedRectangle|*
%AMROUNDEDRECTD23*
21,1,0.07600,0.04760,0,0,0.0*
21,1,0.04760,0.07600,0,0,0.0*
1,1,0.02840,0.02380,-0.02380*
1,1,0.02840,-0.02380,-0.02380*
1,1,0.02840,-0.02380,0.02380*
1,1,0.02840,0.02380,0.02380*
%
%ADD23ROUNDEDRECTD23*%
D19*
X117000Y33063D02*
D03*
Y40937D02*
D03*
X29000D02*
D03*
Y33063D02*
D03*
X39000Y40937D02*
D03*
Y33063D02*
D03*
X87000Y40937D02*
D03*
Y33063D02*
D03*
X97000Y40937D02*
D03*
Y33063D02*
D03*
X107000Y40937D02*
D03*
Y33063D02*
D03*
D20*
X74417Y42000D02*
D03*
D21*
X51583Y32945D02*
D03*
Y42000D02*
D03*
Y51055D02*
D03*
D22*
X30000Y10000D02*
D03*
X40000D02*
D03*
X50000D02*
D03*
X60000D02*
D03*
X70000D02*
D03*
X80000D02*
D03*
X90000D02*
D03*
X100000D02*
D03*
X110000D02*
D03*
X120000D02*
D03*
X10000D02*
D03*
Y40000D02*
D03*
D23*
X30000Y20000D02*
D03*
X40000D02*
D03*
X50000D02*
D03*
X60000D02*
D03*
X70000D02*
D03*
X80000D02*
D03*
X90000D02*
D03*
X100000D02*
D03*
X110000D02*
D03*
X120000D02*
D03*
X10000D02*
D03*
Y50000D02*
D03*
M02*
