G04 Layer_Physical_Order=1*
G04 Layer_Color=255*
%FSLAX25Y25*%
%MOIN*%
G70*
G01*
G75*
G04:AMPARAMS|DCode=10|XSize=39.37mil|YSize=51.18mil|CornerRadius=4.92mil|HoleSize=0mil|Usage=FLASHONLY|Rotation=270.000|XOffset=0mil|YOffset=0mil|HoleType=Round|Shape=RoundedRectangle|*
%AMROUNDEDRECTD10*
21,1,0.03937,0.04134,0,0,270.0*
21,1,0.02953,0.05118,0,0,270.0*
1,1,0.00984,-0.02067,-0.01476*
1,1,0.00984,-0.02067,0.01476*
1,1,0.00984,0.02067,0.01476*
1,1,0.00984,0.02067,-0.01476*
%
%ADD10ROUNDEDRECTD10*%
G04:AMPARAMS|DCode=11|XSize=127.95mil|YSize=84.65mil|CornerRadius=10.58mil|HoleSize=0mil|Usage=FLASHONLY|Rotation=90.000|XOffset=0mil|YOffset=0mil|HoleType=Round|Shape=RoundedRectangle|*
%AMROUNDEDRECTD11*
21,1,0.12795,0.06348,0,0,90.0*
21,1,0.10679,0.08465,0,0,90.0*
1,1,0.02116,0.03174,0.05340*
1,1,0.02116,0.03174,-0.05340*
1,1,0.02116,-0.03174,-0.05340*
1,1,0.02116,-0.03174,0.05340*
%
%ADD11ROUNDEDRECTD11*%
G04:AMPARAMS|DCode=12|XSize=37.4mil|YSize=84.65mil|CornerRadius=9.35mil|HoleSize=0mil|Usage=FLASHONLY|Rotation=90.000|XOffset=0mil|YOffset=0mil|HoleType=Round|Shape=RoundedRectangle|*
%AMROUNDEDRECTD12*
21,1,0.03740,0.06594,0,0,90.0*
21,1,0.01870,0.08465,0,0,90.0*
1,1,0.01870,0.03297,0.00935*
1,1,0.01870,0.03297,-0.00935*
1,1,0.01870,-0.03297,-0.00935*
1,1,0.01870,-0.03297,0.00935*
%
%ADD12ROUNDEDRECTD12*%
%ADD13C,0.03000*%
%ADD14C,0.01000*%
%ADD15C,0.06800*%
G04:AMPARAMS|DCode=16|XSize=68mil|YSize=68mil|CornerRadius=10.2mil|HoleSize=0mil|Usage=FLASHONLY|Rotation=0.000|XOffset=0mil|YOffset=0mil|HoleType=Round|Shape=RoundedRectangle|*
%AMROUNDEDRECTD16*
21,1,0.06800,0.04760,0,0,0.0*
21,1,0.04760,0.06800,0,0,0.0*
1,1,0.02040,0.02380,-0.02380*
1,1,0.02040,-0.02380,-0.02380*
1,1,0.02040,-0.02380,0.02380*
1,1,0.02040,0.02380,0.02380*
%
%ADD16ROUNDEDRECTD16*%
%ADD17C,0.02559*%
G36*
X20000Y37939D02*
X60000D01*
Y27000D01*
X20000D01*
Y2733D01*
X2733D01*
Y46000D01*
X7460D01*
X7620Y45968D01*
X12380D01*
X12540Y46000D01*
X20000D01*
Y37939D01*
D02*
G37*
G36*
X127188Y38000D02*
X120564D01*
X120286Y38600D01*
X120473Y38878D01*
X120588Y39461D01*
Y40437D01*
X117000D01*
X113412D01*
Y39461D01*
X113528Y38878D01*
X113714Y38600D01*
X113657Y38399D01*
X113350Y38065D01*
X113063Y38122D01*
X113063Y38122D01*
X111402D01*
X110161Y39362D01*
X110180Y39461D01*
Y42413D01*
X110096Y42840D01*
X109854Y43201D01*
X109493Y43442D01*
X109067Y43527D01*
X104933D01*
X104507Y43442D01*
X104146Y43201D01*
X103904Y42840D01*
X103820Y42413D01*
Y39461D01*
X103904Y39035D01*
X104146Y38673D01*
X104255Y38600D01*
X104073Y38000D01*
X100564D01*
X100286Y38600D01*
X100472Y38878D01*
X100588Y39461D01*
Y40437D01*
X97000D01*
X93412D01*
Y39461D01*
X93528Y38878D01*
X93714Y38600D01*
X93436Y38000D01*
X90564D01*
X90286Y38600D01*
X90473Y38878D01*
X90588Y39461D01*
Y40437D01*
X87000D01*
X83412D01*
Y39461D01*
X83527Y38878D01*
X83714Y38600D01*
X83436Y38000D01*
X79282D01*
Y47340D01*
X79153Y47987D01*
X78787Y48535D01*
X78238Y48901D01*
X77592Y49030D01*
X72202D01*
X72143Y49053D01*
X71699Y49464D01*
X71640Y50064D01*
X71536Y50257D01*
X71452Y50459D01*
X71421Y50472D01*
X71405Y50502D01*
X71196Y50566D01*
X70993Y50649D01*
X61000D01*
X60541Y50459D01*
X60351Y50000D01*
Y44141D01*
X55838D01*
X55479Y44381D01*
X54880Y44500D01*
X48285D01*
X47686Y44381D01*
X47179Y44042D01*
X46839Y43534D01*
X46720Y42935D01*
Y41065D01*
X46839Y40466D01*
X47179Y39958D01*
X47686Y39619D01*
X48285Y39500D01*
X54880D01*
X55479Y39619D01*
X55838Y39859D01*
X60351D01*
Y38823D01*
X60000Y38589D01*
X42946D01*
X42534Y39189D01*
X42588Y39461D01*
Y40437D01*
X39000D01*
X35412D01*
Y39461D01*
X35466Y39189D01*
X35054Y38589D01*
X32946D01*
X32534Y39189D01*
X32588Y39461D01*
Y40437D01*
X29000D01*
X25412D01*
Y39461D01*
X25466Y39189D01*
X25054Y38589D01*
X20649D01*
Y46000D01*
X20459Y46459D01*
X20000Y46649D01*
X14828D01*
X14366Y47249D01*
X14440Y47620D01*
Y49500D01*
X10000D01*
X5560D01*
Y47620D01*
X5634Y47249D01*
X5172Y46649D01*
X2733D01*
Y56322D01*
X127188D01*
Y38000D01*
D02*
G37*
G36*
X71052Y49400D02*
X70440Y49278D01*
X69759Y48823D01*
X69305Y48143D01*
X69145Y47340D01*
Y42500D01*
X74417D01*
Y42000D01*
X74917D01*
Y34562D01*
X77592D01*
X78395Y34722D01*
X79075Y35177D01*
X79530Y35857D01*
X79666Y36538D01*
X79819Y36750D01*
X80180Y37000D01*
X80290Y37000D01*
X109351D01*
X109888Y36463D01*
X109815Y36303D01*
X109535Y35968D01*
X109067Y36061D01*
X107500D01*
Y33563D01*
X110588D01*
Y34539D01*
X110473Y35122D01*
X110254Y35449D01*
X110313Y35569D01*
X110650Y35936D01*
X110937Y35878D01*
X112598D01*
X113839Y34638D01*
X113820Y34539D01*
Y31587D01*
X113904Y31161D01*
X114146Y30799D01*
X114507Y30558D01*
X114933Y30473D01*
X119067D01*
X119493Y30558D01*
X119854Y30799D01*
X120096Y31161D01*
X120180Y31587D01*
Y34539D01*
X120096Y34966D01*
X119854Y35327D01*
X119493Y35568D01*
X119067Y35653D01*
X115996D01*
X115203Y36446D01*
X115433Y37000D01*
X127188D01*
Y2733D01*
X21000D01*
X21000Y26000D01*
X61000D01*
Y50000D01*
X70993D01*
X71052Y49400D01*
D02*
G37*
%LPC*%
G36*
X12380Y24032D02*
X7620D01*
X6988Y23906D01*
X6452Y23548D01*
X6094Y23012D01*
X5968Y22380D01*
Y17620D01*
X6094Y16988D01*
X6452Y16452D01*
X6988Y16094D01*
X7620Y15968D01*
X12380D01*
X13012Y16094D01*
X13548Y16452D01*
X13906Y16988D01*
X14032Y17620D01*
Y22380D01*
X13906Y23012D01*
X13548Y23548D01*
X13012Y23906D01*
X12380Y24032D01*
D02*
G37*
G36*
X10500Y14372D02*
Y10500D01*
X14372D01*
X14287Y11149D01*
X13843Y12219D01*
X13138Y13138D01*
X12219Y13843D01*
X11149Y14287D01*
X10500Y14372D01*
D02*
G37*
G36*
X9500Y9500D02*
X5628D01*
X5713Y8851D01*
X6157Y7781D01*
X6862Y6862D01*
X7781Y6157D01*
X8851Y5713D01*
X9500Y5628D01*
Y9500D01*
D02*
G37*
G36*
Y14372D02*
X8851Y14287D01*
X7781Y13843D01*
X6862Y13138D01*
X6157Y12219D01*
X5713Y11149D01*
X5628Y10500D01*
X9500D01*
Y14372D01*
D02*
G37*
G36*
X14372Y9500D02*
X10500D01*
Y5628D01*
X11149Y5713D01*
X12219Y6157D01*
X13138Y6862D01*
X13843Y7781D01*
X14287Y8851D01*
X14372Y9500D01*
D02*
G37*
G36*
X10500Y44372D02*
Y40500D01*
X14372D01*
X14287Y41149D01*
X13843Y42219D01*
X13138Y43138D01*
X12219Y43843D01*
X11149Y44287D01*
X10500Y44372D01*
D02*
G37*
G36*
X9500D02*
X8851Y44287D01*
X7781Y43843D01*
X6862Y43138D01*
X6157Y42219D01*
X5713Y41149D01*
X5628Y40500D01*
X9500D01*
Y44372D01*
D02*
G37*
G36*
X14372Y39500D02*
X10500D01*
Y35628D01*
X11149Y35713D01*
X12219Y36157D01*
X13138Y36862D01*
X13843Y37781D01*
X14287Y38851D01*
X14372Y39500D01*
D02*
G37*
G36*
X41067Y36061D02*
X39500D01*
Y33563D01*
X42588D01*
Y34539D01*
X42472Y35122D01*
X42143Y35615D01*
X41649Y35945D01*
X41067Y36061D01*
D02*
G37*
G36*
X31067D02*
X29500D01*
Y33563D01*
X32588D01*
Y34539D01*
X32473Y35122D01*
X32143Y35615D01*
X31649Y35945D01*
X31067Y36061D01*
D02*
G37*
G36*
X38500D02*
X36933D01*
X36351Y35945D01*
X35857Y35615D01*
X35528Y35122D01*
X35412Y34539D01*
Y33563D01*
X38500D01*
Y36061D01*
D02*
G37*
G36*
X9500Y39500D02*
X5628D01*
X5713Y38851D01*
X6157Y37781D01*
X6862Y36862D01*
X7781Y36157D01*
X8851Y35713D01*
X9500Y35628D01*
Y39500D01*
D02*
G37*
G36*
X28500Y32563D02*
X25412D01*
Y31587D01*
X25528Y31004D01*
X25857Y30511D01*
X26351Y30181D01*
X26933Y30065D01*
X28500D01*
Y32563D01*
D02*
G37*
G36*
X56853Y32445D02*
X52083D01*
Y30037D01*
X54880D01*
X55635Y30187D01*
X56275Y30615D01*
X56703Y31255D01*
X56853Y32010D01*
Y32445D01*
D02*
G37*
G36*
X51083D02*
X46312D01*
Y32010D01*
X46463Y31255D01*
X46890Y30615D01*
X47530Y30187D01*
X48285Y30037D01*
X51083D01*
Y32445D01*
D02*
G37*
G36*
X42588Y32563D02*
X39500D01*
Y30065D01*
X41067D01*
X41649Y30181D01*
X42143Y30511D01*
X42472Y31004D01*
X42588Y31587D01*
Y32563D01*
D02*
G37*
G36*
X38500D02*
X35412D01*
Y31587D01*
X35528Y31004D01*
X35857Y30511D01*
X36351Y30181D01*
X36933Y30065D01*
X38500D01*
Y32563D01*
D02*
G37*
G36*
X32588D02*
X29500D01*
Y30065D01*
X31067D01*
X31649Y30181D01*
X32143Y30511D01*
X32473Y31004D01*
X32588Y31587D01*
Y32563D01*
D02*
G37*
G36*
X54880Y35853D02*
X52083D01*
Y33445D01*
X56853D01*
Y33880D01*
X56703Y34635D01*
X56275Y35275D01*
X55635Y35703D01*
X54880Y35853D01*
D02*
G37*
G36*
X28500Y36061D02*
X26933D01*
X26351Y35945D01*
X25857Y35615D01*
X25528Y35122D01*
X25412Y34539D01*
Y33563D01*
X28500D01*
Y36061D01*
D02*
G37*
G36*
X51083Y35853D02*
X48285D01*
X47530Y35703D01*
X46890Y35275D01*
X46463Y34635D01*
X46312Y33880D01*
Y33445D01*
X51083D01*
Y35853D01*
D02*
G37*
G36*
X86500Y43935D02*
X84933D01*
X84351Y43819D01*
X83857Y43489D01*
X83527Y42996D01*
X83412Y42413D01*
Y41437D01*
X86500D01*
Y43935D01*
D02*
G37*
G36*
X116500D02*
X114933D01*
X114351Y43819D01*
X113857Y43489D01*
X113528Y42996D01*
X113412Y42413D01*
Y41437D01*
X116500D01*
Y43935D01*
D02*
G37*
G36*
X96500D02*
X94933D01*
X94351Y43819D01*
X93857Y43489D01*
X93528Y42996D01*
X93412Y42413D01*
Y41437D01*
X96500D01*
Y43935D01*
D02*
G37*
G36*
X99067D02*
X97500D01*
Y41437D01*
X100588D01*
Y42413D01*
X100472Y42996D01*
X100143Y43489D01*
X99649Y43819D01*
X99067Y43935D01*
D02*
G37*
G36*
X9500Y54440D02*
X7620D01*
X6832Y54283D01*
X6164Y53836D01*
X5717Y53168D01*
X5560Y52380D01*
Y50500D01*
X9500D01*
Y54440D01*
D02*
G37*
G36*
X56853Y50555D02*
X52083D01*
Y48147D01*
X54880D01*
X55635Y48297D01*
X56275Y48725D01*
X56703Y49365D01*
X56853Y50120D01*
Y50555D01*
D02*
G37*
G36*
X51083D02*
X46312D01*
Y50120D01*
X46463Y49365D01*
X46890Y48725D01*
X47530Y48297D01*
X48285Y48147D01*
X51083D01*
Y50555D01*
D02*
G37*
G36*
X54880Y53963D02*
X52083D01*
Y51555D01*
X56853D01*
Y51990D01*
X56703Y52745D01*
X56275Y53385D01*
X55635Y53813D01*
X54880Y53963D01*
D02*
G37*
G36*
X51083D02*
X48285D01*
X47530Y53813D01*
X46890Y53385D01*
X46463Y52745D01*
X46312Y51990D01*
Y51555D01*
X51083D01*
Y53963D01*
D02*
G37*
G36*
X12380Y54440D02*
X10500D01*
Y50500D01*
X14440D01*
Y52380D01*
X14283Y53168D01*
X13836Y53836D01*
X13168Y54283D01*
X12380Y54440D01*
D02*
G37*
G36*
X28500Y43935D02*
X26933D01*
X26351Y43819D01*
X25857Y43489D01*
X25528Y42996D01*
X25412Y42413D01*
Y41437D01*
X28500D01*
Y43935D01*
D02*
G37*
G36*
X89067D02*
X87500D01*
Y41437D01*
X90588D01*
Y42413D01*
X90473Y42996D01*
X90143Y43489D01*
X89649Y43819D01*
X89067Y43935D01*
D02*
G37*
G36*
X119067D02*
X117500D01*
Y41437D01*
X120588D01*
Y42413D01*
X120473Y42996D01*
X120143Y43489D01*
X119649Y43819D01*
X119067Y43935D01*
D02*
G37*
G36*
X41067D02*
X39500D01*
Y41437D01*
X42588D01*
Y42413D01*
X42472Y42996D01*
X42143Y43489D01*
X41649Y43819D01*
X41067Y43935D01*
D02*
G37*
G36*
X31067D02*
X29500D01*
Y41437D01*
X32588D01*
Y42413D01*
X32473Y42996D01*
X32143Y43489D01*
X31649Y43819D01*
X31067Y43935D01*
D02*
G37*
G36*
X38500D02*
X36933D01*
X36351Y43819D01*
X35857Y43489D01*
X35528Y42996D01*
X35412Y42413D01*
Y41437D01*
X38500D01*
Y43935D01*
D02*
G37*
G36*
X70500Y14372D02*
Y10500D01*
X74372D01*
X74287Y11149D01*
X73843Y12219D01*
X73138Y13138D01*
X72219Y13843D01*
X71149Y14287D01*
X70500Y14372D01*
D02*
G37*
G36*
X69500D02*
X68851Y14287D01*
X67781Y13843D01*
X66862Y13138D01*
X66157Y12219D01*
X65713Y11149D01*
X65628Y10500D01*
X69500D01*
Y14372D01*
D02*
G37*
G36*
X89500D02*
X88851Y14287D01*
X87781Y13843D01*
X86862Y13138D01*
X86157Y12219D01*
X85713Y11149D01*
X85628Y10500D01*
X89500D01*
Y14372D01*
D02*
G37*
G36*
X80500D02*
Y10500D01*
X84372D01*
X84287Y11149D01*
X83843Y12219D01*
X83138Y13138D01*
X82219Y13843D01*
X81149Y14287D01*
X80500Y14372D01*
D02*
G37*
G36*
X79500D02*
X78851Y14287D01*
X77781Y13843D01*
X76862Y13138D01*
X76157Y12219D01*
X75713Y11149D01*
X75628Y10500D01*
X79500D01*
Y14372D01*
D02*
G37*
G36*
X50500D02*
Y10500D01*
X54372D01*
X54287Y11149D01*
X53843Y12219D01*
X53138Y13138D01*
X52219Y13843D01*
X51149Y14287D01*
X50500Y14372D01*
D02*
G37*
G36*
X49500D02*
X48851Y14287D01*
X47781Y13843D01*
X46862Y13138D01*
X46157Y12219D01*
X45713Y11149D01*
X45628Y10500D01*
X49500D01*
Y14372D01*
D02*
G37*
G36*
X40500D02*
Y10500D01*
X44372D01*
X44287Y11149D01*
X43843Y12219D01*
X43138Y13138D01*
X42219Y13843D01*
X41149Y14287D01*
X40500Y14372D01*
D02*
G37*
G36*
X60500D02*
Y10500D01*
X64372D01*
X64287Y11149D01*
X63843Y12219D01*
X63138Y13138D01*
X62219Y13843D01*
X61149Y14287D01*
X60500Y14372D01*
D02*
G37*
G36*
X39500D02*
X38851Y14287D01*
X37781Y13843D01*
X36862Y13138D01*
X36157Y12219D01*
X35713Y11149D01*
X35628Y10500D01*
X39500D01*
Y14372D01*
D02*
G37*
G36*
X59500D02*
X58851Y14287D01*
X57781Y13843D01*
X56862Y13138D01*
X56157Y12219D01*
X55713Y11149D01*
X55628Y10500D01*
X59500D01*
Y14372D01*
D02*
G37*
G36*
X90500D02*
Y10500D01*
X94372D01*
X94287Y11149D01*
X93843Y12219D01*
X93138Y13138D01*
X92219Y13843D01*
X91149Y14287D01*
X90500Y14372D01*
D02*
G37*
G36*
X32380Y24032D02*
X27620D01*
X26988Y23906D01*
X26452Y23548D01*
X26094Y23012D01*
X25968Y22380D01*
Y17620D01*
X26094Y16988D01*
X26452Y16452D01*
X26988Y16094D01*
X27620Y15968D01*
X32380D01*
X33012Y16094D01*
X33548Y16452D01*
X33906Y16988D01*
X34032Y17620D01*
Y22380D01*
X33906Y23012D01*
X33548Y23548D01*
X33012Y23906D01*
X32380Y24032D01*
D02*
G37*
G36*
X62380D02*
X57620D01*
X56988Y23906D01*
X56452Y23548D01*
X56094Y23012D01*
X55968Y22380D01*
Y17620D01*
X56094Y16988D01*
X56452Y16452D01*
X56988Y16094D01*
X57620Y15968D01*
X62380D01*
X63012Y16094D01*
X63548Y16452D01*
X63906Y16988D01*
X64032Y17620D01*
Y22380D01*
X63906Y23012D01*
X63548Y23548D01*
X63012Y23906D01*
X62380Y24032D01*
D02*
G37*
G36*
X52380D02*
X47620D01*
X46988Y23906D01*
X46452Y23548D01*
X46094Y23012D01*
X45968Y22380D01*
Y17620D01*
X46094Y16988D01*
X46452Y16452D01*
X46988Y16094D01*
X47620Y15968D01*
X52380D01*
X53012Y16094D01*
X53548Y16452D01*
X53906Y16988D01*
X54032Y17620D01*
Y22380D01*
X53906Y23012D01*
X53548Y23548D01*
X53012Y23906D01*
X52380Y24032D01*
D02*
G37*
G36*
X42380D02*
X37620D01*
X36988Y23906D01*
X36452Y23548D01*
X36094Y23012D01*
X35968Y22380D01*
Y17620D01*
X36094Y16988D01*
X36452Y16452D01*
X36988Y16094D01*
X37620Y15968D01*
X42380D01*
X43012Y16094D01*
X43548Y16452D01*
X43906Y16988D01*
X44032Y17620D01*
Y22380D01*
X43906Y23012D01*
X43548Y23548D01*
X43012Y23906D01*
X42380Y24032D01*
D02*
G37*
G36*
X109500Y14372D02*
X108851Y14287D01*
X107781Y13843D01*
X106862Y13138D01*
X106157Y12219D01*
X105713Y11149D01*
X105628Y10500D01*
X109500D01*
Y14372D01*
D02*
G37*
G36*
X100500D02*
Y10500D01*
X104372D01*
X104287Y11149D01*
X103843Y12219D01*
X103138Y13138D01*
X102219Y13843D01*
X101149Y14287D01*
X100500Y14372D01*
D02*
G37*
G36*
X99500D02*
X98851Y14287D01*
X97781Y13843D01*
X96862Y13138D01*
X96157Y12219D01*
X95713Y11149D01*
X95628Y10500D01*
X99500D01*
Y14372D01*
D02*
G37*
G36*
X120500D02*
Y10500D01*
X124372D01*
X124287Y11149D01*
X123843Y12219D01*
X123138Y13138D01*
X122219Y13843D01*
X121149Y14287D01*
X120500Y14372D01*
D02*
G37*
G36*
X119500D02*
X118851Y14287D01*
X117781Y13843D01*
X116862Y13138D01*
X116157Y12219D01*
X115713Y11149D01*
X115628Y10500D01*
X119500D01*
Y14372D01*
D02*
G37*
G36*
X110500D02*
Y10500D01*
X114372D01*
X114287Y11149D01*
X113843Y12219D01*
X113138Y13138D01*
X112219Y13843D01*
X111149Y14287D01*
X110500Y14372D01*
D02*
G37*
G36*
X30500D02*
Y10500D01*
X34372D01*
X34287Y11149D01*
X33843Y12219D01*
X33138Y13138D01*
X32219Y13843D01*
X31149Y14287D01*
X30500Y14372D01*
D02*
G37*
G36*
X64372Y9500D02*
X60500D01*
Y5628D01*
X61149Y5713D01*
X62219Y6157D01*
X63138Y6862D01*
X63843Y7781D01*
X64287Y8851D01*
X64372Y9500D01*
D02*
G37*
G36*
X59500D02*
X55628D01*
X55713Y8851D01*
X56157Y7781D01*
X56862Y6862D01*
X57781Y6157D01*
X58851Y5713D01*
X59500Y5628D01*
Y9500D01*
D02*
G37*
G36*
X54372D02*
X50500D01*
Y5628D01*
X51149Y5713D01*
X52219Y6157D01*
X53138Y6862D01*
X53843Y7781D01*
X54287Y8851D01*
X54372Y9500D01*
D02*
G37*
G36*
X79500D02*
X75628D01*
X75713Y8851D01*
X76157Y7781D01*
X76862Y6862D01*
X77781Y6157D01*
X78851Y5713D01*
X79500Y5628D01*
Y9500D01*
D02*
G37*
G36*
X74372D02*
X70500D01*
Y5628D01*
X71149Y5713D01*
X72219Y6157D01*
X73138Y6862D01*
X73843Y7781D01*
X74287Y8851D01*
X74372Y9500D01*
D02*
G37*
G36*
X69500D02*
X65628D01*
X65713Y8851D01*
X66157Y7781D01*
X66862Y6862D01*
X67781Y6157D01*
X68851Y5713D01*
X69500Y5628D01*
Y9500D01*
D02*
G37*
G36*
X34372D02*
X30500D01*
Y5628D01*
X31149Y5713D01*
X32219Y6157D01*
X33138Y6862D01*
X33843Y7781D01*
X34287Y8851D01*
X34372Y9500D01*
D02*
G37*
G36*
X29500D02*
X25628D01*
X25713Y8851D01*
X26157Y7781D01*
X26862Y6862D01*
X27781Y6157D01*
X28851Y5713D01*
X29500Y5628D01*
Y9500D01*
D02*
G37*
G36*
X49500D02*
X45628D01*
X45713Y8851D01*
X46157Y7781D01*
X46862Y6862D01*
X47781Y6157D01*
X48851Y5713D01*
X49500Y5628D01*
Y9500D01*
D02*
G37*
G36*
X44372D02*
X40500D01*
Y5628D01*
X41149Y5713D01*
X42219Y6157D01*
X43138Y6862D01*
X43843Y7781D01*
X44287Y8851D01*
X44372Y9500D01*
D02*
G37*
G36*
X39500D02*
X35628D01*
X35713Y8851D01*
X36157Y7781D01*
X36862Y6862D01*
X37781Y6157D01*
X38851Y5713D01*
X39500Y5628D01*
Y9500D01*
D02*
G37*
G36*
X124372D02*
X120500D01*
Y5628D01*
X121149Y5713D01*
X122219Y6157D01*
X123138Y6862D01*
X123843Y7781D01*
X124287Y8851D01*
X124372Y9500D01*
D02*
G37*
G36*
X119500D02*
X115628D01*
X115713Y8851D01*
X116157Y7781D01*
X116862Y6862D01*
X117781Y6157D01*
X118851Y5713D01*
X119500Y5628D01*
Y9500D01*
D02*
G37*
G36*
X114372D02*
X110500D01*
Y5628D01*
X111149Y5713D01*
X112219Y6157D01*
X113138Y6862D01*
X113843Y7781D01*
X114287Y8851D01*
X114372Y9500D01*
D02*
G37*
G36*
X29500Y14372D02*
X28851Y14287D01*
X27781Y13843D01*
X26862Y13138D01*
X26157Y12219D01*
X25713Y11149D01*
X25628Y10500D01*
X29500D01*
Y14372D01*
D02*
G37*
G36*
X94372Y9500D02*
X90500D01*
Y5628D01*
X91149Y5713D01*
X92219Y6157D01*
X93138Y6862D01*
X93843Y7781D01*
X94287Y8851D01*
X94372Y9500D01*
D02*
G37*
G36*
X89500D02*
X85628D01*
X85713Y8851D01*
X86157Y7781D01*
X86862Y6862D01*
X87781Y6157D01*
X88851Y5713D01*
X89500Y5628D01*
Y9500D01*
D02*
G37*
G36*
X84372D02*
X80500D01*
Y5628D01*
X81149Y5713D01*
X82219Y6157D01*
X83138Y6862D01*
X83843Y7781D01*
X84287Y8851D01*
X84372Y9500D01*
D02*
G37*
G36*
X109500D02*
X105628D01*
X105713Y8851D01*
X106157Y7781D01*
X106862Y6862D01*
X107781Y6157D01*
X108851Y5713D01*
X109500Y5628D01*
Y9500D01*
D02*
G37*
G36*
X104372D02*
X100500D01*
Y5628D01*
X101149Y5713D01*
X102219Y6157D01*
X103138Y6862D01*
X103843Y7781D01*
X104287Y8851D01*
X104372Y9500D01*
D02*
G37*
G36*
X99500D02*
X95628D01*
X95713Y8851D01*
X96157Y7781D01*
X96862Y6862D01*
X97781Y6157D01*
X98851Y5713D01*
X99500Y5628D01*
Y9500D01*
D02*
G37*
G36*
X73917Y41500D02*
X69145D01*
Y36660D01*
X69305Y35857D01*
X69759Y35177D01*
X70440Y34722D01*
X71243Y34562D01*
X73917D01*
Y41500D01*
D02*
G37*
G36*
X106500Y36061D02*
X104933D01*
X104351Y35945D01*
X103857Y35615D01*
X103527Y35122D01*
X103412Y34539D01*
Y33563D01*
X106500D01*
Y36061D01*
D02*
G37*
G36*
X92380Y24032D02*
X87620D01*
X86988Y23906D01*
X86452Y23548D01*
X86094Y23012D01*
X85968Y22380D01*
Y17620D01*
X86094Y16988D01*
X86452Y16452D01*
X86988Y16094D01*
X87620Y15968D01*
X92380D01*
X93012Y16094D01*
X93548Y16452D01*
X93906Y16988D01*
X94032Y17620D01*
Y22380D01*
X93906Y23012D01*
X93548Y23548D01*
X93012Y23906D01*
X92380Y24032D01*
D02*
G37*
G36*
X82380D02*
X77620D01*
X76988Y23906D01*
X76452Y23548D01*
X76094Y23012D01*
X75968Y22380D01*
Y17620D01*
X76094Y16988D01*
X76452Y16452D01*
X76988Y16094D01*
X77620Y15968D01*
X82380D01*
X83012Y16094D01*
X83548Y16452D01*
X83906Y16988D01*
X84032Y17620D01*
Y22380D01*
X83906Y23012D01*
X83548Y23548D01*
X83012Y23906D01*
X82380Y24032D01*
D02*
G37*
G36*
X72380D02*
X67620D01*
X66988Y23906D01*
X66452Y23548D01*
X66094Y23012D01*
X65968Y22380D01*
Y17620D01*
X66094Y16988D01*
X66452Y16452D01*
X66988Y16094D01*
X67620Y15968D01*
X72380D01*
X73012Y16094D01*
X73548Y16452D01*
X73906Y16988D01*
X74032Y17620D01*
Y22380D01*
X73906Y23012D01*
X73548Y23548D01*
X73012Y23906D01*
X72380Y24032D01*
D02*
G37*
G36*
X122380D02*
X117620D01*
X116988Y23906D01*
X116452Y23548D01*
X116094Y23012D01*
X115968Y22380D01*
Y17620D01*
X116094Y16988D01*
X116452Y16452D01*
X116988Y16094D01*
X117620Y15968D01*
X122380D01*
X123012Y16094D01*
X123548Y16452D01*
X123906Y16988D01*
X124032Y17620D01*
Y22380D01*
X123906Y23012D01*
X123548Y23548D01*
X123012Y23906D01*
X122380Y24032D01*
D02*
G37*
G36*
X112380D02*
X107620D01*
X106988Y23906D01*
X106452Y23548D01*
X106094Y23012D01*
X105968Y22380D01*
Y17620D01*
X106094Y16988D01*
X106452Y16452D01*
X106988Y16094D01*
X107620Y15968D01*
X112380D01*
X113012Y16094D01*
X113548Y16452D01*
X113906Y16988D01*
X114032Y17620D01*
Y22380D01*
X113906Y23012D01*
X113548Y23548D01*
X113012Y23906D01*
X112380Y24032D01*
D02*
G37*
G36*
X102380D02*
X97620D01*
X96988Y23906D01*
X96452Y23548D01*
X96094Y23012D01*
X95968Y22380D01*
Y17620D01*
X96094Y16988D01*
X96452Y16452D01*
X96988Y16094D01*
X97620Y15968D01*
X102380D01*
X103012Y16094D01*
X103548Y16452D01*
X103906Y16988D01*
X104032Y17620D01*
Y22380D01*
X103906Y23012D01*
X103548Y23548D01*
X103012Y23906D01*
X102380Y24032D01*
D02*
G37*
G36*
X86500Y32563D02*
X83412D01*
Y31587D01*
X83527Y31004D01*
X83857Y30511D01*
X84351Y30181D01*
X84933Y30065D01*
X86500D01*
Y32563D01*
D02*
G37*
G36*
X96500Y36061D02*
X94933D01*
X94351Y35945D01*
X93857Y35615D01*
X93528Y35122D01*
X93412Y34539D01*
Y33563D01*
X96500D01*
Y36061D01*
D02*
G37*
G36*
X86500D02*
X84933D01*
X84351Y35945D01*
X83857Y35615D01*
X83527Y35122D01*
X83412Y34539D01*
Y33563D01*
X86500D01*
Y36061D01*
D02*
G37*
G36*
X99067D02*
X97500D01*
Y33563D01*
X100588D01*
Y34539D01*
X100472Y35122D01*
X100143Y35615D01*
X99649Y35945D01*
X99067Y36061D01*
D02*
G37*
G36*
X89067D02*
X87500D01*
Y33563D01*
X90588D01*
Y34539D01*
X90473Y35122D01*
X90143Y35615D01*
X89649Y35945D01*
X89067Y36061D01*
D02*
G37*
G36*
X100588Y32563D02*
X97500D01*
Y30065D01*
X99067D01*
X99649Y30181D01*
X100143Y30511D01*
X100472Y31004D01*
X100588Y31587D01*
Y32563D01*
D02*
G37*
G36*
X96500D02*
X93412D01*
Y31587D01*
X93528Y31004D01*
X93857Y30511D01*
X94351Y30181D01*
X94933Y30065D01*
X96500D01*
Y32563D01*
D02*
G37*
G36*
X90588D02*
X87500D01*
Y30065D01*
X89067D01*
X89649Y30181D01*
X90143Y30511D01*
X90473Y31004D01*
X90588Y31587D01*
Y32563D01*
D02*
G37*
G36*
X110588Y32563D02*
X107500D01*
Y30065D01*
X109067D01*
X109649Y30181D01*
X110143Y30511D01*
X110473Y31004D01*
X110588Y31587D01*
Y32563D01*
D02*
G37*
G36*
X106500D02*
X103412D01*
Y31587D01*
X103527Y31004D01*
X103857Y30511D01*
X104351Y30181D01*
X104933Y30065D01*
X106500D01*
Y32563D01*
D02*
G37*
%LPD*%
D10*
X117000Y33063D02*
D03*
Y40937D02*
D03*
X29000D02*
D03*
Y33063D02*
D03*
X39000Y40937D02*
D03*
Y33063D02*
D03*
X87000Y40937D02*
D03*
Y33063D02*
D03*
X97000Y40937D02*
D03*
Y33063D02*
D03*
X107000Y40937D02*
D03*
Y33063D02*
D03*
D11*
X74417Y42000D02*
D03*
D12*
X51583Y32945D02*
D03*
Y42000D02*
D03*
Y51055D02*
D03*
D13*
Y42000D02*
X74417D01*
Y31417D02*
Y42000D01*
D14*
X107000Y40937D02*
X110937Y37000D01*
X113063D01*
X117000Y33063D01*
D15*
X30000Y10000D02*
D03*
X40000D02*
D03*
X50000D02*
D03*
X60000D02*
D03*
X70000D02*
D03*
X80000D02*
D03*
X90000D02*
D03*
X100000D02*
D03*
X110000D02*
D03*
X120000D02*
D03*
X10000D02*
D03*
Y40000D02*
D03*
D16*
X30000Y20000D02*
D03*
X40000D02*
D03*
X50000D02*
D03*
X60000D02*
D03*
X70000D02*
D03*
X80000D02*
D03*
X90000D02*
D03*
X100000D02*
D03*
X110000D02*
D03*
X120000D02*
D03*
X10000D02*
D03*
Y50000D02*
D03*
D17*
X29000Y46000D02*
D03*
X39000D02*
D03*
X44000Y51000D02*
D03*
X87000Y46000D02*
D03*
X97000D02*
D03*
X117000D02*
D03*
X59000Y51000D02*
D03*
M02*
