G04 Layer_Color=2752767*
%FSLAX25Y25*%
%MOIN*%
G70*
G01*
G75*
%ADD26C,0.00200*%
%ADD27C,0.00267*%
D26*
X29200Y9200D02*
Y10800D01*
X30800D01*
Y9200D01*
X29200D01*
X39200D02*
Y10800D01*
X40800D01*
Y9200D01*
X39200D01*
X49200D02*
Y10800D01*
X50800D01*
Y9200D01*
X49200D01*
X59200D02*
Y10800D01*
X60800D01*
Y9200D01*
X59200D01*
X69200D02*
Y10800D01*
X70800D01*
Y9200D01*
X69200D01*
X79200D02*
Y10800D01*
X80800D01*
Y9200D01*
X79200D01*
X89200D02*
Y10800D01*
X90800D01*
Y9200D01*
X89200D01*
X99200D02*
Y10800D01*
X100800D01*
Y9200D01*
X99200D01*
X109200D02*
Y10800D01*
X110800D01*
Y9200D01*
X109200D01*
X119200D02*
Y10800D01*
X120800D01*
Y9200D01*
X119200D01*
X29200Y19200D02*
Y20800D01*
X30800D01*
Y19200D01*
X29200D01*
X39200D02*
Y20800D01*
X40800D01*
Y19200D01*
X39200D01*
X49200D02*
Y20800D01*
X50800D01*
Y19200D01*
X49200D01*
X59200D02*
Y20800D01*
X60800D01*
Y19200D01*
X59200D01*
X69200D02*
Y20800D01*
X70800D01*
Y19200D01*
X69200D01*
X79200D02*
Y20800D01*
X80800D01*
Y19200D01*
X79200D01*
X89200D02*
Y20800D01*
X90800D01*
Y19200D01*
X89200D01*
X99200D02*
Y20800D01*
X100800D01*
Y19200D01*
X99200D01*
X109200D02*
Y20800D01*
X110800D01*
Y19200D01*
X109200D01*
X119200D02*
Y20800D01*
X120800D01*
Y19200D01*
X119200D01*
X9200D02*
Y20800D01*
X10800D01*
Y19200D01*
X9200D01*
Y9200D02*
Y10800D01*
X10800D01*
Y9200D01*
X9200D01*
Y49200D02*
Y50800D01*
X10800D01*
Y49200D01*
X9200D01*
Y39200D02*
Y40800D01*
X10800D01*
Y39200D01*
X9200D01*
D27*
X29800Y46000D02*
X29247Y46761D01*
X28353Y46470D01*
Y45530D01*
X29247Y45239D01*
X29800Y46000D01*
X39800D02*
X39247Y46761D01*
X38353Y46470D01*
Y45530D01*
X39247Y45239D01*
X39800Y46000D01*
X44800Y51000D02*
X44247Y51761D01*
X43353Y51470D01*
Y50530D01*
X44247Y50239D01*
X44800Y51000D01*
X87800Y46000D02*
X87247Y46761D01*
X86353Y46470D01*
Y45530D01*
X87247Y45239D01*
X87800Y46000D01*
X97800D02*
X97247Y46761D01*
X96353Y46470D01*
Y45530D01*
X97247Y45239D01*
X97800Y46000D01*
X117800D02*
X117247Y46761D01*
X116353Y46470D01*
Y45530D01*
X117247Y45239D01*
X117800Y46000D01*
X59800Y51000D02*
X59247Y51761D01*
X58353Y51470D01*
Y50530D01*
X59247Y50239D01*
X59800Y51000D01*
M02*
