G04 Layer_Physical_Order=2*
G04 Layer_Color=16711680*
%FSLAX25Y25*%
%MOIN*%
G70*
G01*
G75*
%ADD15C,0.06800*%
G04:AMPARAMS|DCode=16|XSize=68mil|YSize=68mil|CornerRadius=10.2mil|HoleSize=0mil|Usage=FLASHONLY|Rotation=0.000|XOffset=0mil|YOffset=0mil|HoleType=Round|Shape=RoundedRectangle|*
%AMROUNDEDRECTD16*
21,1,0.06800,0.04760,0,0,0.0*
21,1,0.04760,0.06800,0,0,0.0*
1,1,0.02040,0.02380,-0.02380*
1,1,0.02040,-0.02380,-0.02380*
1,1,0.02040,-0.02380,0.02380*
1,1,0.02040,0.02380,0.02380*
%
%ADD16ROUNDEDRECTD16*%
%ADD17C,0.02559*%
G36*
X127188Y2733D02*
X2733D01*
Y56322D01*
X127188D01*
Y2733D01*
D02*
G37*
%LPC*%
G36*
X59500Y19500D02*
X55560D01*
Y17620D01*
X55717Y16832D01*
X56164Y16164D01*
X56832Y15717D01*
X57620Y15560D01*
X59500D01*
Y19500D01*
D02*
G37*
G36*
X64440D02*
X60500D01*
Y15560D01*
X62380D01*
X63168Y15717D01*
X63836Y16164D01*
X64283Y16832D01*
X64440Y17620D01*
Y19500D01*
D02*
G37*
G36*
X69500D02*
X65560D01*
Y17620D01*
X65717Y16832D01*
X66164Y16164D01*
X66832Y15717D01*
X67620Y15560D01*
X69500D01*
Y19500D01*
D02*
G37*
G36*
X54440D02*
X50500D01*
Y15560D01*
X52380D01*
X53168Y15717D01*
X53836Y16164D01*
X54283Y16832D01*
X54440Y17620D01*
Y19500D01*
D02*
G37*
G36*
X39500D02*
X35560D01*
Y17620D01*
X35717Y16832D01*
X36164Y16164D01*
X36832Y15717D01*
X37620Y15560D01*
X39500D01*
Y19500D01*
D02*
G37*
G36*
X44440D02*
X40500D01*
Y15560D01*
X42380D01*
X43168Y15717D01*
X43836Y16164D01*
X44283Y16832D01*
X44440Y17620D01*
Y19500D01*
D02*
G37*
G36*
X49500D02*
X45560D01*
Y17620D01*
X45717Y16832D01*
X46164Y16164D01*
X46832Y15717D01*
X47620Y15560D01*
X49500D01*
Y19500D01*
D02*
G37*
G36*
X94440D02*
X90500D01*
Y15560D01*
X92380D01*
X93168Y15717D01*
X93836Y16164D01*
X94283Y16832D01*
X94440Y17620D01*
Y19500D01*
D02*
G37*
G36*
X99500D02*
X95560D01*
Y17620D01*
X95717Y16832D01*
X96164Y16164D01*
X96832Y15717D01*
X97620Y15560D01*
X99500D01*
Y19500D01*
D02*
G37*
G36*
X104440D02*
X100500D01*
Y15560D01*
X102380D01*
X103168Y15717D01*
X103836Y16164D01*
X104283Y16832D01*
X104440Y17620D01*
Y19500D01*
D02*
G37*
G36*
X89500D02*
X85560D01*
Y17620D01*
X85717Y16832D01*
X86164Y16164D01*
X86832Y15717D01*
X87620Y15560D01*
X89500D01*
Y19500D01*
D02*
G37*
G36*
X74440D02*
X70500D01*
Y15560D01*
X72380D01*
X73168Y15717D01*
X73836Y16164D01*
X74283Y16832D01*
X74440Y17620D01*
Y19500D01*
D02*
G37*
G36*
X79500D02*
X75560D01*
Y17620D01*
X75717Y16832D01*
X76164Y16164D01*
X76832Y15717D01*
X77620Y15560D01*
X79500D01*
Y19500D01*
D02*
G37*
G36*
X84440D02*
X80500D01*
Y15560D01*
X82380D01*
X83168Y15717D01*
X83836Y16164D01*
X84283Y16832D01*
X84440Y17620D01*
Y19500D01*
D02*
G37*
G36*
X34440D02*
X30500D01*
Y15560D01*
X32380D01*
X33168Y15717D01*
X33836Y16164D01*
X34283Y16832D01*
X34440Y17620D01*
Y19500D01*
D02*
G37*
G36*
X60000Y14035D02*
X58956Y13897D01*
X57983Y13494D01*
X57147Y12853D01*
X56506Y12017D01*
X56103Y11044D01*
X55966Y10000D01*
X56103Y8956D01*
X56506Y7983D01*
X57147Y7147D01*
X57983Y6506D01*
X58956Y6103D01*
X60000Y5965D01*
X61044Y6103D01*
X62017Y6506D01*
X62853Y7147D01*
X63494Y7983D01*
X63897Y8956D01*
X64034Y10000D01*
X63897Y11044D01*
X63494Y12017D01*
X62853Y12853D01*
X62017Y13494D01*
X61044Y13897D01*
X60000Y14035D01*
D02*
G37*
G36*
X70000D02*
X68956Y13897D01*
X67983Y13494D01*
X67147Y12853D01*
X66506Y12017D01*
X66103Y11044D01*
X65965Y10000D01*
X66103Y8956D01*
X66506Y7983D01*
X67147Y7147D01*
X67983Y6506D01*
X68956Y6103D01*
X70000Y5965D01*
X71044Y6103D01*
X72017Y6506D01*
X72853Y7147D01*
X73494Y7983D01*
X73897Y8956D01*
X74035Y10000D01*
X73897Y11044D01*
X73494Y12017D01*
X72853Y12853D01*
X72017Y13494D01*
X71044Y13897D01*
X70000Y14035D01*
D02*
G37*
G36*
X80000D02*
X78956Y13897D01*
X77983Y13494D01*
X77147Y12853D01*
X76506Y12017D01*
X76103Y11044D01*
X75965Y10000D01*
X76103Y8956D01*
X76506Y7983D01*
X77147Y7147D01*
X77983Y6506D01*
X78956Y6103D01*
X80000Y5965D01*
X81044Y6103D01*
X82017Y6506D01*
X82853Y7147D01*
X83494Y7983D01*
X83897Y8956D01*
X84035Y10000D01*
X83897Y11044D01*
X83494Y12017D01*
X82853Y12853D01*
X82017Y13494D01*
X81044Y13897D01*
X80000Y14035D01*
D02*
G37*
G36*
X50000D02*
X48956Y13897D01*
X47983Y13494D01*
X47147Y12853D01*
X46506Y12017D01*
X46103Y11044D01*
X45965Y10000D01*
X46103Y8956D01*
X46506Y7983D01*
X47147Y7147D01*
X47983Y6506D01*
X48956Y6103D01*
X50000Y5965D01*
X51044Y6103D01*
X52017Y6506D01*
X52853Y7147D01*
X53494Y7983D01*
X53897Y8956D01*
X54035Y10000D01*
X53897Y11044D01*
X53494Y12017D01*
X52853Y12853D01*
X52017Y13494D01*
X51044Y13897D01*
X50000Y14035D01*
D02*
G37*
G36*
X10000D02*
X8956Y13897D01*
X7983Y13494D01*
X7147Y12853D01*
X6506Y12017D01*
X6103Y11044D01*
X5965Y10000D01*
X6103Y8956D01*
X6506Y7983D01*
X7147Y7147D01*
X7983Y6506D01*
X8956Y6103D01*
X10000Y5965D01*
X11044Y6103D01*
X12017Y6506D01*
X12853Y7147D01*
X13494Y7983D01*
X13897Y8956D01*
X14035Y10000D01*
X13897Y11044D01*
X13494Y12017D01*
X12853Y12853D01*
X12017Y13494D01*
X11044Y13897D01*
X10000Y14035D01*
D02*
G37*
G36*
X30000D02*
X28956Y13897D01*
X27983Y13494D01*
X27147Y12853D01*
X26506Y12017D01*
X26103Y11044D01*
X25965Y10000D01*
X26103Y8956D01*
X26506Y7983D01*
X27147Y7147D01*
X27983Y6506D01*
X28956Y6103D01*
X30000Y5965D01*
X31044Y6103D01*
X32017Y6506D01*
X32853Y7147D01*
X33494Y7983D01*
X33897Y8956D01*
X34034Y10000D01*
X33897Y11044D01*
X33494Y12017D01*
X32853Y12853D01*
X32017Y13494D01*
X31044Y13897D01*
X30000Y14035D01*
D02*
G37*
G36*
X40000D02*
X38956Y13897D01*
X37983Y13494D01*
X37147Y12853D01*
X36506Y12017D01*
X36103Y11044D01*
X35965Y10000D01*
X36103Y8956D01*
X36506Y7983D01*
X37147Y7147D01*
X37983Y6506D01*
X38956Y6103D01*
X40000Y5965D01*
X41044Y6103D01*
X42017Y6506D01*
X42853Y7147D01*
X43494Y7983D01*
X43897Y8956D01*
X44034Y10000D01*
X43897Y11044D01*
X43494Y12017D01*
X42853Y12853D01*
X42017Y13494D01*
X41044Y13897D01*
X40000Y14035D01*
D02*
G37*
G36*
X9500Y19500D02*
X5560D01*
Y17620D01*
X5717Y16832D01*
X6164Y16164D01*
X6832Y15717D01*
X7620Y15560D01*
X9500D01*
Y19500D01*
D02*
G37*
G36*
X14440D02*
X10500D01*
Y15560D01*
X12380D01*
X13168Y15717D01*
X13836Y16164D01*
X14283Y16832D01*
X14440Y17620D01*
Y19500D01*
D02*
G37*
G36*
X29500D02*
X25560D01*
Y17620D01*
X25717Y16832D01*
X26164Y16164D01*
X26832Y15717D01*
X27620Y15560D01*
X29500D01*
Y19500D01*
D02*
G37*
G36*
X120000Y14035D02*
X118956Y13897D01*
X117983Y13494D01*
X117147Y12853D01*
X116506Y12017D01*
X116103Y11044D01*
X115965Y10000D01*
X116103Y8956D01*
X116506Y7983D01*
X117147Y7147D01*
X117983Y6506D01*
X118956Y6103D01*
X120000Y5965D01*
X121044Y6103D01*
X122017Y6506D01*
X122853Y7147D01*
X123494Y7983D01*
X123897Y8956D01*
X124035Y10000D01*
X123897Y11044D01*
X123494Y12017D01*
X122853Y12853D01*
X122017Y13494D01*
X121044Y13897D01*
X120000Y14035D01*
D02*
G37*
G36*
X90000D02*
X88956Y13897D01*
X87983Y13494D01*
X87147Y12853D01*
X86506Y12017D01*
X86103Y11044D01*
X85966Y10000D01*
X86103Y8956D01*
X86506Y7983D01*
X87147Y7147D01*
X87983Y6506D01*
X88956Y6103D01*
X90000Y5965D01*
X91044Y6103D01*
X92017Y6506D01*
X92853Y7147D01*
X93494Y7983D01*
X93897Y8956D01*
X94034Y10000D01*
X93897Y11044D01*
X93494Y12017D01*
X92853Y12853D01*
X92017Y13494D01*
X91044Y13897D01*
X90000Y14035D01*
D02*
G37*
G36*
X100000D02*
X98956Y13897D01*
X97983Y13494D01*
X97147Y12853D01*
X96506Y12017D01*
X96103Y11044D01*
X95965Y10000D01*
X96103Y8956D01*
X96506Y7983D01*
X97147Y7147D01*
X97983Y6506D01*
X98956Y6103D01*
X100000Y5965D01*
X101044Y6103D01*
X102017Y6506D01*
X102853Y7147D01*
X103494Y7983D01*
X103897Y8956D01*
X104034Y10000D01*
X103897Y11044D01*
X103494Y12017D01*
X102853Y12853D01*
X102017Y13494D01*
X101044Y13897D01*
X100000Y14035D01*
D02*
G37*
G36*
X110000D02*
X108956Y13897D01*
X107983Y13494D01*
X107147Y12853D01*
X106506Y12017D01*
X106103Y11044D01*
X105965Y10000D01*
X106103Y8956D01*
X106506Y7983D01*
X107147Y7147D01*
X107983Y6506D01*
X108956Y6103D01*
X110000Y5965D01*
X111044Y6103D01*
X112017Y6506D01*
X112853Y7147D01*
X113494Y7983D01*
X113897Y8956D01*
X114034Y10000D01*
X113897Y11044D01*
X113494Y12017D01*
X112853Y12853D01*
X112017Y13494D01*
X111044Y13897D01*
X110000Y14035D01*
D02*
G37*
G36*
X109500Y19500D02*
X105560D01*
Y17620D01*
X105717Y16832D01*
X106164Y16164D01*
X106832Y15717D01*
X107620Y15560D01*
X109500D01*
Y19500D01*
D02*
G37*
G36*
X102380Y24440D02*
X100500D01*
Y20500D01*
X104440D01*
Y22380D01*
X104283Y23168D01*
X103836Y23836D01*
X103168Y24283D01*
X102380Y24440D01*
D02*
G37*
G36*
X109500D02*
X107620D01*
X106832Y24283D01*
X106164Y23836D01*
X105717Y23168D01*
X105560Y22380D01*
Y20500D01*
X109500D01*
Y24440D01*
D02*
G37*
G36*
X112380D02*
X110500D01*
Y20500D01*
X114440D01*
Y22380D01*
X114283Y23168D01*
X113836Y23836D01*
X113168Y24283D01*
X112380Y24440D01*
D02*
G37*
G36*
X99500D02*
X97620D01*
X96832Y24283D01*
X96164Y23836D01*
X95717Y23168D01*
X95560Y22380D01*
Y20500D01*
X99500D01*
Y24440D01*
D02*
G37*
G36*
X82380D02*
X80500D01*
Y20500D01*
X84440D01*
Y22380D01*
X84283Y23168D01*
X83836Y23836D01*
X83168Y24283D01*
X82380Y24440D01*
D02*
G37*
G36*
X89500D02*
X87620D01*
X86832Y24283D01*
X86164Y23836D01*
X85717Y23168D01*
X85560Y22380D01*
Y20500D01*
X89500D01*
Y24440D01*
D02*
G37*
G36*
X92380D02*
X90500D01*
Y20500D01*
X94440D01*
Y22380D01*
X94283Y23168D01*
X93836Y23836D01*
X93168Y24283D01*
X92380Y24440D01*
D02*
G37*
G36*
X119500D02*
X117620D01*
X116832Y24283D01*
X116164Y23836D01*
X115717Y23168D01*
X115560Y22380D01*
Y20500D01*
X119500D01*
Y24440D01*
D02*
G37*
G36*
X14440Y49500D02*
X10500D01*
Y45560D01*
X12380D01*
X13168Y45717D01*
X13836Y46164D01*
X14283Y46832D01*
X14440Y47620D01*
Y49500D01*
D02*
G37*
G36*
X9500Y54440D02*
X7620D01*
X6832Y54283D01*
X6164Y53836D01*
X5717Y53168D01*
X5560Y52380D01*
Y50500D01*
X9500D01*
Y54440D01*
D02*
G37*
G36*
X12380D02*
X10500D01*
Y50500D01*
X14440D01*
Y52380D01*
X14283Y53168D01*
X13836Y53836D01*
X13168Y54283D01*
X12380Y54440D01*
D02*
G37*
G36*
X9500Y49500D02*
X5560D01*
Y47620D01*
X5717Y46832D01*
X6164Y46164D01*
X6832Y45717D01*
X7620Y45560D01*
X9500D01*
Y49500D01*
D02*
G37*
G36*
X122380Y24440D02*
X120500D01*
Y20500D01*
X124440D01*
Y22380D01*
X124283Y23168D01*
X123836Y23836D01*
X123168Y24283D01*
X122380Y24440D01*
D02*
G37*
G36*
X12380D02*
X10500D01*
Y20500D01*
X14440D01*
Y22380D01*
X14283Y23168D01*
X13836Y23836D01*
X13168Y24283D01*
X12380Y24440D01*
D02*
G37*
G36*
X10000Y44034D02*
X8956Y43897D01*
X7983Y43494D01*
X7147Y42853D01*
X6506Y42017D01*
X6103Y41044D01*
X5965Y40000D01*
X6103Y38956D01*
X6506Y37983D01*
X7147Y37147D01*
X7983Y36506D01*
X8956Y36103D01*
X10000Y35965D01*
X11044Y36103D01*
X12017Y36506D01*
X12853Y37147D01*
X13494Y37983D01*
X13897Y38956D01*
X14035Y40000D01*
X13897Y41044D01*
X13494Y42017D01*
X12853Y42853D01*
X12017Y43494D01*
X11044Y43897D01*
X10000Y44034D01*
D02*
G37*
G36*
X29500Y24440D02*
X27620D01*
X26832Y24283D01*
X26164Y23836D01*
X25717Y23168D01*
X25560Y22380D01*
Y20500D01*
X29500D01*
Y24440D01*
D02*
G37*
G36*
X32380D02*
X30500D01*
Y20500D01*
X34440D01*
Y22380D01*
X34283Y23168D01*
X33836Y23836D01*
X33168Y24283D01*
X32380Y24440D01*
D02*
G37*
G36*
X39500D02*
X37620D01*
X36832Y24283D01*
X36164Y23836D01*
X35717Y23168D01*
X35560Y22380D01*
Y20500D01*
X39500D01*
Y24440D01*
D02*
G37*
G36*
X9500D02*
X7620D01*
X6832Y24283D01*
X6164Y23836D01*
X5717Y23168D01*
X5560Y22380D01*
Y20500D01*
X9500D01*
Y24440D01*
D02*
G37*
G36*
X114440Y19500D02*
X110500D01*
Y15560D01*
X112380D01*
X113168Y15717D01*
X113836Y16164D01*
X114283Y16832D01*
X114440Y17620D01*
Y19500D01*
D02*
G37*
G36*
X119500D02*
X115560D01*
Y17620D01*
X115717Y16832D01*
X116164Y16164D01*
X116832Y15717D01*
X117620Y15560D01*
X119500D01*
Y19500D01*
D02*
G37*
G36*
X124440D02*
X120500D01*
Y15560D01*
X122380D01*
X123168Y15717D01*
X123836Y16164D01*
X124283Y16832D01*
X124440Y17620D01*
Y19500D01*
D02*
G37*
G36*
X42380Y24440D02*
X40500D01*
Y20500D01*
X44440D01*
Y22380D01*
X44283Y23168D01*
X43836Y23836D01*
X43168Y24283D01*
X42380Y24440D01*
D02*
G37*
G36*
X69500D02*
X67620D01*
X66832Y24283D01*
X66164Y23836D01*
X65717Y23168D01*
X65560Y22380D01*
Y20500D01*
X69500D01*
Y24440D01*
D02*
G37*
G36*
X72380D02*
X70500D01*
Y20500D01*
X74440D01*
Y22380D01*
X74283Y23168D01*
X73836Y23836D01*
X73168Y24283D01*
X72380Y24440D01*
D02*
G37*
G36*
X79500D02*
X77620D01*
X76832Y24283D01*
X76164Y23836D01*
X75717Y23168D01*
X75560Y22380D01*
Y20500D01*
X79500D01*
Y24440D01*
D02*
G37*
G36*
X62380D02*
X60500D01*
Y20500D01*
X64440D01*
Y22380D01*
X64283Y23168D01*
X63836Y23836D01*
X63168Y24283D01*
X62380Y24440D01*
D02*
G37*
G36*
X49500D02*
X47620D01*
X46832Y24283D01*
X46164Y23836D01*
X45717Y23168D01*
X45560Y22380D01*
Y20500D01*
X49500D01*
Y24440D01*
D02*
G37*
G36*
X52380D02*
X50500D01*
Y20500D01*
X54440D01*
Y22380D01*
X54283Y23168D01*
X53836Y23836D01*
X53168Y24283D01*
X52380Y24440D01*
D02*
G37*
G36*
X59500D02*
X57620D01*
X56832Y24283D01*
X56164Y23836D01*
X55717Y23168D01*
X55560Y22380D01*
Y20500D01*
X59500D01*
Y24440D01*
D02*
G37*
%LPD*%
D15*
X30000Y10000D02*
D03*
X40000D02*
D03*
X50000D02*
D03*
X60000D02*
D03*
X70000D02*
D03*
X80000D02*
D03*
X90000D02*
D03*
X100000D02*
D03*
X110000D02*
D03*
X120000D02*
D03*
X10000D02*
D03*
Y40000D02*
D03*
D16*
X30000Y20000D02*
D03*
X40000D02*
D03*
X50000D02*
D03*
X60000D02*
D03*
X70000D02*
D03*
X80000D02*
D03*
X90000D02*
D03*
X100000D02*
D03*
X110000D02*
D03*
X120000D02*
D03*
X10000D02*
D03*
Y50000D02*
D03*
D17*
X29000Y46000D02*
D03*
X39000D02*
D03*
X44000Y51000D02*
D03*
X87000Y46000D02*
D03*
X97000D02*
D03*
X117000D02*
D03*
X59000Y51000D02*
D03*
M02*
