M48
;Layer_Color=9474304
;FILE_FORMAT=2:4
INCH,LZ
;TYPE=PLATED
T1F00S00C0.0138
T2F00S00C0.0350
%
T01
X001Y0011
Y002
X0026Y0011
X0032Y0025
X0036
X0032Y0044
Y0055
X0088Y0046
Y0035
X0084Y0025
X011Y002
Y0011
X0088Y0065
X0084
X0094Y0079
X0101Y0083
X0019
X0036Y0065
T02
X001Y003
Y004
Y005
X011
Y004
Y003
Y006
X001
M30
