G04 Layer_Color=32896*
%FSLAX25Y25*%
%MOIN*%
G70*
G01*
G75*
%ADD21C,0.00600*%
G36*
X52000Y-2150D02*
X50835Y-2566D01*
Y-4176D01*
X52000Y-4625D01*
Y-5203D01*
X48159Y-3632D01*
Y-3077D01*
X52000Y-1612D01*
Y-2150D01*
D02*
G37*
G36*
X46000Y8462D02*
X44835Y8045D01*
Y6436D01*
X46000Y5986D01*
Y5409D01*
X42159Y6980D01*
Y7535D01*
X46000Y9000D01*
Y8462D01*
D02*
G37*
G36*
X52000Y-1151D02*
X51462D01*
Y-613D01*
X52000D01*
Y-1151D01*
D02*
G37*
G36*
X50757Y5348D02*
X50873Y5337D01*
X50984Y5320D01*
X51084Y5298D01*
X51179Y5270D01*
X51267Y5243D01*
X51345Y5209D01*
X51417Y5176D01*
X51478Y5143D01*
X51534Y5109D01*
X51578Y5082D01*
X51617Y5054D01*
X51650Y5032D01*
X51673Y5015D01*
X51684Y5004D01*
X51689Y4998D01*
X51756Y4926D01*
X51811Y4854D01*
X51861Y4776D01*
X51906Y4693D01*
X51939Y4615D01*
X51972Y4532D01*
X52017Y4377D01*
X52028Y4305D01*
X52039Y4238D01*
X52050Y4177D01*
X52056Y4127D01*
X52061Y4088D01*
Y4055D01*
Y4033D01*
Y4027D01*
X52050Y3855D01*
X52022Y3700D01*
X51989Y3561D01*
X51967Y3506D01*
X51945Y3450D01*
X51922Y3400D01*
X51900Y3356D01*
X51884Y3322D01*
X51867Y3289D01*
X51850Y3267D01*
X51839Y3250D01*
X51828Y3239D01*
Y3234D01*
X51728Y3123D01*
X51623Y3034D01*
X51512Y2956D01*
X51406Y2901D01*
X51312Y2856D01*
X51267Y2840D01*
X51234Y2823D01*
X51201Y2812D01*
X51179Y2806D01*
X51168Y2801D01*
X51162D01*
X51101Y3289D01*
X51206Y3333D01*
X51295Y3383D01*
X51373Y3433D01*
X51434Y3478D01*
X51478Y3517D01*
X51512Y3550D01*
X51534Y3578D01*
X51539Y3583D01*
X51584Y3655D01*
X51617Y3728D01*
X51639Y3805D01*
X51656Y3872D01*
X51667Y3933D01*
X51673Y3983D01*
Y4016D01*
Y4022D01*
Y4027D01*
X51667Y4094D01*
X51661Y4155D01*
X51634Y4266D01*
X51595Y4366D01*
X51551Y4454D01*
X51512Y4521D01*
X51473Y4571D01*
X51445Y4604D01*
X51434Y4610D01*
Y4615D01*
X51334Y4693D01*
X51223Y4754D01*
X51101Y4799D01*
X50990Y4832D01*
X50890Y4849D01*
X50846Y4860D01*
X50807Y4865D01*
X50774D01*
X50751Y4871D01*
X50729D01*
Y2789D01*
X50674Y2784D01*
X50607D01*
X50479Y2789D01*
X50363Y2801D01*
X50252Y2817D01*
X50146Y2840D01*
X50052Y2867D01*
X49963Y2895D01*
X49885Y2928D01*
X49813Y2962D01*
X49747Y2995D01*
X49691Y3028D01*
X49647Y3056D01*
X49608Y3084D01*
X49575Y3106D01*
X49552Y3123D01*
X49541Y3134D01*
X49536Y3139D01*
X49469Y3206D01*
X49408Y3278D01*
X49358Y3356D01*
X49314Y3433D01*
X49275Y3511D01*
X49247Y3583D01*
X49220Y3661D01*
X49203Y3728D01*
X49186Y3800D01*
X49175Y3861D01*
X49164Y3916D01*
X49158Y3961D01*
X49153Y3999D01*
Y4033D01*
Y4049D01*
Y4055D01*
X49158Y4160D01*
X49169Y4260D01*
X49186Y4355D01*
X49214Y4443D01*
X49242Y4527D01*
X49275Y4604D01*
X49308Y4677D01*
X49347Y4738D01*
X49380Y4799D01*
X49419Y4849D01*
X49453Y4893D01*
X49480Y4926D01*
X49508Y4954D01*
X49525Y4976D01*
X49536Y4987D01*
X49541Y4993D01*
X49619Y5054D01*
X49702Y5109D01*
X49786Y5159D01*
X49874Y5204D01*
X49969Y5237D01*
X50058Y5265D01*
X50235Y5309D01*
X50313Y5326D01*
X50390Y5337D01*
X50457Y5342D01*
X50518Y5348D01*
X50568Y5354D01*
X50635D01*
X50757Y5348D01*
D02*
G37*
G36*
X52000Y1452D02*
Y1002D01*
X49214Y-58D01*
Y431D01*
X50918Y1047D01*
X51029Y1086D01*
X51129Y1125D01*
X51223Y1152D01*
X51295Y1180D01*
X51362Y1197D01*
X51406Y1213D01*
X51434Y1219D01*
X51445Y1225D01*
X51340Y1258D01*
X51234Y1285D01*
X51140Y1319D01*
X51056Y1347D01*
X50984Y1369D01*
X50929Y1385D01*
X50912Y1391D01*
X50896Y1397D01*
X50890Y1402D01*
X50884D01*
X49214Y2001D01*
Y2501D01*
X52000Y1452D01*
D02*
G37*
G36*
X46000Y4482D02*
X44296D01*
Y3894D01*
Y3827D01*
X44302Y3766D01*
Y3722D01*
X44307Y3683D01*
X44313Y3655D01*
Y3633D01*
X44318Y3622D01*
Y3616D01*
X44346Y3528D01*
X44363Y3489D01*
X44379Y3456D01*
X44396Y3422D01*
X44407Y3400D01*
X44413Y3389D01*
X44418Y3383D01*
X44451Y3339D01*
X44490Y3295D01*
X44574Y3211D01*
X44613Y3173D01*
X44646Y3145D01*
X44668Y3128D01*
X44674Y3123D01*
X44751Y3067D01*
X44835Y3006D01*
X44923Y2945D01*
X45006Y2884D01*
X45084Y2834D01*
X45145Y2795D01*
X45167Y2778D01*
X45184Y2767D01*
X45195Y2756D01*
X45201D01*
X46000Y2251D01*
Y1619D01*
X44957Y2279D01*
X44846Y2357D01*
X44746Y2429D01*
X44662Y2501D01*
X44585Y2562D01*
X44529Y2617D01*
X44485Y2662D01*
X44457Y2690D01*
X44446Y2701D01*
X44413Y2745D01*
X44374Y2795D01*
X44313Y2895D01*
X44291Y2939D01*
X44268Y2973D01*
X44257Y2995D01*
X44252Y3006D01*
X44235Y2906D01*
X44219Y2812D01*
X44191Y2729D01*
X44168Y2645D01*
X44141Y2573D01*
X44107Y2506D01*
X44080Y2445D01*
X44052Y2390D01*
X44019Y2346D01*
X43991Y2301D01*
X43969Y2268D01*
X43946Y2240D01*
X43930Y2218D01*
X43913Y2201D01*
X43908Y2196D01*
X43902Y2190D01*
X43847Y2146D01*
X43791Y2101D01*
X43674Y2035D01*
X43558Y1990D01*
X43447Y1957D01*
X43353Y1935D01*
X43314Y1929D01*
X43275D01*
X43247Y1924D01*
X43208D01*
X43092Y1929D01*
X42986Y1946D01*
X42886Y1974D01*
X42803Y2001D01*
X42731Y2035D01*
X42676Y2057D01*
X42642Y2079D01*
X42637Y2085D01*
X42631D01*
X42542Y2151D01*
X42465Y2218D01*
X42398Y2290D01*
X42348Y2357D01*
X42309Y2418D01*
X42287Y2468D01*
X42270Y2501D01*
X42265Y2506D01*
Y2512D01*
X42248Y2562D01*
X42232Y2623D01*
X42204Y2745D01*
X42187Y2878D01*
X42171Y3001D01*
X42165Y3117D01*
Y3167D01*
X42159Y3211D01*
Y3245D01*
Y3272D01*
Y3289D01*
Y3295D01*
Y4993D01*
X46000D01*
Y4482D01*
D02*
G37*
G36*
Y-10564D02*
Y-11097D01*
X43075Y-11907D01*
X43003Y-11929D01*
X42925Y-11946D01*
X42848Y-11968D01*
X42781Y-11985D01*
X42720Y-12001D01*
X42670Y-12012D01*
X42637Y-12018D01*
X42631Y-12023D01*
X42626D01*
X42642Y-12029D01*
X42670Y-12034D01*
X42731Y-12051D01*
X42803Y-12073D01*
X42881Y-12096D01*
X42953Y-12112D01*
X43014Y-12129D01*
X43042Y-12134D01*
X43058Y-12140D01*
X43070Y-12145D01*
X43075D01*
X46000Y-12950D01*
Y-13450D01*
X42159Y-14504D01*
Y-13988D01*
X44629Y-13389D01*
X44801Y-13344D01*
X44957Y-13311D01*
X45101Y-13278D01*
X45223Y-13250D01*
X45278Y-13233D01*
X45328Y-13228D01*
X45367Y-13217D01*
X45401Y-13211D01*
X45428Y-13200D01*
X45450D01*
X45462Y-13194D01*
X45467D01*
X45223Y-13156D01*
X44984Y-13106D01*
X44757Y-13056D01*
X44651Y-13034D01*
X44546Y-13006D01*
X44451Y-12983D01*
X44368Y-12961D01*
X44296Y-12939D01*
X44230Y-12923D01*
X44180Y-12911D01*
X44141Y-12900D01*
X44113Y-12889D01*
X44107D01*
X42159Y-12345D01*
Y-11729D01*
X44757Y-11002D01*
X44779Y-10997D01*
X44812Y-10986D01*
X44857Y-10975D01*
X44907Y-10963D01*
X44962Y-10947D01*
X45023Y-10936D01*
X45145Y-10902D01*
X45267Y-10875D01*
X45323Y-10858D01*
X45367Y-10847D01*
X45412Y-10841D01*
X45439Y-10830D01*
X45462Y-10825D01*
X45467D01*
X45323Y-10797D01*
X45179Y-10769D01*
X45045Y-10741D01*
X44929Y-10714D01*
X44873Y-10702D01*
X44823Y-10691D01*
X44785Y-10680D01*
X44746Y-10675D01*
X44718Y-10669D01*
X44696Y-10664D01*
X44685Y-10658D01*
X44679D01*
X42159Y-10086D01*
Y-9559D01*
X46000Y-10564D01*
D02*
G37*
G36*
Y-16364D02*
X45994Y-16491D01*
X45989Y-16608D01*
X45978Y-16713D01*
X45967Y-16802D01*
X45956Y-16880D01*
X45950Y-16935D01*
X45944Y-16952D01*
X45939Y-16969D01*
Y-16974D01*
Y-16980D01*
X45911Y-17079D01*
X45878Y-17168D01*
X45850Y-17246D01*
X45817Y-17312D01*
X45789Y-17368D01*
X45767Y-17407D01*
X45750Y-17429D01*
X45745Y-17440D01*
X45695Y-17512D01*
X45634Y-17573D01*
X45578Y-17635D01*
X45523Y-17684D01*
X45473Y-17729D01*
X45434Y-17762D01*
X45406Y-17784D01*
X45395Y-17790D01*
X45306Y-17845D01*
X45212Y-17901D01*
X45123Y-17945D01*
X45034Y-17979D01*
X44957Y-18012D01*
X44895Y-18034D01*
X44873Y-18040D01*
X44857Y-18045D01*
X44846Y-18051D01*
X44840D01*
X44707Y-18084D01*
X44574Y-18112D01*
X44446Y-18128D01*
X44324Y-18145D01*
X44219Y-18151D01*
X44174D01*
X44135Y-18156D01*
X44063D01*
X43874Y-18151D01*
X43702Y-18134D01*
X43547Y-18106D01*
X43475Y-18095D01*
X43414Y-18079D01*
X43353Y-18062D01*
X43303Y-18051D01*
X43258Y-18040D01*
X43220Y-18023D01*
X43186Y-18017D01*
X43164Y-18006D01*
X43153Y-18001D01*
X43147D01*
X43003Y-17940D01*
X42875Y-17867D01*
X42764Y-17790D01*
X42670Y-17718D01*
X42592Y-17651D01*
X42537Y-17596D01*
X42520Y-17573D01*
X42503Y-17557D01*
X42498Y-17551D01*
X42492Y-17546D01*
X42420Y-17457D01*
X42365Y-17363D01*
X42315Y-17268D01*
X42276Y-17179D01*
X42248Y-17102D01*
X42232Y-17041D01*
X42220Y-17018D01*
Y-17002D01*
X42215Y-16991D01*
Y-16985D01*
X42198Y-16891D01*
X42182Y-16780D01*
X42171Y-16669D01*
X42165Y-16558D01*
X42159Y-16458D01*
Y-16413D01*
Y-16375D01*
Y-16347D01*
Y-16325D01*
Y-16308D01*
Y-16302D01*
Y-14981D01*
X46000D01*
Y-16364D01*
D02*
G37*
G36*
X44907Y-6174D02*
X45040Y-6196D01*
X45156Y-6229D01*
X45262Y-6268D01*
X45345Y-6307D01*
X45378Y-6324D01*
X45406Y-6335D01*
X45428Y-6351D01*
X45445Y-6357D01*
X45456Y-6368D01*
X45462D01*
X45567Y-6451D01*
X45662Y-6540D01*
X45739Y-6634D01*
X45806Y-6723D01*
X45856Y-6801D01*
X45889Y-6867D01*
X45900Y-6890D01*
X45911Y-6906D01*
X45917Y-6917D01*
Y-6923D01*
X45967Y-7062D01*
X46005Y-7206D01*
X46028Y-7350D01*
X46050Y-7489D01*
X46055Y-7556D01*
X46061Y-7611D01*
Y-7661D01*
X46067Y-7705D01*
Y-7744D01*
Y-7772D01*
Y-7789D01*
Y-7794D01*
X46061Y-7944D01*
X46044Y-8083D01*
X46017Y-8211D01*
X45989Y-8316D01*
X45967Y-8405D01*
X45950Y-8444D01*
X45939Y-8477D01*
X45928Y-8499D01*
X45922Y-8516D01*
X45917Y-8527D01*
Y-8533D01*
X45856Y-8649D01*
X45789Y-8749D01*
X45717Y-8838D01*
X45650Y-8910D01*
X45595Y-8965D01*
X45545Y-9004D01*
X45512Y-9032D01*
X45506Y-9037D01*
X45500D01*
X45395Y-9099D01*
X45295Y-9143D01*
X45201Y-9171D01*
X45112Y-9193D01*
X45034Y-9204D01*
X44973Y-9215D01*
X44923D01*
X44812Y-9210D01*
X44707Y-9193D01*
X44613Y-9165D01*
X44535Y-9137D01*
X44468Y-9104D01*
X44418Y-9082D01*
X44390Y-9060D01*
X44379Y-9054D01*
X44296Y-8988D01*
X44219Y-8910D01*
X44152Y-8827D01*
X44091Y-8743D01*
X44046Y-8671D01*
X44013Y-8610D01*
X44002Y-8588D01*
X43991Y-8571D01*
X43985Y-8560D01*
Y-8555D01*
X43963Y-8510D01*
X43946Y-8455D01*
X43924Y-8394D01*
X43902Y-8327D01*
X43863Y-8188D01*
X43824Y-8044D01*
X43808Y-7977D01*
X43791Y-7916D01*
X43775Y-7855D01*
X43763Y-7805D01*
X43752Y-7767D01*
X43747Y-7733D01*
X43741Y-7711D01*
Y-7705D01*
X43713Y-7594D01*
X43691Y-7495D01*
X43663Y-7406D01*
X43641Y-7328D01*
X43613Y-7256D01*
X43591Y-7195D01*
X43569Y-7139D01*
X43552Y-7089D01*
X43530Y-7051D01*
X43514Y-7017D01*
X43503Y-6995D01*
X43486Y-6973D01*
X43469Y-6945D01*
X43464Y-6940D01*
X43408Y-6890D01*
X43353Y-6856D01*
X43297Y-6829D01*
X43242Y-6812D01*
X43197Y-6801D01*
X43158Y-6795D01*
X43125D01*
X43036Y-6806D01*
X42959Y-6829D01*
X42892Y-6862D01*
X42831Y-6901D01*
X42786Y-6934D01*
X42748Y-6967D01*
X42726Y-6989D01*
X42720Y-7001D01*
X42692Y-7045D01*
X42664Y-7089D01*
X42620Y-7195D01*
X42592Y-7306D01*
X42570Y-7417D01*
X42559Y-7517D01*
X42553Y-7561D01*
X42548Y-7594D01*
Y-7628D01*
Y-7650D01*
Y-7667D01*
Y-7672D01*
X42553Y-7828D01*
X42576Y-7966D01*
X42609Y-8077D01*
X42642Y-8172D01*
X42676Y-8244D01*
X42709Y-8299D01*
X42731Y-8327D01*
X42737Y-8338D01*
X42814Y-8416D01*
X42898Y-8477D01*
X42986Y-8527D01*
X43075Y-8560D01*
X43158Y-8582D01*
X43220Y-8599D01*
X43247Y-8605D01*
X43264Y-8610D01*
X43281D01*
X43242Y-9099D01*
X43119Y-9087D01*
X43009Y-9060D01*
X42903Y-9032D01*
X42814Y-8993D01*
X42742Y-8960D01*
X42687Y-8932D01*
X42670Y-8921D01*
X42653Y-8910D01*
X42648Y-8904D01*
X42642D01*
X42548Y-8832D01*
X42465Y-8754D01*
X42393Y-8671D01*
X42337Y-8588D01*
X42287Y-8516D01*
X42259Y-8460D01*
X42248Y-8438D01*
X42237Y-8422D01*
X42232Y-8410D01*
Y-8405D01*
X42187Y-8283D01*
X42154Y-8150D01*
X42126Y-8027D01*
X42109Y-7911D01*
X42098Y-7805D01*
Y-7767D01*
X42093Y-7728D01*
Y-7700D01*
Y-7672D01*
Y-7661D01*
Y-7655D01*
X42098Y-7511D01*
X42115Y-7384D01*
X42137Y-7261D01*
X42159Y-7156D01*
X42182Y-7073D01*
X42193Y-7034D01*
X42204Y-7006D01*
X42215Y-6984D01*
X42220Y-6967D01*
X42226Y-6956D01*
Y-6951D01*
X42281Y-6840D01*
X42342Y-6740D01*
X42409Y-6657D01*
X42470Y-6590D01*
X42526Y-6540D01*
X42570Y-6501D01*
X42603Y-6473D01*
X42609Y-6468D01*
X42614D01*
X42709Y-6412D01*
X42803Y-6374D01*
X42898Y-6346D01*
X42981Y-6329D01*
X43053Y-6318D01*
X43108Y-6307D01*
X43158D01*
X43253Y-6312D01*
X43342Y-6329D01*
X43425Y-6351D01*
X43497Y-6374D01*
X43552Y-6396D01*
X43597Y-6418D01*
X43625Y-6435D01*
X43636Y-6440D01*
X43713Y-6496D01*
X43786Y-6562D01*
X43847Y-6629D01*
X43897Y-6695D01*
X43941Y-6751D01*
X43969Y-6801D01*
X43991Y-6834D01*
X43996Y-6840D01*
Y-6845D01*
X44019Y-6890D01*
X44041Y-6940D01*
X44080Y-7051D01*
X44118Y-7178D01*
X44157Y-7300D01*
X44191Y-7411D01*
X44202Y-7461D01*
X44213Y-7506D01*
X44224Y-7539D01*
X44230Y-7567D01*
X44235Y-7583D01*
Y-7589D01*
X44257Y-7683D01*
X44280Y-7772D01*
X44302Y-7850D01*
X44318Y-7916D01*
X44335Y-7983D01*
X44352Y-8038D01*
X44363Y-8089D01*
X44379Y-8127D01*
X44390Y-8166D01*
X44396Y-8194D01*
X44413Y-8238D01*
X44418Y-8266D01*
X44424Y-8272D01*
X44457Y-8355D01*
X44496Y-8427D01*
X44535Y-8488D01*
X44568Y-8533D01*
X44601Y-8571D01*
X44624Y-8593D01*
X44640Y-8610D01*
X44646Y-8616D01*
X44696Y-8655D01*
X44751Y-8682D01*
X44807Y-8699D01*
X44851Y-8716D01*
X44895Y-8721D01*
X44929Y-8727D01*
X44962D01*
X45029Y-8721D01*
X45090Y-8710D01*
X45145Y-8693D01*
X45190Y-8671D01*
X45234Y-8649D01*
X45262Y-8632D01*
X45284Y-8621D01*
X45290Y-8616D01*
X45345Y-8571D01*
X45390Y-8516D01*
X45428Y-8460D01*
X45467Y-8410D01*
X45489Y-8360D01*
X45512Y-8322D01*
X45523Y-8294D01*
X45528Y-8283D01*
X45556Y-8200D01*
X45578Y-8111D01*
X45589Y-8022D01*
X45600Y-7944D01*
X45606Y-7878D01*
X45612Y-7822D01*
Y-7800D01*
Y-7783D01*
Y-7778D01*
Y-7772D01*
X45606Y-7650D01*
X45595Y-7539D01*
X45578Y-7439D01*
X45556Y-7350D01*
X45534Y-7278D01*
X45517Y-7223D01*
X45512Y-7206D01*
X45506Y-7189D01*
X45500Y-7184D01*
Y-7178D01*
X45456Y-7089D01*
X45406Y-7006D01*
X45356Y-6945D01*
X45306Y-6890D01*
X45267Y-6845D01*
X45229Y-6818D01*
X45206Y-6801D01*
X45201Y-6795D01*
X45129Y-6756D01*
X45051Y-6718D01*
X44968Y-6695D01*
X44895Y-6673D01*
X44823Y-6657D01*
X44774Y-6645D01*
X44751D01*
X44735Y-6640D01*
X44723D01*
X44768Y-6163D01*
X44907Y-6174D01*
D02*
G37*
G36*
X46000Y653D02*
X42731D01*
X46000Y-457D01*
Y-912D01*
X42786Y-2033D01*
X46000D01*
Y-2522D01*
X42159D01*
Y-1839D01*
X44835Y-918D01*
X44979Y-868D01*
X45101Y-829D01*
X45206Y-790D01*
X45295Y-763D01*
X45362Y-740D01*
X45412Y-724D01*
X45439Y-718D01*
X45450Y-713D01*
X45373Y-690D01*
X45284Y-662D01*
X45190Y-629D01*
X45095Y-601D01*
X45012Y-574D01*
X44945Y-552D01*
X44918Y-540D01*
X44901Y-535D01*
X44890Y-529D01*
X44884D01*
X42159Y381D01*
Y1141D01*
X46000D01*
Y653D01*
D02*
G37*
G36*
X47066Y-5974D02*
X46727D01*
Y-2849D01*
X47066D01*
Y-5974D01*
D02*
G37*
G36*
X52000Y8489D02*
X50296D01*
Y7901D01*
Y7835D01*
X50302Y7773D01*
Y7729D01*
X50307Y7690D01*
X50313Y7662D01*
Y7640D01*
X50318Y7629D01*
Y7624D01*
X50346Y7535D01*
X50363Y7496D01*
X50379Y7463D01*
X50396Y7429D01*
X50407Y7407D01*
X50413Y7396D01*
X50418Y7390D01*
X50451Y7346D01*
X50490Y7302D01*
X50574Y7218D01*
X50612Y7180D01*
X50646Y7152D01*
X50668Y7135D01*
X50674Y7130D01*
X50751Y7074D01*
X50835Y7013D01*
X50923Y6952D01*
X51007Y6891D01*
X51084Y6841D01*
X51145Y6802D01*
X51168Y6786D01*
X51184Y6775D01*
X51195Y6763D01*
X51201D01*
X52000Y6258D01*
Y5626D01*
X50957Y6286D01*
X50846Y6364D01*
X50746Y6436D01*
X50662Y6508D01*
X50585Y6569D01*
X50529Y6625D01*
X50485Y6669D01*
X50457Y6697D01*
X50446Y6708D01*
X50413Y6752D01*
X50374Y6802D01*
X50313Y6902D01*
X50291Y6946D01*
X50268Y6980D01*
X50257Y7002D01*
X50252Y7013D01*
X50235Y6913D01*
X50218Y6819D01*
X50191Y6736D01*
X50169Y6652D01*
X50141Y6580D01*
X50108Y6514D01*
X50080Y6453D01*
X50052Y6397D01*
X50019Y6353D01*
X49991Y6308D01*
X49969Y6275D01*
X49946Y6247D01*
X49930Y6225D01*
X49913Y6208D01*
X49908Y6203D01*
X49902Y6197D01*
X49847Y6153D01*
X49791Y6108D01*
X49674Y6042D01*
X49558Y5997D01*
X49447Y5964D01*
X49353Y5942D01*
X49314Y5936D01*
X49275D01*
X49247Y5931D01*
X49208D01*
X49092Y5936D01*
X48986Y5953D01*
X48886Y5981D01*
X48803Y6009D01*
X48731Y6042D01*
X48676Y6064D01*
X48642Y6086D01*
X48637Y6092D01*
X48631D01*
X48542Y6158D01*
X48465Y6225D01*
X48398Y6297D01*
X48348Y6364D01*
X48309Y6425D01*
X48287Y6475D01*
X48270Y6508D01*
X48265Y6514D01*
Y6519D01*
X48248Y6569D01*
X48232Y6630D01*
X48204Y6752D01*
X48187Y6886D01*
X48171Y7008D01*
X48165Y7124D01*
Y7174D01*
X48159Y7218D01*
Y7252D01*
Y7280D01*
Y7296D01*
Y7302D01*
Y9000D01*
X52000D01*
Y8489D01*
D02*
G37*
G36*
X39000Y-4511D02*
X37296D01*
Y-5099D01*
Y-5165D01*
X37302Y-5227D01*
Y-5271D01*
X37307Y-5310D01*
X37313Y-5338D01*
Y-5360D01*
X37318Y-5371D01*
Y-5376D01*
X37346Y-5465D01*
X37363Y-5504D01*
X37379Y-5537D01*
X37396Y-5571D01*
X37407Y-5593D01*
X37413Y-5604D01*
X37418Y-5610D01*
X37451Y-5654D01*
X37490Y-5698D01*
X37574Y-5782D01*
X37613Y-5820D01*
X37646Y-5848D01*
X37668Y-5865D01*
X37674Y-5870D01*
X37751Y-5926D01*
X37835Y-5987D01*
X37923Y-6048D01*
X38006Y-6109D01*
X38084Y-6159D01*
X38145Y-6198D01*
X38168Y-6214D01*
X38184Y-6225D01*
X38195Y-6237D01*
X38201D01*
X39000Y-6742D01*
Y-7374D01*
X37957Y-6714D01*
X37846Y-6636D01*
X37746Y-6564D01*
X37663Y-6492D01*
X37585Y-6431D01*
X37529Y-6375D01*
X37485Y-6331D01*
X37457Y-6303D01*
X37446Y-6292D01*
X37413Y-6248D01*
X37374Y-6198D01*
X37313Y-6098D01*
X37291Y-6053D01*
X37268Y-6020D01*
X37257Y-5998D01*
X37252Y-5987D01*
X37235Y-6087D01*
X37218Y-6181D01*
X37191Y-6264D01*
X37168Y-6348D01*
X37141Y-6420D01*
X37108Y-6486D01*
X37080Y-6548D01*
X37052Y-6603D01*
X37019Y-6647D01*
X36991Y-6692D01*
X36969Y-6725D01*
X36946Y-6753D01*
X36930Y-6775D01*
X36913Y-6792D01*
X36908Y-6797D01*
X36902Y-6803D01*
X36847Y-6847D01*
X36791Y-6892D01*
X36674Y-6958D01*
X36558Y-7002D01*
X36447Y-7036D01*
X36353Y-7058D01*
X36314Y-7064D01*
X36275D01*
X36247Y-7069D01*
X36208D01*
X36092Y-7064D01*
X35986Y-7047D01*
X35886Y-7019D01*
X35803Y-6991D01*
X35731Y-6958D01*
X35675Y-6936D01*
X35642Y-6914D01*
X35637Y-6908D01*
X35631D01*
X35542Y-6842D01*
X35465Y-6775D01*
X35398Y-6703D01*
X35348Y-6636D01*
X35309Y-6575D01*
X35287Y-6525D01*
X35270Y-6492D01*
X35265Y-6486D01*
Y-6481D01*
X35248Y-6431D01*
X35232Y-6370D01*
X35204Y-6248D01*
X35187Y-6115D01*
X35171Y-5993D01*
X35165Y-5876D01*
Y-5826D01*
X35159Y-5782D01*
Y-5748D01*
Y-5720D01*
Y-5704D01*
Y-5698D01*
Y-4000D01*
X39000D01*
Y-4511D01*
D02*
G37*
G36*
Y-10155D02*
X38545D01*
Y-8262D01*
X38451Y-8329D01*
X38412Y-8362D01*
X38373Y-8390D01*
X38340Y-8418D01*
X38317Y-8440D01*
X38301Y-8457D01*
X38295Y-8462D01*
X38267Y-8490D01*
X38240Y-8523D01*
X38168Y-8601D01*
X38084Y-8690D01*
X38001Y-8784D01*
X37929Y-8873D01*
X37896Y-8912D01*
X37862Y-8945D01*
X37840Y-8973D01*
X37823Y-8995D01*
X37812Y-9006D01*
X37807Y-9012D01*
X37729Y-9100D01*
X37657Y-9189D01*
X37585Y-9267D01*
X37524Y-9339D01*
X37463Y-9406D01*
X37407Y-9461D01*
X37357Y-9517D01*
X37313Y-9561D01*
X37268Y-9606D01*
X37235Y-9639D01*
X37207Y-9667D01*
X37180Y-9694D01*
X37146Y-9722D01*
X37135Y-9733D01*
X37041Y-9811D01*
X36958Y-9877D01*
X36874Y-9933D01*
X36808Y-9977D01*
X36747Y-10011D01*
X36702Y-10033D01*
X36674Y-10044D01*
X36663Y-10050D01*
X36580Y-10083D01*
X36497Y-10105D01*
X36419Y-10127D01*
X36353Y-10138D01*
X36292Y-10144D01*
X36247Y-10149D01*
X36208D01*
X36125Y-10144D01*
X36047Y-10133D01*
X35970Y-10122D01*
X35903Y-10099D01*
X35770Y-10044D01*
X35664Y-9989D01*
X35614Y-9955D01*
X35576Y-9927D01*
X35537Y-9900D01*
X35509Y-9872D01*
X35487Y-9850D01*
X35465Y-9839D01*
X35459Y-9827D01*
X35454Y-9822D01*
X35398Y-9761D01*
X35348Y-9694D01*
X35309Y-9622D01*
X35276Y-9550D01*
X35220Y-9406D01*
X35182Y-9261D01*
X35171Y-9200D01*
X35159Y-9139D01*
X35154Y-9084D01*
X35148Y-9039D01*
X35143Y-9001D01*
Y-8967D01*
Y-8951D01*
Y-8945D01*
X35148Y-8845D01*
X35154Y-8751D01*
X35171Y-8662D01*
X35187Y-8579D01*
X35209Y-8501D01*
X35232Y-8429D01*
X35259Y-8362D01*
X35287Y-8301D01*
X35315Y-8246D01*
X35342Y-8201D01*
X35365Y-8162D01*
X35387Y-8129D01*
X35404Y-8101D01*
X35420Y-8085D01*
X35426Y-8074D01*
X35431Y-8068D01*
X35487Y-8013D01*
X35548Y-7963D01*
X35614Y-7913D01*
X35681Y-7874D01*
X35814Y-7807D01*
X35947Y-7763D01*
X36009Y-7746D01*
X36070Y-7730D01*
X36119Y-7718D01*
X36164Y-7707D01*
X36203Y-7702D01*
X36230D01*
X36247Y-7696D01*
X36253D01*
X36303Y-8179D01*
X36175Y-8190D01*
X36064Y-8212D01*
X35964Y-8246D01*
X35886Y-8285D01*
X35820Y-8318D01*
X35776Y-8351D01*
X35748Y-8373D01*
X35737Y-8384D01*
X35670Y-8468D01*
X35620Y-8557D01*
X35581Y-8651D01*
X35559Y-8734D01*
X35542Y-8812D01*
X35537Y-8878D01*
X35531Y-8901D01*
Y-8917D01*
Y-8928D01*
Y-8934D01*
X35537Y-9050D01*
X35559Y-9156D01*
X35592Y-9245D01*
X35626Y-9323D01*
X35664Y-9384D01*
X35692Y-9422D01*
X35714Y-9450D01*
X35726Y-9461D01*
X35803Y-9528D01*
X35881Y-9578D01*
X35959Y-9617D01*
X36036Y-9639D01*
X36097Y-9656D01*
X36153Y-9661D01*
X36186Y-9667D01*
X36197D01*
X36297Y-9656D01*
X36403Y-9633D01*
X36497Y-9594D01*
X36586Y-9556D01*
X36658Y-9511D01*
X36719Y-9472D01*
X36741Y-9461D01*
X36758Y-9450D01*
X36763Y-9439D01*
X36769D01*
X36830Y-9395D01*
X36891Y-9339D01*
X36958Y-9278D01*
X37024Y-9211D01*
X37157Y-9073D01*
X37291Y-8934D01*
X37352Y-8862D01*
X37407Y-8801D01*
X37457Y-8740D01*
X37501Y-8690D01*
X37535Y-8651D01*
X37563Y-8618D01*
X37579Y-8595D01*
X37585Y-8590D01*
X37701Y-8451D01*
X37812Y-8323D01*
X37912Y-8218D01*
X37995Y-8135D01*
X38068Y-8063D01*
X38118Y-8013D01*
X38151Y-7985D01*
X38156Y-7974D01*
X38162D01*
X38256Y-7896D01*
X38345Y-7835D01*
X38434Y-7780D01*
X38512Y-7735D01*
X38578Y-7702D01*
X38628Y-7680D01*
X38662Y-7669D01*
X38667Y-7663D01*
X38673D01*
X38734Y-7641D01*
X38789Y-7630D01*
X38845Y-7619D01*
X38895Y-7613D01*
X38939Y-7608D01*
X39000D01*
Y-10155D01*
D02*
G37*
G36*
X49000Y-96000D02*
X48489D01*
Y-94296D01*
X47835D01*
X47774Y-94302D01*
X47729D01*
X47690Y-94307D01*
X47662Y-94313D01*
X47640D01*
X47629Y-94318D01*
X47624D01*
X47535Y-94346D01*
X47496Y-94363D01*
X47463Y-94379D01*
X47429Y-94396D01*
X47407Y-94407D01*
X47396Y-94413D01*
X47390Y-94418D01*
X47346Y-94451D01*
X47302Y-94490D01*
X47218Y-94574D01*
X47180Y-94612D01*
X47152Y-94646D01*
X47135Y-94668D01*
X47130Y-94674D01*
X47074Y-94751D01*
X47013Y-94835D01*
X46952Y-94923D01*
X46891Y-95007D01*
X46841Y-95084D01*
X46802Y-95145D01*
X46786Y-95167D01*
X46775Y-95184D01*
X46763Y-95195D01*
Y-95201D01*
X46258Y-96000D01*
X45626D01*
X46286Y-94957D01*
X46364Y-94846D01*
X46436Y-94746D01*
X46508Y-94662D01*
X46569Y-94585D01*
X46625Y-94529D01*
X46669Y-94485D01*
X46697Y-94457D01*
X46708Y-94446D01*
X46752Y-94413D01*
X46802Y-94374D01*
X46902Y-94313D01*
X46946Y-94291D01*
X46980Y-94268D01*
X47002Y-94257D01*
X47013Y-94252D01*
X46913Y-94235D01*
X46819Y-94218D01*
X46736Y-94191D01*
X46652Y-94169D01*
X46580Y-94141D01*
X46514Y-94107D01*
X46453Y-94080D01*
X46397Y-94052D01*
X46353Y-94019D01*
X46308Y-93991D01*
X46275Y-93969D01*
X46247Y-93946D01*
X46225Y-93930D01*
X46208Y-93913D01*
X46203Y-93908D01*
X46197Y-93902D01*
X46153Y-93847D01*
X46108Y-93791D01*
X46042Y-93674D01*
X45997Y-93558D01*
X45964Y-93447D01*
X45942Y-93353D01*
X45936Y-93314D01*
Y-93275D01*
X45931Y-93247D01*
Y-93225D01*
Y-93214D01*
Y-93208D01*
X45936Y-93092D01*
X45953Y-92986D01*
X45981Y-92887D01*
X46009Y-92803D01*
X46042Y-92731D01*
X46064Y-92676D01*
X46086Y-92642D01*
X46092Y-92637D01*
Y-92631D01*
X46158Y-92542D01*
X46225Y-92465D01*
X46297Y-92398D01*
X46364Y-92348D01*
X46425Y-92309D01*
X46475Y-92287D01*
X46508Y-92270D01*
X46514Y-92265D01*
X46519D01*
X46569Y-92248D01*
X46630Y-92232D01*
X46752Y-92204D01*
X46885Y-92187D01*
X47008Y-92171D01*
X47124Y-92165D01*
X47174D01*
X47218Y-92159D01*
X49000D01*
Y-96000D01*
D02*
G37*
G36*
X45487Y-94646D02*
Y-95079D01*
X43816D01*
Y-96000D01*
X43345D01*
Y-95079D01*
X42823D01*
Y-94646D01*
X43345D01*
Y-92159D01*
X43727D01*
X45487Y-94646D01*
D02*
G37*
G36*
X41000Y-43511D02*
X39296D01*
Y-44099D01*
Y-44166D01*
X39302Y-44227D01*
Y-44271D01*
X39307Y-44310D01*
X39313Y-44337D01*
Y-44360D01*
X39318Y-44371D01*
Y-44376D01*
X39346Y-44465D01*
X39363Y-44504D01*
X39379Y-44537D01*
X39396Y-44571D01*
X39407Y-44593D01*
X39413Y-44604D01*
X39418Y-44609D01*
X39452Y-44654D01*
X39490Y-44698D01*
X39574Y-44782D01*
X39612Y-44820D01*
X39646Y-44848D01*
X39668Y-44865D01*
X39674Y-44870D01*
X39751Y-44926D01*
X39834Y-44987D01*
X39923Y-45048D01*
X40007Y-45109D01*
X40084Y-45159D01*
X40145Y-45198D01*
X40167Y-45214D01*
X40184Y-45226D01*
X40195Y-45237D01*
X40201D01*
X41000Y-45742D01*
Y-46374D01*
X39957Y-45714D01*
X39846Y-45636D01*
X39746Y-45564D01*
X39663Y-45492D01*
X39585Y-45431D01*
X39529Y-45375D01*
X39485Y-45331D01*
X39457Y-45303D01*
X39446Y-45292D01*
X39413Y-45248D01*
X39374Y-45198D01*
X39313Y-45098D01*
X39291Y-45053D01*
X39268Y-45020D01*
X39257Y-44998D01*
X39252Y-44987D01*
X39235Y-45087D01*
X39219Y-45181D01*
X39191Y-45264D01*
X39169Y-45348D01*
X39141Y-45420D01*
X39107Y-45486D01*
X39080Y-45547D01*
X39052Y-45603D01*
X39019Y-45647D01*
X38991Y-45692D01*
X38969Y-45725D01*
X38947Y-45753D01*
X38930Y-45775D01*
X38913Y-45792D01*
X38908Y-45797D01*
X38902Y-45803D01*
X38847Y-45847D01*
X38791Y-45892D01*
X38675Y-45958D01*
X38558Y-46003D01*
X38447Y-46036D01*
X38353Y-46058D01*
X38314Y-46064D01*
X38275D01*
X38247Y-46069D01*
X38208D01*
X38092Y-46064D01*
X37986Y-46047D01*
X37887Y-46019D01*
X37803Y-45991D01*
X37731Y-45958D01*
X37675Y-45936D01*
X37642Y-45914D01*
X37637Y-45908D01*
X37631D01*
X37542Y-45842D01*
X37465Y-45775D01*
X37398Y-45703D01*
X37348Y-45636D01*
X37309Y-45575D01*
X37287Y-45525D01*
X37270Y-45492D01*
X37265Y-45486D01*
Y-45481D01*
X37248Y-45431D01*
X37231Y-45370D01*
X37204Y-45248D01*
X37187Y-45115D01*
X37170Y-44993D01*
X37165Y-44876D01*
Y-44826D01*
X37159Y-44782D01*
Y-44748D01*
Y-44721D01*
Y-44704D01*
Y-44698D01*
Y-43000D01*
X41000D01*
Y-43511D01*
D02*
G37*
G36*
X38530Y-47118D02*
X38491Y-47201D01*
X38453Y-47285D01*
X38414Y-47362D01*
X38380Y-47429D01*
X38353Y-47484D01*
X38331Y-47518D01*
X38325Y-47523D01*
Y-47529D01*
X38264Y-47629D01*
X38203Y-47717D01*
X38147Y-47795D01*
X38097Y-47856D01*
X38059Y-47912D01*
X38025Y-47945D01*
X38003Y-47973D01*
X37997Y-47978D01*
X41000D01*
Y-48450D01*
X37143D01*
Y-48145D01*
X37237Y-48089D01*
X37326Y-48028D01*
X37415Y-47956D01*
X37492Y-47890D01*
X37559Y-47823D01*
X37615Y-47773D01*
X37631Y-47751D01*
X37648Y-47734D01*
X37653Y-47729D01*
X37659Y-47723D01*
X37753Y-47607D01*
X37842Y-47490D01*
X37920Y-47379D01*
X37981Y-47268D01*
X38036Y-47174D01*
X38059Y-47135D01*
X38075Y-47101D01*
X38092Y-47074D01*
X38097Y-47052D01*
X38108Y-47040D01*
Y-47035D01*
X38563D01*
X38530Y-47118D01*
D02*
G37*
%LPC*%
G36*
X50418Y-2716D02*
X49297Y-3132D01*
X49158Y-3182D01*
X49025Y-3221D01*
X48903Y-3260D01*
X48792Y-3288D01*
X48698Y-3310D01*
X48659Y-3321D01*
X48620Y-3327D01*
X48598Y-3338D01*
X48576D01*
X48565Y-3343D01*
X48559D01*
X48687Y-3382D01*
X48820Y-3426D01*
X48953Y-3471D01*
X49081Y-3515D01*
X49136Y-3537D01*
X49192Y-3554D01*
X49242Y-3571D01*
X49281Y-3587D01*
X49314Y-3599D01*
X49342Y-3610D01*
X49358Y-3615D01*
X49364D01*
X50418Y-4015D01*
Y-2716D01*
D02*
G37*
G36*
X44418Y7896D02*
X43297Y7479D01*
X43158Y7429D01*
X43025Y7390D01*
X42903Y7352D01*
X42792Y7324D01*
X42698Y7302D01*
X42659Y7291D01*
X42620Y7285D01*
X42598Y7274D01*
X42576D01*
X42565Y7268D01*
X42559D01*
X42687Y7230D01*
X42820Y7185D01*
X42953Y7141D01*
X43081Y7096D01*
X43136Y7074D01*
X43192Y7057D01*
X43242Y7041D01*
X43281Y7024D01*
X43314Y7013D01*
X43342Y7002D01*
X43358Y6996D01*
X43364D01*
X44418Y6597D01*
Y7896D01*
D02*
G37*
G36*
X50341Y4843D02*
X50213Y4826D01*
X50096Y4793D01*
X49996Y4754D01*
X49919Y4710D01*
X49852Y4671D01*
X49802Y4632D01*
X49775Y4610D01*
X49763Y4599D01*
X49691Y4510D01*
X49636Y4421D01*
X49597Y4327D01*
X49569Y4238D01*
X49552Y4166D01*
X49547Y4105D01*
X49541Y4083D01*
Y4066D01*
Y4055D01*
Y4049D01*
X49547Y3983D01*
X49552Y3922D01*
X49586Y3805D01*
X49630Y3705D01*
X49680Y3622D01*
X49730Y3555D01*
X49775Y3506D01*
X49808Y3478D01*
X49813Y3467D01*
X49819D01*
X49891Y3417D01*
X49974Y3372D01*
X50058Y3345D01*
X50146Y3317D01*
X50218Y3300D01*
X50285Y3289D01*
X50307D01*
X50324Y3283D01*
X50341D01*
Y4843D01*
D02*
G37*
G36*
X43858Y4482D02*
X42587D01*
Y3272D01*
X42592Y3123D01*
X42614Y2995D01*
X42642Y2884D01*
X42676Y2801D01*
X42709Y2729D01*
X42737Y2684D01*
X42759Y2656D01*
X42764Y2645D01*
X42836Y2579D01*
X42909Y2529D01*
X42986Y2495D01*
X43053Y2468D01*
X43119Y2457D01*
X43170Y2451D01*
X43203Y2445D01*
X43214D01*
X43281Y2451D01*
X43347Y2462D01*
X43403Y2479D01*
X43453Y2495D01*
X43497Y2518D01*
X43530Y2534D01*
X43552Y2545D01*
X43558Y2551D01*
X43613Y2590D01*
X43663Y2640D01*
X43702Y2690D01*
X43736Y2740D01*
X43758Y2784D01*
X43775Y2817D01*
X43786Y2840D01*
X43791Y2851D01*
X43813Y2928D01*
X43830Y3017D01*
X43841Y3106D01*
X43847Y3195D01*
X43852Y3272D01*
X43858Y3339D01*
Y3361D01*
Y3378D01*
Y3389D01*
Y3395D01*
Y4482D01*
D02*
G37*
G36*
X45545Y-15492D02*
X42614D01*
Y-16297D01*
Y-16380D01*
X42620Y-16452D01*
Y-16524D01*
X42626Y-16591D01*
X42642Y-16702D01*
X42653Y-16791D01*
X42670Y-16863D01*
X42687Y-16913D01*
X42692Y-16941D01*
X42698Y-16952D01*
X42748Y-17052D01*
X42809Y-17146D01*
X42881Y-17229D01*
X42953Y-17301D01*
X43020Y-17357D01*
X43075Y-17401D01*
X43097Y-17413D01*
X43114Y-17424D01*
X43125Y-17435D01*
X43131D01*
X43192Y-17468D01*
X43264Y-17501D01*
X43408Y-17551D01*
X43564Y-17584D01*
X43713Y-17612D01*
X43780Y-17618D01*
X43847Y-17623D01*
X43902Y-17629D01*
X43952D01*
X43996Y-17635D01*
X44052D01*
X44207Y-17629D01*
X44352Y-17618D01*
X44479Y-17601D01*
X44590Y-17584D01*
X44635Y-17573D01*
X44674Y-17562D01*
X44712Y-17551D01*
X44740Y-17546D01*
X44762Y-17540D01*
X44779Y-17535D01*
X44790Y-17529D01*
X44796D01*
X44901Y-17490D01*
X44995Y-17446D01*
X45079Y-17396D01*
X45151Y-17351D01*
X45206Y-17312D01*
X45245Y-17279D01*
X45267Y-17257D01*
X45278Y-17252D01*
X45323Y-17196D01*
X45362Y-17141D01*
X45395Y-17085D01*
X45428Y-17030D01*
X45450Y-16980D01*
X45467Y-16941D01*
X45473Y-16913D01*
X45478Y-16902D01*
X45500Y-16819D01*
X45517Y-16719D01*
X45528Y-16619D01*
X45534Y-16524D01*
X45539Y-16441D01*
X45545Y-16402D01*
Y-16369D01*
Y-16347D01*
Y-16325D01*
Y-16314D01*
Y-16308D01*
Y-15492D01*
D02*
G37*
G36*
X49858Y8489D02*
X48587D01*
Y7280D01*
X48592Y7130D01*
X48614Y7002D01*
X48642Y6891D01*
X48676Y6808D01*
X48709Y6736D01*
X48737Y6691D01*
X48759Y6663D01*
X48764Y6652D01*
X48836Y6586D01*
X48909Y6536D01*
X48986Y6503D01*
X49053Y6475D01*
X49119Y6464D01*
X49169Y6458D01*
X49203Y6453D01*
X49214D01*
X49281Y6458D01*
X49347Y6469D01*
X49403Y6486D01*
X49453Y6503D01*
X49497Y6525D01*
X49530Y6541D01*
X49552Y6553D01*
X49558Y6558D01*
X49613Y6597D01*
X49663Y6647D01*
X49702Y6697D01*
X49736Y6747D01*
X49758Y6791D01*
X49775Y6824D01*
X49786Y6847D01*
X49791Y6858D01*
X49813Y6935D01*
X49830Y7024D01*
X49841Y7113D01*
X49847Y7202D01*
X49852Y7280D01*
X49858Y7346D01*
Y7368D01*
Y7385D01*
Y7396D01*
Y7402D01*
Y8489D01*
D02*
G37*
G36*
X36858Y-4511D02*
X35587D01*
Y-5720D01*
X35592Y-5870D01*
X35614Y-5998D01*
X35642Y-6109D01*
X35675Y-6192D01*
X35709Y-6264D01*
X35737Y-6309D01*
X35759Y-6336D01*
X35764Y-6348D01*
X35836Y-6414D01*
X35909Y-6464D01*
X35986Y-6498D01*
X36053Y-6525D01*
X36119Y-6536D01*
X36169Y-6542D01*
X36203Y-6548D01*
X36214D01*
X36281Y-6542D01*
X36347Y-6531D01*
X36403Y-6514D01*
X36453Y-6498D01*
X36497Y-6475D01*
X36530Y-6459D01*
X36552Y-6447D01*
X36558Y-6442D01*
X36614Y-6403D01*
X36663Y-6353D01*
X36702Y-6303D01*
X36736Y-6253D01*
X36758Y-6209D01*
X36775Y-6176D01*
X36786Y-6153D01*
X36791Y-6142D01*
X36813Y-6065D01*
X36830Y-5976D01*
X36841Y-5887D01*
X36847Y-5798D01*
X36852Y-5720D01*
X36858Y-5654D01*
Y-5632D01*
Y-5615D01*
Y-5604D01*
Y-5598D01*
Y-4511D01*
D02*
G37*
G36*
X48489Y-92587D02*
X47280D01*
X47130Y-92592D01*
X47002Y-92615D01*
X46891Y-92642D01*
X46808Y-92676D01*
X46736Y-92709D01*
X46691Y-92737D01*
X46663Y-92759D01*
X46652Y-92764D01*
X46586Y-92836D01*
X46536Y-92909D01*
X46503Y-92986D01*
X46475Y-93053D01*
X46464Y-93120D01*
X46458Y-93169D01*
X46453Y-93203D01*
Y-93208D01*
Y-93214D01*
X46458Y-93281D01*
X46469Y-93347D01*
X46486Y-93403D01*
X46503Y-93453D01*
X46525Y-93497D01*
X46541Y-93530D01*
X46552Y-93552D01*
X46558Y-93558D01*
X46597Y-93613D01*
X46647Y-93664D01*
X46697Y-93702D01*
X46747Y-93736D01*
X46791Y-93758D01*
X46824Y-93774D01*
X46847Y-93786D01*
X46858Y-93791D01*
X46935Y-93813D01*
X47024Y-93830D01*
X47113Y-93841D01*
X47202Y-93847D01*
X47280Y-93852D01*
X47346Y-93858D01*
X48489D01*
Y-92587D01*
D02*
G37*
G36*
X43816Y-92925D02*
Y-94646D01*
X45026D01*
X43816Y-92925D01*
D02*
G37*
G36*
X38858Y-43511D02*
X37587D01*
Y-44721D01*
X37592Y-44870D01*
X37615Y-44998D01*
X37642Y-45109D01*
X37675Y-45192D01*
X37709Y-45264D01*
X37737Y-45309D01*
X37759Y-45336D01*
X37764Y-45348D01*
X37837Y-45414D01*
X37909Y-45464D01*
X37986Y-45498D01*
X38053Y-45525D01*
X38120Y-45536D01*
X38170Y-45542D01*
X38203Y-45547D01*
X38214D01*
X38280Y-45542D01*
X38347Y-45531D01*
X38403Y-45514D01*
X38453Y-45498D01*
X38497Y-45475D01*
X38530Y-45459D01*
X38552Y-45448D01*
X38558Y-45442D01*
X38614Y-45403D01*
X38664Y-45353D01*
X38702Y-45303D01*
X38736Y-45253D01*
X38758Y-45209D01*
X38774Y-45176D01*
X38786Y-45153D01*
X38791Y-45142D01*
X38813Y-45065D01*
X38830Y-44976D01*
X38841Y-44887D01*
X38847Y-44798D01*
X38852Y-44721D01*
X38858Y-44654D01*
Y-44632D01*
Y-44615D01*
Y-44604D01*
Y-44598D01*
Y-43511D01*
D02*
G37*
%LPD*%
D21*
X42000Y-43000D02*
X43500D01*
X42000Y-44500D02*
Y-43000D01*
X46500Y-55000D02*
X48000D01*
Y-53500D01*
X38500Y-3000D02*
X40000D01*
Y-1500D01*
X34000Y9000D02*
X35500D01*
X34000Y7500D02*
Y9000D01*
X48500Y-87500D02*
Y-86000D01*
X47000D02*
X48500D01*
X36500Y-92000D02*
Y-90500D01*
Y-92000D02*
X38000D01*
M02*
