G04 Layer_Color=2752767*
%FSLAX25Y25*%
%MOIN*%
G70*
G01*
G75*
%ADD32C,0.00200*%
%ADD33C,0.00267*%
D32*
X24200Y-90800D02*
Y-89200D01*
X25800D01*
Y-90800D01*
X24200D01*
Y-80800D02*
Y-79200D01*
X25800D01*
Y-80800D01*
X24200D01*
X9200Y-90800D02*
Y-89200D01*
X10800D01*
Y-90800D01*
X9200D01*
Y-80800D02*
Y-79200D01*
X10800D01*
Y-80800D01*
X9200D01*
Y-70800D02*
Y-69200D01*
X10800D01*
Y-70800D01*
X9200D01*
Y-60800D02*
Y-59200D01*
X10800D01*
Y-60800D01*
X9200D01*
Y-50800D02*
Y-49200D01*
X10800D01*
Y-50800D01*
X9200D01*
Y-40800D02*
Y-39200D01*
X10800D01*
Y-40800D01*
X9200D01*
Y-30800D02*
Y-29200D01*
X10800D01*
Y-30800D01*
X9200D01*
Y-20800D02*
Y-19200D01*
X10800D01*
Y-20800D01*
X9200D01*
Y-10800D02*
Y-9200D01*
X10800D01*
Y-10800D01*
X9200D01*
Y-800D02*
Y800D01*
X10800D01*
Y-800D01*
X9200D01*
X-800Y-90800D02*
Y-89200D01*
X800D01*
Y-90800D01*
X-800D01*
Y-80800D02*
Y-79200D01*
X800D01*
Y-80800D01*
X-800D01*
Y-70800D02*
Y-69200D01*
X800D01*
Y-70800D01*
X-800D01*
Y-60800D02*
Y-59200D01*
X800D01*
Y-60800D01*
X-800D01*
Y-50800D02*
Y-49200D01*
X800D01*
Y-50800D01*
X-800D01*
Y-40800D02*
Y-39200D01*
X800D01*
Y-40800D01*
X-800D01*
Y-30800D02*
Y-29200D01*
X800D01*
Y-30800D01*
X-800D01*
Y-20800D02*
Y-19200D01*
X800D01*
Y-20800D01*
X-800D01*
Y-10800D02*
Y-9200D01*
X800D01*
Y-10800D01*
X-800D01*
Y-800D02*
Y800D01*
X800D01*
Y-800D01*
X-800D01*
X24200Y-50800D02*
Y-49200D01*
X25800D01*
Y-50800D01*
X24200D01*
Y-40800D02*
Y-39200D01*
X25800D01*
Y-40800D01*
X24200D01*
Y-10800D02*
Y-9200D01*
X25800D01*
Y-10800D01*
X24200D01*
Y-800D02*
Y800D01*
X25800D01*
Y-800D01*
X24200D01*
Y-20800D02*
Y-19200D01*
X25800D01*
Y-20800D01*
X24200D01*
Y-30800D02*
Y-29200D01*
X25800D01*
Y-30800D01*
X24200D01*
D33*
X45800Y-80000D02*
X45247Y-79239D01*
X44353Y-79530D01*
Y-80470D01*
X45247Y-80761D01*
X45800Y-80000D01*
X40800D02*
X40247Y-79239D01*
X39353Y-79530D01*
Y-80470D01*
X40247Y-80761D01*
X40800Y-80000D01*
Y-75000D02*
X40247Y-74239D01*
X39353Y-74530D01*
Y-75470D01*
X40247Y-75761D01*
X40800Y-75000D01*
X45800D02*
X45247Y-74239D01*
X44353Y-74530D01*
Y-75470D01*
X45247Y-75761D01*
X45800Y-75000D01*
X40800Y-70000D02*
X40247Y-69239D01*
X39353Y-69530D01*
Y-70470D01*
X40247Y-70761D01*
X40800Y-70000D01*
X45800D02*
X45247Y-69239D01*
X44353Y-69530D01*
Y-70470D01*
X45247Y-70761D01*
X45800Y-70000D01*
X40800Y-65000D02*
X40247Y-64239D01*
X39353Y-64530D01*
Y-65470D01*
X40247Y-65761D01*
X40800Y-65000D01*
X45800D02*
X45247Y-64239D01*
X44353Y-64530D01*
Y-65470D01*
X45247Y-65761D01*
X45800Y-65000D01*
X40800Y-60000D02*
X40247Y-59239D01*
X39353Y-59530D01*
Y-60470D01*
X40247Y-60761D01*
X40800Y-60000D01*
X45800D02*
X45247Y-59239D01*
X44353Y-59530D01*
Y-60470D01*
X45247Y-60761D01*
X45800Y-60000D01*
M02*
