G04 Layer_Physical_Order=2*
G04 Layer_Color=16711680*
%FSLAX25Y25*%
%MOIN*%
G70*
G01*
G75*
%ADD10C,0.01000*%
%ADD11C,0.06800*%
G04:AMPARAMS|DCode=12|XSize=68mil|YSize=68mil|CornerRadius=10.2mil|HoleSize=0mil|Usage=FLASHONLY|Rotation=180.000|XOffset=0mil|YOffset=0mil|HoleType=Round|Shape=RoundedRectangle|*
%AMROUNDEDRECTD12*
21,1,0.06800,0.04760,0,0,180.0*
21,1,0.04760,0.06800,0,0,180.0*
1,1,0.02040,-0.02380,0.02380*
1,1,0.02040,0.02380,0.02380*
1,1,0.02040,0.02380,-0.02380*
1,1,0.02040,-0.02380,-0.02380*
%
%ADD12ROUNDEDRECTD12*%
%ADD13C,0.06000*%
G04:AMPARAMS|DCode=14|XSize=60mil|YSize=60mil|CornerRadius=9mil|HoleSize=0mil|Usage=FLASHONLY|Rotation=270.000|XOffset=0mil|YOffset=0mil|HoleType=Round|Shape=RoundedRectangle|*
%AMROUNDEDRECTD14*
21,1,0.06000,0.04200,0,0,270.0*
21,1,0.04200,0.06000,0,0,270.0*
1,1,0.01800,-0.02100,-0.02100*
1,1,0.01800,-0.02100,0.02100*
1,1,0.01800,0.02100,0.02100*
1,1,0.01800,0.02100,-0.02100*
%
%ADD14ROUNDEDRECTD14*%
G04:AMPARAMS|DCode=15|XSize=39.37mil|YSize=39.37mil|CornerRadius=9.84mil|HoleSize=0mil|Usage=FLASHONLY|Rotation=90.000|XOffset=0mil|YOffset=0mil|HoleType=Round|Shape=RoundedRectangle|*
%AMROUNDEDRECTD15*
21,1,0.03937,0.01968,0,0,90.0*
21,1,0.01968,0.03937,0,0,90.0*
1,1,0.01968,0.00984,0.00984*
1,1,0.01968,0.00984,-0.00984*
1,1,0.01968,-0.00984,-0.00984*
1,1,0.01968,-0.00984,0.00984*
%
%ADD15ROUNDEDRECTD15*%
%ADD16C,0.03937*%
%ADD17C,0.06500*%
G04:AMPARAMS|DCode=18|XSize=65mil|YSize=65mil|CornerRadius=9.75mil|HoleSize=0mil|Usage=FLASHONLY|Rotation=180.000|XOffset=0mil|YOffset=0mil|HoleType=Round|Shape=RoundedRectangle|*
%AMROUNDEDRECTD18*
21,1,0.06500,0.04550,0,0,180.0*
21,1,0.04550,0.06500,0,0,180.0*
1,1,0.01950,-0.02275,0.02275*
1,1,0.01950,0.02275,0.02275*
1,1,0.01950,0.02275,-0.02275*
1,1,0.01950,-0.02275,-0.02275*
%
%ADD18ROUNDEDRECTD18*%
G04:AMPARAMS|DCode=19|XSize=37.4mil|YSize=37.4mil|CornerRadius=5.61mil|HoleSize=0mil|Usage=FLASHONLY|Rotation=270.000|XOffset=0mil|YOffset=0mil|HoleType=Round|Shape=RoundedRectangle|*
%AMROUNDEDRECTD19*
21,1,0.03740,0.02618,0,0,270.0*
21,1,0.02618,0.03740,0,0,270.0*
1,1,0.01122,-0.01309,-0.01309*
1,1,0.01122,-0.01309,0.01309*
1,1,0.01122,0.01309,0.01309*
1,1,0.01122,0.01309,-0.01309*
%
%ADD19ROUNDEDRECTD19*%
G04:AMPARAMS|DCode=20|XSize=37.4mil|YSize=37.4mil|CornerRadius=5.61mil|HoleSize=0mil|Usage=FLASHONLY|Rotation=180.000|XOffset=0mil|YOffset=0mil|HoleType=Round|Shape=RoundedRectangle|*
%AMROUNDEDRECTD20*
21,1,0.03740,0.02618,0,0,180.0*
21,1,0.02618,0.03740,0,0,180.0*
1,1,0.01122,-0.01309,0.01309*
1,1,0.01122,0.01309,0.01309*
1,1,0.01122,0.01309,-0.01309*
1,1,0.01122,-0.01309,-0.01309*
%
%ADD20ROUNDEDRECTD20*%
G36*
X52487Y-66165D02*
X51887Y-66347D01*
X51793Y-66207D01*
X51793Y-66207D01*
X49793Y-64207D01*
X49429Y-63964D01*
X49000Y-63878D01*
X49000Y-63878D01*
X47316D01*
X47244Y-63705D01*
X46832Y-63168D01*
X46411Y-62845D01*
X46354Y-62550D01*
Y-62450D01*
X46411Y-62155D01*
X46832Y-61832D01*
X47244Y-61295D01*
X47502Y-60671D01*
X47591Y-60000D01*
X47502Y-59329D01*
X47244Y-58705D01*
X46832Y-58168D01*
X46295Y-57756D01*
X46122Y-57684D01*
Y-54347D01*
X46309D01*
X46762Y-54257D01*
X47146Y-54001D01*
X47403Y-53616D01*
X47493Y-53163D01*
Y-50545D01*
X47403Y-50092D01*
X47146Y-49708D01*
X46896Y-49541D01*
X46916Y-48999D01*
X46917Y-48992D01*
X46945Y-48907D01*
X47434Y-48580D01*
X47780Y-48064D01*
X47901Y-47455D01*
Y-46646D01*
X45000D01*
X42099D01*
Y-47455D01*
X42221Y-48064D01*
X42566Y-48580D01*
X43055Y-48907D01*
X43083Y-48992D01*
X43084Y-48999D01*
X43104Y-49541D01*
X42854Y-49708D01*
X42597Y-50092D01*
X42507Y-50545D01*
Y-53163D01*
X42597Y-53616D01*
X42854Y-54001D01*
X43238Y-54257D01*
X43691Y-54347D01*
X43878D01*
Y-57684D01*
X43705Y-57756D01*
X43168Y-58168D01*
X42845Y-58589D01*
X42550Y-58646D01*
X42450D01*
X42155Y-58589D01*
X41832Y-58168D01*
X41295Y-57756D01*
X41122Y-57684D01*
Y-49000D01*
X41036Y-48571D01*
X40793Y-48207D01*
X40793Y-48207D01*
X31793Y-39207D01*
X31429Y-38964D01*
X31000Y-38878D01*
X31000Y-38878D01*
X28703D01*
X28363Y-38058D01*
X27746Y-37254D01*
X26942Y-36637D01*
X26005Y-36249D01*
X25000Y-36117D01*
X23995Y-36249D01*
X23058Y-36637D01*
X22254Y-37254D01*
X21637Y-38058D01*
X21249Y-38995D01*
X21117Y-40000D01*
X21249Y-41005D01*
X21637Y-41942D01*
X22254Y-42746D01*
X23058Y-43363D01*
X23995Y-43751D01*
X25000Y-43883D01*
X26005Y-43751D01*
X26942Y-43363D01*
X27746Y-42746D01*
X28363Y-41942D01*
X28703Y-41122D01*
X30535D01*
X38878Y-49465D01*
Y-57684D01*
X38705Y-57756D01*
X38168Y-58168D01*
X37756Y-58705D01*
X37498Y-59329D01*
X37409Y-60000D01*
X37498Y-60671D01*
X37756Y-61295D01*
X38168Y-61832D01*
X38589Y-62155D01*
X38646Y-62450D01*
Y-62550D01*
X38589Y-62845D01*
X38168Y-63168D01*
X37756Y-63705D01*
X37684Y-63878D01*
X30465D01*
X20793Y-54207D01*
X20429Y-53964D01*
X20000Y-53878D01*
X20000Y-53878D01*
X12502D01*
X12298Y-53278D01*
X12853Y-52853D01*
X13494Y-52017D01*
X13897Y-51044D01*
X13969Y-50500D01*
X10000D01*
Y-50000D01*
D01*
Y-50500D01*
X6031D01*
X6103Y-51044D01*
X6506Y-52017D01*
X7147Y-52853D01*
X7702Y-53278D01*
X7498Y-53878D01*
X1612D01*
X1492Y-53278D01*
X1815Y-53145D01*
X2568Y-52568D01*
X3145Y-51815D01*
X3507Y-50940D01*
X3631Y-50000D01*
X3507Y-49060D01*
X3145Y-48184D01*
X2568Y-47433D01*
X1815Y-46855D01*
X940Y-46493D01*
X0Y-46369D01*
X-940Y-46493D01*
X-1815Y-46855D01*
X-2568Y-47433D01*
X-3145Y-48184D01*
X-3507Y-49060D01*
X-3631Y-50000D01*
X-3507Y-50940D01*
X-3424Y-51142D01*
X-3932Y-51481D01*
X-5878Y-49535D01*
Y-27465D01*
X-1634Y-23220D01*
X-940Y-23507D01*
X0Y-23631D01*
X940Y-23507D01*
X1815Y-23145D01*
X2568Y-22568D01*
X3145Y-21815D01*
X3278Y-21492D01*
X3878Y-21612D01*
Y-28388D01*
X3278Y-28508D01*
X3145Y-28185D01*
X2568Y-27433D01*
X1815Y-26855D01*
X940Y-26493D01*
X0Y-26369D01*
X-940Y-26493D01*
X-1815Y-26855D01*
X-2568Y-27433D01*
X-3145Y-28185D01*
X-3507Y-29060D01*
X-3631Y-30000D01*
X-3507Y-30940D01*
X-3145Y-31815D01*
X-2568Y-32568D01*
X-1815Y-33145D01*
X-940Y-33507D01*
X0Y-33631D01*
X940Y-33507D01*
X1815Y-33145D01*
X2568Y-32568D01*
X3145Y-31815D01*
X3278Y-31492D01*
X3878Y-31612D01*
Y-34535D01*
X1634Y-36780D01*
X940Y-36493D01*
X0Y-36369D01*
X-940Y-36493D01*
X-1815Y-36855D01*
X-2568Y-37433D01*
X-3145Y-38184D01*
X-3507Y-39060D01*
X-3631Y-40000D01*
X-3507Y-40940D01*
X-3145Y-41816D01*
X-2568Y-42568D01*
X-1815Y-43145D01*
X-940Y-43507D01*
X0Y-43631D01*
X940Y-43507D01*
X1815Y-43145D01*
X2568Y-42568D01*
X3145Y-41816D01*
X3507Y-40940D01*
X3631Y-40000D01*
X3507Y-39060D01*
X3220Y-38366D01*
X5793Y-35793D01*
X5793Y-35793D01*
X6036Y-35429D01*
X6122Y-35000D01*
X6121Y-35000D01*
Y-32502D01*
X6722Y-32298D01*
X7147Y-32853D01*
X7983Y-33494D01*
X8956Y-33897D01*
X9500Y-33969D01*
Y-30000D01*
Y-26031D01*
X8956Y-26103D01*
X7983Y-26506D01*
X7147Y-27147D01*
X6722Y-27702D01*
X6121Y-27498D01*
Y-22502D01*
X6722Y-22298D01*
X7147Y-22853D01*
X7983Y-23494D01*
X8956Y-23897D01*
X9500Y-23969D01*
Y-20000D01*
X10000D01*
Y-19500D01*
X13969D01*
X13897Y-18956D01*
X13494Y-17983D01*
X12853Y-17147D01*
X12298Y-16722D01*
X12502Y-16122D01*
X20000D01*
X20000Y-16122D01*
X20429Y-16036D01*
X20793Y-15793D01*
X23175Y-13411D01*
X23995Y-13751D01*
X25000Y-13883D01*
X26005Y-13751D01*
X26942Y-13363D01*
X27746Y-12746D01*
X28363Y-11942D01*
X28751Y-11005D01*
X28883Y-10000D01*
X28751Y-8995D01*
X28363Y-8058D01*
X27746Y-7254D01*
X26942Y-6637D01*
X26005Y-6249D01*
X25000Y-6117D01*
X23995Y-6249D01*
X23058Y-6637D01*
X22254Y-7254D01*
X21637Y-8058D01*
X21249Y-8995D01*
X21117Y-10000D01*
X21249Y-11005D01*
X21589Y-11825D01*
X19535Y-13879D01*
X12502D01*
X12298Y-13279D01*
X12853Y-12853D01*
X13494Y-12017D01*
X13897Y-11044D01*
X13969Y-10500D01*
X10000D01*
X6031D01*
X6103Y-11044D01*
X6506Y-12017D01*
X7147Y-12853D01*
X7751Y-13316D01*
X7602Y-13958D01*
X7571Y-13964D01*
X7207Y-14207D01*
X4207Y-17207D01*
X3964Y-17571D01*
X3878Y-18000D01*
X3773Y-18135D01*
X3496Y-18157D01*
X3059Y-18073D01*
X2568Y-17433D01*
X1815Y-16855D01*
X940Y-16493D01*
X0Y-16369D01*
X-940Y-16493D01*
X-1815Y-16855D01*
X-2568Y-17433D01*
X-3145Y-18184D01*
X-3507Y-19060D01*
X-3631Y-20000D01*
X-3507Y-20940D01*
X-3220Y-21634D01*
X-7793Y-26207D01*
X-8036Y-26571D01*
X-8122Y-27000D01*
X-8122Y-27000D01*
Y-50000D01*
X-8122Y-50000D01*
X-8036Y-50429D01*
X-7793Y-50793D01*
X-2793Y-55793D01*
X-2793Y-55793D01*
X-2429Y-56036D01*
X-2000Y-56122D01*
X-1866Y-56227D01*
X-1843Y-56504D01*
X-1927Y-56941D01*
X-2568Y-57432D01*
X-3145Y-58184D01*
X-3507Y-59060D01*
X-3631Y-60000D01*
X-3507Y-60940D01*
X-3145Y-61816D01*
X-2568Y-62568D01*
X-1815Y-63145D01*
X-940Y-63507D01*
X0Y-63631D01*
X940Y-63507D01*
X1634Y-63220D01*
X4207Y-65793D01*
X4207Y-65793D01*
X4571Y-66036D01*
X5000Y-66122D01*
X5000Y-66122D01*
X7498D01*
X7702Y-66722D01*
X7147Y-67147D01*
X6506Y-67983D01*
X6103Y-68956D01*
X6031Y-69500D01*
X10000D01*
Y-70000D01*
D01*
Y-69500D01*
X13969D01*
X13897Y-68956D01*
X13494Y-67983D01*
X12853Y-67147D01*
X12298Y-66722D01*
X12502Y-66122D01*
X24535D01*
X29207Y-70793D01*
X29207Y-70793D01*
X29571Y-71036D01*
X30000Y-71122D01*
X30000Y-71122D01*
X37684D01*
X37756Y-71295D01*
X38168Y-71832D01*
X38589Y-72155D01*
X38646Y-72450D01*
Y-72550D01*
X38589Y-72845D01*
X38168Y-73168D01*
X37756Y-73705D01*
X37498Y-74330D01*
X37409Y-75000D01*
X37498Y-75670D01*
X37756Y-76295D01*
X38168Y-76832D01*
X38589Y-77155D01*
X38646Y-77450D01*
Y-77550D01*
X38589Y-77845D01*
X38168Y-78168D01*
X37756Y-78705D01*
X37498Y-79330D01*
X37409Y-80000D01*
X37498Y-80670D01*
X37756Y-81295D01*
X38168Y-81832D01*
X38705Y-82244D01*
X39329Y-82502D01*
X40000Y-82591D01*
X40670Y-82502D01*
X41295Y-82244D01*
X41832Y-81832D01*
X41932Y-81702D01*
X42091Y-81675D01*
X42636Y-81770D01*
X42874Y-82126D01*
X43398Y-82477D01*
X44016Y-82600D01*
X45984D01*
X46602Y-82477D01*
X47126Y-82126D01*
X47477Y-81602D01*
X47600Y-80984D01*
Y-79016D01*
X47477Y-78398D01*
X47126Y-77874D01*
X47121Y-77870D01*
X47097Y-77132D01*
X47117Y-77117D01*
X47593Y-76497D01*
X47892Y-75775D01*
X47928Y-75500D01*
X45000D01*
Y-74500D01*
X47928D01*
X47892Y-74225D01*
X47593Y-73503D01*
X47117Y-72883D01*
X47009Y-72800D01*
Y-72200D01*
X47117Y-72117D01*
X47593Y-71497D01*
X47892Y-70775D01*
X47928Y-70500D01*
X45000D01*
Y-69500D01*
X47928D01*
X47892Y-69225D01*
X47593Y-68503D01*
X47117Y-67883D01*
X46782Y-67626D01*
X46745Y-66917D01*
X46761Y-66887D01*
X46832Y-66832D01*
X47244Y-66295D01*
X47316Y-66122D01*
X48535D01*
X49878Y-67465D01*
Y-82890D01*
X46261Y-86507D01*
X44045D01*
X43592Y-86597D01*
X43208Y-86854D01*
X42952Y-87238D01*
X42862Y-87691D01*
Y-90309D01*
X42952Y-90762D01*
X43208Y-91146D01*
X43592Y-91403D01*
X44045Y-91493D01*
X46663D01*
X47116Y-91403D01*
X47500Y-91146D01*
X47757Y-90762D01*
X47847Y-90309D01*
Y-88093D01*
X51793Y-84147D01*
X51793Y-84147D01*
X51887Y-84007D01*
X52487Y-84189D01*
Y-99731D01*
X-9180D01*
Y9180D01*
X52487D01*
Y-66165D01*
D02*
G37*
G36*
X29207Y-65793D02*
X29207Y-65793D01*
X29571Y-66036D01*
X30000Y-66122D01*
X30000Y-66122D01*
X37684D01*
X37756Y-66295D01*
X38168Y-66832D01*
X38589Y-67155D01*
X38646Y-67450D01*
Y-67550D01*
X38589Y-67845D01*
X38168Y-68168D01*
X37756Y-68705D01*
X37684Y-68878D01*
X30465D01*
X25793Y-64207D01*
X25429Y-63964D01*
X25000Y-63878D01*
X25000Y-63878D01*
X12502D01*
X12298Y-63278D01*
X12853Y-62853D01*
X13494Y-62017D01*
X13897Y-61044D01*
X13969Y-60500D01*
X10000D01*
X6031D01*
X6103Y-61044D01*
X6506Y-62017D01*
X7147Y-62853D01*
X7702Y-63278D01*
X7498Y-63878D01*
X5465D01*
X3220Y-61634D01*
X3507Y-60940D01*
X3631Y-60000D01*
X3507Y-59060D01*
X3145Y-58184D01*
X2568Y-57432D01*
X1815Y-56855D01*
X1492Y-56722D01*
X1612Y-56122D01*
X7498D01*
X7702Y-56722D01*
X7147Y-57147D01*
X6506Y-57983D01*
X6103Y-58956D01*
X6031Y-59500D01*
X10000D01*
X13969D01*
X13897Y-58956D01*
X13494Y-57983D01*
X12853Y-57147D01*
X12298Y-56722D01*
X12502Y-56122D01*
X19535D01*
X29207Y-65793D01*
D02*
G37*
%LPC*%
G36*
X10500Y-76031D02*
Y-79500D01*
X13969D01*
X13897Y-78956D01*
X13494Y-77983D01*
X12853Y-77147D01*
X12017Y-76506D01*
X11044Y-76103D01*
X10500Y-76031D01*
D02*
G37*
G36*
X9500D02*
X8956Y-76103D01*
X7983Y-76506D01*
X7147Y-77147D01*
X6506Y-77983D01*
X6103Y-78956D01*
X6031Y-79500D01*
X9500D01*
Y-76031D01*
D02*
G37*
G36*
X0Y-76369D02*
X-940Y-76493D01*
X-1815Y-76855D01*
X-2568Y-77432D01*
X-3145Y-78184D01*
X-3507Y-79060D01*
X-3631Y-80000D01*
X-3507Y-80940D01*
X-3145Y-81815D01*
X-2568Y-82568D01*
X-1815Y-83145D01*
X-940Y-83507D01*
X0Y-83631D01*
X940Y-83507D01*
X1815Y-83145D01*
X2568Y-82568D01*
X3145Y-81815D01*
X3507Y-80940D01*
X3631Y-80000D01*
X3507Y-79060D01*
X3145Y-78184D01*
X2568Y-77432D01*
X1815Y-76855D01*
X940Y-76493D01*
X0Y-76369D01*
D02*
G37*
G36*
X9500Y-70500D02*
X6031D01*
X6103Y-71044D01*
X6506Y-72017D01*
X7147Y-72853D01*
X7983Y-73494D01*
X8956Y-73897D01*
X9500Y-73969D01*
Y-70500D01*
D02*
G37*
G36*
X25000Y-46117D02*
X23995Y-46249D01*
X23058Y-46637D01*
X22254Y-47254D01*
X21637Y-48058D01*
X21249Y-48995D01*
X21117Y-50000D01*
X21249Y-51005D01*
X21637Y-51942D01*
X22254Y-52746D01*
X23058Y-53363D01*
X23995Y-53751D01*
X25000Y-53883D01*
X26005Y-53751D01*
X26942Y-53363D01*
X27746Y-52746D01*
X28363Y-51942D01*
X28751Y-51005D01*
X28883Y-50000D01*
X28751Y-48995D01*
X28363Y-48058D01*
X27746Y-47254D01*
X26942Y-46637D01*
X26005Y-46249D01*
X25000Y-46117D01*
D02*
G37*
G36*
X0Y-66369D02*
X-940Y-66493D01*
X-1815Y-66855D01*
X-2568Y-67432D01*
X-3145Y-68185D01*
X-3507Y-69060D01*
X-3631Y-70000D01*
X-3507Y-70940D01*
X-3145Y-71816D01*
X-2568Y-72568D01*
X-1815Y-73145D01*
X-940Y-73507D01*
X0Y-73631D01*
X940Y-73507D01*
X1815Y-73145D01*
X2568Y-72568D01*
X3145Y-71816D01*
X3507Y-70940D01*
X3631Y-70000D01*
X3507Y-69060D01*
X3145Y-68185D01*
X2568Y-67432D01*
X1815Y-66855D01*
X940Y-66493D01*
X0Y-66369D01*
D02*
G37*
G36*
X13969Y-70500D02*
X10500D01*
Y-73969D01*
X11044Y-73897D01*
X12017Y-73494D01*
X12853Y-72853D01*
X13494Y-72017D01*
X13897Y-71044D01*
X13969Y-70500D01*
D02*
G37*
G36*
Y-80500D02*
X10500D01*
Y-83969D01*
X11044Y-83897D01*
X12017Y-83494D01*
X12853Y-82853D01*
X13494Y-82017D01*
X13897Y-81044D01*
X13969Y-80500D01*
D02*
G37*
G36*
Y-90500D02*
X10500D01*
Y-93969D01*
X11044Y-93897D01*
X12017Y-93494D01*
X12853Y-92853D01*
X13494Y-92017D01*
X13897Y-91044D01*
X13969Y-90500D01*
D02*
G37*
G36*
X0Y-86369D02*
X-940Y-86493D01*
X-1815Y-86855D01*
X-2568Y-87432D01*
X-3145Y-88184D01*
X-3507Y-89060D01*
X-3631Y-90000D01*
X-3507Y-90940D01*
X-3145Y-91816D01*
X-2568Y-92568D01*
X-1815Y-93145D01*
X-940Y-93507D01*
X0Y-93631D01*
X940Y-93507D01*
X1815Y-93145D01*
X2568Y-92568D01*
X3145Y-91816D01*
X3507Y-90940D01*
X3631Y-90000D01*
X3507Y-89060D01*
X3145Y-88184D01*
X2568Y-87432D01*
X1815Y-86855D01*
X940Y-86493D01*
X0Y-86369D01*
D02*
G37*
G36*
X25000Y-85966D02*
X23956Y-86103D01*
X22983Y-86506D01*
X22147Y-87147D01*
X21506Y-87983D01*
X21103Y-88956D01*
X20966Y-90000D01*
X21103Y-91044D01*
X21506Y-92017D01*
X22147Y-92853D01*
X22983Y-93494D01*
X23956Y-93897D01*
X25000Y-94034D01*
X26044Y-93897D01*
X27017Y-93494D01*
X27853Y-92853D01*
X28494Y-92017D01*
X28897Y-91044D01*
X29035Y-90000D01*
X28897Y-88956D01*
X28494Y-87983D01*
X27853Y-87147D01*
X27017Y-86506D01*
X26044Y-86103D01*
X25000Y-85966D01*
D02*
G37*
G36*
X9500Y-90500D02*
X6031D01*
X6103Y-91044D01*
X6506Y-92017D01*
X7147Y-92853D01*
X7983Y-93494D01*
X8956Y-93897D01*
X9500Y-93969D01*
Y-90500D01*
D02*
G37*
G36*
X10500Y-86031D02*
Y-89500D01*
X13969D01*
X13897Y-88956D01*
X13494Y-87983D01*
X12853Y-87147D01*
X12017Y-86506D01*
X11044Y-86103D01*
X10500Y-86031D01*
D02*
G37*
G36*
X9500Y-80500D02*
X6031D01*
X6103Y-81044D01*
X6506Y-82017D01*
X7147Y-82853D01*
X7983Y-83494D01*
X8956Y-83897D01*
X9500Y-83969D01*
Y-80500D01*
D02*
G37*
G36*
X27380Y-75968D02*
X22620D01*
X21988Y-76094D01*
X21452Y-76452D01*
X21094Y-76988D01*
X20968Y-77620D01*
Y-82380D01*
X21094Y-83012D01*
X21452Y-83548D01*
X21988Y-83906D01*
X22620Y-84032D01*
X27380D01*
X27435Y-84021D01*
X33207Y-89793D01*
X33207Y-89793D01*
X33571Y-90036D01*
X34000Y-90122D01*
X37153D01*
Y-90309D01*
X37243Y-90762D01*
X37499Y-91146D01*
X37884Y-91403D01*
X38337Y-91493D01*
X40955D01*
X41408Y-91403D01*
X41792Y-91146D01*
X42048Y-90762D01*
X42138Y-90309D01*
Y-87691D01*
X42048Y-87238D01*
X41792Y-86854D01*
X41408Y-86597D01*
X40955Y-86507D01*
X38337D01*
X37884Y-86597D01*
X37499Y-86854D01*
X37243Y-87238D01*
X37153Y-87691D01*
Y-87878D01*
X34465D01*
X29021Y-82435D01*
X29032Y-82380D01*
Y-77620D01*
X28906Y-76988D01*
X28548Y-76452D01*
X28012Y-76094D01*
X27380Y-75968D01*
D02*
G37*
G36*
X9500Y-86031D02*
X8956Y-86103D01*
X7983Y-86506D01*
X7147Y-87147D01*
X6506Y-87983D01*
X6103Y-88956D01*
X6031Y-89500D01*
X9500D01*
Y-86031D01*
D02*
G37*
G36*
Y-46031D02*
X8956Y-46103D01*
X7983Y-46506D01*
X7147Y-47147D01*
X6506Y-47983D01*
X6103Y-48956D01*
X6031Y-49500D01*
X9500D01*
Y-46031D01*
D02*
G37*
G36*
X29221Y-20500D02*
X25500D01*
Y-24221D01*
X26109Y-24141D01*
X27143Y-23712D01*
X28031Y-23031D01*
X28712Y-22143D01*
X29141Y-21110D01*
X29221Y-20500D01*
D02*
G37*
G36*
X13969D02*
X10500D01*
Y-23969D01*
X11044Y-23897D01*
X12017Y-23494D01*
X12853Y-22853D01*
X13494Y-22017D01*
X13897Y-21044D01*
X13969Y-20500D01*
D02*
G37*
G36*
X10500Y-26031D02*
Y-29500D01*
X13969D01*
X13897Y-28956D01*
X13494Y-27983D01*
X12853Y-27147D01*
X12017Y-26506D01*
X11044Y-26103D01*
X10500Y-26031D01*
D02*
G37*
G36*
X24500Y-20500D02*
X20779D01*
X20859Y-21110D01*
X21288Y-22143D01*
X21969Y-23031D01*
X22857Y-23712D01*
X23890Y-24141D01*
X24500Y-24221D01*
Y-20500D01*
D02*
G37*
G36*
X0Y-6369D02*
X-940Y-6493D01*
X-1815Y-6855D01*
X-2568Y-7433D01*
X-3145Y-8185D01*
X-3507Y-9060D01*
X-3631Y-10000D01*
X-3507Y-10940D01*
X-3145Y-11816D01*
X-2568Y-12567D01*
X-1815Y-13145D01*
X-940Y-13507D01*
X0Y-13631D01*
X940Y-13507D01*
X1815Y-13145D01*
X2568Y-12567D01*
X3145Y-11816D01*
X3507Y-10940D01*
X3631Y-10000D01*
X3507Y-9060D01*
X3145Y-8185D01*
X2568Y-7433D01*
X1815Y-6855D01*
X940Y-6493D01*
X0Y-6369D01*
D02*
G37*
G36*
X38309Y8347D02*
X35691D01*
X35238Y8257D01*
X34854Y8000D01*
X34597Y7616D01*
X34507Y7163D01*
Y7122D01*
X16000D01*
X16000Y7122D01*
X15571Y7036D01*
X15207Y6793D01*
X15207Y6793D01*
X11634Y3220D01*
X10940Y3507D01*
X10000Y3631D01*
X9060Y3507D01*
X8185Y3145D01*
X7433Y2568D01*
X6855Y1815D01*
X6493Y940D01*
X6369Y0D01*
X6493Y-940D01*
X6855Y-1815D01*
X7433Y-2568D01*
X8185Y-3145D01*
X8508Y-3278D01*
X8388Y-3878D01*
X5465D01*
X3629Y-2043D01*
Y2100D01*
X3513Y2685D01*
X3181Y3181D01*
X2685Y3513D01*
X2100Y3629D01*
X-2100D01*
X-2685Y3513D01*
X-3181Y3181D01*
X-3513Y2685D01*
X-3629Y2100D01*
Y-2100D01*
X-3513Y-2685D01*
X-3181Y-3181D01*
X-2685Y-3513D01*
X-2100Y-3629D01*
X2043D01*
X4207Y-5793D01*
X4207Y-5793D01*
X4571Y-6036D01*
X5000Y-6122D01*
X5000Y-6121D01*
X7498D01*
X7702Y-6722D01*
X7147Y-7147D01*
X6506Y-7983D01*
X6103Y-8956D01*
X6031Y-9500D01*
X10000D01*
X13969D01*
X13897Y-8956D01*
X13494Y-7983D01*
X12853Y-7147D01*
X12298Y-6722D01*
X12502Y-6121D01*
X20000D01*
X20000Y-6122D01*
X20429Y-6036D01*
X20793Y-5793D01*
X22708Y-3878D01*
X22725Y-3881D01*
X27275D01*
X27889Y-3759D01*
X28411Y-3410D01*
X28759Y-2889D01*
X28881Y-2275D01*
Y-1122D01*
X34507D01*
Y-1163D01*
X34597Y-1616D01*
X34854Y-2000D01*
X35238Y-2257D01*
X35691Y-2347D01*
X38309D01*
X38762Y-2257D01*
X39146Y-2000D01*
X39403Y-1616D01*
X39493Y-1163D01*
Y1455D01*
X39403Y1908D01*
X39146Y2292D01*
X38762Y2548D01*
X38309Y2638D01*
X35691D01*
X35238Y2548D01*
X34854Y2292D01*
X34597Y1908D01*
X34507Y1455D01*
Y1122D01*
X28881D01*
Y2275D01*
X28759Y2889D01*
X28411Y3410D01*
X27889Y3759D01*
X27275Y3881D01*
X22725D01*
X22110Y3759D01*
X21589Y3410D01*
X21241Y2889D01*
X21119Y2275D01*
Y-2275D01*
X21122Y-2292D01*
X19535Y-3878D01*
X11612D01*
X11492Y-3278D01*
X11816Y-3145D01*
X12567Y-2568D01*
X13145Y-1815D01*
X13507Y-940D01*
X13631Y0D01*
X13507Y940D01*
X13220Y1634D01*
X16465Y4879D01*
X34507D01*
Y4545D01*
X34597Y4092D01*
X34854Y3708D01*
X35238Y3452D01*
X35691Y3362D01*
X38309D01*
X38762Y3452D01*
X39146Y3708D01*
X39403Y4092D01*
X39493Y4545D01*
Y7163D01*
X39403Y7616D01*
X39146Y8000D01*
X38762Y8257D01*
X38309Y8347D01*
D02*
G37*
G36*
X24500Y-15779D02*
X23890Y-15859D01*
X22857Y-16288D01*
X21969Y-16969D01*
X21288Y-17857D01*
X20859Y-18891D01*
X20779Y-19500D01*
X24500D01*
Y-15779D01*
D02*
G37*
G36*
X25500D02*
Y-19500D01*
X29221D01*
X29141Y-18891D01*
X28712Y-17857D01*
X28031Y-16969D01*
X27143Y-16288D01*
X26109Y-15859D01*
X25500Y-15779D01*
D02*
G37*
G36*
X25000Y-26117D02*
X23995Y-26249D01*
X23058Y-26637D01*
X22254Y-27254D01*
X21637Y-28058D01*
X21249Y-28995D01*
X21117Y-30000D01*
X21249Y-31005D01*
X21637Y-31942D01*
X22254Y-32746D01*
X23058Y-33363D01*
X23995Y-33751D01*
X25000Y-33883D01*
X26005Y-33751D01*
X26942Y-33363D01*
X27746Y-32746D01*
X28363Y-31942D01*
X28751Y-31005D01*
X28883Y-30000D01*
X28751Y-28995D01*
X28363Y-28058D01*
X27746Y-27254D01*
X26942Y-26637D01*
X26005Y-26249D01*
X25000Y-26117D01*
D02*
G37*
G36*
X46309Y-43245D02*
X45500D01*
Y-45646D01*
X47901D01*
Y-44837D01*
X47780Y-44227D01*
X47434Y-43711D01*
X46918Y-43366D01*
X46309Y-43245D01*
D02*
G37*
G36*
X9500Y-40500D02*
X6031D01*
X6103Y-41044D01*
X6506Y-42017D01*
X7147Y-42853D01*
X7983Y-43494D01*
X8956Y-43897D01*
X9500Y-43969D01*
Y-40500D01*
D02*
G37*
G36*
X10500Y-46031D02*
Y-49500D01*
X13969D01*
X13897Y-48956D01*
X13494Y-47983D01*
X12853Y-47147D01*
X12017Y-46506D01*
X11044Y-46103D01*
X10500Y-46031D01*
D02*
G37*
G36*
X44500Y-43245D02*
X43691D01*
X43082Y-43366D01*
X42566Y-43711D01*
X42221Y-44227D01*
X42099Y-44837D01*
Y-45646D01*
X44500D01*
Y-43245D01*
D02*
G37*
G36*
X10500Y-36031D02*
Y-39500D01*
X13969D01*
X13897Y-38956D01*
X13494Y-37983D01*
X12853Y-37147D01*
X12017Y-36506D01*
X11044Y-36103D01*
X10500Y-36031D01*
D02*
G37*
G36*
X13969Y-30500D02*
X10500D01*
Y-33969D01*
X11044Y-33897D01*
X12017Y-33494D01*
X12853Y-32853D01*
X13494Y-32017D01*
X13897Y-31044D01*
X13969Y-30500D01*
D02*
G37*
G36*
Y-40500D02*
X10500D01*
Y-43969D01*
X11044Y-43897D01*
X12017Y-43494D01*
X12853Y-42853D01*
X13494Y-42017D01*
X13897Y-41044D01*
X13969Y-40500D01*
D02*
G37*
G36*
X9500Y-36031D02*
X8956Y-36103D01*
X7983Y-36506D01*
X7147Y-37147D01*
X6506Y-37983D01*
X6103Y-38956D01*
X6031Y-39500D01*
X9500D01*
Y-36031D01*
D02*
G37*
%LPD*%
D10*
X-7000Y-27000D02*
X0Y-20000D01*
X-7000Y-50000D02*
Y-27000D01*
Y-50000D02*
X-2000Y-55000D01*
X49000Y-65000D02*
X51000Y-67000D01*
X45000Y-65000D02*
X49000D01*
X30000D02*
X40000D01*
X20000Y-55000D02*
X30000Y-65000D01*
X-2000Y-55000D02*
X20000D01*
X30000Y-70000D02*
X40000D01*
X25000Y-65000D02*
X30000Y-70000D01*
X5000Y-65000D02*
X25000D01*
X0Y-60000D02*
X5000Y-65000D01*
X40000Y-60000D02*
Y-49000D01*
X31000Y-40000D02*
X40000Y-49000D01*
X25000Y-40000D02*
X31000D01*
X20000Y-15000D02*
X25000Y-10000D01*
X8000Y-15000D02*
X20000D01*
X5000Y-18000D02*
X8000Y-15000D01*
X5000Y-35000D02*
Y-18000D01*
X0Y-40000D02*
X5000Y-35000D01*
X20000Y-5000D02*
X25000Y0D01*
X5000Y-5000D02*
X20000D01*
X0Y0D02*
X5000Y-5000D01*
X36854Y0D02*
X37000Y146D01*
X25000Y0D02*
X36854D01*
X36854Y6000D02*
X37000Y5854D01*
X16000Y6000D02*
X36854D01*
X10000Y0D02*
X16000Y6000D01*
X45000Y-60000D02*
Y-51854D01*
X45354Y-89000D02*
X51000Y-83354D01*
Y-67000D01*
X34000Y-89000D02*
X39646D01*
X25000Y-80000D02*
X34000Y-89000D01*
D11*
X25000Y-90000D02*
D03*
D12*
Y-80000D02*
D03*
D13*
X10000Y-90000D02*
D03*
Y-80000D02*
D03*
Y-70000D02*
D03*
Y-60000D02*
D03*
Y-50000D02*
D03*
Y-40000D02*
D03*
Y-30000D02*
D03*
Y-20000D02*
D03*
Y-10000D02*
D03*
Y0D02*
D03*
X0Y-90000D02*
D03*
Y-80000D02*
D03*
Y-70000D02*
D03*
Y-60000D02*
D03*
Y-50000D02*
D03*
Y-40000D02*
D03*
Y-30000D02*
D03*
Y-20000D02*
D03*
Y-10000D02*
D03*
D14*
Y0D02*
D03*
D15*
X45000Y-80000D02*
D03*
D16*
X40000D02*
D03*
Y-75000D02*
D03*
X45000D02*
D03*
X40000Y-70000D02*
D03*
X45000D02*
D03*
X40000Y-65000D02*
D03*
X45000D02*
D03*
X40000Y-60000D02*
D03*
X45000D02*
D03*
D17*
X25000Y-50000D02*
D03*
Y-40000D02*
D03*
Y-10000D02*
D03*
Y-20000D02*
D03*
Y-30000D02*
D03*
D18*
Y0D02*
D03*
D19*
X45000Y-46146D02*
D03*
Y-51854D02*
D03*
X37000Y146D02*
D03*
Y5854D02*
D03*
D20*
X45354Y-89000D02*
D03*
X39646D02*
D03*
M02*
