G04 Layer_Color=16711935*
%FSLAX25Y25*%
%MOIN*%
G70*
G01*
G75*
%ADD11C,0.06800*%
%ADD22C,0.07600*%
G04:AMPARAMS|DCode=23|XSize=76mil|YSize=76mil|CornerRadius=14.2mil|HoleSize=0mil|Usage=FLASHONLY|Rotation=180.000|XOffset=0mil|YOffset=0mil|HoleType=Round|Shape=RoundedRectangle|*
%AMROUNDEDRECTD23*
21,1,0.07600,0.04760,0,0,180.0*
21,1,0.04760,0.07600,0,0,180.0*
1,1,0.02840,-0.02380,0.02380*
1,1,0.02840,0.02380,0.02380*
1,1,0.02840,0.02380,-0.02380*
1,1,0.02840,-0.02380,-0.02380*
%
%ADD23ROUNDEDRECTD23*%
G04:AMPARAMS|DCode=24|XSize=68mil|YSize=68mil|CornerRadius=13mil|HoleSize=0mil|Usage=FLASHONLY|Rotation=270.000|XOffset=0mil|YOffset=0mil|HoleType=Round|Shape=RoundedRectangle|*
%AMROUNDEDRECTD24*
21,1,0.06800,0.04200,0,0,270.0*
21,1,0.04200,0.06800,0,0,270.0*
1,1,0.02600,-0.02100,-0.02100*
1,1,0.02600,-0.02100,0.02100*
1,1,0.02600,0.02100,0.02100*
1,1,0.02600,0.02100,-0.02100*
%
%ADD24ROUNDEDRECTD24*%
G04:AMPARAMS|DCode=25|XSize=47.37mil|YSize=47.37mil|CornerRadius=13.84mil|HoleSize=0mil|Usage=FLASHONLY|Rotation=90.000|XOffset=0mil|YOffset=0mil|HoleType=Round|Shape=RoundedRectangle|*
%AMROUNDEDRECTD25*
21,1,0.04737,0.01968,0,0,90.0*
21,1,0.01968,0.04737,0,0,90.0*
1,1,0.02768,0.00984,0.00984*
1,1,0.02768,0.00984,-0.00984*
1,1,0.02768,-0.00984,-0.00984*
1,1,0.02768,-0.00984,0.00984*
%
%ADD25ROUNDEDRECTD25*%
%ADD26C,0.04737*%
%ADD27C,0.07300*%
G04:AMPARAMS|DCode=28|XSize=73mil|YSize=73mil|CornerRadius=13.75mil|HoleSize=0mil|Usage=FLASHONLY|Rotation=180.000|XOffset=0mil|YOffset=0mil|HoleType=Round|Shape=RoundedRectangle|*
%AMROUNDEDRECTD28*
21,1,0.07300,0.04550,0,0,180.0*
21,1,0.04550,0.07300,0,0,180.0*
1,1,0.02750,-0.02275,0.02275*
1,1,0.02750,0.02275,0.02275*
1,1,0.02750,0.02275,-0.02275*
1,1,0.02750,-0.02275,-0.02275*
%
%ADD28ROUNDEDRECTD28*%
G04:AMPARAMS|DCode=29|XSize=45.4mil|YSize=45.4mil|CornerRadius=9.61mil|HoleSize=0mil|Usage=FLASHONLY|Rotation=270.000|XOffset=0mil|YOffset=0mil|HoleType=Round|Shape=RoundedRectangle|*
%AMROUNDEDRECTD29*
21,1,0.04540,0.02618,0,0,270.0*
21,1,0.02618,0.04540,0,0,270.0*
1,1,0.01922,-0.01309,-0.01309*
1,1,0.01922,-0.01309,0.01309*
1,1,0.01922,0.01309,0.01309*
1,1,0.01922,0.01309,-0.01309*
%
%ADD29ROUNDEDRECTD29*%
G04:AMPARAMS|DCode=30|XSize=45.4mil|YSize=45.4mil|CornerRadius=9.61mil|HoleSize=0mil|Usage=FLASHONLY|Rotation=180.000|XOffset=0mil|YOffset=0mil|HoleType=Round|Shape=RoundedRectangle|*
%AMROUNDEDRECTD30*
21,1,0.04540,0.02618,0,0,180.0*
21,1,0.02618,0.04540,0,0,180.0*
1,1,0.01922,-0.01309,0.01309*
1,1,0.01922,0.01309,0.01309*
1,1,0.01922,0.01309,-0.01309*
1,1,0.01922,-0.01309,-0.01309*
%
%ADD30ROUNDEDRECTD30*%
D11*
X10000Y-90000D02*
D03*
Y-80000D02*
D03*
Y-70000D02*
D03*
Y-60000D02*
D03*
Y-50000D02*
D03*
Y-40000D02*
D03*
Y-30000D02*
D03*
Y-20000D02*
D03*
Y-10000D02*
D03*
Y0D02*
D03*
X0Y-90000D02*
D03*
Y-80000D02*
D03*
Y-70000D02*
D03*
Y-60000D02*
D03*
Y-50000D02*
D03*
Y-40000D02*
D03*
Y-30000D02*
D03*
Y-20000D02*
D03*
Y-10000D02*
D03*
D22*
X25000Y-90000D02*
D03*
D23*
Y-80000D02*
D03*
D24*
X0Y0D02*
D03*
D25*
X45000Y-80000D02*
D03*
D26*
X40000D02*
D03*
Y-75000D02*
D03*
X45000D02*
D03*
X40000Y-70000D02*
D03*
X45000D02*
D03*
X40000Y-65000D02*
D03*
X45000D02*
D03*
X40000Y-60000D02*
D03*
X45000D02*
D03*
D27*
X25000Y-50000D02*
D03*
Y-40000D02*
D03*
Y-10000D02*
D03*
Y-20000D02*
D03*
Y-30000D02*
D03*
D28*
Y0D02*
D03*
D29*
X45000Y-46146D02*
D03*
Y-51854D02*
D03*
X37000Y146D02*
D03*
Y5854D02*
D03*
D30*
X45354Y-89000D02*
D03*
X39646D02*
D03*
M02*
