G04 Layer_Color=32896*
%FSLAX25Y25*%
%MOIN*%
G70*
G01*
G75*
G36*
X131567Y143628D02*
X126593D01*
Y155500D01*
X131567D01*
Y143628D01*
D02*
G37*
G36*
X143567Y111803D02*
X138593D01*
Y149500D01*
X143567D01*
Y111803D01*
D02*
G37*
G36*
X131500Y103583D02*
X126659D01*
Y115500D01*
X131500D01*
Y103583D01*
D02*
G37*
%LPC*%
G36*
X131000Y151243D02*
X127159D01*
Y149544D01*
Y149539D01*
Y149522D01*
Y149494D01*
Y149461D01*
X127165Y149417D01*
Y149367D01*
X127171Y149250D01*
X127187Y149128D01*
X127204Y148995D01*
X127232Y148873D01*
X127248Y148812D01*
X127265Y148762D01*
Y148756D01*
X127270Y148751D01*
X127287Y148717D01*
X127309Y148668D01*
X127348Y148606D01*
X127398Y148540D01*
X127465Y148468D01*
X127542Y148401D01*
X127631Y148334D01*
X127637D01*
X127642Y148329D01*
X127675Y148307D01*
X127731Y148284D01*
X127803Y148251D01*
X127886Y148223D01*
X127986Y148196D01*
X128092Y148179D01*
X128208Y148173D01*
X128247D01*
X128275Y148179D01*
X128314D01*
X128353Y148185D01*
X128447Y148207D01*
X128558Y148240D01*
X128674Y148284D01*
X128791Y148351D01*
X128847Y148396D01*
X128902Y148440D01*
X128908Y148445D01*
X128913Y148451D01*
X128930Y148468D01*
X128946Y148490D01*
X128969Y148518D01*
X128991Y148551D01*
X129019Y148595D01*
X129052Y148640D01*
X129080Y148695D01*
X129107Y148756D01*
X129141Y148823D01*
X129168Y148895D01*
X129191Y148978D01*
X129218Y149062D01*
X129235Y149156D01*
X129252Y149256D01*
X129257Y149245D01*
X129268Y149223D01*
X129291Y149189D01*
X129313Y149145D01*
X129374Y149045D01*
X129413Y148995D01*
X129446Y148951D01*
X129457Y148939D01*
X129485Y148912D01*
X129529Y148867D01*
X129585Y148812D01*
X129662Y148751D01*
X129746Y148679D01*
X129846Y148606D01*
X129957Y148529D01*
X131000Y147868D01*
Y148501D01*
X130201Y149006D01*
X130195D01*
X130184Y149017D01*
X130167Y149028D01*
X130145Y149045D01*
X130084Y149084D01*
X130007Y149134D01*
X129923Y149195D01*
X129834Y149256D01*
X129751Y149317D01*
X129674Y149372D01*
X129668Y149378D01*
X129646Y149395D01*
X129613Y149422D01*
X129574Y149461D01*
X129490Y149544D01*
X129452Y149589D01*
X129418Y149633D01*
X129413Y149639D01*
X129407Y149650D01*
X129396Y149672D01*
X129379Y149705D01*
X129363Y149739D01*
X129346Y149777D01*
X129318Y149866D01*
Y149872D01*
X129313Y149883D01*
Y149905D01*
X129307Y149933D01*
X129302Y149972D01*
Y150016D01*
X129296Y150077D01*
Y150144D01*
Y150732D01*
X131000D01*
Y151243D01*
D02*
G37*
G36*
X129768Y155000D02*
X129724Y154523D01*
X129735D01*
X129751Y154517D01*
X129773D01*
X129823Y154506D01*
X129896Y154489D01*
X129968Y154467D01*
X130051Y154445D01*
X130129Y154406D01*
X130201Y154367D01*
X130206Y154362D01*
X130228Y154345D01*
X130267Y154317D01*
X130306Y154273D01*
X130356Y154218D01*
X130406Y154156D01*
X130456Y154073D01*
X130500Y153984D01*
Y153979D01*
X130506Y153973D01*
X130512Y153957D01*
X130517Y153940D01*
X130534Y153884D01*
X130556Y153812D01*
X130578Y153724D01*
X130595Y153624D01*
X130606Y153513D01*
X130612Y153391D01*
Y153385D01*
Y153379D01*
Y153363D01*
Y153341D01*
X130606Y153285D01*
X130600Y153218D01*
X130589Y153141D01*
X130578Y153052D01*
X130556Y152963D01*
X130528Y152880D01*
X130523Y152869D01*
X130512Y152841D01*
X130489Y152802D01*
X130467Y152752D01*
X130428Y152702D01*
X130389Y152647D01*
X130345Y152591D01*
X130290Y152547D01*
X130284Y152541D01*
X130262Y152530D01*
X130234Y152514D01*
X130190Y152491D01*
X130145Y152469D01*
X130090Y152453D01*
X130029Y152442D01*
X129962Y152436D01*
X129929D01*
X129896Y152442D01*
X129851Y152447D01*
X129807Y152464D01*
X129751Y152480D01*
X129696Y152508D01*
X129646Y152547D01*
X129640Y152552D01*
X129624Y152569D01*
X129601Y152591D01*
X129568Y152630D01*
X129535Y152674D01*
X129496Y152736D01*
X129457Y152808D01*
X129424Y152891D01*
X129418Y152897D01*
X129413Y152924D01*
X129396Y152969D01*
X129391Y152997D01*
X129379Y153035D01*
X129363Y153074D01*
X129352Y153124D01*
X129335Y153180D01*
X129318Y153246D01*
X129302Y153313D01*
X129279Y153391D01*
X129257Y153479D01*
X129235Y153574D01*
Y153579D01*
X129229Y153596D01*
X129224Y153624D01*
X129213Y153657D01*
X129202Y153701D01*
X129191Y153751D01*
X129157Y153862D01*
X129119Y153984D01*
X129080Y154112D01*
X129041Y154223D01*
X129019Y154273D01*
X128997Y154317D01*
Y154323D01*
X128991Y154328D01*
X128969Y154362D01*
X128941Y154412D01*
X128897Y154467D01*
X128847Y154534D01*
X128786Y154600D01*
X128713Y154667D01*
X128636Y154722D01*
X128625Y154728D01*
X128597Y154745D01*
X128552Y154767D01*
X128497Y154789D01*
X128425Y154811D01*
X128342Y154833D01*
X128253Y154850D01*
X128158Y154856D01*
X128108D01*
X128053Y154845D01*
X127981Y154833D01*
X127898Y154817D01*
X127803Y154789D01*
X127709Y154750D01*
X127614Y154695D01*
X127609D01*
X127603Y154689D01*
X127570Y154661D01*
X127526Y154623D01*
X127470Y154573D01*
X127409Y154506D01*
X127343Y154423D01*
X127281Y154323D01*
X127226Y154212D01*
Y154206D01*
X127220Y154195D01*
X127215Y154179D01*
X127204Y154156D01*
X127193Y154129D01*
X127182Y154090D01*
X127159Y154007D01*
X127137Y153901D01*
X127115Y153779D01*
X127098Y153651D01*
X127093Y153507D01*
Y153501D01*
Y153490D01*
Y153463D01*
Y153435D01*
X127098Y153396D01*
Y153357D01*
X127109Y153252D01*
X127126Y153135D01*
X127154Y153013D01*
X127187Y152880D01*
X127232Y152758D01*
Y152752D01*
X127237Y152741D01*
X127248Y152725D01*
X127259Y152702D01*
X127287Y152647D01*
X127337Y152575D01*
X127392Y152491D01*
X127465Y152408D01*
X127548Y152330D01*
X127642Y152258D01*
X127648D01*
X127653Y152253D01*
X127670Y152242D01*
X127687Y152231D01*
X127742Y152203D01*
X127814Y152170D01*
X127903Y152131D01*
X128008Y152103D01*
X128120Y152075D01*
X128242Y152064D01*
X128280Y152552D01*
X128264D01*
X128247Y152558D01*
X128219Y152564D01*
X128158Y152580D01*
X128075Y152602D01*
X127986Y152636D01*
X127898Y152686D01*
X127814Y152747D01*
X127737Y152824D01*
X127731Y152836D01*
X127709Y152863D01*
X127675Y152919D01*
X127642Y152991D01*
X127609Y153085D01*
X127576Y153196D01*
X127553Y153335D01*
X127548Y153490D01*
Y153496D01*
Y153513D01*
Y153535D01*
Y153568D01*
X127553Y153601D01*
X127559Y153646D01*
X127570Y153746D01*
X127592Y153857D01*
X127620Y153968D01*
X127664Y154073D01*
X127692Y154118D01*
X127720Y154162D01*
X127726Y154173D01*
X127748Y154195D01*
X127787Y154228D01*
X127831Y154262D01*
X127892Y154301D01*
X127959Y154334D01*
X128036Y154356D01*
X128125Y154367D01*
X128158D01*
X128197Y154362D01*
X128242Y154351D01*
X128297Y154334D01*
X128353Y154306D01*
X128408Y154273D01*
X128464Y154223D01*
X128469Y154218D01*
X128486Y154190D01*
X128503Y154167D01*
X128514Y154145D01*
X128530Y154112D01*
X128552Y154073D01*
X128569Y154023D01*
X128591Y153968D01*
X128613Y153907D01*
X128641Y153834D01*
X128663Y153757D01*
X128691Y153668D01*
X128713Y153568D01*
X128741Y153457D01*
Y153452D01*
X128747Y153429D01*
X128752Y153396D01*
X128763Y153357D01*
X128774Y153307D01*
X128791Y153246D01*
X128808Y153185D01*
X128824Y153119D01*
X128863Y152974D01*
X128902Y152836D01*
X128924Y152769D01*
X128946Y152708D01*
X128963Y152652D01*
X128985Y152608D01*
Y152602D01*
X128991Y152591D01*
X129002Y152575D01*
X129013Y152552D01*
X129046Y152491D01*
X129091Y152419D01*
X129152Y152336D01*
X129218Y152253D01*
X129296Y152175D01*
X129379Y152108D01*
X129391Y152103D01*
X129418Y152081D01*
X129468Y152058D01*
X129535Y152025D01*
X129613Y151997D01*
X129707Y151970D01*
X129812Y151953D01*
X129923Y151947D01*
X129973D01*
X130034Y151959D01*
X130112Y151970D01*
X130201Y151992D01*
X130295Y152020D01*
X130395Y152064D01*
X130500Y152125D01*
X130506D01*
X130512Y152131D01*
X130545Y152158D01*
X130595Y152197D01*
X130650Y152253D01*
X130717Y152325D01*
X130789Y152414D01*
X130856Y152514D01*
X130917Y152630D01*
Y152636D01*
X130922Y152647D01*
X130928Y152663D01*
X130939Y152686D01*
X130950Y152719D01*
X130967Y152758D01*
X130989Y152847D01*
X131017Y152952D01*
X131044Y153080D01*
X131061Y153218D01*
X131067Y153368D01*
Y153374D01*
Y153391D01*
Y153418D01*
Y153457D01*
X131061Y153501D01*
Y153551D01*
X131055Y153607D01*
X131050Y153674D01*
X131028Y153812D01*
X131006Y153957D01*
X130967Y154101D01*
X130917Y154240D01*
Y154245D01*
X130911Y154256D01*
X130900Y154273D01*
X130889Y154295D01*
X130856Y154362D01*
X130806Y154439D01*
X130739Y154528D01*
X130661Y154623D01*
X130567Y154711D01*
X130462Y154795D01*
X130456D01*
X130445Y154806D01*
X130428Y154811D01*
X130406Y154828D01*
X130378Y154839D01*
X130345Y154856D01*
X130262Y154895D01*
X130156Y154933D01*
X130040Y154967D01*
X129907Y154989D01*
X129768Y155000D01*
D02*
G37*
G36*
X129052Y147524D02*
X128991D01*
X128952Y147519D01*
X128897D01*
X128841Y147513D01*
X128769Y147508D01*
X128697Y147496D01*
X128536Y147469D01*
X128358Y147430D01*
X128181Y147374D01*
X128008Y147297D01*
X128003Y147291D01*
X127986Y147285D01*
X127964Y147274D01*
X127936Y147252D01*
X127898Y147230D01*
X127853Y147202D01*
X127753Y147130D01*
X127642Y147036D01*
X127531Y146925D01*
X127420Y146797D01*
X127326Y146647D01*
X127320Y146642D01*
X127315Y146625D01*
X127304Y146603D01*
X127287Y146575D01*
X127270Y146531D01*
X127254Y146486D01*
X127232Y146431D01*
X127209Y146370D01*
X127187Y146303D01*
X127165Y146231D01*
X127132Y146076D01*
X127104Y145898D01*
X127093Y145715D01*
Y145709D01*
Y145687D01*
Y145659D01*
X127098Y145621D01*
X127104Y145571D01*
X127109Y145510D01*
X127115Y145449D01*
X127132Y145376D01*
X127165Y145226D01*
X127215Y145060D01*
X127248Y144977D01*
X127287Y144899D01*
X127337Y144821D01*
X127387Y144744D01*
X127392Y144738D01*
X127398Y144727D01*
X127415Y144705D01*
X127443Y144677D01*
X127470Y144649D01*
X127509Y144610D01*
X127553Y144572D01*
X127598Y144527D01*
X127653Y144483D01*
X127720Y144438D01*
X127787Y144388D01*
X127859Y144344D01*
X127942Y144305D01*
X128025Y144261D01*
X128114Y144227D01*
X128214Y144194D01*
X128330Y144694D01*
X128325D01*
X128314Y144699D01*
X128292Y144710D01*
X128264Y144721D01*
X128231Y144732D01*
X128186Y144749D01*
X128097Y144794D01*
X127998Y144849D01*
X127898Y144916D01*
X127803Y144999D01*
X127720Y145088D01*
X127709Y145099D01*
X127687Y145132D01*
X127659Y145188D01*
X127620Y145260D01*
X127587Y145354D01*
X127553Y145459D01*
X127531Y145587D01*
X127526Y145726D01*
Y145731D01*
Y145748D01*
Y145770D01*
X127531Y145798D01*
Y145837D01*
X127537Y145881D01*
X127553Y145987D01*
X127576Y146103D01*
X127614Y146226D01*
X127670Y146353D01*
X127742Y146470D01*
Y146475D01*
X127753Y146481D01*
X127781Y146520D01*
X127825Y146570D01*
X127892Y146631D01*
X127975Y146703D01*
X128070Y146769D01*
X128186Y146830D01*
X128314Y146886D01*
X128319D01*
X128330Y146891D01*
X128347Y146897D01*
X128375Y146903D01*
X128408Y146914D01*
X128447Y146925D01*
X128541Y146941D01*
X128652Y146964D01*
X128774Y146986D01*
X128908Y146997D01*
X129052Y147002D01*
X129135D01*
X129174Y146997D01*
X129224D01*
X129279Y146991D01*
X129341Y146986D01*
X129474Y146969D01*
X129618Y146941D01*
X129762Y146908D01*
X129907Y146864D01*
X129912D01*
X129923Y146858D01*
X129940Y146847D01*
X129968Y146836D01*
X130034Y146803D01*
X130112Y146753D01*
X130201Y146692D01*
X130295Y146614D01*
X130378Y146525D01*
X130456Y146420D01*
Y146414D01*
X130462Y146403D01*
X130473Y146386D01*
X130484Y146364D01*
X130495Y146336D01*
X130512Y146303D01*
X130545Y146226D01*
X130578Y146125D01*
X130606Y146015D01*
X130628Y145893D01*
X130634Y145765D01*
Y145759D01*
Y145748D01*
Y145726D01*
X130628Y145693D01*
Y145654D01*
X130623Y145615D01*
X130600Y145515D01*
X130573Y145398D01*
X130528Y145282D01*
X130467Y145160D01*
X130434Y145099D01*
X130389Y145043D01*
X130384Y145038D01*
X130378Y145032D01*
X130362Y145016D01*
X130345Y144993D01*
X130317Y144971D01*
X130284Y144943D01*
X130251Y144910D01*
X130206Y144882D01*
X130156Y144849D01*
X130101Y144810D01*
X130045Y144777D01*
X129979Y144744D01*
X129907Y144716D01*
X129829Y144688D01*
X129746Y144660D01*
X129657Y144638D01*
X129785Y144128D01*
X129790D01*
X129812Y144133D01*
X129846Y144144D01*
X129890Y144161D01*
X129940Y144177D01*
X130001Y144200D01*
X130068Y144227D01*
X130140Y144261D01*
X130295Y144338D01*
X130450Y144438D01*
X130528Y144499D01*
X130606Y144560D01*
X130673Y144627D01*
X130739Y144705D01*
X130745Y144710D01*
X130756Y144721D01*
X130767Y144749D01*
X130789Y144777D01*
X130817Y144821D01*
X130845Y144866D01*
X130872Y144927D01*
X130900Y144988D01*
X130933Y145060D01*
X130961Y145138D01*
X130989Y145221D01*
X131017Y145310D01*
X131039Y145404D01*
X131050Y145504D01*
X131061Y145609D01*
X131067Y145720D01*
Y145726D01*
Y145748D01*
Y145781D01*
X131061Y145826D01*
Y145876D01*
X131055Y145937D01*
X131044Y146003D01*
X131033Y146081D01*
X131006Y146242D01*
X130961Y146409D01*
X130900Y146575D01*
X130861Y146653D01*
X130817Y146730D01*
X130811Y146736D01*
X130806Y146747D01*
X130789Y146769D01*
X130767Y146792D01*
X130745Y146825D01*
X130711Y146864D01*
X130673Y146908D01*
X130628Y146952D01*
X130578Y146997D01*
X130528Y147047D01*
X130401Y147147D01*
X130251Y147241D01*
X130084Y147324D01*
X130079D01*
X130062Y147335D01*
X130034Y147341D01*
X130001Y147358D01*
X129957Y147369D01*
X129901Y147385D01*
X129840Y147408D01*
X129773Y147424D01*
X129701Y147441D01*
X129618Y147463D01*
X129446Y147491D01*
X129252Y147513D01*
X129052Y147524D01*
D02*
G37*
%LPD*%
G36*
X128858Y149644D02*
Y149639D01*
Y149628D01*
Y149611D01*
Y149589D01*
X128852Y149522D01*
X128847Y149444D01*
X128841Y149356D01*
X128830Y149267D01*
X128813Y149178D01*
X128791Y149100D01*
X128786Y149089D01*
X128774Y149067D01*
X128758Y149034D01*
X128736Y148989D01*
X128702Y148939D01*
X128663Y148890D01*
X128613Y148839D01*
X128558Y148801D01*
X128552Y148795D01*
X128530Y148784D01*
X128497Y148767D01*
X128453Y148745D01*
X128403Y148729D01*
X128347Y148712D01*
X128280Y148701D01*
X128214Y148695D01*
X128203D01*
X128170Y148701D01*
X128120Y148706D01*
X128053Y148717D01*
X127986Y148745D01*
X127909Y148778D01*
X127837Y148828D01*
X127764Y148895D01*
X127759Y148906D01*
X127737Y148934D01*
X127709Y148978D01*
X127675Y149050D01*
X127642Y149134D01*
X127614Y149245D01*
X127592Y149372D01*
X127587Y149522D01*
Y150732D01*
X128858D01*
Y149644D01*
D02*
G37*
%LPC*%
G36*
X143000Y115894D02*
X139159Y114429D01*
Y113874D01*
X143000Y112303D01*
Y112881D01*
X141834Y113330D01*
Y114940D01*
X143000Y115356D01*
Y115894D01*
D02*
G37*
G36*
Y119341D02*
X139159D01*
Y117642D01*
Y117637D01*
Y117620D01*
Y117593D01*
Y117559D01*
X139165Y117515D01*
Y117465D01*
X139171Y117348D01*
X139187Y117226D01*
X139204Y117093D01*
X139232Y116971D01*
X139248Y116910D01*
X139265Y116860D01*
Y116854D01*
X139270Y116849D01*
X139287Y116816D01*
X139309Y116766D01*
X139348Y116704D01*
X139398Y116638D01*
X139465Y116566D01*
X139542Y116499D01*
X139631Y116433D01*
X139637D01*
X139642Y116427D01*
X139675Y116405D01*
X139731Y116383D01*
X139803Y116349D01*
X139886Y116322D01*
X139986Y116294D01*
X140092Y116277D01*
X140208Y116272D01*
X140247D01*
X140275Y116277D01*
X140314D01*
X140353Y116283D01*
X140447Y116305D01*
X140558Y116338D01*
X140674Y116383D01*
X140791Y116449D01*
X140847Y116494D01*
X140902Y116538D01*
X140908Y116544D01*
X140913Y116549D01*
X140930Y116566D01*
X140946Y116588D01*
X140969Y116616D01*
X140991Y116649D01*
X141019Y116693D01*
X141052Y116738D01*
X141080Y116793D01*
X141107Y116854D01*
X141141Y116921D01*
X141168Y116993D01*
X141191Y117076D01*
X141218Y117160D01*
X141235Y117254D01*
X141252Y117354D01*
X141257Y117343D01*
X141268Y117321D01*
X141291Y117287D01*
X141313Y117243D01*
X141374Y117143D01*
X141413Y117093D01*
X141446Y117049D01*
X141457Y117038D01*
X141485Y117010D01*
X141529Y116965D01*
X141585Y116910D01*
X141662Y116849D01*
X141746Y116777D01*
X141846Y116704D01*
X141957Y116627D01*
X143000Y115966D01*
Y116599D01*
X142201Y117104D01*
X142195D01*
X142184Y117115D01*
X142167Y117126D01*
X142145Y117143D01*
X142084Y117182D01*
X142007Y117232D01*
X141923Y117293D01*
X141834Y117354D01*
X141751Y117415D01*
X141674Y117471D01*
X141668Y117476D01*
X141646Y117493D01*
X141613Y117520D01*
X141574Y117559D01*
X141490Y117642D01*
X141452Y117687D01*
X141418Y117731D01*
X141413Y117737D01*
X141407Y117748D01*
X141396Y117770D01*
X141379Y117803D01*
X141363Y117837D01*
X141346Y117876D01*
X141318Y117964D01*
Y117970D01*
X141313Y117981D01*
Y118003D01*
X141307Y118031D01*
X141302Y118070D01*
Y118114D01*
X141296Y118175D01*
Y118242D01*
Y118830D01*
X143000D01*
Y119341D01*
D02*
G37*
G36*
X141768Y135625D02*
X141724Y135147D01*
X141735D01*
X141751Y135142D01*
X141773D01*
X141823Y135131D01*
X141896Y135114D01*
X141968Y135092D01*
X142051Y135070D01*
X142129Y135031D01*
X142201Y134992D01*
X142206Y134986D01*
X142228Y134970D01*
X142267Y134942D01*
X142306Y134897D01*
X142356Y134842D01*
X142406Y134781D01*
X142456Y134698D01*
X142500Y134609D01*
Y134603D01*
X142506Y134598D01*
X142512Y134581D01*
X142517Y134564D01*
X142534Y134509D01*
X142556Y134437D01*
X142578Y134348D01*
X142595Y134248D01*
X142606Y134137D01*
X142612Y134015D01*
Y134009D01*
Y134004D01*
Y133987D01*
Y133965D01*
X142606Y133909D01*
X142600Y133843D01*
X142589Y133765D01*
X142578Y133676D01*
X142556Y133588D01*
X142528Y133504D01*
X142523Y133493D01*
X142512Y133466D01*
X142489Y133427D01*
X142467Y133377D01*
X142428Y133327D01*
X142390Y133271D01*
X142345Y133216D01*
X142290Y133171D01*
X142284Y133166D01*
X142262Y133155D01*
X142234Y133138D01*
X142190Y133116D01*
X142145Y133094D01*
X142090Y133077D01*
X142029Y133066D01*
X141962Y133060D01*
X141929D01*
X141896Y133066D01*
X141851Y133071D01*
X141807Y133088D01*
X141751Y133105D01*
X141696Y133133D01*
X141646Y133171D01*
X141640Y133177D01*
X141624Y133194D01*
X141601Y133216D01*
X141568Y133255D01*
X141535Y133299D01*
X141496Y133360D01*
X141457Y133432D01*
X141424Y133516D01*
X141418Y133521D01*
X141413Y133549D01*
X141396Y133593D01*
X141391Y133621D01*
X141379Y133660D01*
X141363Y133699D01*
X141352Y133749D01*
X141335Y133804D01*
X141318Y133871D01*
X141302Y133937D01*
X141279Y134015D01*
X141257Y134104D01*
X141235Y134198D01*
Y134204D01*
X141229Y134220D01*
X141224Y134248D01*
X141213Y134281D01*
X141202Y134326D01*
X141191Y134376D01*
X141157Y134487D01*
X141119Y134609D01*
X141080Y134737D01*
X141041Y134847D01*
X141019Y134897D01*
X140997Y134942D01*
Y134947D01*
X140991Y134953D01*
X140969Y134986D01*
X140941Y135036D01*
X140897Y135092D01*
X140847Y135158D01*
X140786Y135225D01*
X140713Y135292D01*
X140636Y135347D01*
X140625Y135353D01*
X140597Y135369D01*
X140552Y135391D01*
X140497Y135414D01*
X140425Y135436D01*
X140342Y135458D01*
X140253Y135475D01*
X140158Y135480D01*
X140108D01*
X140053Y135469D01*
X139981Y135458D01*
X139898Y135441D01*
X139803Y135414D01*
X139709Y135375D01*
X139614Y135319D01*
X139609D01*
X139603Y135314D01*
X139570Y135286D01*
X139526Y135247D01*
X139470Y135197D01*
X139409Y135131D01*
X139343Y135047D01*
X139281Y134947D01*
X139226Y134836D01*
Y134831D01*
X139220Y134820D01*
X139215Y134803D01*
X139204Y134781D01*
X139193Y134753D01*
X139182Y134714D01*
X139159Y134631D01*
X139137Y134526D01*
X139115Y134404D01*
X139098Y134276D01*
X139093Y134132D01*
Y134126D01*
Y134115D01*
Y134087D01*
Y134059D01*
X139098Y134021D01*
Y133982D01*
X139109Y133876D01*
X139126Y133760D01*
X139154Y133638D01*
X139187Y133504D01*
X139232Y133382D01*
Y133377D01*
X139237Y133366D01*
X139248Y133349D01*
X139259Y133327D01*
X139287Y133271D01*
X139337Y133199D01*
X139392Y133116D01*
X139465Y133033D01*
X139548Y132955D01*
X139642Y132883D01*
X139648D01*
X139653Y132877D01*
X139670Y132866D01*
X139687Y132855D01*
X139742Y132827D01*
X139814Y132794D01*
X139903Y132755D01*
X140008Y132727D01*
X140120Y132700D01*
X140242Y132689D01*
X140280Y133177D01*
X140264D01*
X140247Y133183D01*
X140219Y133188D01*
X140158Y133205D01*
X140075Y133227D01*
X139986Y133260D01*
X139898Y133310D01*
X139814Y133371D01*
X139737Y133449D01*
X139731Y133460D01*
X139709Y133488D01*
X139675Y133543D01*
X139642Y133615D01*
X139609Y133710D01*
X139576Y133821D01*
X139553Y133959D01*
X139548Y134115D01*
Y134121D01*
Y134137D01*
Y134159D01*
Y134193D01*
X139553Y134226D01*
X139559Y134270D01*
X139570Y134370D01*
X139592Y134481D01*
X139620Y134592D01*
X139664Y134698D01*
X139692Y134742D01*
X139720Y134786D01*
X139725Y134798D01*
X139748Y134820D01*
X139787Y134853D01*
X139831Y134886D01*
X139892Y134925D01*
X139959Y134959D01*
X140036Y134981D01*
X140125Y134992D01*
X140158D01*
X140197Y134986D01*
X140242Y134975D01*
X140297Y134959D01*
X140353Y134931D01*
X140408Y134897D01*
X140464Y134847D01*
X140469Y134842D01*
X140486Y134814D01*
X140503Y134792D01*
X140514Y134770D01*
X140530Y134737D01*
X140552Y134698D01*
X140569Y134648D01*
X140591Y134592D01*
X140613Y134531D01*
X140641Y134459D01*
X140663Y134381D01*
X140691Y134292D01*
X140713Y134193D01*
X140741Y134082D01*
Y134076D01*
X140747Y134054D01*
X140752Y134021D01*
X140763Y133982D01*
X140775Y133932D01*
X140791Y133871D01*
X140808Y133810D01*
X140824Y133743D01*
X140863Y133599D01*
X140902Y133460D01*
X140924Y133393D01*
X140946Y133332D01*
X140963Y133277D01*
X140985Y133232D01*
Y133227D01*
X140991Y133216D01*
X141002Y133199D01*
X141013Y133177D01*
X141046Y133116D01*
X141091Y133044D01*
X141152Y132960D01*
X141218Y132877D01*
X141296Y132799D01*
X141379Y132733D01*
X141391Y132727D01*
X141418Y132705D01*
X141468Y132683D01*
X141535Y132650D01*
X141613Y132622D01*
X141707Y132594D01*
X141812Y132578D01*
X141923Y132572D01*
X141973D01*
X142034Y132583D01*
X142112Y132594D01*
X142201Y132616D01*
X142295Y132644D01*
X142395Y132689D01*
X142500Y132750D01*
X142506D01*
X142512Y132755D01*
X142545Y132783D01*
X142595Y132822D01*
X142650Y132877D01*
X142717Y132949D01*
X142789Y133038D01*
X142856Y133138D01*
X142917Y133255D01*
Y133260D01*
X142922Y133271D01*
X142928Y133288D01*
X142939Y133310D01*
X142950Y133344D01*
X142967Y133382D01*
X142989Y133471D01*
X143017Y133577D01*
X143044Y133704D01*
X143061Y133843D01*
X143067Y133993D01*
Y133998D01*
Y134015D01*
Y134043D01*
Y134082D01*
X143061Y134126D01*
Y134176D01*
X143055Y134231D01*
X143050Y134298D01*
X143028Y134437D01*
X143006Y134581D01*
X142967Y134725D01*
X142917Y134864D01*
Y134870D01*
X142911Y134881D01*
X142900Y134897D01*
X142889Y134920D01*
X142856Y134986D01*
X142806Y135064D01*
X142739Y135153D01*
X142661Y135247D01*
X142567Y135336D01*
X142462Y135419D01*
X142456D01*
X142445Y135430D01*
X142428Y135436D01*
X142406Y135452D01*
X142378Y135464D01*
X142345Y135480D01*
X142262Y135519D01*
X142156Y135558D01*
X142040Y135591D01*
X141907Y135613D01*
X141768Y135625D01*
D02*
G37*
G36*
X143000Y131790D02*
X139159D01*
Y131279D01*
X143000D01*
Y131790D01*
D02*
G37*
G36*
Y140819D02*
X139159D01*
Y139498D01*
Y139493D01*
Y139476D01*
Y139454D01*
Y139426D01*
Y139387D01*
Y139343D01*
X139165Y139243D01*
X139171Y139132D01*
X139182Y139021D01*
X139198Y138910D01*
X139215Y138816D01*
Y138810D01*
X139220Y138799D01*
Y138782D01*
X139232Y138760D01*
X139248Y138699D01*
X139276Y138621D01*
X139315Y138533D01*
X139365Y138438D01*
X139420Y138344D01*
X139492Y138255D01*
X139498Y138250D01*
X139504Y138244D01*
X139520Y138227D01*
X139537Y138205D01*
X139592Y138150D01*
X139670Y138083D01*
X139764Y138011D01*
X139875Y137933D01*
X140003Y137861D01*
X140147Y137800D01*
X140153D01*
X140164Y137795D01*
X140186Y137783D01*
X140219Y137778D01*
X140258Y137761D01*
X140303Y137750D01*
X140353Y137739D01*
X140414Y137722D01*
X140475Y137706D01*
X140547Y137695D01*
X140702Y137667D01*
X140874Y137650D01*
X141063Y137645D01*
X141135D01*
X141174Y137650D01*
X141218D01*
X141324Y137656D01*
X141446Y137672D01*
X141574Y137689D01*
X141707Y137717D01*
X141840Y137750D01*
X141846D01*
X141857Y137756D01*
X141873Y137761D01*
X141896Y137767D01*
X141957Y137789D01*
X142034Y137822D01*
X142123Y137856D01*
X142212Y137900D01*
X142306Y137955D01*
X142395Y138011D01*
X142406Y138017D01*
X142434Y138039D01*
X142473Y138072D01*
X142523Y138117D01*
X142578Y138166D01*
X142634Y138227D01*
X142695Y138288D01*
X142745Y138361D01*
X142750Y138372D01*
X142767Y138394D01*
X142789Y138433D01*
X142817Y138488D01*
X142850Y138555D01*
X142878Y138633D01*
X142911Y138721D01*
X142939Y138821D01*
Y138827D01*
Y138832D01*
X142945Y138849D01*
X142950Y138866D01*
X142956Y138921D01*
X142967Y138999D01*
X142978Y139088D01*
X142989Y139193D01*
X142994Y139310D01*
X143000Y139437D01*
Y140819D01*
D02*
G37*
G36*
X141102Y149000D02*
X141046D01*
X141007Y148995D01*
X140958D01*
X140897Y148989D01*
X140835Y148978D01*
X140763Y148972D01*
X140686Y148956D01*
X140602Y148944D01*
X140425Y148900D01*
X140242Y148845D01*
X140059Y148767D01*
X140053Y148761D01*
X140036Y148756D01*
X140014Y148745D01*
X139981Y148723D01*
X139936Y148700D01*
X139892Y148673D01*
X139787Y148595D01*
X139664Y148501D01*
X139548Y148384D01*
X139431Y148251D01*
X139381Y148173D01*
X139331Y148095D01*
X139326Y148090D01*
X139320Y148073D01*
X139309Y148051D01*
X139293Y148018D01*
X139276Y147973D01*
X139254Y147923D01*
X139232Y147868D01*
X139209Y147801D01*
X139187Y147729D01*
X139171Y147651D01*
X139148Y147568D01*
X139132Y147479D01*
X139104Y147285D01*
X139093Y147185D01*
Y147080D01*
Y147074D01*
Y147063D01*
Y147041D01*
Y147008D01*
X139098Y146974D01*
Y146930D01*
X139109Y146824D01*
X139126Y146708D01*
X139154Y146586D01*
X139187Y146452D01*
X139232Y146325D01*
Y146319D01*
X139237Y146308D01*
X139243Y146292D01*
X139254Y146269D01*
X139287Y146208D01*
X139326Y146131D01*
X139381Y146047D01*
X139448Y145959D01*
X139520Y145875D01*
X139609Y145798D01*
X139620Y145787D01*
X139653Y145764D01*
X139703Y145731D01*
X139776Y145687D01*
X139864Y145642D01*
X139975Y145592D01*
X140097Y145542D01*
X140236Y145503D01*
X140358Y145964D01*
X140353D01*
X140347Y145970D01*
X140330Y145975D01*
X140308Y145981D01*
X140258Y145998D01*
X140192Y146020D01*
X140114Y146053D01*
X140042Y146092D01*
X139964Y146131D01*
X139898Y146181D01*
X139892Y146186D01*
X139870Y146203D01*
X139842Y146236D01*
X139803Y146275D01*
X139759Y146325D01*
X139714Y146391D01*
X139670Y146464D01*
X139631Y146547D01*
X139626Y146558D01*
X139614Y146586D01*
X139598Y146636D01*
X139576Y146702D01*
X139559Y146780D01*
X139542Y146869D01*
X139531Y146969D01*
X139526Y147074D01*
Y147080D01*
Y147091D01*
Y147107D01*
Y147135D01*
X139531Y147163D01*
Y147196D01*
X139537Y147280D01*
X139553Y147374D01*
X139570Y147479D01*
X139598Y147579D01*
X139637Y147679D01*
X139642Y147690D01*
X139653Y147723D01*
X139681Y147768D01*
X139709Y147823D01*
X139753Y147890D01*
X139798Y147962D01*
X139853Y148029D01*
X139914Y148090D01*
X139920Y148095D01*
X139942Y148118D01*
X139981Y148145D01*
X140025Y148179D01*
X140081Y148217D01*
X140147Y148256D01*
X140219Y148295D01*
X140297Y148334D01*
X140303D01*
X140314Y148340D01*
X140330Y148345D01*
X140358Y148356D01*
X140392Y148367D01*
X140430Y148378D01*
X140475Y148395D01*
X140525Y148406D01*
X140641Y148434D01*
X140775Y148456D01*
X140913Y148473D01*
X141069Y148478D01*
X141119D01*
X141152Y148473D01*
X141196D01*
X141252Y148467D01*
X141307Y148462D01*
X141368Y148456D01*
X141507Y148434D01*
X141651Y148406D01*
X141796Y148362D01*
X141934Y148306D01*
X141940D01*
X141951Y148295D01*
X141968Y148290D01*
X141990Y148273D01*
X142051Y148234D01*
X142129Y148173D01*
X142212Y148101D01*
X142295Y148012D01*
X142373Y147907D01*
X142445Y147790D01*
Y147784D01*
X142450Y147774D01*
X142462Y147757D01*
X142473Y147729D01*
X142484Y147701D01*
X142495Y147662D01*
X142528Y147574D01*
X142556Y147463D01*
X142584Y147341D01*
X142606Y147207D01*
X142612Y147069D01*
Y147063D01*
Y147052D01*
Y147035D01*
Y147013D01*
X142606Y146980D01*
Y146947D01*
X142595Y146863D01*
X142584Y146763D01*
X142562Y146658D01*
X142528Y146541D01*
X142489Y146425D01*
Y146419D01*
X142484Y146408D01*
X142478Y146397D01*
X142467Y146375D01*
X142439Y146314D01*
X142406Y146247D01*
X142367Y146169D01*
X142323Y146086D01*
X142273Y146009D01*
X142218Y145942D01*
X141496D01*
Y147074D01*
X141041D01*
Y145442D01*
X142467D01*
X142473Y145448D01*
X142478Y145459D01*
X142495Y145481D01*
X142517Y145509D01*
X142539Y145542D01*
X142567Y145581D01*
X142600Y145631D01*
X142634Y145681D01*
X142706Y145798D01*
X142783Y145931D01*
X142856Y146070D01*
X142917Y146220D01*
Y146225D01*
X142922Y146236D01*
X142928Y146258D01*
X142939Y146286D01*
X142950Y146325D01*
X142967Y146369D01*
X142978Y146419D01*
X142989Y146469D01*
X143017Y146591D01*
X143044Y146730D01*
X143061Y146880D01*
X143067Y147035D01*
Y147041D01*
Y147063D01*
Y147091D01*
X143061Y147130D01*
Y147180D01*
X143055Y147241D01*
X143044Y147307D01*
X143039Y147379D01*
X143006Y147540D01*
X142967Y147712D01*
X142906Y147890D01*
X142872Y147979D01*
X142828Y148068D01*
X142822Y148073D01*
X142817Y148090D01*
X142800Y148112D01*
X142783Y148145D01*
X142756Y148184D01*
X142728Y148223D01*
X142650Y148328D01*
X142551Y148440D01*
X142428Y148556D01*
X142290Y148667D01*
X142129Y148767D01*
X142123D01*
X142106Y148778D01*
X142084Y148789D01*
X142045Y148806D01*
X142007Y148822D01*
X141951Y148839D01*
X141896Y148861D01*
X141829Y148883D01*
X141757Y148906D01*
X141674Y148928D01*
X141590Y148944D01*
X141501Y148961D01*
X141307Y148989D01*
X141102Y149000D01*
D02*
G37*
G36*
X143000Y144699D02*
X139159D01*
Y144177D01*
X142179Y142162D01*
X139159D01*
Y141674D01*
X143000D01*
Y142201D01*
X139986Y144210D01*
X143000D01*
Y144699D01*
D02*
G37*
G36*
X141102Y130513D02*
X141046D01*
X141007Y130507D01*
X140958D01*
X140897Y130502D01*
X140835Y130491D01*
X140763Y130485D01*
X140686Y130469D01*
X140602Y130457D01*
X140425Y130413D01*
X140242Y130358D01*
X140059Y130280D01*
X140053Y130274D01*
X140036Y130269D01*
X140014Y130258D01*
X139981Y130235D01*
X139936Y130213D01*
X139892Y130185D01*
X139787Y130108D01*
X139664Y130013D01*
X139548Y129897D01*
X139431Y129764D01*
X139381Y129686D01*
X139331Y129608D01*
X139326Y129603D01*
X139320Y129586D01*
X139309Y129564D01*
X139293Y129531D01*
X139276Y129486D01*
X139254Y129436D01*
X139232Y129381D01*
X139209Y129314D01*
X139187Y129242D01*
X139171Y129164D01*
X139148Y129081D01*
X139132Y128992D01*
X139104Y128798D01*
X139093Y128698D01*
Y128593D01*
Y128587D01*
Y128576D01*
Y128554D01*
Y128521D01*
X139098Y128487D01*
Y128443D01*
X139109Y128337D01*
X139126Y128221D01*
X139154Y128099D01*
X139187Y127965D01*
X139232Y127838D01*
Y127832D01*
X139237Y127821D01*
X139243Y127805D01*
X139254Y127782D01*
X139287Y127721D01*
X139326Y127644D01*
X139381Y127560D01*
X139448Y127472D01*
X139520Y127388D01*
X139609Y127311D01*
X139620Y127299D01*
X139653Y127277D01*
X139703Y127244D01*
X139776Y127200D01*
X139864Y127155D01*
X139975Y127105D01*
X140097Y127055D01*
X140236Y127016D01*
X140358Y127477D01*
X140353D01*
X140347Y127483D01*
X140330Y127488D01*
X140308Y127494D01*
X140258Y127510D01*
X140192Y127533D01*
X140114Y127566D01*
X140042Y127605D01*
X139964Y127644D01*
X139898Y127694D01*
X139892Y127699D01*
X139870Y127716D01*
X139842Y127749D01*
X139803Y127788D01*
X139759Y127838D01*
X139714Y127904D01*
X139670Y127977D01*
X139631Y128060D01*
X139626Y128071D01*
X139614Y128099D01*
X139598Y128149D01*
X139576Y128215D01*
X139559Y128293D01*
X139542Y128382D01*
X139531Y128482D01*
X139526Y128587D01*
Y128593D01*
Y128604D01*
Y128620D01*
Y128648D01*
X139531Y128676D01*
Y128709D01*
X139537Y128793D01*
X139553Y128887D01*
X139570Y128992D01*
X139598Y129092D01*
X139637Y129192D01*
X139642Y129203D01*
X139653Y129236D01*
X139681Y129281D01*
X139709Y129336D01*
X139753Y129403D01*
X139798Y129475D01*
X139853Y129542D01*
X139914Y129603D01*
X139920Y129608D01*
X139942Y129630D01*
X139981Y129658D01*
X140025Y129692D01*
X140081Y129730D01*
X140147Y129769D01*
X140219Y129808D01*
X140297Y129847D01*
X140303D01*
X140314Y129852D01*
X140330Y129858D01*
X140358Y129869D01*
X140392Y129880D01*
X140430Y129891D01*
X140475Y129908D01*
X140525Y129919D01*
X140641Y129947D01*
X140775Y129969D01*
X140913Y129986D01*
X141069Y129991D01*
X141119D01*
X141152Y129986D01*
X141196D01*
X141252Y129980D01*
X141307Y129975D01*
X141368Y129969D01*
X141507Y129947D01*
X141651Y129919D01*
X141796Y129875D01*
X141934Y129819D01*
X141940D01*
X141951Y129808D01*
X141968Y129803D01*
X141990Y129786D01*
X142051Y129747D01*
X142129Y129686D01*
X142212Y129614D01*
X142295Y129525D01*
X142373Y129420D01*
X142445Y129303D01*
Y129297D01*
X142450Y129286D01*
X142462Y129270D01*
X142473Y129242D01*
X142484Y129214D01*
X142495Y129175D01*
X142528Y129087D01*
X142556Y128976D01*
X142584Y128853D01*
X142606Y128720D01*
X142612Y128582D01*
Y128576D01*
Y128565D01*
Y128548D01*
Y128526D01*
X142606Y128493D01*
Y128459D01*
X142595Y128376D01*
X142584Y128276D01*
X142562Y128171D01*
X142528Y128054D01*
X142489Y127938D01*
Y127932D01*
X142484Y127921D01*
X142478Y127910D01*
X142467Y127888D01*
X142439Y127827D01*
X142406Y127760D01*
X142367Y127682D01*
X142323Y127599D01*
X142273Y127522D01*
X142218Y127455D01*
X141496D01*
Y128587D01*
X141041D01*
Y126955D01*
X142467D01*
X142473Y126961D01*
X142478Y126972D01*
X142495Y126994D01*
X142517Y127022D01*
X142539Y127055D01*
X142567Y127094D01*
X142600Y127144D01*
X142634Y127194D01*
X142706Y127311D01*
X142783Y127444D01*
X142856Y127583D01*
X142917Y127732D01*
Y127738D01*
X142922Y127749D01*
X142928Y127771D01*
X142939Y127799D01*
X142950Y127838D01*
X142967Y127882D01*
X142978Y127932D01*
X142989Y127982D01*
X143017Y128104D01*
X143044Y128243D01*
X143061Y128393D01*
X143067Y128548D01*
Y128554D01*
Y128576D01*
Y128604D01*
X143061Y128643D01*
Y128693D01*
X143055Y128754D01*
X143044Y128820D01*
X143039Y128892D01*
X143006Y129053D01*
X142967Y129225D01*
X142906Y129403D01*
X142872Y129492D01*
X142828Y129580D01*
X142822Y129586D01*
X142817Y129603D01*
X142800Y129625D01*
X142783Y129658D01*
X142756Y129697D01*
X142728Y129736D01*
X142650Y129841D01*
X142551Y129952D01*
X142428Y130069D01*
X142290Y130180D01*
X142129Y130280D01*
X142123D01*
X142106Y130291D01*
X142084Y130302D01*
X142045Y130319D01*
X142007Y130335D01*
X141951Y130352D01*
X141896Y130374D01*
X141829Y130396D01*
X141757Y130419D01*
X141674Y130441D01*
X141590Y130457D01*
X141501Y130474D01*
X141307Y130502D01*
X141102Y130513D01*
D02*
G37*
G36*
X143000Y123220D02*
X139159D01*
Y121899D01*
Y121894D01*
Y121877D01*
Y121855D01*
Y121827D01*
Y121788D01*
Y121744D01*
X139165Y121644D01*
X139171Y121533D01*
X139182Y121422D01*
X139198Y121311D01*
X139215Y121217D01*
Y121211D01*
X139220Y121200D01*
Y121183D01*
X139232Y121161D01*
X139248Y121100D01*
X139276Y121022D01*
X139315Y120934D01*
X139365Y120839D01*
X139420Y120745D01*
X139492Y120656D01*
X139498Y120651D01*
X139504Y120645D01*
X139520Y120628D01*
X139537Y120606D01*
X139592Y120551D01*
X139670Y120484D01*
X139764Y120412D01*
X139875Y120334D01*
X140003Y120262D01*
X140147Y120201D01*
X140153D01*
X140164Y120195D01*
X140186Y120184D01*
X140219Y120179D01*
X140258Y120162D01*
X140303Y120151D01*
X140353Y120140D01*
X140414Y120123D01*
X140475Y120107D01*
X140547Y120096D01*
X140702Y120068D01*
X140874Y120051D01*
X141063Y120046D01*
X141135D01*
X141174Y120051D01*
X141218D01*
X141324Y120057D01*
X141446Y120073D01*
X141574Y120090D01*
X141707Y120118D01*
X141840Y120151D01*
X141846D01*
X141857Y120157D01*
X141873Y120162D01*
X141896Y120168D01*
X141957Y120190D01*
X142034Y120223D01*
X142123Y120256D01*
X142212Y120301D01*
X142306Y120356D01*
X142395Y120412D01*
X142406Y120417D01*
X142434Y120440D01*
X142473Y120473D01*
X142523Y120517D01*
X142578Y120567D01*
X142634Y120628D01*
X142695Y120689D01*
X142745Y120762D01*
X142750Y120773D01*
X142767Y120795D01*
X142789Y120834D01*
X142817Y120889D01*
X142850Y120956D01*
X142878Y121034D01*
X142911Y121122D01*
X142939Y121222D01*
Y121228D01*
Y121233D01*
X142945Y121250D01*
X142950Y121267D01*
X142956Y121322D01*
X142967Y121400D01*
X142978Y121489D01*
X142989Y121594D01*
X142994Y121711D01*
X143000Y121838D01*
Y123220D01*
D02*
G37*
%LPD*%
G36*
X141418Y113491D02*
X140364Y113891D01*
X140358D01*
X140342Y113896D01*
X140314Y113907D01*
X140280Y113918D01*
X140242Y113935D01*
X140192Y113952D01*
X140136Y113968D01*
X140081Y113991D01*
X139953Y114035D01*
X139820Y114079D01*
X139687Y114124D01*
X139559Y114163D01*
X139565D01*
X139576Y114168D01*
X139598D01*
X139620Y114179D01*
X139659Y114185D01*
X139698Y114196D01*
X139792Y114218D01*
X139903Y114246D01*
X140025Y114285D01*
X140158Y114324D01*
X140297Y114374D01*
X141418Y114790D01*
Y113491D01*
D02*
G37*
G36*
X140858Y117742D02*
Y117737D01*
Y117726D01*
Y117709D01*
Y117687D01*
X140852Y117620D01*
X140847Y117543D01*
X140841Y117454D01*
X140830Y117365D01*
X140813Y117276D01*
X140791Y117199D01*
X140786Y117187D01*
X140775Y117165D01*
X140758Y117132D01*
X140736Y117087D01*
X140702Y117038D01*
X140663Y116988D01*
X140613Y116938D01*
X140558Y116899D01*
X140552Y116893D01*
X140530Y116882D01*
X140497Y116866D01*
X140453Y116843D01*
X140403Y116827D01*
X140347Y116810D01*
X140280Y116799D01*
X140214Y116793D01*
X140203D01*
X140170Y116799D01*
X140120Y116804D01*
X140053Y116816D01*
X139986Y116843D01*
X139909Y116877D01*
X139837Y116927D01*
X139764Y116993D01*
X139759Y117004D01*
X139737Y117032D01*
X139709Y117076D01*
X139675Y117149D01*
X139642Y117232D01*
X139614Y117343D01*
X139592Y117471D01*
X139587Y117620D01*
Y118830D01*
X140858D01*
Y117742D01*
D02*
G37*
G36*
X142545Y139493D02*
Y139487D01*
Y139476D01*
Y139454D01*
Y139432D01*
Y139399D01*
X142539Y139360D01*
X142534Y139276D01*
X142528Y139182D01*
X142517Y139082D01*
X142500Y138982D01*
X142478Y138899D01*
X142473Y138888D01*
X142467Y138860D01*
X142450Y138821D01*
X142428Y138771D01*
X142395Y138716D01*
X142362Y138660D01*
X142323Y138605D01*
X142279Y138549D01*
X142267Y138544D01*
X142245Y138522D01*
X142206Y138488D01*
X142151Y138450D01*
X142079Y138405D01*
X141996Y138355D01*
X141901Y138311D01*
X141796Y138272D01*
X141790D01*
X141779Y138266D01*
X141762Y138261D01*
X141740Y138255D01*
X141712Y138250D01*
X141674Y138239D01*
X141635Y138227D01*
X141590Y138216D01*
X141479Y138200D01*
X141352Y138183D01*
X141207Y138172D01*
X141052Y138166D01*
X140997D01*
X140952Y138172D01*
X140902D01*
X140847Y138178D01*
X140780Y138183D01*
X140713Y138189D01*
X140564Y138216D01*
X140408Y138250D01*
X140264Y138300D01*
X140192Y138333D01*
X140131Y138366D01*
X140125D01*
X140114Y138377D01*
X140097Y138388D01*
X140075Y138400D01*
X140020Y138444D01*
X139953Y138499D01*
X139881Y138572D01*
X139809Y138655D01*
X139748Y138749D01*
X139698Y138849D01*
X139692Y138860D01*
X139687Y138888D01*
X139670Y138938D01*
X139653Y139010D01*
X139642Y139099D01*
X139626Y139210D01*
X139620Y139276D01*
Y139349D01*
X139614Y139421D01*
Y139504D01*
Y140309D01*
X142545D01*
Y139493D01*
D02*
G37*
G36*
Y121894D02*
Y121888D01*
Y121877D01*
Y121855D01*
Y121833D01*
Y121800D01*
X142539Y121761D01*
X142534Y121677D01*
X142528Y121583D01*
X142517Y121483D01*
X142500Y121383D01*
X142478Y121300D01*
X142473Y121289D01*
X142467Y121261D01*
X142450Y121222D01*
X142428Y121172D01*
X142395Y121117D01*
X142362Y121061D01*
X142323Y121006D01*
X142279Y120950D01*
X142267Y120945D01*
X142245Y120923D01*
X142206Y120889D01*
X142151Y120850D01*
X142079Y120806D01*
X141996Y120756D01*
X141901Y120712D01*
X141796Y120673D01*
X141790D01*
X141779Y120667D01*
X141762Y120662D01*
X141740Y120656D01*
X141712Y120651D01*
X141674Y120640D01*
X141635Y120628D01*
X141590Y120617D01*
X141479Y120601D01*
X141352Y120584D01*
X141207Y120573D01*
X141052Y120567D01*
X140997D01*
X140952Y120573D01*
X140902D01*
X140847Y120578D01*
X140780Y120584D01*
X140713Y120590D01*
X140564Y120617D01*
X140408Y120651D01*
X140264Y120701D01*
X140192Y120734D01*
X140131Y120767D01*
X140125D01*
X140114Y120778D01*
X140097Y120789D01*
X140075Y120800D01*
X140020Y120845D01*
X139953Y120900D01*
X139881Y120973D01*
X139809Y121056D01*
X139748Y121150D01*
X139698Y121250D01*
X139692Y121261D01*
X139687Y121289D01*
X139670Y121339D01*
X139653Y121411D01*
X139642Y121500D01*
X139626Y121611D01*
X139620Y121677D01*
Y121749D01*
X139614Y121822D01*
Y121905D01*
Y122710D01*
X142545D01*
Y121894D01*
D02*
G37*
%LPC*%
G36*
X131000Y115000D02*
X127159D01*
Y113679D01*
Y113674D01*
Y113657D01*
Y113635D01*
Y113607D01*
Y113568D01*
Y113524D01*
X127165Y113424D01*
X127171Y113313D01*
X127182Y113202D01*
X127198Y113091D01*
X127215Y112996D01*
Y112991D01*
X127220Y112980D01*
Y112963D01*
X127232Y112941D01*
X127248Y112880D01*
X127276Y112802D01*
X127315Y112713D01*
X127365Y112619D01*
X127420Y112525D01*
X127492Y112436D01*
X127498Y112430D01*
X127504Y112425D01*
X127520Y112408D01*
X127537Y112386D01*
X127592Y112330D01*
X127670Y112264D01*
X127764Y112192D01*
X127875Y112114D01*
X128003Y112042D01*
X128147Y111981D01*
X128153D01*
X128164Y111975D01*
X128186Y111964D01*
X128219Y111959D01*
X128258Y111942D01*
X128303Y111931D01*
X128353Y111920D01*
X128414Y111903D01*
X128475Y111886D01*
X128547Y111875D01*
X128702Y111848D01*
X128874Y111831D01*
X129063Y111825D01*
X129135D01*
X129174Y111831D01*
X129218D01*
X129324Y111837D01*
X129446Y111853D01*
X129574Y111870D01*
X129707Y111898D01*
X129840Y111931D01*
X129846D01*
X129857Y111936D01*
X129873Y111942D01*
X129896Y111948D01*
X129957Y111970D01*
X130034Y112003D01*
X130123Y112036D01*
X130212Y112081D01*
X130306Y112136D01*
X130395Y112192D01*
X130406Y112197D01*
X130434Y112220D01*
X130473Y112253D01*
X130523Y112297D01*
X130578Y112347D01*
X130634Y112408D01*
X130695Y112469D01*
X130745Y112541D01*
X130750Y112552D01*
X130767Y112575D01*
X130789Y112613D01*
X130817Y112669D01*
X130850Y112736D01*
X130878Y112813D01*
X130911Y112902D01*
X130939Y113002D01*
Y113007D01*
Y113013D01*
X130945Y113030D01*
X130950Y113046D01*
X130956Y113102D01*
X130967Y113180D01*
X130978Y113268D01*
X130989Y113374D01*
X130994Y113490D01*
X131000Y113618D01*
Y115000D01*
D02*
G37*
G36*
Y111121D02*
X127159D01*
Y109422D01*
Y109417D01*
Y109400D01*
Y109372D01*
Y109339D01*
X127165Y109295D01*
Y109245D01*
X127171Y109128D01*
X127187Y109006D01*
X127204Y108873D01*
X127232Y108751D01*
X127248Y108690D01*
X127265Y108640D01*
Y108634D01*
X127270Y108629D01*
X127287Y108595D01*
X127309Y108545D01*
X127348Y108484D01*
X127398Y108418D01*
X127465Y108346D01*
X127542Y108279D01*
X127631Y108212D01*
X127637D01*
X127642Y108207D01*
X127675Y108185D01*
X127731Y108162D01*
X127803Y108129D01*
X127886Y108101D01*
X127986Y108074D01*
X128092Y108057D01*
X128208Y108051D01*
X128247D01*
X128275Y108057D01*
X128314D01*
X128353Y108063D01*
X128447Y108085D01*
X128558Y108118D01*
X128674Y108162D01*
X128791Y108229D01*
X128847Y108273D01*
X128902Y108318D01*
X128908Y108323D01*
X128913Y108329D01*
X128930Y108346D01*
X128946Y108368D01*
X128969Y108396D01*
X128991Y108429D01*
X129019Y108473D01*
X129052Y108518D01*
X129080Y108573D01*
X129107Y108634D01*
X129141Y108701D01*
X129168Y108773D01*
X129191Y108856D01*
X129218Y108939D01*
X129235Y109034D01*
X129252Y109134D01*
X129257Y109123D01*
X129268Y109100D01*
X129291Y109067D01*
X129313Y109023D01*
X129374Y108923D01*
X129413Y108873D01*
X129446Y108828D01*
X129457Y108817D01*
X129485Y108790D01*
X129529Y108745D01*
X129585Y108690D01*
X129662Y108629D01*
X129746Y108556D01*
X129846Y108484D01*
X129957Y108407D01*
X131000Y107746D01*
Y108379D01*
X130201Y108884D01*
X130195D01*
X130184Y108895D01*
X130167Y108906D01*
X130145Y108923D01*
X130084Y108962D01*
X130007Y109012D01*
X129923Y109073D01*
X129834Y109134D01*
X129751Y109195D01*
X129674Y109250D01*
X129668Y109256D01*
X129646Y109272D01*
X129613Y109300D01*
X129574Y109339D01*
X129490Y109422D01*
X129452Y109467D01*
X129418Y109511D01*
X129413Y109517D01*
X129407Y109528D01*
X129396Y109550D01*
X129379Y109583D01*
X129363Y109616D01*
X129346Y109655D01*
X129318Y109744D01*
Y109750D01*
X129313Y109761D01*
Y109783D01*
X129307Y109811D01*
X129302Y109850D01*
Y109894D01*
X129296Y109955D01*
Y110022D01*
Y110610D01*
X131000D01*
Y111121D01*
D02*
G37*
G36*
Y107674D02*
X127159Y106209D01*
Y105654D01*
X131000Y104083D01*
Y104660D01*
X129834Y105110D01*
Y106719D01*
X131000Y107136D01*
Y107674D01*
D02*
G37*
%LPD*%
G36*
X130545Y113674D02*
Y113668D01*
Y113657D01*
Y113635D01*
Y113612D01*
Y113579D01*
X130539Y113540D01*
X130534Y113457D01*
X130528Y113363D01*
X130517Y113263D01*
X130500Y113163D01*
X130478Y113080D01*
X130473Y113069D01*
X130467Y113041D01*
X130450Y113002D01*
X130428Y112952D01*
X130395Y112897D01*
X130362Y112841D01*
X130323Y112785D01*
X130279Y112730D01*
X130267Y112724D01*
X130245Y112702D01*
X130206Y112669D01*
X130151Y112630D01*
X130079Y112586D01*
X129996Y112536D01*
X129901Y112491D01*
X129796Y112452D01*
X129790D01*
X129779Y112447D01*
X129762Y112442D01*
X129740Y112436D01*
X129712Y112430D01*
X129674Y112419D01*
X129635Y112408D01*
X129590Y112397D01*
X129479Y112380D01*
X129352Y112364D01*
X129207Y112353D01*
X129052Y112347D01*
X128997D01*
X128952Y112353D01*
X128902D01*
X128847Y112358D01*
X128780Y112364D01*
X128713Y112369D01*
X128564Y112397D01*
X128408Y112430D01*
X128264Y112480D01*
X128192Y112514D01*
X128131Y112547D01*
X128125D01*
X128114Y112558D01*
X128097Y112569D01*
X128075Y112580D01*
X128020Y112625D01*
X127953Y112680D01*
X127881Y112752D01*
X127809Y112836D01*
X127748Y112930D01*
X127698Y113030D01*
X127692Y113041D01*
X127687Y113069D01*
X127670Y113119D01*
X127653Y113191D01*
X127642Y113279D01*
X127626Y113391D01*
X127620Y113457D01*
Y113529D01*
X127614Y113601D01*
Y113685D01*
Y114489D01*
X130545D01*
Y113674D01*
D02*
G37*
G36*
X128858Y109522D02*
Y109517D01*
Y109505D01*
Y109489D01*
Y109467D01*
X128852Y109400D01*
X128847Y109322D01*
X128841Y109233D01*
X128830Y109145D01*
X128813Y109056D01*
X128791Y108978D01*
X128786Y108967D01*
X128774Y108945D01*
X128758Y108912D01*
X128736Y108867D01*
X128702Y108817D01*
X128663Y108767D01*
X128613Y108717D01*
X128558Y108678D01*
X128552Y108673D01*
X128530Y108662D01*
X128497Y108645D01*
X128453Y108623D01*
X128403Y108606D01*
X128347Y108590D01*
X128280Y108579D01*
X128214Y108573D01*
X128203D01*
X128170Y108579D01*
X128120Y108584D01*
X128053Y108595D01*
X127986Y108623D01*
X127909Y108656D01*
X127837Y108706D01*
X127764Y108773D01*
X127759Y108784D01*
X127737Y108812D01*
X127709Y108856D01*
X127675Y108928D01*
X127642Y109012D01*
X127614Y109123D01*
X127592Y109250D01*
X127587Y109400D01*
Y110610D01*
X128858D01*
Y109522D01*
D02*
G37*
G36*
X129418Y105271D02*
X128364Y105670D01*
X128358D01*
X128342Y105676D01*
X128314Y105687D01*
X128280Y105698D01*
X128242Y105715D01*
X128192Y105731D01*
X128136Y105748D01*
X128081Y105770D01*
X127953Y105815D01*
X127820Y105859D01*
X127687Y105903D01*
X127559Y105942D01*
X127565D01*
X127576Y105948D01*
X127598D01*
X127620Y105959D01*
X127659Y105965D01*
X127698Y105976D01*
X127792Y105998D01*
X127903Y106026D01*
X128025Y106064D01*
X128158Y106103D01*
X128297Y106153D01*
X129418Y106570D01*
Y105271D01*
D02*
G37*
M02*
